  0
SECTION
  2
HEADER
  9
$ACADVER
  1
AC1032
  9
$ACADMAINTVER
 90
      329
  9
$DWGCODEPAGE
  3
ANSI_1252
  9
$REQUIREDVERSIONS
160
                 0
  9
$INSBASE
 10
0.0
 20
0.0
 30
0.0
  9
$EXTMIN
 10
1.000000000000000E+20
 20
1.000000000000000E+20
 30
1.000000000000000E+20
  9
$EXTMAX
 10
-1.000000000000000E+20
 20
-1.000000000000000E+20
 30
-1.000000000000000E+20
  9
$LIMMIN
 10
0.0
 20
0.0
  9
$LIMMAX
 10
12.0
 20
9.0
  9
$ORTHOMODE
 70
     0
  9
$REGENMODE
 70
     1
  9
$FILLMODE
 70
     1
  9
$QTEXTMODE
 70
     0
  9
$MIRRTEXT
 70
     0
  9
$LTSCALE
 40
1.0
  9
$ATTMODE
 70
     1
  9
$TEXTSIZE
 40
0.2
  9
$TRACEWID
 40
0.05
  9
$TEXTSTYLE
  7
Standard
  9
$CLAYER
  8
0
  9
$CELTYPE
  6
ByLayer
  9
$CECOLOR
 62
   256
  9
$CELTSCALE
 40
1.0
  9
$DISPSILH
 70
     0
  9
$DIMSCALE
 40
1.0
  9
$DIMASZ
 40
0.18
  9
$DIMEXO
 40
0.0625
  9
$DIMDLI
 40
0.38
  9
$DIMRND
 40
0.0
  9
$DIMDLE
 40
0.0
  9
$DIMEXE
 40
0.18
  9
$DIMTP
 40
0.0
  9
$DIMTM
 40
0.0
  9
$DIMTXT
 40
0.18
  9
$DIMCEN
 40
0.09
  9
$DIMTSZ
 40
0.0
  9
$DIMTOL
 70
     0
  9
$DIMLIM
 70
     0
  9
$DIMTIH
 70
     1
  9
$DIMTOH
 70
     1
  9
$DIMSE1
 70
     0
  9
$DIMSE2
 70
     0
  9
$DIMTAD
 70
     0
  9
$DIMZIN
 70
     0
  9
$DIMBLK
  1

  9
$DIMASO
 70
     1
  9
$DIMSHO
 70
     1
  9
$DIMPOST
  1

  9
$DIMAPOST
  1

  9
$DIMALT
 70
     0
  9
$DIMALTD
 70
     2
  9
$DIMALTF
 40
25.4
  9
$DIMLFAC
 40
1.0
  9
$DIMTOFL
 70
     0
  9
$DIMTVP
 40
0.0
  9
$DIMTIX
 70
     0
  9
$DIMSOXD
 70
     0
  9
$DIMSAH
 70
     0
  9
$DIMBLK1
  1

  9
$DIMBLK2
  1

  9
$DIMSTYLE
  2
Standard
  9
$DIMCLRD
 70
     0
  9
$DIMCLRE
 70
     0
  9
$DIMCLRT
 70
     0
  9
$DIMTFAC
 40
1.0
  9
$DIMGAP
 40
0.09
  9
$DIMJUST
 70
     0
  9
$DIMSD1
 70
     0
  9
$DIMSD2
 70
     0
  9
$DIMTOLJ
 70
     1
  9
$DIMTZIN
 70
     0
  9
$DIMALTZ
 70
     0
  9
$DIMALTTZ
 70
     0
  9
$DIMUPT
 70
     0
  9
$DIMDEC
 70
     4
  9
$DIMTDEC
 70
     4
  9
$DIMALTU
 70
     2
  9
$DIMALTTD
 70
     2
  9
$DIMTXSTY
  7
Standard
  9
$DIMAUNIT
 70
     0
  9
$DIMADEC
 70
     0
  9
$DIMALTRND
 40
0.0
  9
$DIMAZIN
 70
     0
  9
$DIMDSEP
 70
    46
  9
$DIMATFIT
 70
     3
  9
$DIMFRAC
 70
     0
  9
$DIMLDRBLK
  1

  9
$DIMLUNIT
 70
     2
  9
$DIMLWD
 70
    -2
  9
$DIMLWE
 70
    -2
  9
$DIMTMOVE
 70
     0
  9
$DIMFXL
 40
1.0
  9
$DIMFXLON
 70
     0
  9
$DIMJOGANG
 40
0.7853981633974483
  9
$DIMTFILL
 70
     0
  9
$DIMTFILLCLR
 70
     0
  9
$DIMARCSYM
 70
     0
  9
$DIMLTYPE
  6

  9
$DIMLTEX1
  6

  9
$DIMLTEX2
  6

  9
$DIMTXTDIRECTION
 70
     0
  9
$LUNITS
 70
     2
  9
$LUPREC
 70
     4
  9
$SKETCHINC
 40
0.1
  9
$FILLETRAD
 40
0.0
  9
$AUNITS
 70
     0
  9
$AUPREC
 70
     0
  9
$MENU
  1
.
  9
$ELEVATION
 40
0.0
  9
$PELEVATION
 40
0.0
  9
$THICKNESS
 40
0.0
  9
$LIMCHECK
 70
     0
  9
$CHAMFERA
 40
0.0
  9
$CHAMFERB
 40
0.0
  9
$CHAMFERC
 40
0.0
  9
$CHAMFERD
 40
0.0
  9
$SKPOLY
 70
     0
  9
$TDCREATE
 40
2461049.619409722
  9
$TDUCREATE
 40
2461049.577743056
  9
$TDUPDATE
 40
2461049.619409722
  9
$TDUUPDATE
 40
2461049.577743056
  9
$TDINDWG
 40
0.0000000000
  9
$TDUSRTIMER
 40
0.0000000000
  9
$USRTIMER
 70
     1
  9
$ANGBASE
 50
0.0
  9
$ANGDIR
 70
     0
  9
$PDMODE
 70
     0
  9
$PDSIZE
 40
0.0
  9
$PLINEWID
 40
0.0
  9
$SPLFRAME
 70
     0
  9
$SPLINETYPE
 70
     6
  9
$SPLINESEGS
 70
     8
  9
$HANDSEED
  5
1D0
  9
$SURFTAB1
 70
     6
  9
$SURFTAB2
 70
     6
  9
$SURFTYPE
 70
     6
  9
$SURFU
 70
     6
  9
$SURFV
 70
     6
  9
$UCSBASE
  2

  9
$UCSNAME
  2

  9
$UCSORG
 10
0.0
 20
0.0
 30
0.0
  9
$UCSXDIR
 10
1.0
 20
0.0
 30
0.0
  9
$UCSYDIR
 10
0.0
 20
1.0
 30
0.0
  9
$UCSORTHOREF
  2

  9
$UCSORTHOVIEW
 70
     0
  9
$UCSORGTOP
 10
0.0
 20
0.0
 30
0.0
  9
$UCSORGBOTTOM
 10
0.0
 20
0.0
 30
0.0
  9
$UCSORGLEFT
 10
0.0
 20
0.0
 30
0.0
  9
$UCSORGRIGHT
 10
0.0
 20
0.0
 30
0.0
  9
$UCSORGFRONT
 10
0.0
 20
0.0
 30
0.0
  9
$UCSORGBACK
 10
0.0
 20
0.0
 30
0.0
  9
$PUCSBASE
  2

  9
$PUCSNAME
  2

  9
$PUCSORG
 10
0.0
 20
0.0
 30
0.0
  9
$PUCSXDIR
 10
1.0
 20
0.0
 30
0.0
  9
$PUCSYDIR
 10
0.0
 20
1.0
 30
0.0
  9
$PUCSORTHOREF
  2

  9
$PUCSORTHOVIEW
 70
     0
  9
$PUCSORGTOP
 10
0.0
 20
0.0
 30
0.0
  9
$PUCSORGBOTTOM
 10
0.0
 20
0.0
 30
0.0
  9
$PUCSORGLEFT
 10
0.0
 20
0.0
 30
0.0
  9
$PUCSORGRIGHT
 10
0.0
 20
0.0
 30
0.0
  9
$PUCSORGFRONT
 10
0.0
 20
0.0
 30
0.0
  9
$PUCSORGBACK
 10
0.0
 20
0.0
 30
0.0
  9
$USERI1
 70
     0
  9
$USERI2
 70
     0
  9
$USERI3
 70
     0
  9
$USERI4
 70
     0
  9
$USERI5
 70
     0
  9
$USERR1
 40
0.0
  9
$USERR2
 40
0.0
  9
$USERR3
 40
0.0
  9
$USERR4
 40
0.0
  9
$USERR5
 40
0.0
  9
$WORLDVIEW
 70
     1
  9
$SHADEDGE
 70
     3
  9
$SHADEDIF
 70
    70
  9
$TILEMODE
 70
     1
  9
$MAXACTVP
 70
    64
  9
$PINSBASE
 10
0.0
 20
0.0
 30
0.0
  9
$PLIMCHECK
 70
     0
  9
$PEXTMIN
 10
1.000000000000000E+20
 20
1.000000000000000E+20
 30
1.000000000000000E+20
  9
$PEXTMAX
 10
-1.000000000000000E+20
 20
-1.000000000000000E+20
 30
-1.000000000000000E+20
  9
$PLIMMIN
 10
0.0
 20
0.0
  9
$PLIMMAX
 10
12.0
 20
9.0
  9
$UNITMODE
 70
     0
  9
$VISRETAIN
 70
     1
  9
$PLINEGEN
 70
     0
  9
$PSLTSCALE
 70
     1
  9
$TREEDEPTH
 70
  3020
  9
$CMLSTYLE
  2
Standard
  9
$CMLJUST
 70
     0
  9
$CMLSCALE
 40
1.0
  9
$PROXYGRAPHICS
 70
     1
  9
$MEASUREMENT
 70
     0
  9
$CELWEIGHT
370
    -1
  9
$ENDCAPS
280
     0
  9
$JOINSTYLE
280
     0
  9
$LWDISPLAY
290
     1
  9
$INSUNITS
 70
     4
  9
$HYPERLINKBASE
  1

  9
$STYLESHEET
  1

  9
$XEDIT
290
     1
  9
$CEPSNTYPE
380
     0
  9
$PSTYLEMODE
290
     1
  9
$FINGERPRINTGUID
  2
{5566E078-BFB3-6043-8931-BAA640212E0F}
  9
$VERSIONGUID
  2
{20EC950D-1E6A-D145-8219-9B4B4489B270}
  9
$EXTNAMES
290
     1
  9
$PSVPSCALE
 40
0.0
  9
$OLESTARTUP
290
     0
  9
$SORTENTS
280
   127
  9
$INDEXCTL
280
     0
  9
$HIDETEXT
280
     1
  9
$XCLIPFRAME
280
     2
  9
$HALOGAP
280
     0
  9
$OBSCOLOR
 70
   257
  9
$OBSLTYPE
280
     0
  9
$INTERSECTIONDISPLAY
280
     0
  9
$INTERSECTIONCOLOR
 70
   257
  9
$DIMASSOC
280
     2
  9
$PROJECTNAME
  1

  9
$CAMERADISPLAY
290
     0
  9
$LENSLENGTH
 40
50.0
  9
$CAMERAHEIGHT
 40
0.0
  9
$STEPSPERSEC
 40
2.0
  9
$STEPSIZE
 40
6.0
  9
$3DDWFPREC
 40
2.0
  9
$PSOLWIDTH
 40
0.25
  9
$PSOLHEIGHT
 40
4.0
  9
$LOFTANG1
 40
1.570796326794896
  9
$LOFTANG2
 40
1.570796326794896
  9
$LOFTMAG1
 40
0.0
  9
$LOFTMAG2
 40
0.0
  9
$LOFTPARAM
 70
     7
  9
$LOFTNORMALS
280
     1
  9
$LATITUDE
 40
37.795
  9
$LONGITUDE
 40
-122.394
  9
$NORTHDIRECTION
 40
0.0
  9
$TIMEZONE
 70
 -8000
  9
$LIGHTGLYPHDISPLAY
280
     1
  9
$TILEMODELIGHTSYNCH
280
     1
  9
$CMATERIAL
347
11
  9
$SOLIDHIST
280
     0
  9
$SHOWHIST
280
     1
  9
$DWFFRAME
280
     2
  9
$DGNFRAME
280
     0
  9
$REALWORLDSCALE
290
     1
  9
$INTERFERECOLOR
 62
     1
  9
$INTERFEREOBJVS
345
33
  9
$INTERFEREVPVS
346
30
  9
$CSHADOW
280
     0
  9
$SHADOWPLANELOCATION
 40
0.0
  0
ENDSEC
  0
SECTION
  2
CLASSES
  0
CLASS
  1
ACDBDICTIONARYWDFLT
  2
AcDbDictionaryWithDefault
  3
ObjectDBX Classes
 90
        0
 91
        1
280
     0
281
     0
  0
CLASS
  1
MATERIAL
  2
AcDbMaterial
  3
ObjectDBX Classes
 90
     1153
 91
        3
280
     0
281
     0
  0
CLASS
  1
VISUALSTYLE
  2
AcDbVisualStyle
  3
ObjectDBX Classes
 90
     4095
 91
       24
280
     0
281
     0
  0
CLASS
  1
SCALE
  2
AcDbScale
  3
ObjectDBX Classes
 90
     1153
 91
       17
280
     0
281
     0
  0
CLASS
  1
TABLESTYLE
  2
AcDbTableStyle
  3
ObjectDBX Classes
 90
     4095
 91
        1
280
     0
281
     0
  0
CLASS
  1
MLEADERSTYLE
  2
AcDbMLeaderStyle
  3
ACDB_MLEADERSTYLE_CLASS
 90
     4095
 91
        1
280
     0
281
     0
  0
CLASS
  1
ACDBSECTIONVIEWSTYLE
  2
AcDbSectionViewStyle
  3
ObjectDBX Classes
 90
     1025
 91
        1
280
     0
281
     0
  0
CLASS
  1
ACDBDETAILVIEWSTYLE
  2
AcDbDetailViewStyle
  3
ObjectDBX Classes
 90
     1025
 91
        1
280
     0
281
     0
  0
CLASS
  1
DICTIONARYVAR
  2
AcDbDictionaryVar
  3
ObjectDBX Classes
 90
        0
 91
        5
280
     0
281
     0
  0
CLASS
  1
CELLSTYLEMAP
  2
AcDbCellStyleMap
  3
ObjectDBX Classes
 90
     1152
 91
        1
280
     0
281
     0
  0
ENDSEC
  0
SECTION
  2
TABLES
  0
TABLE
  2
VPORT
  5
8
330
0
100
AcDbSymbolTable
 70
     1
  0
VPORT
  5
57
330
8
100
AcDbSymbolTableRecord
100
AcDbViewportTableRecord
  2
*Active
 70
     0
 10
0.0
 20
0.0
 11
1.0
 21
1.0
 12
0.0
 22
0.0
 13
0.0
 23
0.0
 14
1.0
 24
1.0
 15
0.0
 25
0.0
 16
0.0
 26
0.0
 36
1.0
 17
499.9999998749997
 27
299.999999925
 37
0.0
 40
254.99999993625
 41
2.4
 42
50.0
 43
0.0
 44
0.0
 50
0.0
 51
0.0
 71
     0
 72
   100
 73
     1
 74
     1
 75
     0
 76
     0
 77
     0
 78
     0
281
     0
 65
     1
110
0.0
120
0.0
130
0.0
111
1.0
121
0.0
131
0.0
112
0.0
122
1.0
132
0.0
 79
     0
146
0.0
 60
     3
 61
     5
292
     1
282
     1
141
0.0
142
0.0
 63
   250
421
  3355443
  0
ENDTAB
  0
TABLE
  2
LTYPE
  5
5
330
0
100
AcDbSymbolTable
 70
     1
  0
LTYPE
  5
5B
330
5
100
AcDbSymbolTableRecord
100
AcDbLinetypeTableRecord
  2
ByBlock
 70
     0
  3

 72
    65
 73
     0
 40
0.0
  0
LTYPE
  5
5C
330
5
100
AcDbSymbolTableRecord
100
AcDbLinetypeTableRecord
  2
ByLayer
 70
     0
  3

 72
    65
 73
     0
 40
0.0
  0
LTYPE
  5
5D
330
5
100
AcDbSymbolTableRecord
100
AcDbLinetypeTableRecord
  2
Continuous
 70
     0
  3
Solid line
 72
    65
 73
     0
 40
0.0
  0
ENDTAB
  0
TABLE
  2
LAYER
  5
2
330
0
100
AcDbSymbolTable
 70
     1
  0
LAYER
  5
54
330
2
100
AcDbSymbolTableRecord
100
AcDbLayerTableRecord
  2
0
 70
     0
 62
     7
  6
Continuous
370
     0
390
F
347
21
348
0
  0
ENDTAB
  0
TABLE
  2
STYLE
  5
3
330
0
100
AcDbSymbolTable
 70
     2
  0
STYLE
  5
55
330
3
100
AcDbSymbolTableRecord
100
AcDbTextStyleTableRecord
  2
Standard
 70
     0
 40
0.0
 41
1.0
 50
0.0
 71
     0
 42
0.2
  3
txt
  4

  0
STYLE
  5
5A
330
3
100
AcDbSymbolTableRecord
100
AcDbTextStyleTableRecord
  2
Annotative
 70
     0
 40
0.0
 41
1.0
 50
0.0
 71
     0
 42
0.2
  3
txt
  4

1001
AcadAnnotative
1000
AnnotativeData
1002
{
1070
     1
1070
     1
1002
}
  0
ENDTAB
  0
TABLE
  2
VIEW
  5
6
330
0
100
AcDbSymbolTable
 70
     0
  0
ENDTAB
  0
TABLE
  2
UCS
  5
7
330
0
100
AcDbSymbolTable
 70
     0
  0
ENDTAB
  0
TABLE
  2
APPID
  5
9
330
0
100
AcDbSymbolTable
 70
     2
  0
APPID
  5
56
330
9
100
AcDbSymbolTableRecord
100
AcDbRegAppTableRecord
  2
ACAD
 70
     0
  0
APPID
  5
5E
330
9
100
AcDbSymbolTableRecord
100
AcDbRegAppTableRecord
  2
AcadAnnotative
 70
     0
  0
ENDTAB
  0
TABLE
  2
DIMSTYLE
  5
A
330
0
100
AcDbSymbolTable
 70
     2
100
AcDbDimStyleTable
 71
     0
  0
DIMSTYLE
105
58
330
A
100
AcDbSymbolTableRecord
100
AcDbDimStyleTableRecord
  2
Standard
 70
     0
340
55
  0
DIMSTYLE
105
59
330
A
100
AcDbSymbolTableRecord
100
AcDbDimStyleTableRecord
  2
Annotative
 70
     0
340
55
1001
AcadAnnotative
1000
AnnotativeData
1002
{
1070
     1
1070
     1
1002
}
  0
ENDTAB
  0
TABLE
  2
BLOCK_RECORD
  5
1
330
0
100
AcDbSymbolTable
 70
    10
  0
BLOCK_RECORD
  5
70
330
1
100
AcDbSymbolTableRecord
100
AcDbBlockTableRecord
  2
*Model_Space
340
73
 70
     0
280
     1
281
     0
  0
BLOCK_RECORD
  5
6C
330
1
100
AcDbSymbolTableRecord
100
AcDbBlockTableRecord
  2
*Paper_Space
340
6F
 70
     0
280
     1
281
     0
  0
BLOCK_RECORD
  5
74
330
1
100
AcDbSymbolTableRecord
100
AcDbBlockTableRecord
  2
*Paper_Space0
340
77
 70
     0
280
     1
281
     0
  0
BLOCK_RECORD
  5
78
330
1
100
AcDbSymbolTableRecord
100
AcDbBlockTableRecord
  2
Block_0
340
0
102
{BLKREFS
331
79
102
}
 70
     0
280
     1
281
     0
  0
BLOCK_RECORD
  5
CD
330
1
100
AcDbSymbolTableRecord
100
AcDbBlockTableRecord
  2
Block_1
340
0
102
{BLKREFS
331
CE
102
}
 70
     0
280
     1
281
     0
  0
BLOCK_RECORD
  5
FB
330
1
100
AcDbSymbolTableRecord
100
AcDbBlockTableRecord
  2
Block_2
340
0
102
{BLKREFS
331
FC
102
}
 70
     0
280
     1
281
     0
  0
BLOCK_RECORD
  5
129
330
1
100
AcDbSymbolTableRecord
100
AcDbBlockTableRecord
  2
Block_3
340
0
102
{BLKREFS
331
12A
102
}
 70
     0
280
     1
281
     0
  0
BLOCK_RECORD
  5
14F
330
1
100
AcDbSymbolTableRecord
100
AcDbBlockTableRecord
  2
Block_4
340
0
102
{BLKREFS
331
150
102
}
 70
     0
280
     1
281
     0
  0
BLOCK_RECORD
  5
15B
330
1
100
AcDbSymbolTableRecord
100
AcDbBlockTableRecord
  2
Block_5
340
0
102
{BLKREFS
331
15C
102
}
 70
     0
280
     1
281
     0
  0
BLOCK_RECORD
  5
167
330
1
100
AcDbSymbolTableRecord
100
AcDbBlockTableRecord
  2
Block_6
340
0
102
{BLKREFS
331
168
102
}
 70
     0
280
     1
281
     0
  0
BLOCK_RECORD
  5
18F
330
1
100
AcDbSymbolTableRecord
100
AcDbBlockTableRecord
  2
Block_7
340
0
102
{BLKREFS
331
190
102
}
 70
     0
280
     1
281
     0
  0
BLOCK_RECORD
  5
1AB
330
1
100
AcDbSymbolTableRecord
100
AcDbBlockTableRecord
  2
Block_8
340
0
102
{BLKREFS
331
1AC
102
}
 70
     0
280
     1
281
     0
  0
ENDTAB
  0
ENDSEC
  0
SECTION
  2
BLOCKS
  0
BLOCK
  5
71
330
70
100
AcDbEntity
  8
0
100
AcDbBlockBegin
  2
*Model_Space
 70
     0
 10
0.0
 20
0.0
 30
0.0
  3
*Model_Space
  1

  0
ENDBLK
  5
72
330
70
100
AcDbEntity
  8
0
100
AcDbBlockEnd
  0
BLOCK
  5
6D
330
6C
100
AcDbEntity
 67
     1
  8
0
100
AcDbBlockBegin
  2
*Paper_Space
 70
     0
 10
0.0
 20
0.0
 30
0.0
  3
*Paper_Space
  1

  0
ENDBLK
  5
6E
330
6C
100
AcDbEntity
 67
     1
  8
0
100
AcDbBlockEnd
  0
BLOCK
  5
75
330
74
100
AcDbEntity
 67
     1
  8
0
100
AcDbBlockBegin
  2
*Paper_Space0
 70
     0
 10
0.0
 20
0.0
 30
0.0
  3
*Paper_Space0
  1

  0
ENDBLK
  5
76
330
74
100
AcDbEntity
 67
     1
  8
0
100
AcDbBlockEnd
  0
BLOCK
  5
7A
330
78
100
AcDbEntity
  8
0
100
AcDbBlockBegin
  2
Block_0
 70
     0
 10
0.0
 20
0.0
 30
0.0
  3
Block_0
  1

  0
CIRCLE
  5
7C
330
78
100
AcDbEntity
  8
0
 62
     1
420
 16711680
370
     9
100
AcDbCircle
 10
255.966551383451
 20
349.5897190549975
 30
0.0
 40
2.099999999999873
  0
CIRCLE
  5
7D
330
78
100
AcDbEntity
  8
0
 62
     1
420
 16711680
370
     9
100
AcDbCircle
 10
255.966551383451
 20
329.5897190549976
 30
0.0
 40
2.100000000000114
  0
CIRCLE
  5
7E
330
78
100
AcDbEntity
  8
0
 62
     1
420
 16711680
370
     9
100
AcDbCircle
 10
663.9665513834511
 20
329.5897190549976
 30
0.0
 40
2.099999999999833
  0
CIRCLE
  5
7F
330
78
100
AcDbEntity
  8
0
 62
     1
420
 16711680
370
     9
100
AcDbCircle
 10
663.9665513834511
 20
349.5897190549975
 30
0.0
 40
2.099999999999592
  0
CIRCLE
  5
80
330
78
100
AcDbEntity
  8
0
 62
     1
420
 16711680
370
     9
100
AcDbCircle
 10
467.0165513834508
 20
339.5897190549977
 30
0.0
 40
7.499999999999944
  0
LINE
  5
81
330
78
100
AcDbEntity
  8
0
 62
     1
420
 16711680
370
     9
100
AcDbLine
 10
492.7665513834508
 20
345.1897190549977
 30
0.0
 11
487.0665513834502
 21
345.1897190549977
 31
0.0
  0
LINE
  5
82
330
78
100
AcDbEntity
  8
0
 62
     1
420
 16711680
370
     9
100
AcDbLine
 10
492.7665513834508
 20
360.0897190549976
 30
0.0
 11
492.7665513834508
 21
345.1897190549977
 31
0.0
  0
LINE
  5
83
330
78
100
AcDbEntity
  8
0
 62
     1
420
 16711680
370
     9
100
AcDbLine
 10
487.0665513834502
 20
360.0897190549976
 30
0.0
 11
492.7665513834508
 21
360.0897190549976
 31
0.0
  0
LINE
  5
84
330
78
100
AcDbEntity
  8
0
 62
     1
420
 16711680
370
     9
100
AcDbLine
 10
487.0665513834502
 20
345.1897190549977
 30
0.0
 11
487.0665513834502
 21
360.0897190549976
 31
0.0
  0
LINE
  5
85
330
78
100
AcDbEntity
  8
0
 62
     1
420
 16711680
370
     9
100
AcDbLine
 10
442.166551383451
 20
319.0897190549977
 30
0.0
 11
436.4665513834507
 21
319.0897190549977
 31
0.0
  0
LINE
  5
86
330
78
100
AcDbEntity
  8
0
 62
     1
420
 16711680
370
     9
100
AcDbLine
 10
442.166551383451
 20
333.9897190549976
 30
0.0
 11
442.166551383451
 21
319.0897190549977
 31
0.0
  0
LINE
  5
87
330
78
100
AcDbEntity
  8
0
 62
     1
420
 16711680
370
     9
100
AcDbLine
 10
436.4665513834507
 20
333.9897190549976
 30
0.0
 11
442.166551383451
 21
333.9897190549976
 31
0.0
  0
LINE
  5
88
330
78
100
AcDbEntity
  8
0
 62
     1
420
 16711680
370
     9
100
AcDbLine
 10
436.4665513834507
 20
319.0897190549977
 30
0.0
 11
436.4665513834507
 21
333.9897190549976
 31
0.0
  0
LINE
  5
89
330
78
100
AcDbEntity
  8
0
 62
     1
420
 16711680
370
     9
100
AcDbLine
 10
442.166551383451
 20
345.1897190549977
 30
0.0
 11
436.4665513834507
 21
345.1897190549977
 31
0.0
  0
LINE
  5
8A
330
78
100
AcDbEntity
  8
0
 62
     1
420
 16711680
370
     9
100
AcDbLine
 10
442.166551383451
 20
360.0897190549976
 30
0.0
 11
442.166551383451
 21
345.1897190549977
 31
0.0
  0
LINE
  5
8B
330
78
100
AcDbEntity
  8
0
 62
     1
420
 16711680
370
     9
100
AcDbLine
 10
436.4665513834507
 20
360.0897190549976
 30
0.0
 11
442.166551383451
 21
360.0897190549976
 31
0.0
  0
LINE
  5
8C
330
78
100
AcDbEntity
  8
0
 62
     1
420
 16711680
370
     9
100
AcDbLine
 10
436.4665513834507
 20
345.1897190549977
 30
0.0
 11
436.4665513834507
 21
360.0897190549976
 31
0.0
  0
LINE
  5
8D
330
78
100
AcDbEntity
  8
0
 62
     1
420
 16711680
370
     9
100
AcDbLine
 10
492.7665513834508
 20
319.0897190549977
 30
0.0
 11
487.0665513834502
 21
319.0897190549977
 31
0.0
  0
LINE
  5
8E
330
78
100
AcDbEntity
  8
0
 62
     1
420
 16711680
370
     9
100
AcDbLine
 10
492.7665513834508
 20
333.9897190549976
 30
0.0
 11
492.7665513834508
 21
319.0897190549977
 31
0.0
  0
LINE
  5
8F
330
78
100
AcDbEntity
  8
0
 62
     1
420
 16711680
370
     9
100
AcDbLine
 10
487.0665513834502
 20
333.9897190549976
 30
0.0
 11
492.7665513834508
 21
333.9897190549976
 31
0.0
  0
LINE
  5
90
330
78
100
AcDbEntity
  8
0
 62
     1
420
 16711680
370
     9
100
AcDbLine
 10
487.0665513834502
 20
319.0897190549977
 30
0.0
 11
487.0665513834502
 21
333.9897190549976
 31
0.0
  0
LINE
  5
91
330
78
100
AcDbEntity
  8
0
 62
     1
420
 16711680
370
     9
100
AcDbLine
 10
235.9665513834511
 20
319.0397190549975
 30
0.0
 11
213.4665513834509
 21
319.0397190549975
 31
0.0
  0
LINE
  5
92
330
78
100
AcDbEntity
  8
0
 62
     1
420
 16711680
370
     9
100
AcDbLine
 10
235.9665513834511
 20
360.1397190549977
 30
0.0
 11
235.9665513834511
 21
319.0397190549975
 31
0.0
  0
LINE
  5
93
330
78
100
AcDbEntity
  8
0
 62
     1
420
 16711680
370
     9
100
AcDbLine
 10
213.4665513834509
 20
360.1397190549977
 30
0.0
 11
235.9665513834511
 21
360.1397190549977
 31
0.0
  0
LINE
  5
94
330
78
100
AcDbEntity
  8
0
 62
     1
420
 16711680
370
     9
100
AcDbLine
 10
683.9665513834514
 20
360.1397190549977
 30
0.0
 11
706.4665513834512
 21
360.1397190549977
 31
0.0
  0
LINE
  5
95
330
78
100
AcDbEntity
  8
0
 62
     1
420
 16711680
370
     9
100
AcDbLine
 10
683.9665513834514
 20
319.0397190549975
 30
0.0
 11
683.9665513834514
 21
360.1397190549977
 31
0.0
  0
LINE
  5
96
330
78
100
AcDbEntity
  8
0
 62
     1
420
 16711680
370
     9
100
AcDbLine
 10
706.4665513834512
 20
319.0397190549975
 30
0.0
 11
683.9665513834514
 21
319.0397190549975
 31
0.0
  0
LINE
  5
97
330
78
100
AcDbEntity
  8
0
 62
     1
420
 16711680
370
     9
100
AcDbLine
 10
683.9665513834514
 20
368.2897190549979
 30
0.0
 11
659.1665513834506
 21
368.2897190549979
 31
0.0
  0
LINE
  5
98
330
78
100
AcDbEntity
  8
0
 62
     1
420
 16711680
370
     9
100
AcDbLine
 10
683.9665513834514
 20
373.9897190549978
 30
0.0
 11
683.9665513834514
 21
368.2897190549979
 31
0.0
  0
LINE
  5
99
330
78
100
AcDbEntity
  8
0
 62
     1
420
 16711680
370
     9
100
AcDbLine
 10
659.1665513834506
 20
373.9897190549978
 30
0.0
 11
683.9665513834514
 21
373.9897190549978
 31
0.0
  0
LINE
  5
9A
330
78
100
AcDbEntity
  8
0
 62
     1
420
 16711680
370
     9
100
AcDbLine
 10
659.1665513834506
 20
368.2897190549979
 30
0.0
 11
659.1665513834506
 21
373.9897190549978
 31
0.0
  0
LINE
  5
9B
330
78
100
AcDbEntity
  8
0
 62
     1
420
 16711680
370
     9
100
AcDbLine
 10
553.3665513834513
 20
373.9897190549978
 30
0.0
 11
578.1665513834509
 21
373.9897190549978
 31
0.0
  0
LINE
  5
9C
330
78
100
AcDbEntity
  8
0
 62
     1
420
 16711680
370
     9
100
AcDbLine
 10
553.3665513834513
 20
368.2897190549979
 30
0.0
 11
553.3665513834513
 21
373.9897190549978
 31
0.0
  0
LINE
  5
9D
330
78
100
AcDbEntity
  8
0
 62
     1
420
 16711680
370
     9
100
AcDbLine
 10
578.1665513834509
 20
368.2897190549979
 30
0.0
 11
553.3665513834513
 21
368.2897190549979
 31
0.0
  0
LINE
  5
9E
330
78
100
AcDbEntity
  8
0
 62
     1
420
 16711680
370
     9
100
AcDbLine
 10
578.1665513834509
 20
373.9897190549978
 30
0.0
 11
578.1665513834509
 21
368.2897190549979
 31
0.0
  0
LINE
  5
9F
330
78
100
AcDbEntity
  8
0
 62
     1
420
 16711680
370
     9
100
AcDbLine
 10
447.5665513834508
 20
373.9897190549978
 30
0.0
 11
472.3665513834514
 21
373.9897190549978
 31
0.0
  0
LINE
  5
A0
330
78
100
AcDbEntity
  8
0
 62
     1
420
 16711680
370
     9
100
AcDbLine
 10
447.5665513834508
 20
368.2897190549979
 30
0.0
 11
447.5665513834508
 21
373.9897190549978
 31
0.0
  0
LINE
  5
A1
330
78
100
AcDbEntity
  8
0
 62
     1
420
 16711680
370
     9
100
AcDbLine
 10
472.3665513834514
 20
368.2897190549979
 30
0.0
 11
447.5665513834508
 21
368.2897190549979
 31
0.0
  0
LINE
  5
A2
330
78
100
AcDbEntity
  8
0
 62
     1
420
 16711680
370
     9
100
AcDbLine
 10
472.3665513834514
 20
373.9897190549978
 30
0.0
 11
472.3665513834514
 21
368.2897190549979
 31
0.0
  0
LINE
  5
A3
330
78
100
AcDbEntity
  8
0
 62
     1
420
 16711680
370
     9
100
AcDbLine
 10
366.5665513834509
 20
368.2897190549979
 30
0.0
 11
341.7665513834509
 21
368.2897190549979
 31
0.0
  0
LINE
  5
A4
330
78
100
AcDbEntity
  8
0
 62
     1
420
 16711680
370
     9
100
AcDbLine
 10
366.5665513834509
 20
373.9897190549978
 30
0.0
 11
366.5665513834509
 21
368.2897190549979
 31
0.0
  0
LINE
  5
A5
330
78
100
AcDbEntity
  8
0
 62
     1
420
 16711680
370
     9
100
AcDbLine
 10
341.7665513834509
 20
373.9897190549978
 30
0.0
 11
366.5665513834509
 21
373.9897190549978
 31
0.0
  0
LINE
  5
A6
330
78
100
AcDbEntity
  8
0
 62
     1
420
 16711680
370
     9
100
AcDbLine
 10
341.7665513834509
 20
368.2897190549979
 30
0.0
 11
341.7665513834509
 21
373.9897190549978
 31
0.0
  0
LINE
  5
A7
330
78
100
AcDbEntity
  8
0
 62
     1
420
 16711680
370
     9
100
AcDbLine
 10
260.766551383451
 20
368.2897190549979
 30
0.0
 11
235.9665513834511
 21
368.2897190549979
 31
0.0
  0
LINE
  5
A8
330
78
100
AcDbEntity
  8
0
 62
     1
420
 16711680
370
     9
100
AcDbLine
 10
260.766551383451
 20
373.9897190549978
 30
0.0
 11
260.766551383451
 21
368.2897190549979
 31
0.0
  0
LINE
  5
A9
330
78
100
AcDbEntity
  8
0
 62
     1
420
 16711680
370
     9
100
AcDbLine
 10
235.9665513834511
 20
373.9897190549978
 30
0.0
 11
260.766551383451
 21
373.9897190549978
 31
0.0
  0
LINE
  5
AA
330
78
100
AcDbEntity
  8
0
 62
     1
420
 16711680
370
     9
100
AcDbLine
 10
235.9665513834511
 20
368.2897190549979
 30
0.0
 11
235.9665513834511
 21
373.9897190549978
 31
0.0
  0
LINE
  5
AB
330
78
100
AcDbEntity
  8
0
 62
     1
420
 16711680
370
     9
100
AcDbLine
 10
260.766551383451
 20
305.1897190549976
 30
0.0
 11
235.9665513834511
 21
305.1897190549976
 31
0.0
  0
LINE
  5
AC
330
78
100
AcDbEntity
  8
0
 62
     1
420
 16711680
370
     9
100
AcDbLine
 10
260.766551383451
 20
310.8897190549975
 30
0.0
 11
260.766551383451
 21
305.1897190549976
 31
0.0
  0
LINE
  5
AD
330
78
100
AcDbEntity
  8
0
 62
     1
420
 16711680
370
     9
100
AcDbLine
 10
235.9665513834511
 20
310.8897190549975
 30
0.0
 11
260.766551383451
 21
310.8897190549975
 31
0.0
  0
LINE
  5
AE
330
78
100
AcDbEntity
  8
0
 62
     1
420
 16711680
370
     9
100
AcDbLine
 10
235.9665513834511
 20
305.1897190549976
 30
0.0
 11
235.9665513834511
 21
310.8897190549975
 31
0.0
  0
LINE
  5
AF
330
78
100
AcDbEntity
  8
0
 62
     1
420
 16711680
370
     9
100
AcDbLine
 10
366.5665513834509
 20
305.1897190549976
 30
0.0
 11
341.7665513834509
 21
305.1897190549976
 31
0.0
  0
LINE
  5
B0
330
78
100
AcDbEntity
  8
0
 62
     1
420
 16711680
370
     9
100
AcDbLine
 10
366.5665513834509
 20
310.8897190549975
 30
0.0
 11
366.5665513834509
 21
305.1897190549976
 31
0.0
  0
LINE
  5
B1
330
78
100
AcDbEntity
  8
0
 62
     1
420
 16711680
370
     9
100
AcDbLine
 10
341.7665513834509
 20
310.8897190549975
 30
0.0
 11
366.5665513834509
 21
310.8897190549975
 31
0.0
  0
LINE
  5
B2
330
78
100
AcDbEntity
  8
0
 62
     1
420
 16711680
370
     9
100
AcDbLine
 10
341.7665513834509
 20
305.1897190549976
 30
0.0
 11
341.7665513834509
 21
310.8897190549975
 31
0.0
  0
LINE
  5
B3
330
78
100
AcDbEntity
  8
0
 62
     1
420
 16711680
370
     9
100
AcDbLine
 10
472.3665513834514
 20
305.1897190549976
 30
0.0
 11
447.5665513834508
 21
305.1897190549976
 31
0.0
  0
LINE
  5
B4
330
78
100
AcDbEntity
  8
0
 62
     1
420
 16711680
370
     9
100
AcDbLine
 10
472.3665513834514
 20
310.8897190549975
 30
0.0
 11
472.3665513834514
 21
305.1897190549976
 31
0.0
  0
LINE
  5
B5
330
78
100
AcDbEntity
  8
0
 62
     1
420
 16711680
370
     9
100
AcDbLine
 10
447.5665513834508
 20
310.8897190549975
 30
0.0
 11
472.3665513834514
 21
310.8897190549975
 31
0.0
  0
LINE
  5
B6
330
78
100
AcDbEntity
  8
0
 62
     1
420
 16711680
370
     9
100
AcDbLine
 10
447.5665513834508
 20
305.1897190549976
 30
0.0
 11
447.5665513834508
 21
310.8897190549975
 31
0.0
  0
LINE
  5
B7
330
78
100
AcDbEntity
  8
0
 62
     1
420
 16711680
370
     9
100
AcDbLine
 10
578.1665513834509
 20
305.1897190549976
 30
0.0
 11
553.3665513834513
 21
305.1897190549976
 31
0.0
  0
LINE
  5
B8
330
78
100
AcDbEntity
  8
0
 62
     1
420
 16711680
370
     9
100
AcDbLine
 10
578.1665513834509
 20
310.8897190549975
 30
0.0
 11
578.1665513834509
 21
305.1897190549976
 31
0.0
  0
LINE
  5
B9
330
78
100
AcDbEntity
  8
0
 62
     1
420
 16711680
370
     9
100
AcDbLine
 10
553.3665513834513
 20
310.8897190549975
 30
0.0
 11
578.1665513834509
 21
310.8897190549975
 31
0.0
  0
LINE
  5
BA
330
78
100
AcDbEntity
  8
0
 62
     1
420
 16711680
370
     9
100
AcDbLine
 10
553.3665513834513
 20
305.1897190549976
 30
0.0
 11
553.3665513834513
 21
310.8897190549975
 31
0.0
  0
LINE
  5
BB
330
78
100
AcDbEntity
  8
0
 62
     1
420
 16711680
370
     9
100
AcDbLine
 10
683.9665513834514
 20
305.1897190549976
 30
0.0
 11
659.1665513834506
 21
305.1897190549976
 31
0.0
  0
LINE
  5
BC
330
78
100
AcDbEntity
  8
0
 62
     1
420
 16711680
370
     9
100
AcDbLine
 10
683.9665513834514
 20
310.8897190549975
 30
0.0
 11
683.9665513834514
 21
305.1897190549976
 31
0.0
  0
LINE
  5
BD
330
78
100
AcDbEntity
  8
0
 62
     1
420
 16711680
370
     9
100
AcDbLine
 10
659.1665513834506
 20
310.8897190549975
 30
0.0
 11
683.9665513834514
 21
310.8897190549975
 31
0.0
  0
LINE
  5
BE
330
78
100
AcDbEntity
  8
0
 62
     1
420
 16711680
370
     9
100
AcDbLine
 10
659.1665513834506
 20
305.1897190549976
 30
0.0
 11
659.1665513834506
 21
310.8897190549975
 31
0.0
  0
LINE
  5
BF
330
78
100
AcDbEntity
  8
0
 62
     1
420
 16711680
370
     9
100
AcDbLine
 10
708.9665513834517
 20
299.5397190549978
 30
0.0
 11
708.9665513834517
 21
316.5397190549978
 31
0.0
  0
LINE
  5
C0
330
78
100
AcDbEntity
  8
0
 62
     1
420
 16711680
370
     9
100
AcDbLine
 10
213.4665513834509
 20
297.0397190549974
 30
0.0
 11
706.4665513834512
 21
297.0397190549974
 31
0.0
  0
LINE
  5
C1
330
78
100
AcDbEntity
  8
0
 62
     1
420
 16711680
370
     9
100
AcDbLine
 10
210.9665513834508
 20
316.5397190549978
 30
0.0
 11
210.9665513834508
 21
299.5397190549978
 31
0.0
  0
LINE
  5
C2
330
78
100
AcDbEntity
  8
0
 62
     1
420
 16711680
370
     9
100
AcDbLine
 10
706.4665513834512
 20
382.1397190549978
 30
0.0
 11
213.4665513834509
 21
382.1397190549978
 31
0.0
  0
LINE
  5
C3
330
78
100
AcDbEntity
  8
0
 62
     1
420
 16711680
370
     9
100
AcDbLine
 10
708.9665513834517
 20
362.6397190549975
 30
0.0
 11
708.9665513834517
 21
379.6397190549975
 31
0.0
  0
LINE
  5
C4
330
78
100
AcDbEntity
  8
0
 62
     1
420
 16711680
370
     9
100
AcDbLine
 10
210.9665513834508
 20
379.6397190549975
 30
0.0
 11
210.9665513834508
 21
362.6397190549975
 31
0.0
  0
SPLINE
  5
C5
330
78
100
AcDbEntity
  8
0
 62
     1
420
 16711680
370
     9
100
AcDbSpline
210
0.0
220
0.0
230
1.0
 70
     8
 71
     3
 72
     8
 73
     4
 74
     0
 42
0.0000000001
 43
0.0000000001
 40
0.0
 40
0.0
 40
0.0
 40
0.0
 40
1.0
 40
1.0
 40
1.0
 40
1.0
 10
213.4665513834509
 20
319.0397190549975
 30
0.0
 10
212.0858395088738
 20
319.0397190549975
 30
0.0
 10
210.9665513834508
 20
317.9204309295749
 30
0.0
 10
210.9665513834508
 20
316.5397190549978
 30
0.0
  0
SPLINE
  5
C6
330
78
100
AcDbEntity
  8
0
 62
     1
420
 16711680
370
     9
100
AcDbSpline
210
0.0
220
0.0
230
1.0
 70
     8
 71
     3
 72
     8
 73
     4
 74
     0
 42
0.0000000001
 43
0.0000000001
 40
0.0
 40
0.0
 40
0.0
 40
0.0
 40
1.0
 40
1.0
 40
1.0
 40
1.0
 10
210.9665513834508
 20
362.6397190549975
 30
0.0
 10
210.9665513834508
 20
361.2590071804204
 30
0.0
 10
212.0858395088738
 20
360.1397190549977
 30
0.0
 10
213.4665513834509
 20
360.1397190549977
 30
0.0
  0
SPLINE
  5
C7
330
78
100
AcDbEntity
  8
0
 62
     1
420
 16711680
370
     9
100
AcDbSpline
210
0.0
220
0.0
230
1.0
 70
     8
 71
     3
 72
     8
 73
     4
 74
     0
 42
0.0000000001
 43
0.0000000001
 40
0.0
 40
0.0
 40
0.0
 40
0.0
 40
1.0
 40
1.0
 40
1.0
 40
1.0
 10
213.4665513834509
 20
382.1397190549978
 30
0.0
 10
212.0858395088738
 20
382.1397190549978
 30
0.0
 10
210.9665513834508
 20
381.0204309295745
 30
0.0
 10
210.9665513834508
 20
379.6397190549975
 30
0.0
  0
SPLINE
  5
C8
330
78
100
AcDbEntity
  8
0
 62
     1
420
 16711680
370
     9
100
AcDbSpline
210
0.0
220
0.0
230
1.0
 70
     8
 71
     3
 72
     8
 73
     4
 74
     0
 42
0.0000000001
 43
0.0000000001
 40
0.0
 40
0.0
 40
0.0
 40
0.0
 40
1.0
 40
1.0
 40
1.0
 40
1.0
 10
708.9665513834517
 20
379.6397190549975
 30
0.0
 10
708.9665513834517
 20
381.0204309295745
 30
0.0
 10
707.8472632580282
 20
382.1397190549978
 30
0.0
 10
706.4665513834512
 20
382.1397190549978
 30
0.0
  0
SPLINE
  5
C9
330
78
100
AcDbEntity
  8
0
 62
     1
420
 16711680
370
     9
100
AcDbSpline
210
0.0
220
0.0
230
1.0
 70
     8
 71
     3
 72
     8
 73
     4
 74
     0
 42
0.0000000001
 43
0.0000000001
 40
0.0
 40
0.0
 40
0.0
 40
0.0
 40
1.0
 40
1.0
 40
1.0
 40
1.0
 10
706.4665513834512
 20
360.1397190549977
 30
0.0
 10
707.8472632580282
 20
360.1397190549977
 30
0.0
 10
708.9665513834517
 20
361.2590071804204
 30
0.0
 10
708.9665513834517
 20
362.6397190549975
 30
0.0
  0
SPLINE
  5
CA
330
78
100
AcDbEntity
  8
0
 62
     1
420
 16711680
370
     9
100
AcDbSpline
210
0.0
220
0.0
230
1.0
 70
     8
 71
     3
 72
     8
 73
     4
 74
     0
 42
0.0000000001
 43
0.0000000001
 40
0.0
 40
0.0
 40
0.0
 40
0.0
 40
1.0
 40
1.0
 40
1.0
 40
1.0
 10
708.9665513834517
 20
316.5397190549978
 30
0.0
 10
708.9665513834517
 20
317.9204309295749
 30
0.0
 10
707.8472632580282
 20
319.0397190549975
 30
0.0
 10
706.4665513834512
 20
319.0397190549975
 30
0.0
  0
SPLINE
  5
CB
330
78
100
AcDbEntity
  8
0
 62
     1
420
 16711680
370
     9
100
AcDbSpline
210
0.0
220
0.0
230
1.0
 70
     8
 71
     3
 72
     8
 73
     4
 74
     0
 42
0.0000000001
 43
0.0000000001
 40
0.0
 40
0.0
 40
0.0
 40
0.0
 40
1.0
 40
1.0
 40
1.0
 40
1.0
 10
706.4665513834512
 20
297.0397190549974
 30
0.0
 10
707.8472632580282
 20
297.0397190549974
 30
0.0
 10
708.9665513834517
 20
298.1590071804208
 30
0.0
 10
708.9665513834517
 20
299.5397190549978
 30
0.0
  0
SPLINE
  5
CC
330
78
100
AcDbEntity
  8
0
 62
     1
420
 16711680
370
     9
100
AcDbSpline
210
0.0
220
0.0
230
1.0
 70
     8
 71
     3
 72
     8
 73
     4
 74
     0
 42
0.0000000001
 43
0.0000000001
 40
0.0
 40
0.0
 40
0.0
 40
0.0
 40
1.0
 40
1.0
 40
1.0
 40
1.0
 10
210.9665513834508
 20
299.5397190549978
 30
0.0
 10
210.9665513834508
 20
298.1590071804208
 30
0.0
 10
212.0858395088738
 20
297.0397190549974
 30
0.0
 10
213.4665513834509
 20
297.0397190549974
 30
0.0
  0
ENDBLK
  5
7B
330
78
100
AcDbEntity
  8
0
100
AcDbBlockEnd
  0
BLOCK
  5
CF
330
CD
100
AcDbEntity
  8
0
100
AcDbBlockBegin
  2
Block_1
 70
     0
 10
0.0
 20
0.0
 30
0.0
  3
Block_1
  1

  0
LINE
  5
D1
330
CD
100
AcDbEntity
  8
0
 62
     1
420
 16711680
370
     9
100
AcDbLine
 10
264.406819283758
 20
417.4475204646105
 30
0.0
 11
264.406819283758
 21
411.647520464611
 31
0.0
  0
LINE
  5
D2
330
CD
100
AcDbEntity
  8
0
 62
     1
420
 16711680
370
     9
100
AcDbLine
 10
264.406819283758
 20
411.647520464611
 30
0.0
 11
304.4068192837578
 21
411.647520464611
 31
0.0
  0
LINE
  5
D3
330
CD
100
AcDbEntity
  8
0
 62
     1
420
 16711680
370
     9
100
AcDbLine
 10
304.4068192837578
 20
411.647520464611
 30
0.0
 11
304.4068192837578
 21
417.4475204646105
 31
0.0
  0
LINE
  5
D4
330
CD
100
AcDbEntity
  8
0
 62
     1
420
 16711680
370
     9
100
AcDbLine
 10
672.4068192837611
 20
417.4475204646105
 30
0.0
 11
672.4068192837611
 21
411.647520464611
 31
0.0
  0
LINE
  5
D5
330
CD
100
AcDbEntity
  8
0
 62
     1
420
 16711680
370
     9
100
AcDbLine
 10
672.4068192837611
 20
411.647520464611
 30
0.0
 11
712.4068192837612
 21
411.647520464611
 31
0.0
  0
LINE
  5
D6
330
CD
100
AcDbEntity
  8
0
 62
     1
420
 16711680
370
     9
100
AcDbLine
 10
712.4068192837612
 20
411.647520464611
 30
0.0
 11
712.4068192837612
 21
417.4475204646105
 31
0.0
  0
LINE
  5
D7
330
CD
100
AcDbEntity
  8
0
 62
     1
420
 16711680
370
     9
100
AcDbLine
 10
712.4568192837601
 20
405.8475204646114
 30
0.0
 11
737.4068192837602
 21
405.8475204646114
 31
0.0
  0
LINE
  5
D8
330
CD
100
AcDbEntity
  8
0
 62
     1
420
 16711680
370
     9
100
AcDbLine
 10
712.4568192837601
 20
400.0475204646113
 30
0.0
 11
712.4568192837601
 21
405.8475204646114
 31
0.0
  0
LINE
  5
D9
330
CD
100
AcDbEntity
  8
0
 62
     1
420
 16711680
370
     9
100
AcDbLine
 10
687.5568192837602
 20
400.0475204646113
 30
0.0
 11
712.4568192837601
 21
400.0475204646113
 31
0.0
  0
LINE
  5
DA
330
CD
100
AcDbEntity
  8
0
 62
     1
420
 16711680
370
     9
100
AcDbLine
 10
687.5568192837602
 20
405.8475204646114
 30
0.0
 11
687.5568192837602
 21
400.0475204646113
 31
0.0
  0
LINE
  5
DB
330
CD
100
AcDbEntity
  8
0
 62
     1
420
 16711680
370
     9
100
AcDbLine
 10
606.6568192837609
 20
405.8475204646114
 30
0.0
 11
687.5568192837602
 21
405.8475204646114
 31
0.0
  0
LINE
  5
DC
330
CD
100
AcDbEntity
  8
0
 62
     1
420
 16711680
370
     9
100
AcDbLine
 10
606.6568192837609
 20
400.0475204646113
 30
0.0
 11
606.6568192837609
 21
405.8475204646114
 31
0.0
  0
LINE
  5
DD
330
CD
100
AcDbEntity
  8
0
 62
     1
420
 16711680
370
     9
100
AcDbLine
 10
581.756819283761
 20
400.0475204646113
 30
0.0
 11
606.6568192837609
 21
400.0475204646113
 31
0.0
  0
LINE
  5
DE
330
CD
100
AcDbEntity
  8
0
 62
     1
420
 16711680
370
     9
100
AcDbLine
 10
581.756819283761
 20
405.8475204646114
 30
0.0
 11
581.756819283761
 21
400.0475204646113
 31
0.0
  0
LINE
  5
DF
330
CD
100
AcDbEntity
  8
0
 62
     1
420
 16711680
370
     9
100
AcDbLine
 10
500.8568192837578
 20
405.8475204646114
 30
0.0
 11
581.756819283761
 21
405.8475204646114
 31
0.0
  0
LINE
  5
E0
330
CD
100
AcDbEntity
  8
0
 62
     1
420
 16711680
370
     9
100
AcDbLine
 10
500.8568192837578
 20
400.0475204646113
 30
0.0
 11
500.8568192837578
 21
405.8475204646114
 31
0.0
  0
LINE
  5
E1
330
CD
100
AcDbEntity
  8
0
 62
     1
420
 16711680
370
     9
100
AcDbLine
 10
475.9568192837579
 20
400.0475204646113
 30
0.0
 11
500.8568192837578
 21
400.0475204646113
 31
0.0
  0
LINE
  5
E2
330
CD
100
AcDbEntity
  8
0
 62
     1
420
 16711680
370
     9
100
AcDbLine
 10
475.9568192837579
 20
405.8475204646114
 30
0.0
 11
475.9568192837579
 21
400.0475204646113
 31
0.0
  0
LINE
  5
E3
330
CD
100
AcDbEntity
  8
0
 62
     1
420
 16711680
370
     9
100
AcDbLine
 10
395.0568192837579
 20
405.8475204646114
 30
0.0
 11
475.9568192837579
 21
405.8475204646114
 31
0.0
  0
LINE
  5
E4
330
CD
100
AcDbEntity
  8
0
 62
     1
420
 16711680
370
     9
100
AcDbLine
 10
395.0568192837579
 20
400.0475204646113
 30
0.0
 11
395.0568192837579
 21
405.8475204646114
 31
0.0
  0
LINE
  5
E5
330
CD
100
AcDbEntity
  8
0
 62
     1
420
 16711680
370
     9
100
AcDbLine
 10
370.156819283758
 20
400.0475204646113
 30
0.0
 11
395.0568192837579
 21
400.0475204646113
 31
0.0
  0
LINE
  5
E6
330
CD
100
AcDbEntity
  8
0
 62
     1
420
 16711680
370
     9
100
AcDbLine
 10
370.156819283758
 20
405.8475204646114
 30
0.0
 11
370.156819283758
 21
400.0475204646113
 31
0.0
  0
LINE
  5
E7
330
CD
100
AcDbEntity
  8
0
 62
     1
420
 16711680
370
     9
100
AcDbLine
 10
289.2568192837581
 20
405.8475204646114
 30
0.0
 11
370.156819283758
 21
405.8475204646114
 31
0.0
  0
LINE
  5
E8
330
CD
100
AcDbEntity
  8
0
 62
     1
420
 16711680
370
     9
100
AcDbLine
 10
289.2568192837581
 20
400.0475204646113
 30
0.0
 11
289.2568192837581
 21
405.8475204646114
 31
0.0
  0
LINE
  5
E9
330
CD
100
AcDbEntity
  8
0
 62
     1
420
 16711680
370
     9
100
AcDbLine
 10
264.3568192837578
 20
400.0475204646113
 30
0.0
 11
289.2568192837581
 21
400.0475204646113
 31
0.0
  0
LINE
  5
EA
330
CD
100
AcDbEntity
  8
0
 62
     1
420
 16711680
370
     9
100
AcDbLine
 10
264.3568192837578
 20
405.8475204646114
 30
0.0
 11
264.3568192837578
 21
400.0475204646113
 31
0.0
  0
LINE
  5
EB
330
CD
100
AcDbEntity
  8
0
 62
     1
420
 16711680
370
     9
100
AcDbLine
 10
239.4068192837578
 20
405.8475204646114
 30
0.0
 11
264.3568192837578
 21
405.8475204646114
 31
0.0
  0
LINE
  5
EC
330
CD
100
AcDbEntity
  8
0
 62
     1
420
 16711680
370
     9
100
AcDbLine
 10
239.4068192837578
 20
407.4475204646108
 30
0.0
 11
239.4068192837578
 21
405.8475204646114
 31
0.0
  0
LINE
  5
ED
330
CD
100
AcDbEntity
  8
0
 62
     1
420
 16711680
370
     9
100
AcDbLine
 10
464.906819283758
 20
417.4475204646105
 30
0.0
 11
304.4068192837578
 21
417.4475204646105
 31
0.0
  0
LINE
  5
EE
330
CD
100
AcDbEntity
  8
0
 62
     1
420
 16711680
370
     9
100
AcDbLine
 10
464.906819283758
 20
411.5975204646109
 30
0.0
 11
464.906819283758
 21
417.4475204646105
 31
0.0
  0
LINE
  5
EF
330
CD
100
AcDbEntity
  8
0
 62
     1
420
 16711680
370
     9
100
AcDbLine
 10
470.6068192837578
 20
411.5975204646109
 30
0.0
 11
464.906819283758
 21
411.5975204646109
 31
0.0
  0
LINE
  5
F0
330
CD
100
AcDbEntity
  8
0
 62
     1
420
 16711680
370
     9
100
AcDbLine
 10
470.6068192837578
 20
417.4475204646105
 30
0.0
 11
470.6068192837578
 21
411.5975204646109
 31
0.0
  0
LINE
  5
F1
330
CD
100
AcDbEntity
  8
0
 62
     1
420
 16711680
370
     9
100
AcDbLine
 10
515.5068192837578
 20
417.4475204646105
 30
0.0
 11
470.6068192837578
 21
417.4475204646105
 31
0.0
  0
LINE
  5
F2
330
CD
100
AcDbEntity
  8
0
 62
     1
420
 16711680
370
     9
100
AcDbLine
 10
515.5068192837578
 20
411.5975204646109
 30
0.0
 11
515.5068192837578
 21
417.4475204646105
 31
0.0
  0
LINE
  5
F3
330
CD
100
AcDbEntity
  8
0
 62
     1
420
 16711680
370
     9
100
AcDbLine
 10
521.2068192837571
 20
411.5975204646109
 30
0.0
 11
515.5068192837578
 21
411.5975204646109
 31
0.0
  0
LINE
  5
F4
330
CD
100
AcDbEntity
  8
0
 62
     1
420
 16711680
370
     9
100
AcDbLine
 10
521.2068192837571
 20
417.4475204646105
 30
0.0
 11
521.2068192837571
 21
411.5975204646109
 31
0.0
  0
LINE
  5
F5
330
CD
100
AcDbEntity
  8
0
 62
     1
420
 16711680
370
     9
100
AcDbLine
 10
672.4068192837611
 20
417.4475204646105
 30
0.0
 11
521.2068192837571
 21
417.4475204646105
 31
0.0
  0
LINE
  5
F6
330
CD
100
AcDbEntity
  8
0
 62
     1
420
 16711680
370
     9
100
AcDbLine
 10
737.4068192837602
 20
405.8475204646114
 30
0.0
 11
737.4068192837602
 21
407.4475204646108
 31
0.0
  0
LINE
  5
F7
330
CD
100
AcDbEntity
  8
0
 62
     1
420
 16711680
370
     9
100
AcDbLine
 10
264.406819283758
 20
417.4475204646105
 30
0.0
 11
249.4068192837581
 21
417.4475204646105
 31
0.0
  0
LINE
  5
F8
330
CD
100
AcDbEntity
  8
0
 62
     1
420
 16711680
370
     9
100
AcDbLine
 10
727.4068192837611
 20
417.4475204646105
 30
0.0
 11
712.4068192837612
 21
417.4475204646105
 31
0.0
  0
SPLINE
  5
F9
330
CD
100
AcDbEntity
  8
0
 62
     1
420
 16711680
370
     9
100
AcDbSpline
210
0.0
220
0.0
230
1.0
 70
     8
 71
     3
 72
     8
 73
     4
 74
     0
 42
0.0000000001
 43
0.0000000001
 40
0.0
 40
0.0
 40
0.0
 40
0.0
 40
1.0
 40
1.0
 40
1.0
 40
1.0
 10
249.4068192837581
 20
417.4475204646105
 30
0.0
 10
243.8839717854498
 20
417.4475204646105
 30
0.0
 10
239.4068192837578
 20
412.9703679629185
 30
0.0
 10
239.4068192837578
 20
407.4475204646108
 30
0.0
  0
SPLINE
  5
FA
330
CD
100
AcDbEntity
  8
0
 62
     1
420
 16711680
370
     9
100
AcDbSpline
210
0.0
220
0.0
230
1.0
 70
     8
 71
     3
 72
     8
 73
     4
 74
     0
 42
0.0000000001
 43
0.0000000001
 40
0.0
 40
0.0
 40
0.0
 40
0.0
 40
1.0
 40
1.0
 40
1.0
 40
1.0
 10
737.4068192837602
 20
407.4475204646108
 30
0.0
 10
737.4068192837602
 20
412.9703679629185
 30
0.0
 10
732.9296667820681
 20
417.4475204646105
 30
0.0
 10
727.4068192837611
 20
417.4475204646105
 30
0.0
  0
ENDBLK
  5
D0
330
CD
100
AcDbEntity
  8
0
100
AcDbBlockEnd
  0
BLOCK
  5
FD
330
FB
100
AcDbEntity
  8
0
100
AcDbBlockBegin
  2
Block_2
 70
     0
 10
0.0
 20
0.0
 30
0.0
  3
Block_2
  1

  0
LINE
  5
FF
330
FB
100
AcDbEntity
  8
0
 62
     1
420
 16711680
370
     9
100
AcDbLine
 10
684.6262834831462
 20
385.9003010645238
 30
0.0
 11
684.6262834831462
 21
391.7003010645234
 31
0.0
  0
LINE
  5
100
330
FB
100
AcDbEntity
  8
0
 62
     1
420
 16711680
370
     9
100
AcDbLine
 10
684.6262834831462
 20
391.7003010645234
 30
0.0
 11
644.626283483146
 21
391.7003010645234
 31
0.0
  0
LINE
  5
101
330
FB
100
AcDbEntity
  8
0
 62
     1
420
 16711680
370
     9
100
AcDbLine
 10
644.626283483146
 20
391.7003010645234
 30
0.0
 11
644.626283483146
 21
385.9003010645238
 31
0.0
  0
LINE
  5
102
330
FB
100
AcDbEntity
  8
0
 62
     1
420
 16711680
370
     9
100
AcDbLine
 10
276.6262834831405
 20
385.9003010645238
 30
0.0
 11
276.6262834831405
 21
391.7003010645234
 31
0.0
  0
LINE
  5
103
330
FB
100
AcDbEntity
  8
0
 62
     1
420
 16711680
370
     9
100
AcDbLine
 10
276.6262834831405
 20
391.7003010645234
 30
0.0
 11
236.6262834831403
 21
391.7003010645234
 31
0.0
  0
LINE
  5
104
330
FB
100
AcDbEntity
  8
0
 62
     1
420
 16711680
370
     9
100
AcDbLine
 10
236.6262834831403
 20
391.7003010645234
 30
0.0
 11
236.6262834831403
 21
385.9003010645238
 31
0.0
  0
LINE
  5
105
330
FB
100
AcDbEntity
  8
0
 62
     1
420
 16711680
370
     9
100
AcDbLine
 10
236.5762834831408
 20
397.500301064523
 30
0.0
 11
211.6262834831407
 21
397.500301064523
 31
0.0
  0
LINE
  5
106
330
FB
100
AcDbEntity
  8
0
 62
     1
420
 16711680
370
     9
100
AcDbLine
 10
236.5762834831408
 20
403.3003010645238
 30
0.0
 11
236.5762834831408
 21
397.500301064523
 31
0.0
  0
LINE
  5
107
330
FB
100
AcDbEntity
  8
0
 62
     1
420
 16711680
370
     9
100
AcDbLine
 10
261.4762834831407
 20
403.3003010645238
 30
0.0
 11
236.5762834831408
 21
403.3003010645238
 31
0.0
  0
LINE
  5
108
330
FB
100
AcDbEntity
  8
0
 62
     1
420
 16711680
370
     9
100
AcDbLine
 10
261.4762834831407
 20
397.500301064523
 30
0.0
 11
261.4762834831407
 21
403.3003010645238
 31
0.0
  0
LINE
  5
109
330
FB
100
AcDbEntity
  8
0
 62
     1
420
 16711680
370
     9
100
AcDbLine
 10
342.3762834831407
 20
397.500301064523
 30
0.0
 11
261.4762834831407
 21
397.500301064523
 31
0.0
  0
LINE
  5
10A
330
FB
100
AcDbEntity
  8
0
 62
     1
420
 16711680
370
     9
100
AcDbLine
 10
342.3762834831407
 20
403.3003010645238
 30
0.0
 11
342.3762834831407
 21
397.500301064523
 31
0.0
  0
LINE
  5
10B
330
FB
100
AcDbEntity
  8
0
 62
     1
420
 16711680
370
     9
100
AcDbLine
 10
367.2762834831406
 20
403.3003010645238
 30
0.0
 11
342.3762834831407
 21
403.3003010645238
 31
0.0
  0
LINE
  5
10C
330
FB
100
AcDbEntity
  8
0
 62
     1
420
 16711680
370
     9
100
AcDbLine
 10
367.2762834831406
 20
397.500301064523
 30
0.0
 11
367.2762834831406
 21
403.3003010645238
 31
0.0
  0
LINE
  5
10D
330
FB
100
AcDbEntity
  8
0
 62
     1
420
 16711680
370
     9
100
AcDbLine
 10
448.1762834831405
 20
397.500301064523
 30
0.0
 11
367.2762834831406
 21
397.500301064523
 31
0.0
  0
LINE
  5
10E
330
FB
100
AcDbEntity
  8
0
 62
     1
420
 16711680
370
     9
100
AcDbLine
 10
448.1762834831405
 20
403.3003010645238
 30
0.0
 11
448.1762834831405
 21
397.500301064523
 31
0.0
  0
LINE
  5
10F
330
FB
100
AcDbEntity
  8
0
 62
     1
420
 16711680
370
     9
100
AcDbLine
 10
473.0762834831404
 20
403.3003010645238
 30
0.0
 11
448.1762834831405
 21
403.3003010645238
 31
0.0
  0
LINE
  5
110
330
FB
100
AcDbEntity
  8
0
 62
     1
420
 16711680
370
     9
100
AcDbLine
 10
473.0762834831404
 20
397.500301064523
 30
0.0
 11
473.0762834831404
 21
403.3003010645238
 31
0.0
  0
LINE
  5
111
330
FB
100
AcDbEntity
  8
0
 62
     1
420
 16711680
370
     9
100
AcDbLine
 10
553.9762834831407
 20
397.500301064523
 30
0.0
 11
473.0762834831404
 21
397.500301064523
 31
0.0
  0
LINE
  5
112
330
FB
100
AcDbEntity
  8
0
 62
     1
420
 16711680
370
     9
100
AcDbLine
 10
553.9762834831407
 20
403.3003010645238
 30
0.0
 11
553.9762834831407
 21
397.500301064523
 31
0.0
  0
LINE
  5
113
330
FB
100
AcDbEntity
  8
0
 62
     1
420
 16711680
370
     9
100
AcDbLine
 10
578.8762834831445
 20
403.3003010645238
 30
0.0
 11
553.9762834831407
 21
403.3003010645238
 31
0.0
  0
LINE
  5
114
330
FB
100
AcDbEntity
  8
0
 62
     1
420
 16711680
370
     9
100
AcDbLine
 10
578.8762834831445
 20
397.500301064523
 30
0.0
 11
578.8762834831445
 21
403.3003010645238
 31
0.0
  0
LINE
  5
115
330
FB
100
AcDbEntity
  8
0
 62
     1
420
 16711680
370
     9
100
AcDbLine
 10
659.7762834831451
 20
397.500301064523
 30
0.0
 11
578.8762834831445
 21
397.500301064523
 31
0.0
  0
LINE
  5
116
330
FB
100
AcDbEntity
  8
0
 62
     1
420
 16711680
370
     9
100
AcDbLine
 10
659.7762834831451
 20
403.3003010645238
 30
0.0
 11
659.7762834831451
 21
397.500301064523
 31
0.0
  0
LINE
  5
117
330
FB
100
AcDbEntity
  8
0
 62
     1
420
 16711680
370
     9
100
AcDbLine
 10
684.6762834831451
 20
403.3003010645238
 30
0.0
 11
659.7762834831451
 21
403.3003010645238
 31
0.0
  0
LINE
  5
118
330
FB
100
AcDbEntity
  8
0
 62
     1
420
 16711680
370
     9
100
AcDbLine
 10
684.6762834831463
 20
397.500301064523
 30
0.0
 11
684.6762834831451
 21
403.3003010645238
 31
0.0
  0
LINE
  5
119
330
FB
100
AcDbEntity
  8
0
 62
     1
420
 16711680
370
     9
100
AcDbLine
 10
709.6262834831451
 20
397.500301064523
 30
0.0
 11
684.6762834831463
 21
397.500301064523
 31
0.0
  0
LINE
  5
11A
330
FB
100
AcDbEntity
  8
0
 62
     1
420
 16711680
370
     9
100
AcDbLine
 10
709.6262834831451
 20
395.9003010645235
 30
0.0
 11
709.6262834831451
 21
397.500301064523
 31
0.0
  0
LINE
  5
11B
330
FB
100
AcDbEntity
  8
0
 62
     1
420
 16711680
370
     9
100
AcDbLine
 10
484.1262834831404
 20
385.9003010645238
 30
0.0
 11
644.626283483146
 21
385.9003010645238
 31
0.0
  0
LINE
  5
11C
330
FB
100
AcDbEntity
  8
0
 62
     1
420
 16711680
370
     9
100
AcDbLine
 10
484.1262834831404
 20
391.7503010645236
 30
0.0
 11
484.1262834831404
 21
385.9003010645238
 31
0.0
  0
LINE
  5
11D
330
FB
100
AcDbEntity
  8
0
 62
     1
420
 16711680
370
     9
100
AcDbLine
 10
478.4262834831405
 20
391.7503010645236
 30
0.0
 11
484.1262834831404
 21
391.7503010645236
 31
0.0
  0
LINE
  5
11E
330
FB
100
AcDbEntity
  8
0
 62
     1
420
 16711680
370
     9
100
AcDbLine
 10
478.4262834831405
 20
385.9003010645238
 30
0.0
 11
478.4262834831405
 21
391.7503010645236
 31
0.0
  0
LINE
  5
11F
330
FB
100
AcDbEntity
  8
0
 62
     1
420
 16711680
370
     9
100
AcDbLine
 10
433.5262834831405
 20
385.9003010645238
 30
0.0
 11
478.4262834831405
 21
385.9003010645238
 31
0.0
  0
LINE
  5
120
330
FB
100
AcDbEntity
  8
0
 62
     1
420
 16711680
370
     9
100
AcDbLine
 10
433.5262834831405
 20
391.7503010645236
 30
0.0
 11
433.5262834831405
 21
385.9003010645238
 31
0.0
  0
LINE
  5
121
330
FB
100
AcDbEntity
  8
0
 62
     1
420
 16711680
370
     9
100
AcDbLine
 10
427.8262834831406
 20
391.7503010645236
 30
0.0
 11
433.5262834831405
 21
391.7503010645236
 31
0.0
  0
LINE
  5
122
330
FB
100
AcDbEntity
  8
0
 62
     1
420
 16711680
370
     9
100
AcDbLine
 10
427.8262834831406
 20
385.9003010645238
 30
0.0
 11
427.8262834831406
 21
391.7503010645236
 31
0.0
  0
LINE
  5
123
330
FB
100
AcDbEntity
  8
0
 62
     1
420
 16711680
370
     9
100
AcDbLine
 10
276.6262834831405
 20
385.9003010645238
 30
0.0
 11
427.8262834831406
 21
385.9003010645238
 31
0.0
  0
LINE
  5
124
330
FB
100
AcDbEntity
  8
0
 62
     1
420
 16711680
370
     9
100
AcDbLine
 10
211.6262834831407
 20
397.500301064523
 30
0.0
 11
211.6262834831407
 21
395.9003010645235
 31
0.0
  0
LINE
  5
125
330
FB
100
AcDbEntity
  8
0
 62
     1
420
 16711680
370
     9
100
AcDbLine
 10
684.6262834831462
 20
385.9003010645238
 30
0.0
 11
699.626283483146
 21
385.9003010645238
 31
0.0
  0
LINE
  5
126
330
FB
100
AcDbEntity
  8
0
 62
     1
420
 16711680
370
     9
100
AcDbLine
 10
221.6262834831404
 20
385.9003010645238
 30
0.0
 11
236.6262834831403
 21
385.9003010645238
 31
0.0
  0
SPLINE
  5
127
330
FB
100
AcDbEntity
  8
0
 62
     1
420
 16711680
370
     9
100
AcDbSpline
210
0.0
220
0.0
230
1.0
 70
     8
 71
     3
 72
     8
 73
     4
 74
     0
 42
0.0000000001
 43
0.0000000001
 40
0.0
 40
0.0
 40
0.0
 40
0.0
 40
1.0
 40
1.0
 40
1.0
 40
1.0
 10
699.626283483146
 20
385.9003010645238
 30
0.0
 10
705.1491309814544
 20
385.9003010645238
 30
0.0
 10
709.6262834831451
 20
390.3774535662159
 30
0.0
 10
709.6262834831451
 20
395.9003010645235
 30
0.0
  0
SPLINE
  5
128
330
FB
100
AcDbEntity
  8
0
 62
     1
420
 16711680
370
     9
100
AcDbSpline
210
0.0
220
0.0
230
1.0
 70
     8
 71
     3
 72
     8
 73
     4
 74
     0
 42
0.0000000001
 43
0.0000000001
 40
0.0
 40
0.0
 40
0.0
 40
0.0
 40
1.0
 40
1.0
 40
1.0
 40
1.0
 10
211.6262834831407
 20
395.9003010645235
 30
0.0
 10
211.6262834831407
 20
390.3774535662159
 30
0.0
 10
216.1034359848325
 20
385.9003010645238
 30
0.0
 10
221.6262834831404
 20
385.9003010645238
 30
0.0
  0
ENDBLK
  5
FE
330
FB
100
AcDbEntity
  8
0
100
AcDbBlockEnd
  0
BLOCK
  5
12B
330
129
100
AcDbEntity
  8
0
100
AcDbBlockBegin
  2
Block_3
 70
     0
 10
0.0
 20
0.0
 30
0.0
  3
Block_3
  1

  0
LINE
  5
12D
330
129
100
AcDbEntity
  8
0
 62
     1
420
 16711680
370
     9
100
AcDbLine
 10
606.7457476825187
 20
238.8542580860492
 30
0.0
 11
596.945747682519
 21
238.8542580860492
 31
0.0
  0
LINE
  5
12E
330
129
100
AcDbEntity
  8
0
 62
     1
420
 16711680
370
     9
100
AcDbLine
 10
596.945747682519
 20
238.8542580860492
 30
0.0
 11
596.945747682519
 21
233.1542580860487
 31
0.0
  0
LINE
  5
12F
330
129
100
AcDbEntity
  8
0
 62
     1
420
 16711680
370
     9
100
AcDbLine
 10
596.945747682519
 20
233.1542580860487
 30
0.0
 11
606.7457476825187
 21
233.1542580860487
 31
0.0
  0
LINE
  5
130
330
129
100
AcDbEntity
  8
0
 62
     1
420
 16711680
370
     9
100
AcDbLine
 10
606.7457476825187
 20
233.1542580860487
 30
0.0
 11
606.7457476825187
 21
238.8542580860492
 31
0.0
  0
LINE
  5
131
330
129
100
AcDbEntity
  8
0
 62
     1
420
 16711680
370
     9
100
AcDbLine
 10
521.7457476825188
 20
238.8542580860492
 30
0.0
 11
521.7457476825188
 21
233.1542580860487
 31
0.0
  0
LINE
  5
132
330
129
100
AcDbEntity
  8
0
 62
     1
420
 16711680
370
     9
100
AcDbLine
 10
521.7457476825188
 20
233.1542580860487
 30
0.0
 11
531.5457476825192
 21
233.1542580860487
 31
0.0
  0
LINE
  5
133
330
129
100
AcDbEntity
  8
0
 62
     1
420
 16711680
370
     9
100
AcDbLine
 10
531.5457476825192
 20
233.1542580860487
 30
0.0
 11
531.5457476825192
 21
238.8542580860492
 31
0.0
  0
LINE
  5
134
330
129
100
AcDbEntity
  8
0
 62
     1
420
 16711680
370
     9
100
AcDbLine
 10
531.5457476825192
 20
238.8542580860492
 30
0.0
 11
521.7457476825188
 21
238.8542580860492
 31
0.0
  0
LINE
  5
135
330
129
100
AcDbEntity
  8
0
 62
     1
420
 16711680
370
     9
100
AcDbLine
 10
521.7457476825188
 20
283.7542580860486
 30
0.0
 11
531.5457476825192
 21
283.7542580860486
 31
0.0
  0
LINE
  5
136
330
129
100
AcDbEntity
  8
0
 62
     1
420
 16711680
370
     9
100
AcDbLine
 10
531.5457476825192
 20
283.7542580860486
 30
0.0
 11
531.5457476825192
 21
289.4542580860491
 31
0.0
  0
LINE
  5
137
330
129
100
AcDbEntity
  8
0
 62
     1
420
 16711680
370
     9
100
AcDbLine
 10
531.5457476825192
 20
289.4542580860491
 30
0.0
 11
521.7457476825188
 21
289.4542580860491
 31
0.0
  0
LINE
  5
138
330
129
100
AcDbEntity
  8
0
 62
     1
420
 16711680
370
     9
100
AcDbLine
 10
521.7457476825188
 20
289.4542580860491
 30
0.0
 11
521.7457476825188
 21
283.7542580860486
 31
0.0
  0
LINE
  5
139
330
129
100
AcDbEntity
  8
0
 62
     1
420
 16711680
370
     9
100
AcDbLine
 10
550.7457476825193
 20
233.1542580860487
 30
0.0
 11
577.7457476825197
 21
233.1542580860487
 31
0.0
  0
LINE
  5
13A
330
129
100
AcDbEntity
  8
0
 62
     1
420
 16711680
370
     9
100
AcDbLine
 10
582.745747682519
 20
238.1542580860495
 30
0.0
 11
582.745747682519
 21
252.8542580860484
 31
0.0
  0
LINE
  5
13B
330
129
100
AcDbEntity
  8
0
 62
     1
420
 16711680
370
     9
100
AcDbLine
 10
582.745747682519
 20
252.8542580860484
 30
0.0
 11
577.7457476825197
 21
252.8542580860484
 31
0.0
  0
LINE
  5
13C
330
129
100
AcDbEntity
  8
0
 62
     1
420
 16711680
370
     9
100
AcDbLine
 10
577.7457476825197
 20
252.8542580860484
 30
0.0
 11
577.7457476825197
 21
257.8542580860493
 31
0.0
  0
LINE
  5
13D
330
129
100
AcDbEntity
  8
0
 62
     1
420
 16711680
370
     9
100
AcDbLine
 10
550.7457476825193
 20
257.8542580860493
 30
0.0
 11
550.7457476825193
 21
252.8542580860484
 31
0.0
  0
LINE
  5
13E
330
129
100
AcDbEntity
  8
0
 62
     1
420
 16711680
370
     9
100
AcDbLine
 10
550.7457476825193
 20
252.8542580860484
 30
0.0
 11
545.745747682519
 21
252.8542580860484
 31
0.0
  0
LINE
  5
13F
330
129
100
AcDbEntity
  8
0
 62
     1
420
 16711680
370
     9
100
AcDbLine
 10
545.745747682519
 20
252.8542580860484
 30
0.0
 11
545.745747682519
 21
238.1542580860495
 31
0.0
  0
LINE
  5
140
330
129
100
AcDbEntity
  8
0
 62
     1
420
 16711680
370
     9
100
AcDbLine
 10
606.7457476825187
 20
289.4542580860491
 30
0.0
 11
596.945747682519
 21
289.4542580860491
 31
0.0
  0
LINE
  5
141
330
129
100
AcDbEntity
  8
0
 62
     1
420
 16711680
370
     9
100
AcDbLine
 10
596.945747682519
 20
289.4542580860491
 30
0.0
 11
596.945747682519
 21
283.7542580860486
 31
0.0
  0
LINE
  5
142
330
129
100
AcDbEntity
  8
0
 62
     1
420
 16711680
370
     9
100
AcDbLine
 10
596.945747682519
 20
283.7542580860486
 30
0.0
 11
606.7457476825187
 21
283.7542580860486
 31
0.0
  0
LINE
  5
143
330
129
100
AcDbEntity
  8
0
 62
     1
420
 16711680
370
     9
100
AcDbLine
 10
606.7457476825187
 20
283.7542580860486
 30
0.0
 11
606.7457476825187
 21
289.4542580860491
 31
0.0
  0
LINE
  5
144
330
129
100
AcDbEntity
  8
0
 62
     1
420
 16711680
370
     9
100
AcDbLine
 10
506.745747682519
 20
291.9542580860489
 30
0.0
 11
506.745747682519
 21
230.6542580860483
 31
0.0
  0
LINE
  5
145
330
129
100
AcDbEntity
  8
0
 62
     1
420
 16711680
370
     9
100
AcDbLine
 10
619.2457476825194
 20
294.4542580860487
 30
0.0
 11
509.2457476825194
 21
294.4542580860487
 31
0.0
  0
LINE
  5
146
330
129
100
AcDbEntity
  8
0
 62
     1
420
 16711680
370
     9
100
AcDbLine
 10
621.7457476825186
 20
230.6542580860483
 30
0.0
 11
621.7457476825186
 21
291.9542580860489
 31
0.0
  0
LINE
  5
147
330
129
100
AcDbEntity
  8
0
 62
     1
420
 16711680
370
     9
100
AcDbLine
 10
509.2457476825194
 20
228.1542580860492
 30
0.0
 11
619.2457476825194
 21
228.1542580860492
 31
0.0
  0
SPLINE
  5
148
330
129
100
AcDbEntity
  8
0
 62
     1
420
 16711680
370
     9
100
AcDbSpline
210
0.0
220
0.0
230
1.0
 70
     8
 71
     3
 72
     8
 73
     4
 74
     0
 42
0.0000000001
 43
0.0000000001
 40
0.0
 40
0.0
 40
0.0
 40
0.0
 40
1.0
 40
1.0
 40
1.0
 40
1.0
 10
577.7457476825197
 20
233.1542580860487
 30
0.0
 10
580.5071714316738
 20
233.1542580860487
 30
0.0
 10
582.745747682519
 20
235.3928343368954
 30
0.0
 10
582.745747682519
 20
238.1542580860495
 30
0.0
  0
SPLINE
  5
149
330
129
100
AcDbEntity
  8
0
 62
     1
420
 16711680
370
     9
100
AcDbSpline
210
0.0
220
0.0
230
1.0
 70
     8
 71
     3
 72
    11
 73
     7
 74
     0
 42
0.0000000001
 43
0.0000000001
 40
0.0
 40
0.0
 40
0.0
 40
0.0
 40
1.0
 40
1.0
 40
1.0
 40
2.0
 40
2.0
 40
2.0
 40
2.0
 10
577.7457476825197
 20
257.8542580860493
 30
0.0
 10
577.7457476825197
 20
265.3101022087649
 30
0.0
 10
571.7015918052351
 20
271.3542580860494
 30
0.0
 10
564.2457476825194
 20
271.3542580860494
 30
0.0
 10
556.7899035598038
 20
271.3542580860494
 30
0.0
 10
550.7457476825193
 20
265.3101022087649
 30
0.0
 10
550.7457476825193
 20
257.8542580860493
 30
0.0
  0
SPLINE
  5
14A
330
129
100
AcDbEntity
  8
0
 62
     1
420
 16711680
370
     9
100
AcDbSpline
210
0.0
220
0.0
230
1.0
 70
     8
 71
     3
 72
     8
 73
     4
 74
     0
 42
0.0000000001
 43
0.0000000001
 40
0.0
 40
0.0
 40
0.0
 40
0.0
 40
1.0
 40
1.0
 40
1.0
 40
1.0
 10
545.745747682519
 20
238.1542580860495
 30
0.0
 10
545.745747682519
 20
235.3928343368954
 30
0.0
 10
547.9843239333652
 20
233.1542580860487
 30
0.0
 10
550.7457476825193
 20
233.1542580860487
 30
0.0
  0
SPLINE
  5
14B
330
129
100
AcDbEntity
  8
0
 62
     1
420
 16711680
370
     9
100
AcDbSpline
210
0.0
220
0.0
230
1.0
 70
     8
 71
     3
 72
     8
 73
     4
 74
     0
 42
0.0000000001
 43
0.0000000001
 40
0.0
 40
0.0
 40
0.0
 40
0.0
 40
1.0
 40
1.0
 40
1.0
 40
1.0
 10
509.2457476825194
 20
294.4542580860487
 30
0.0
 10
507.8650358079423
 20
294.4542580860487
 30
0.0
 10
506.745747682519
 20
293.3349699606259
 30
0.0
 10
506.745747682519
 20
291.9542580860489
 30
0.0
  0
SPLINE
  5
14C
330
129
100
AcDbEntity
  8
0
 62
     1
420
 16711680
370
     9
100
AcDbSpline
210
0.0
220
0.0
230
1.0
 70
     8
 71
     3
 72
     8
 73
     4
 74
     0
 42
0.0000000001
 43
0.0000000001
 40
0.0
 40
0.0
 40
0.0
 40
0.0
 40
1.0
 40
1.0
 40
1.0
 40
1.0
 10
621.7457476825186
 20
291.9542580860489
 30
0.0
 10
621.7457476825186
 20
293.3349699606259
 30
0.0
 10
620.6264595570964
 20
294.4542580860487
 30
0.0
 10
619.2457476825194
 20
294.4542580860487
 30
0.0
  0
SPLINE
  5
14D
330
129
100
AcDbEntity
  8
0
 62
     1
420
 16711680
370
     9
100
AcDbSpline
210
0.0
220
0.0
230
1.0
 70
     8
 71
     3
 72
     8
 73
     4
 74
     0
 42
0.0000000001
 43
0.0000000001
 40
0.0
 40
0.0
 40
0.0
 40
0.0
 40
1.0
 40
1.0
 40
1.0
 40
1.0
 10
619.2457476825194
 20
228.1542580860492
 30
0.0
 10
620.6264595570964
 20
228.1542580860492
 30
0.0
 10
621.7457476825186
 20
229.2735462114726
 30
0.0
 10
621.7457476825186
 20
230.6542580860483
 30
0.0
  0
SPLINE
  5
14E
330
129
100
AcDbEntity
  8
0
 62
     1
420
 16711680
370
     9
100
AcDbSpline
210
0.0
220
0.0
230
1.0
 70
     8
 71
     3
 72
     8
 73
     4
 74
     0
 42
0.0000000001
 43
0.0000000001
 40
0.0
 40
0.0
 40
0.0
 40
0.0
 40
1.0
 40
1.0
 40
1.0
 40
1.0
 10
506.745747682519
 20
230.6542580860483
 30
0.0
 10
506.745747682519
 20
229.2735462114726
 30
0.0
 10
507.8650358079423
 20
228.1542580860492
 30
0.0
 10
509.2457476825194
 20
228.1542580860492
 30
0.0
  0
ENDBLK
  5
12C
330
129
100
AcDbEntity
  8
0
100
AcDbBlockEnd
  0
BLOCK
  5
151
330
14F
100
AcDbEntity
  8
0
100
AcDbBlockBegin
  2
Block_4
 70
     0
 10
0.0
 20
0.0
 30
0.0
  3
Block_4
  1

  0
CIRCLE
  5
153
330
14F
100
AcDbEntity
  8
0
 62
     1
420
 16711680
370
     9
100
AcDbCircle
 10
636.0762834831456
 20
280.7791370454712
 30
0.0
 40
1.500000000000133
  0
CIRCLE
  5
154
330
14F
100
AcDbEntity
  8
0
 62
     1
420
 16711680
370
     9
100
AcDbCircle
 10
653.1762834831455
 20
280.7791370454712
 30
0.0
 40
1.499999999999972
  0
LINE
  5
155
330
14F
100
AcDbEntity
  8
0
 62
     1
420
 16711680
370
     9
100
AcDbLine
 10
662.6762834831455
 20
293.2791370454718
 30
0.0
 11
626.5762834831453
 21
293.2791370454718
 31
0.0
  0
LINE
  5
156
330
14F
100
AcDbEntity
  8
0
 62
     1
420
 16711680
370
     9
100
AcDbLine
 10
624.076283483146
 20
290.7791370454713
 30
0.0
 11
624.076283483146
 21
268.2791370454715
 31
0.0
  0
LINE
  5
157
330
14F
100
AcDbEntity
  8
0
 62
     1
420
 16711680
370
     9
100
AcDbLine
 10
624.076283483146
 20
268.2791370454715
 30
0.0
 11
665.1762834831459
 21
268.2791370454715
 31
0.0
  0
LINE
  5
158
330
14F
100
AcDbEntity
  8
0
 62
     1
420
 16711680
370
     9
100
AcDbLine
 10
665.1762834831459
 20
268.2791370454715
 30
0.0
 11
665.1762834831459
 21
290.7791370454713
 31
0.0
  0
SPLINE
  5
159
330
14F
100
AcDbEntity
  8
0
 62
     1
420
 16711680
370
     9
100
AcDbSpline
210
0.0
220
0.0
230
1.0
 70
     8
 71
     3
 72
     8
 73
     4
 74
     0
 42
0.0000000001
 43
0.0000000001
 40
0.0
 40
0.0
 40
0.0
 40
0.0
 40
1.0
 40
1.0
 40
1.0
 40
1.0
 10
626.5762834831453
 20
293.2791370454718
 30
0.0
 10
625.1955716085682
 20
293.2791370454718
 30
0.0
 10
624.076283483146
 20
292.1598489200484
 30
0.0
 10
624.076283483146
 20
290.7791370454713
 30
0.0
  0
SPLINE
  5
15A
330
14F
100
AcDbEntity
  8
0
 62
     1
420
 16711680
370
     9
100
AcDbSpline
210
0.0
220
0.0
230
1.0
 70
     8
 71
     3
 72
     8
 73
     4
 74
     0
 42
0.0000000001
 43
0.0000000001
 40
0.0
 40
0.0
 40
0.0
 40
0.0
 40
1.0
 40
1.0
 40
1.0
 40
1.0
 10
665.1762834831459
 20
290.7791370454713
 30
0.0
 10
665.1762834831459
 20
292.1598489200484
 30
0.0
 10
664.0569953577226
 20
293.2791370454718
 30
0.0
 10
662.6762834831455
 20
293.2791370454718
 30
0.0
  0
ENDBLK
  5
152
330
14F
100
AcDbEntity
  8
0
100
AcDbBlockEnd
  0
BLOCK
  5
15D
330
15B
100
AcDbEntity
  8
0
100
AcDbBlockBegin
  2
Block_5
 70
     0
 10
0.0
 20
0.0
 30
0.0
  3
Block_5
  1

  0
CIRCLE
  5
15F
330
15B
100
AcDbEntity
  8
0
 62
     1
420
 16711680
370
     9
100
AcDbCircle
 10
636.0762834831456
 20
252.8542580860486
 30
0.0
 40
1.500000000000133
  0
CIRCLE
  5
160
330
15B
100
AcDbEntity
  8
0
 62
     1
420
 16711680
370
     9
100
AcDbCircle
 10
653.1762834831455
 20
252.8542580860486
 30
0.0
 40
1.499999999999972
  0
LINE
  5
161
330
15B
100
AcDbEntity
  8
0
 62
     1
420
 16711680
370
     9
100
AcDbLine
 10
662.6762834831455
 20
265.3542580860492
 30
0.0
 11
626.5762834831453
 21
265.3542580860492
 31
0.0
  0
LINE
  5
162
330
15B
100
AcDbEntity
  8
0
 62
     1
420
 16711680
370
     9
100
AcDbLine
 10
624.0762834831455
 20
262.8542580860488
 30
0.0
 11
624.0762834831455
 21
240.354258086049
 31
0.0
  0
LINE
  5
163
330
15B
100
AcDbEntity
  8
0
 62
     1
420
 16711680
370
     9
100
AcDbLine
 10
624.0762834831455
 20
240.354258086049
 30
0.0
 11
665.1762834831459
 21
240.354258086049
 31
0.0
  0
LINE
  5
164
330
15B
100
AcDbEntity
  8
0
 62
     1
420
 16711680
370
     9
100
AcDbLine
 10
665.1762834831459
 20
240.354258086049
 30
0.0
 11
665.1762834831459
 21
262.8542580860488
 31
0.0
  0
SPLINE
  5
165
330
15B
100
AcDbEntity
  8
0
 62
     1
420
 16711680
370
     9
100
AcDbSpline
210
0.0
220
0.0
230
1.0
 70
     8
 71
     3
 72
     8
 73
     4
 74
     0
 42
0.0000000001
 43
0.0000000001
 40
0.0
 40
0.0
 40
0.0
 40
0.0
 40
1.0
 40
1.0
 40
1.0
 40
1.0
 10
626.5762834831453
 20
265.3542580860492
 30
0.0
 10
625.1955716085682
 20
265.3542580860492
 30
0.0
 10
624.0762834831455
 20
264.2349699606259
 30
0.0
 10
624.0762834831455
 20
262.8542580860488
 30
0.0
  0
SPLINE
  5
166
330
15B
100
AcDbEntity
  8
0
 62
     1
420
 16711680
370
     9
100
AcDbSpline
210
0.0
220
0.0
230
1.0
 70
     8
 71
     3
 72
     8
 73
     4
 74
     0
 42
0.0000000001
 43
0.0000000001
 40
0.0
 40
0.0
 40
0.0
 40
0.0
 40
1.0
 40
1.0
 40
1.0
 40
1.0
 10
665.1762834831459
 20
262.8542580860488
 30
0.0
 10
665.1762834831459
 20
264.2349699606259
 30
0.0
 10
664.0569953577226
 20
265.3542580860492
 30
0.0
 10
662.6762834831455
 20
265.3542580860492
 30
0.0
  0
ENDBLK
  5
15E
330
15B
100
AcDbEntity
  8
0
100
AcDbBlockEnd
  0
BLOCK
  5
169
330
167
100
AcDbEntity
  8
0
100
AcDbBlockBegin
  2
Block_6
 70
     0
 10
0.0
 20
0.0
 30
0.0
  3
Block_6
  1

  0
LINE
  5
16B
330
167
100
AcDbEntity
  8
0
 62
     1
420
 16711680
370
     9
100
AcDbLine
 10
408.2860155828301
 20
251.8542580860491
 30
0.0
 11
422.3360155828301
 21
251.8542580860491
 31
0.0
  0
LINE
  5
16C
330
167
100
AcDbEntity
  8
0
 62
     1
420
 16711680
370
     9
100
AcDbLine
 10
427.33601558283
 20
246.8542580860495
 30
0.0
 11
427.33601558283
 21
238.1542580860495
 31
0.0
  0
LINE
  5
16D
330
167
100
AcDbEntity
  8
0
 62
     1
420
 16711680
370
     9
100
AcDbLine
 10
432.3360155828298
 20
233.1542580860494
 30
0.0
 11
459.3360155828301
 21
233.1542580860494
 31
0.0
  0
LINE
  5
16E
330
167
100
AcDbEntity
  8
0
 62
     1
420
 16711680
370
     9
100
AcDbLine
 10
464.3360155828297
 20
238.1542580860495
 30
0.0
 11
464.3360155828297
 21
246.8542580860495
 31
0.0
  0
LINE
  5
16F
330
167
100
AcDbEntity
  8
0
 62
     1
420
 16711680
370
     9
100
AcDbLine
 10
469.3360155828299
 20
251.8542580860491
 30
0.0
 11
483.3860155828299
 21
251.8542580860491
 31
0.0
  0
LINE
  5
170
330
167
100
AcDbEntity
  8
0
 62
     1
420
 16711680
370
     9
100
AcDbLine
 10
483.3860155828299
 20
279.9542580860491
 30
0.0
 11
408.2860155828301
 21
279.9542580860491
 31
0.0
  0
LINE
  5
171
330
167
100
AcDbEntity
  8
0
 62
     1
420
 16711680
370
     9
100
AcDbLine
 10
413.1360155828302
 20
233.1542580860494
 30
0.0
 11
413.1360155828302
 21
238.8542580860492
 31
0.0
  0
LINE
  5
172
330
167
100
AcDbEntity
  8
0
 62
     1
420
 16711680
370
     9
100
AcDbLine
 10
413.1360155828302
 20
238.8542580860492
 30
0.0
 11
403.3360155828301
 21
238.8542580860492
 31
0.0
  0
LINE
  5
173
330
167
100
AcDbEntity
  8
0
 62
     1
420
 16711680
370
     9
100
AcDbLine
 10
403.3360155828301
 20
238.8542580860492
 30
0.0
 11
403.3360155828301
 21
233.1542580860494
 31
0.0
  0
LINE
  5
174
330
167
100
AcDbEntity
  8
0
 62
     1
420
 16711680
370
     9
100
AcDbLine
 10
403.3360155828301
 20
233.1542580860494
 30
0.0
 11
413.1360155828302
 21
233.1542580860494
 31
0.0
  0
LINE
  5
175
330
167
100
AcDbEntity
  8
0
 62
     1
420
 16711680
370
     9
100
AcDbLine
 10
413.1360155828302
 20
283.7542580860492
 30
0.0
 11
413.1360155828302
 21
289.4542580860491
 31
0.0
  0
LINE
  5
176
330
167
100
AcDbEntity
  8
0
 62
     1
420
 16711680
370
     9
100
AcDbLine
 10
413.1360155828302
 20
289.4542580860491
 30
0.0
 11
403.3360155828301
 21
289.4542580860491
 31
0.0
  0
LINE
  5
177
330
167
100
AcDbEntity
  8
0
 62
     1
420
 16711680
370
     9
100
AcDbLine
 10
403.3360155828301
 20
289.4542580860491
 30
0.0
 11
403.3360155828301
 21
283.7542580860492
 31
0.0
  0
LINE
  5
178
330
167
100
AcDbEntity
  8
0
 62
     1
420
 16711680
370
     9
100
AcDbLine
 10
403.3360155828301
 20
283.7542580860492
 30
0.0
 11
413.1360155828302
 21
283.7542580860492
 31
0.0
  0
LINE
  5
179
330
167
100
AcDbEntity
  8
0
 62
     1
420
 16711680
370
     9
100
AcDbLine
 10
478.5360155828302
 20
289.4542580860491
 30
0.0
 11
478.5360155828302
 21
283.7542580860492
 31
0.0
  0
LINE
  5
17A
330
167
100
AcDbEntity
  8
0
 62
     1
420
 16711680
370
     9
100
AcDbLine
 10
478.5360155828302
 20
283.7542580860492
 30
0.0
 11
488.3360155828299
 21
283.7542580860492
 31
0.0
  0
LINE
  5
17B
330
167
100
AcDbEntity
  8
0
 62
     1
420
 16711680
370
     9
100
AcDbLine
 10
488.3360155828299
 20
283.7542580860492
 30
0.0
 11
488.3360155828299
 21
289.4542580860491
 31
0.0
  0
LINE
  5
17C
330
167
100
AcDbEntity
  8
0
 62
     1
420
 16711680
370
     9
100
AcDbLine
 10
488.3360155828299
 20
289.4542580860491
 30
0.0
 11
478.5360155828302
 21
289.4542580860491
 31
0.0
  0
LINE
  5
17D
330
167
100
AcDbEntity
  8
0
 62
     1
420
 16711680
370
     9
100
AcDbLine
 10
478.5360155828302
 20
238.8542580860492
 30
0.0
 11
478.5360155828302
 21
233.1542580860494
 31
0.0
  0
LINE
  5
17E
330
167
100
AcDbEntity
  8
0
 62
     1
420
 16711680
370
     9
100
AcDbLine
 10
478.5360155828302
 20
233.1542580860494
 30
0.0
 11
488.3360155828299
 21
233.1542580860494
 31
0.0
  0
LINE
  5
17F
330
167
100
AcDbEntity
  8
0
 62
     1
420
 16711680
370
     9
100
AcDbLine
 10
488.3360155828299
 20
233.1542580860494
 30
0.0
 11
488.3360155828299
 21
238.8542580860492
 31
0.0
  0
LINE
  5
180
330
167
100
AcDbEntity
  8
0
 62
     1
420
 16711680
370
     9
100
AcDbLine
 10
488.3360155828299
 20
238.8542580860492
 30
0.0
 11
478.5360155828302
 21
238.8542580860492
 31
0.0
  0
LINE
  5
181
330
167
100
AcDbEntity
  8
0
 62
     1
420
 16711680
370
     9
100
AcDbLine
 10
388.3360155828303
 20
291.9542580860495
 30
0.0
 11
388.3360155828303
 21
230.654258086049
 31
0.0
  0
LINE
  5
182
330
167
100
AcDbEntity
  8
0
 62
     1
420
 16711680
370
     9
100
AcDbLine
 10
500.8360155828303
 20
294.4542580860493
 30
0.0
 11
390.8360155828301
 21
294.4542580860493
 31
0.0
  0
LINE
  5
183
330
167
100
AcDbEntity
  8
0
 62
     1
420
 16711680
370
     9
100
AcDbLine
 10
503.3360155828295
 20
230.654258086049
 30
0.0
 11
503.3360155828295
 21
291.9542580860495
 31
0.0
  0
LINE
  5
184
330
167
100
AcDbEntity
  8
0
 62
     1
420
 16711680
370
     9
100
AcDbLine
 10
390.8360155828301
 20
228.1542580860492
 30
0.0
 11
500.8360155828303
 21
228.1542580860492
 31
0.0
  0
SPLINE
  5
185
330
167
100
AcDbEntity
  8
0
 62
     1
420
 16711680
370
     9
100
AcDbSpline
210
0.0
220
0.0
230
1.0
 70
     8
 71
     3
 72
    11
 73
     7
 74
     0
 42
0.0000000001
 43
0.0000000001
 40
0.0
 40
0.0
 40
0.0
 40
0.0
 40
1.0
 40
1.0
 40
1.0
 40
2.0
 40
2.0
 40
2.0
 40
2.0
 10
408.2860155828301
 20
279.9542580860491
 30
0.0
 10
400.5264148477072
 20
279.9542580860491
 30
0.0
 10
394.2360155828301
 20
273.6638588211719
 30
0.0
 10
394.2360155828301
 20
265.9042580860497
 30
0.0
 10
394.2360155828301
 20
258.1446573509269
 30
0.0
 10
400.5264148477072
 20
251.8542580860491
 30
0.0
 10
408.2860155828301
 20
251.8542580860491
 30
0.0
  0
SPLINE
  5
186
330
167
100
AcDbEntity
  8
0
 62
     1
420
 16711680
370
     9
100
AcDbSpline
210
0.0
220
0.0
230
1.0
 70
     8
 71
     3
 72
     8
 73
     4
 74
     0
 42
0.0000000001
 43
0.0000000001
 40
0.0
 40
0.0
 40
0.0
 40
0.0
 40
1.0
 40
1.0
 40
1.0
 40
1.0
 10
427.33601558283
 20
246.8542580860495
 30
0.0
 10
427.33601558283
 20
249.615681835203
 30
0.0
 10
425.097439331984
 20
251.8542580860491
 30
0.0
 10
422.3360155828301
 20
251.8542580860491
 30
0.0
  0
SPLINE
  5
187
330
167
100
AcDbEntity
  8
0
 62
     1
420
 16711680
370
     9
100
AcDbSpline
210
0.0
220
0.0
230
1.0
 70
     8
 71
     3
 72
     8
 73
     4
 74
     0
 42
0.0000000001
 43
0.0000000001
 40
0.0
 40
0.0
 40
0.0
 40
0.0
 40
1.0
 40
1.0
 40
1.0
 40
1.0
 10
427.33601558283
 20
238.1542580860495
 30
0.0
 10
427.33601558283
 20
235.3928343368954
 30
0.0
 10
429.5745918336761
 20
233.1542580860494
 30
0.0
 10
432.3360155828298
 20
233.1542580860494
 30
0.0
  0
SPLINE
  5
188
330
167
100
AcDbEntity
  8
0
 62
     1
420
 16711680
370
     9
100
AcDbSpline
210
0.0
220
0.0
230
1.0
 70
     8
 71
     3
 72
     8
 73
     4
 74
     0
 42
0.0000000001
 43
0.0000000001
 40
0.0
 40
0.0
 40
0.0
 40
0.0
 40
1.0
 40
1.0
 40
1.0
 40
1.0
 10
459.3360155828301
 20
233.1542580860494
 30
0.0
 10
462.0974393319843
 20
233.1542580860494
 30
0.0
 10
464.3360155828297
 20
235.3928343368954
 30
0.0
 10
464.3360155828297
 20
238.1542580860495
 30
0.0
  0
SPLINE
  5
189
330
167
100
AcDbEntity
  8
0
 62
     1
420
 16711680
370
     9
100
AcDbSpline
210
0.0
220
0.0
230
1.0
 70
     8
 71
     3
 72
     8
 73
     4
 74
     0
 42
0.0000000001
 43
0.0000000001
 40
0.0
 40
0.0
 40
0.0
 40
0.0
 40
1.0
 40
1.0
 40
1.0
 40
1.0
 10
469.3360155828299
 20
251.8542580860491
 30
0.0
 10
466.5745918336764
 20
251.8542580860491
 30
0.0
 10
464.3360155828297
 20
249.615681835203
 30
0.0
 10
464.3360155828297
 20
246.8542580860495
 30
0.0
  0
SPLINE
  5
18A
330
167
100
AcDbEntity
  8
0
 62
     1
420
 16711680
370
     9
100
AcDbSpline
210
0.0
220
0.0
230
1.0
 70
     8
 71
     3
 72
    11
 73
     7
 74
     0
 42
0.0000000001
 43
0.0000000001
 40
0.0
 40
0.0
 40
0.0
 40
0.0
 40
1.0
 40
1.0
 40
1.0
 40
2.0
 40
2.0
 40
2.0
 40
2.0
 10
483.3860155828299
 20
251.8542580860491
 30
0.0
 10
491.1456163179527
 20
251.8542580860491
 30
0.0
 10
497.4360155828299
 20
258.1446573509269
 30
0.0
 10
497.4360155828299
 20
265.9042580860497
 30
0.0
 10
497.4360155828299
 20
273.6638588211719
 30
0.0
 10
491.1456163179527
 20
279.9542580860491
 30
0.0
 10
483.3860155828299
 20
279.9542580860491
 30
0.0
  0
SPLINE
  5
18B
330
167
100
AcDbEntity
  8
0
 62
     1
420
 16711680
370
     9
100
AcDbSpline
210
0.0
220
0.0
230
1.0
 70
     8
 71
     3
 72
     8
 73
     4
 74
     0
 42
0.0000000001
 43
0.0000000001
 40
0.0
 40
0.0
 40
0.0
 40
0.0
 40
1.0
 40
1.0
 40
1.0
 40
1.0
 10
388.3360155828303
 20
230.654258086049
 30
0.0
 10
388.3360155828303
 20
229.2735462114726
 30
0.0
 10
389.455303708253
 20
228.1542580860492
 30
0.0
 10
390.8360155828301
 20
228.1542580860492
 30
0.0
  0
SPLINE
  5
18C
330
167
100
AcDbEntity
  8
0
 62
     1
420
 16711680
370
     9
100
AcDbSpline
210
0.0
220
0.0
230
1.0
 70
     8
 71
     3
 72
     8
 73
     4
 74
     0
 42
0.0000000001
 43
0.0000000001
 40
0.0
 40
0.0
 40
0.0
 40
0.0
 40
1.0
 40
1.0
 40
1.0
 40
1.0
 10
390.8360155828301
 20
294.4542580860493
 30
0.0
 10
389.455303708253
 20
294.4542580860493
 30
0.0
 10
388.3360155828303
 20
293.3349699606266
 30
0.0
 10
388.3360155828303
 20
291.9542580860495
 30
0.0
  0
SPLINE
  5
18D
330
167
100
AcDbEntity
  8
0
 62
     1
420
 16711680
370
     9
100
AcDbSpline
210
0.0
220
0.0
230
1.0
 70
     8
 71
     3
 72
     8
 73
     4
 74
     0
 42
0.0000000001
 43
0.0000000001
 40
0.0
 40
0.0
 40
0.0
 40
0.0
 40
1.0
 40
1.0
 40
1.0
 40
1.0
 10
503.3360155828295
 20
291.9542580860495
 30
0.0
 10
503.3360155828295
 20
293.3349699606266
 30
0.0
 10
502.2167274574074
 20
294.4542580860493
 30
0.0
 10
500.8360155828303
 20
294.4542580860493
 30
0.0
  0
SPLINE
  5
18E
330
167
100
AcDbEntity
  8
0
 62
     1
420
 16711680
370
     9
100
AcDbSpline
210
0.0
220
0.0
230
1.0
 70
     8
 71
     3
 72
     8
 73
     4
 74
     0
 42
0.0000000001
 43
0.0000000001
 40
0.0
 40
0.0
 40
0.0
 40
0.0
 40
1.0
 40
1.0
 40
1.0
 40
1.0
 10
500.8360155828303
 20
228.1542580860492
 30
0.0
 10
502.2167274574074
 20
228.1542580860492
 30
0.0
 10
503.3360155828295
 20
229.2735462114726
 30
0.0
 10
503.3360155828295
 20
230.654258086049
 30
0.0
  0
ENDBLK
  5
16A
330
167
100
AcDbEntity
  8
0
100
AcDbBlockEnd
  0
BLOCK
  5
191
330
18F
100
AcDbEntity
  8
0
100
AcDbBlockBegin
  2
Block_7
 70
     0
 10
0.0
 20
0.0
 30
0.0
  3
Block_7
  1

  0
LINE
  5
193
330
18F
100
AcDbEntity
  8
0
 62
     1
420
 16711680
370
     9
100
AcDbLine
 10
375.0262834831407
 20
293.2791370454718
 30
0.0
 11
375.0262834831407
 21
281.4791370454713
 31
0.0
  0
LINE
  5
194
330
18F
100
AcDbEntity
  8
0
 62
     1
420
 16711680
370
     9
100
AcDbLine
 10
384.9262834831407
 20
293.2791370454718
 30
0.0
 11
375.0262834831407
 21
293.2791370454718
 31
0.0
  0
LINE
  5
195
330
18F
100
AcDbEntity
  8
0
 62
     1
420
 16711680
370
     9
100
AcDbLine
 10
384.9262834831407
 20
218.0791370454717
 30
0.0
 11
384.9262834831407
 21
293.2791370454718
 31
0.0
  0
LINE
  5
196
330
18F
100
AcDbEntity
  8
0
 62
     1
420
 16711680
370
     9
100
AcDbLine
 10
376.7762834831406
 20
218.0791370454717
 30
0.0
 11
384.9262834831407
 21
218.0791370454717
 31
0.0
  0
LINE
  5
197
330
18F
100
AcDbEntity
  8
0
 62
     1
420
 16711680
370
     9
100
AcDbLine
 10
376.7762834831406
 20
223.8791370454712
 30
0.0
 11
376.7762834831406
 21
218.0791370454717
 31
0.0
  0
LINE
  5
198
330
18F
100
AcDbEntity
  8
0
 62
     1
420
 16711680
370
     9
100
AcDbLine
 10
371.0762834831407
 20
223.8791370454712
 30
0.0
 11
376.7762834831406
 21
223.8791370454712
 31
0.0
  0
LINE
  5
199
330
18F
100
AcDbEntity
  8
0
 62
     1
420
 16711680
370
     9
100
AcDbLine
 10
371.0762834831407
 20
218.0791370454717
 30
0.0
 11
371.0762834831407
 21
223.8791370454712
 31
0.0
  0
LINE
  5
19A
330
18F
100
AcDbEntity
  8
0
 62
     1
420
 16711680
370
     9
100
AcDbLine
 10
362.9262834831406
 20
218.0791370454717
 30
0.0
 11
371.0762834831407
 21
218.0791370454717
 31
0.0
  0
LINE
  5
19B
330
18F
100
AcDbEntity
  8
0
 62
     1
420
 16711680
370
     9
100
AcDbLine
 10
362.9262834831406
 20
212.2791370454709
 30
0.0
 11
362.9262834831406
 21
218.0791370454717
 31
0.0
  0
LINE
  5
19C
330
18F
100
AcDbEntity
  8
0
 62
     1
420
 16711680
370
     9
100
AcDbLine
 10
347.9262834831407
 20
212.2791370454709
 30
0.0
 11
362.9262834831406
 21
212.2791370454709
 31
0.0
  0
LINE
  5
19D
330
18F
100
AcDbEntity
  8
0
 62
     1
420
 16711680
370
     9
100
AcDbLine
 10
347.9262834831407
 20
218.0791370454717
 30
0.0
 11
347.9262834831407
 21
212.2791370454709
 31
0.0
  0
LINE
  5
19E
330
18F
100
AcDbEntity
  8
0
 62
     1
420
 16711680
370
     9
100
AcDbLine
 10
336.8262834831406
 20
218.0791370454717
 30
0.0
 11
347.9262834831407
 21
218.0791370454717
 31
0.0
  0
LINE
  5
19F
330
18F
100
AcDbEntity
  8
0
 62
     1
420
 16711680
370
     9
100
AcDbLine
 10
336.8262834831406
 20
212.2791370454709
 30
0.0
 11
336.8262834831406
 21
218.0791370454717
 31
0.0
  0
LINE
  5
1A0
330
18F
100
AcDbEntity
  8
0
 62
     1
420
 16711680
370
     9
100
AcDbLine
 10
321.8262834831405
 20
212.2791370454709
 30
0.0
 11
336.8262834831406
 21
212.2791370454709
 31
0.0
  0
LINE
  5
1A1
330
18F
100
AcDbEntity
  8
0
 62
     1
420
 16711680
370
     9
100
AcDbLine
 10
321.8262834831405
 20
218.0791370454717
 30
0.0
 11
321.8262834831405
 21
212.2791370454709
 31
0.0
  0
LINE
  5
1A2
330
18F
100
AcDbEntity
  8
0
 62
     1
420
 16711680
370
     9
100
AcDbLine
 10
313.6762834831407
 20
218.0791370454717
 30
0.0
 11
321.8262834831405
 21
218.0791370454717
 31
0.0
  0
LINE
  5
1A3
330
18F
100
AcDbEntity
  8
0
 62
     1
420
 16711680
370
     9
100
AcDbLine
 10
313.6762834831407
 20
223.8791370454712
 30
0.0
 11
313.6762834831407
 21
218.0791370454717
 31
0.0
  0
LINE
  5
1A4
330
18F
100
AcDbEntity
  8
0
 62
     1
420
 16711680
370
     9
100
AcDbLine
 10
307.9762834831405
 20
223.8791370454712
 30
0.0
 11
313.6762834831407
 21
223.8791370454712
 31
0.0
  0
LINE
  5
1A5
330
18F
100
AcDbEntity
  8
0
 62
     1
420
 16711680
370
     9
100
AcDbLine
 10
307.9762834831405
 20
218.0791370454717
 30
0.0
 11
307.9762834831405
 21
223.8791370454712
 31
0.0
  0
LINE
  5
1A6
330
18F
100
AcDbEntity
  8
0
 62
     1
420
 16711680
370
     9
100
AcDbLine
 10
299.8262834831406
 20
218.0791370454717
 30
0.0
 11
307.9762834831405
 21
218.0791370454717
 31
0.0
  0
LINE
  5
1A7
330
18F
100
AcDbEntity
  8
0
 62
     1
420
 16711680
370
     9
100
AcDbLine
 10
299.8262834831406
 20
293.2791370454718
 30
0.0
 11
299.8262834831406
 21
218.0791370454717
 31
0.0
  0
LINE
  5
1A8
330
18F
100
AcDbEntity
  8
0
 62
     1
420
 16711680
370
     9
100
AcDbLine
 10
309.7262834831407
 20
293.2791370454718
 30
0.0
 11
299.8262834831406
 21
293.2791370454718
 31
0.0
  0
LINE
  5
1A9
330
18F
100
AcDbEntity
  8
0
 62
     1
420
 16711680
370
     9
100
AcDbLine
 10
309.7262834831407
 20
281.4791370454713
 30
0.0
 11
309.7262834831407
 21
293.2791370454718
 31
0.0
  0
LINE
  5
1AA
330
18F
100
AcDbEntity
  8
0
 62
     1
420
 16711680
370
     9
100
AcDbLine
 10
375.0262834831407
 20
281.4791370454713
 30
0.0
 11
309.7262834831407
 21
281.4791370454713
 31
0.0
  0
ENDBLK
  5
192
330
18F
100
AcDbEntity
  8
0
100
AcDbBlockEnd
  0
BLOCK
  5
1AD
330
1AB
100
AcDbEntity
  8
0
100
AcDbBlockBegin
  2
Block_8
 70
     0
 10
0.0
 20
0.0
 30
0.0
  3
Block_8
  1

  0
LINE
  5
1AF
330
1AB
100
AcDbEntity
  8
0
 62
     1
420
 16711680
370
     9
100
AcDbLine
 10
286.5165513834511
 20
293.2791370454718
 30
0.0
 11
286.5165513834511
 21
281.4791370454713
 31
0.0
  0
LINE
  5
1B0
330
1AB
100
AcDbEntity
  8
0
 62
     1
420
 16711680
370
     9
100
AcDbLine
 10
296.4165513834511
 20
293.2791370454718
 30
0.0
 11
286.5165513834511
 21
293.2791370454718
 31
0.0
  0
LINE
  5
1B1
330
1AB
100
AcDbEntity
  8
0
 62
     1
420
 16711680
370
     9
100
AcDbLine
 10
296.4165513834511
 20
218.0791370454717
 30
0.0
 11
296.4165513834511
 21
293.2791370454718
 31
0.0
  0
LINE
  5
1B2
330
1AB
100
AcDbEntity
  8
0
 62
     1
420
 16711680
370
     9
100
AcDbLine
 10
288.266551383451
 20
218.0791370454717
 30
0.0
 11
296.4165513834511
 21
218.0791370454717
 31
0.0
  0
LINE
  5
1B3
330
1AB
100
AcDbEntity
  8
0
 62
     1
420
 16711680
370
     9
100
AcDbLine
 10
288.266551383451
 20
223.8791370454712
 30
0.0
 11
288.266551383451
 21
218.0791370454717
 31
0.0
  0
LINE
  5
1B4
330
1AB
100
AcDbEntity
  8
0
 62
     1
420
 16711680
370
     9
100
AcDbLine
 10
282.5665513834511
 20
223.8791370454712
 30
0.0
 11
288.266551383451
 21
223.8791370454712
 31
0.0
  0
LINE
  5
1B5
330
1AB
100
AcDbEntity
  8
0
 62
     1
420
 16711680
370
     9
100
AcDbLine
 10
282.5665513834511
 20
218.0791370454717
 30
0.0
 11
282.5665513834511
 21
223.8791370454712
 31
0.0
  0
LINE
  5
1B6
330
1AB
100
AcDbEntity
  8
0
 62
     1
420
 16711680
370
     9
100
AcDbLine
 10
274.4165513834509
 20
218.0791370454717
 30
0.0
 11
282.5665513834511
 21
218.0791370454717
 31
0.0
  0
LINE
  5
1B7
330
1AB
100
AcDbEntity
  8
0
 62
     1
420
 16711680
370
     9
100
AcDbLine
 10
274.4165513834509
 20
212.2791370454709
 30
0.0
 11
274.4165513834509
 21
218.0791370454717
 31
0.0
  0
LINE
  5
1B8
330
1AB
100
AcDbEntity
  8
0
 62
     1
420
 16711680
370
     9
100
AcDbLine
 10
259.4165513834511
 20
212.2791370454709
 30
0.0
 11
274.4165513834509
 21
212.2791370454709
 31
0.0
  0
LINE
  5
1B9
330
1AB
100
AcDbEntity
  8
0
 62
     1
420
 16711680
370
     9
100
AcDbLine
 10
259.4165513834511
 20
218.0791370454717
 30
0.0
 11
259.4165513834511
 21
212.2791370454709
 31
0.0
  0
LINE
  5
1BA
330
1AB
100
AcDbEntity
  8
0
 62
     1
420
 16711680
370
     9
100
AcDbLine
 10
248.316551383451
 20
218.0791370454717
 30
0.0
 11
259.4165513834511
 21
218.0791370454717
 31
0.0
  0
LINE
  5
1BB
330
1AB
100
AcDbEntity
  8
0
 62
     1
420
 16711680
370
     9
100
AcDbLine
 10
248.316551383451
 20
212.2791370454709
 30
0.0
 11
248.316551383451
 21
218.0791370454717
 31
0.0
  0
LINE
  5
1BC
330
1AB
100
AcDbEntity
  8
0
 62
     1
420
 16711680
370
     9
100
AcDbLine
 10
233.3165513834508
 20
212.2791370454709
 30
0.0
 11
248.316551383451
 21
212.2791370454709
 31
0.0
  0
LINE
  5
1BD
330
1AB
100
AcDbEntity
  8
0
 62
     1
420
 16711680
370
     9
100
AcDbLine
 10
233.3165513834508
 20
218.0791370454717
 30
0.0
 11
233.3165513834508
 21
212.2791370454709
 31
0.0
  0
LINE
  5
1BE
330
1AB
100
AcDbEntity
  8
0
 62
     1
420
 16711680
370
     9
100
AcDbLine
 10
225.166551383451
 20
218.0791370454717
 30
0.0
 11
233.3165513834508
 21
218.0791370454717
 31
0.0
  0
LINE
  5
1BF
330
1AB
100
AcDbEntity
  8
0
 62
     1
420
 16711680
370
     9
100
AcDbLine
 10
225.166551383451
 20
223.8791370454712
 30
0.0
 11
225.166551383451
 21
218.0791370454717
 31
0.0
  0
LINE
  5
1C0
330
1AB
100
AcDbEntity
  8
0
 62
     1
420
 16711680
370
     9
100
AcDbLine
 10
219.4665513834508
 20
223.8791370454712
 30
0.0
 11
225.166551383451
 21
223.8791370454712
 31
0.0
  0
LINE
  5
1C1
330
1AB
100
AcDbEntity
  8
0
 62
     1
420
 16711680
370
     9
100
AcDbLine
 10
219.4665513834508
 20
218.0791370454717
 30
0.0
 11
219.4665513834508
 21
223.8791370454712
 31
0.0
  0
LINE
  5
1C2
330
1AB
100
AcDbEntity
  8
0
 62
     1
420
 16711680
370
     9
100
AcDbLine
 10
211.316551383451
 20
218.0791370454717
 30
0.0
 11
219.4665513834508
 21
218.0791370454717
 31
0.0
  0
LINE
  5
1C3
330
1AB
100
AcDbEntity
  8
0
 62
     1
420
 16711680
370
     9
100
AcDbLine
 10
211.316551383451
 20
293.2791370454718
 30
0.0
 11
211.316551383451
 21
218.0791370454717
 31
0.0
  0
LINE
  5
1C4
330
1AB
100
AcDbEntity
  8
0
 62
     1
420
 16711680
370
     9
100
AcDbLine
 10
221.216551383451
 20
293.2791370454718
 30
0.0
 11
211.316551383451
 21
293.2791370454718
 31
0.0
  0
LINE
  5
1C5
330
1AB
100
AcDbEntity
  8
0
 62
     1
420
 16711680
370
     9
100
AcDbLine
 10
221.216551383451
 20
281.4791370454713
 30
0.0
 11
221.216551383451
 21
293.2791370454718
 31
0.0
  0
LINE
  5
1C6
330
1AB
100
AcDbEntity
  8
0
 62
     1
420
 16711680
370
     9
100
AcDbLine
 10
286.5165513834511
 20
281.4791370454713
 30
0.0
 11
221.216551383451
 21
281.4791370454713
 31
0.0
  0
ENDBLK
  5
1AE
330
1AB
100
AcDbEntity
  8
0
100
AcDbBlockEnd
  0
ENDSEC
  0
SECTION
  2
ENTITIES
  0
INSERT
  5
79
330
70
100
AcDbEntity
  8
0
100
AcDbBlockReference
  2
Block_0
 10
0.0
 20
0.0
 30
0.0
  0
INSERT
  5
CE
330
70
100
AcDbEntity
  8
0
100
AcDbBlockReference
  2
Block_1
 10
0.0
 20
0.0
 30
0.0
  0
INSERT
  5
FC
330
70
100
AcDbEntity
  8
0
100
AcDbBlockReference
  2
Block_2
 10
0.0
 20
0.0
 30
0.0
  0
INSERT
  5
12A
330
70
100
AcDbEntity
  8
0
100
AcDbBlockReference
  2
Block_3
 10
0.0
 20
0.0
 30
0.0
  0
INSERT
  5
150
330
70
100
AcDbEntity
  8
0
100
AcDbBlockReference
  2
Block_4
 10
0.0
 20
0.0
 30
0.0
  0
INSERT
  5
15C
330
70
100
AcDbEntity
  8
0
100
AcDbBlockReference
  2
Block_5
 10
0.0
 20
0.0
 30
0.0
  0
INSERT
  5
168
330
70
100
AcDbEntity
  8
0
100
AcDbBlockReference
  2
Block_6
 10
0.0
 20
0.0
 30
0.0
  0
INSERT
  5
190
330
70
100
AcDbEntity
  8
0
100
AcDbBlockReference
  2
Block_7
 10
0.0
 20
0.0
 30
0.0
  0
INSERT
  5
1AC
330
70
100
AcDbEntity
  8
0
100
AcDbBlockReference
  2
Block_8
 10
0.0
 20
0.0
 30
0.0
  0
ENDSEC
  0
SECTION
  2
OBJECTS
  0
DICTIONARY
  5
C
330
0
100
AcDbDictionary
281
     1
  3
ACAD_COLOR
350
63
  3
ACAD_DETAILVIEWSTYLE
350
6A
  3
ACAD_GROUP
350
D
  3
ACAD_LAYOUT
350
62
  3
ACAD_MATERIAL
350
10
  3
ACAD_MLEADERSTYLE
350
66
  3
ACAD_MLINESTYLE
350
5F
  3
ACAD_PLOTSETTINGS
350
61
  3
ACAD_PLOTSTYLENAME
350
E
  3
ACAD_SCALELIST
350
42
  3
ACAD_SECTIONVIEWSTYLE
350
68
  3
ACAD_TABLESTYLE
350
64
  3
ACAD_VISUALSTYLE
350
29
  3
ACDB_RECOMPOSE_DATA
350
1CF
  3
AcDbVariableDictionary
350
1C7
  0
DICTIONARY
  5
63
102
{ACAD_REACTORS
330
C
102
}
330
C
100
AcDbDictionary
281
     1
  0
DICTIONARY
  5
6A
102
{ACAD_REACTORS
330
C
102
}
330
C
100
AcDbDictionary
281
     1
  3
Imperial24
350
6B
  0
DICTIONARY
  5
D
102
{ACAD_REACTORS
330
C
102
}
330
C
100
AcDbDictionary
281
     1
  0
DICTIONARY
  5
62
102
{ACAD_REACTORS
330
C
102
}
330
C
100
AcDbDictionary
281
     1
  3
Layout1
350
6F
  3
Layout2
350
77
  3
Model
350
73
  0
DICTIONARY
  5
10
102
{ACAD_REACTORS
330
C
102
}
330
C
100
AcDbDictionary
281
     1
  3
ByBlock
350
19
  3
ByLayer
350
11
  3
Global
350
21
  0
DICTIONARY
  5
66
102
{ACAD_REACTORS
330
C
102
}
330
C
100
AcDbDictionary
281
     1
  3
Standard
350
67
  0
DICTIONARY
  5
5F
102
{ACAD_REACTORS
330
C
102
}
330
C
100
AcDbDictionary
281
     1
  3
Standard
350
60
  0
DICTIONARY
  5
61
102
{ACAD_REACTORS
330
C
102
}
330
C
100
AcDbDictionary
281
     1
  0
ACDBDICTIONARYWDFLT
  5
E
102
{ACAD_REACTORS
330
C
102
}
330
C
100
AcDbDictionary
281
     1
  3
Normal
350
F
100
AcDbDictionaryWithDefault
340
F
  0
DICTIONARY
  5
42
102
{ACAD_REACTORS
330
C
102
}
330
C
100
AcDbDictionary
281
     1
  3
A0
350
43
  3
A1
350
44
  3
A2
350
45
  3
A3
350
46
  3
A4
350
47
  3
A5
350
48
  3
A6
350
49
  3
A7
350
4A
  3
A8
350
4B
  3
A9
350
4C
  3
B0
350
4D
  3
B1
350
4E
  3
B2
350
4F
  3
B3
350
50
  3
B4
350
51
  3
B5
350
52
  3
B6
350
53
  0
DICTIONARY
  5
68
102
{ACAD_REACTORS
330
C
102
}
330
C
100
AcDbDictionary
281
     1
  3
Imperial24
350
69
  0
DICTIONARY
  5
64
102
{ACAD_REACTORS
330
C
102
}
330
C
100
AcDbDictionary
281
     1
  3
Standard
350
65
  0
DICTIONARY
  5
29
102
{ACAD_REACTORS
330
C
102
}
330
C
100
AcDbDictionary
281
     1
  3
2dWireframe
350
2F
  3
Basic
350
2E
  3
Brighten
350
35
  3
ColorChange
350
39
  3
Conceptual
350
32
  3
Dim
350
34
  3
EdgeColorOff
350
41
  3
Facepattern
350
38
  3
Flat
350
2A
  3
FlatWithEdges
350
2B
  3
Gouraud
350
2C
  3
GouraudWithEdges
350
2D
  3
Hidden
350
31
  3
JitterOff
350
3F
  3
Linepattern
350
37
  3
OverhangOff
350
40
  3
Realistic
350
33
  3
Shaded
350
3E
  3
Shaded with edges
350
3D
  3
Shades of Gray
350
3A
  3
Sketchy
350
3B
  3
Thicken
350
36
  3
Wireframe
350
30
  3
X-Ray
350
3C
  0
XRECORD
  5
1CF
102
{ACAD_REACTORS
330
C
102
}
330
C
100
AcDbXrecord
280
     1
 90
        1
330
65
  0
DICTIONARY
  5
1C7
102
{ACAD_REACTORS
330
C
102
}
330
C
100
AcDbDictionary
281
     1
  3
CANNOSCALE
350
1CC
  3
CMLEADERSTYLE
350
1C9
  3
CTABLESTYLE
350
1C8
  3
CVIEWDETAILSTYLE
350
1CA
  3
CVIEWSECTIONSTYLE
350
1CB
  0
ACDBDETAILVIEWSTYLE
  5
6B
102
{ACAD_REACTORS
330
6A
102
}
330
6A
100
AcDbModelDocViewStyle
 70
     0
  3
Imperial24
290
     1
300
Imperial24
 90
        0
100
AcDbDetailViewStyle
 70
     0
 71
     0
 90
        3
 71
     1
340
55
 62
   256
 40
0.24
340
0
 62
   256
 40
0.24
300

 40
0.36
280
     3
 71
     2
340
5D
 90
       25
 62
   256
 71
     3
340
55
 62
   256
 40
0.24
 90
        1
 40
0.75
 90
        1
300
%<\AcVar ViewType \f "%tc1">% %<\AcVar ViewDetailId>%\PSCALE %<\AcVar ViewScale \f "%sn">%
 71
     4
340
5D
 90
       25
 62
   256
340
5D
 90
       25
 62
   256
280
     0
  0
LAYOUT
  5
6F
102
{ACAD_REACTORS
330
62
102
}
330
62
100
AcDbPlotSettings
  1

  2

  4

  6

 40
0.0
 41
0.0
 42
0.0
 43
0.0
 44
0.0
 45
0.0
 46
0.0
 47
0.0
 48
0.0
 49
0.0
140
0.0
141
0.0
142
1.0
143
1.0
 70
   688
 72
     0
 73
     0
 74
     5
  7

 75
    16
147
1.0
 76
     0
 77
     2
 78
   300
148
0.0
149
0.0
100
AcDbLayout
  1
Layout1
 70
     1
 71
     1
 10
0.0
 20
0.0
 11
12.0
 21
9.0
 12
0.0
 22
0.0
 32
0.0
 14
0.0
 24
0.0
 34
0.0
 15
0.0
 25
0.0
 35
0.0
146
0.0
 13
0.0
 23
0.0
 33
0.0
 16
1.0
 26
0.0
 36
0.0
 17
0.0
 27
1.0
 37
0.0
 76
     0
330
6C
  0
LAYOUT
  5
77
102
{ACAD_REACTORS
330
62
102
}
330
62
100
AcDbPlotSettings
  1

  2

  4

  6

 40
0.0
 41
0.0
 42
0.0
 43
0.0
 44
0.0
 45
0.0
 46
0.0
 47
0.0
 48
0.0
 49
0.0
140
0.0
141
0.0
142
1.0
143
1.0
 70
   688
 72
     0
 73
     0
 74
     5
  7

 75
    16
147
1.0
 76
     0
 77
     2
 78
   300
148
0.0
149
0.0
100
AcDbLayout
  1
Layout2
 70
     1
 71
     2
 10
0.0
 20
0.0
 11
12.0
 21
9.0
 12
0.0
 22
0.0
 32
0.0
 14
0.0
 24
0.0
 34
0.0
 15
0.0
 25
0.0
 35
0.0
146
0.0
 13
0.0
 23
0.0
 33
0.0
 16
1.0
 26
0.0
 36
0.0
 17
0.0
 27
1.0
 37
0.0
 76
     0
330
74
  0
LAYOUT
  5
73
102
{ACAD_REACTORS
330
62
102
}
330
62
100
AcDbPlotSettings
  1

  2

  4

  6

 40
0.0
 41
0.0
 42
0.0
 43
0.0
 44
0.0
 45
0.0
 46
0.0
 47
0.0
 48
0.0
 49
0.0
140
0.0
141
0.0
142
1.0
143
1.0
 70
  1712
 72
     0
 73
     0
 74
     0
  7

 75
     0
147
1.0
 76
     0
 77
     2
 78
   300
148
0.0
149
0.0
100
AcDbLayout
  1
Model
 70
     1
 71
     0
 10
0.0
 20
0.0
 11
12.0
 21
9.0
 12
0.0
 22
0.0
 32
0.0
 14
0.0
 24
0.0
 34
0.0
 15
0.0
 25
0.0
 35
0.0
146
0.0
 13
0.0
 23
0.0
 33
0.0
 16
1.0
 26
0.0
 36
0.0
 17
0.0
 27
1.0
 37
0.0
 76
     0
330
70
  0
MATERIAL
  5
19
102
{ACAD_XDICTIONARY
360
1A
102
}
102
{ACAD_REACTORS
330
10
102
}
330
10
100
AcDbMaterial
  1
ByBlock
 72
     0
 43
0.0208333333333333
 43
0.0
 43
0.0
 43
0.0
 43
0.0
 43
0.0208333333333333
 43
0.0
 43
0.0
 43
0.0
 43
0.0
 43
1.0
 43
0.0
 43
0.0
 43
0.0
 43
0.0
 43
1.0
 77
     0
 47
0.0208333333333333
 47
0.0
 47
0.0
 47
0.0
 47
0.0
 47
0.0208333333333333
 47
0.0
 47
0.0
 47
0.0
 47
0.0
 47
1.0
 47
0.0
 47
0.0
 47
0.0
 47
0.0
 47
1.0
171
     0
 49
0.0208333333333333
 49
0.0
 49
0.0
 49
0.0
 49
0.0
 49
0.0208333333333333
 49
0.0
 49
0.0
 49
0.0
 49
0.0
 49
1.0
 49
0.0
 49
0.0
 49
0.0
 49
0.0
 49
1.0
175
     0
142
0.0208333333333333
142
0.0
142
0.0
142
0.0
142
0.0
142
0.0208333333333333
142
0.0
142
0.0
142
0.0
142
0.0
142
1.0
142
0.0
142
0.0
142
0.0
142
0.0
142
1.0
179
     0
144
0.0208333333333333
144
0.0
144
0.0
144
0.0
144
0.0
144
0.0208333333333333
144
0.0
144
0.0
144
0.0
144
0.0
144
1.0
144
0.0
144
0.0
144
0.0
144
0.0
144
1.0
147
0.0208333333333333
147
0.0
147
0.0
147
0.0
147
0.0
147
0.0208333333333333
147
0.0
147
0.0
147
0.0
147
0.0
147
1.0
147
0.0
147
0.0
147
0.0
147
0.0
147
1.0
  0
MATERIAL
  5
11
102
{ACAD_XDICTIONARY
360
12
102
}
102
{ACAD_REACTORS
330
10
102
}
330
10
100
AcDbMaterial
  1
ByLayer
 72
     0
 43
0.0208333333333333
 43
0.0
 43
0.0
 43
0.0
 43
0.0
 43
0.0208333333333333
 43
0.0
 43
0.0
 43
0.0
 43
0.0
 43
1.0
 43
0.0
 43
0.0
 43
0.0
 43
0.0
 43
1.0
 77
     0
 47
0.0208333333333333
 47
0.0
 47
0.0
 47
0.0
 47
0.0
 47
0.0208333333333333
 47
0.0
 47
0.0
 47
0.0
 47
0.0
 47
1.0
 47
0.0
 47
0.0
 47
0.0
 47
0.0
 47
1.0
171
     0
 49
0.0208333333333333
 49
0.0
 49
0.0
 49
0.0
 49
0.0
 49
0.0208333333333333
 49
0.0
 49
0.0
 49
0.0
 49
0.0
 49
1.0
 49
0.0
 49
0.0
 49
0.0
 49
0.0
 49
1.0
175
     0
142
0.0208333333333333
142
0.0
142
0.0
142
0.0
142
0.0
142
0.0208333333333333
142
0.0
142
0.0
142
0.0
142
0.0
142
1.0
142
0.0
142
0.0
142
0.0
142
0.0
142
1.0
179
     0
144
0.0208333333333333
144
0.0
144
0.0
144
0.0
144
0.0
144
0.0208333333333333
144
0.0
144
0.0
144
0.0
144
0.0
144
1.0
144
0.0
144
0.0
144
0.0
144
0.0
144
1.0
147
0.0208333333333333
147
0.0
147
0.0
147
0.0
147
0.0
147
0.0208333333333333
147
0.0
147
0.0
147
0.0
147
0.0
147
1.0
147
0.0
147
0.0
147
0.0
147
0.0
147
1.0
  0
MATERIAL
  5
21
102
{ACAD_XDICTIONARY
360
22
102
}
102
{ACAD_REACTORS
330
10
102
}
330
10
100
AcDbMaterial
  1
Global
 72
     0
 43
0.0208333333333333
 43
0.0
 43
0.0
 43
0.0
 43
0.0
 43
0.0208333333333333
 43
0.0
 43
0.0
 43
0.0
 43
0.0
 43
1.0
 43
0.0
 43
0.0
 43
0.0
 43
0.0
 43
1.0
 77
     0
 47
0.0208333333333333
 47
0.0
 47
0.0
 47
0.0
 47
0.0
 47
0.0208333333333333
 47
0.0
 47
0.0
 47
0.0
 47
0.0
 47
1.0
 47
0.0
 47
0.0
 47
0.0
 47
0.0
 47
1.0
171
     0
 49
0.0208333333333333
 49
0.0
 49
0.0
 49
0.0
 49
0.0
 49
0.0208333333333333
 49
0.0
 49
0.0
 49
0.0
 49
0.0
 49
1.0
 49
0.0
 49
0.0
 49
0.0
 49
0.0
 49
1.0
175
     0
142
0.0208333333333333
142
0.0
142
0.0
142
0.0
142
0.0
142
0.0208333333333333
142
0.0
142
0.0
142
0.0
142
0.0
142
1.0
142
0.0
142
0.0
142
0.0
142
0.0
142
1.0
179
     0
144
0.0208333333333333
144
0.0
144
0.0
144
0.0
144
0.0
144
0.0208333333333333
144
0.0
144
0.0
144
0.0
144
0.0
144
1.0
144
0.0
144
0.0
144
0.0
144
0.0
144
1.0
147
0.0208333333333333
147
0.0
147
0.0
147
0.0
147
0.0
147
0.0208333333333333
147
0.0
147
0.0
147
0.0
147
0.0
147
1.0
147
0.0
147
0.0
147
0.0
147
0.0
147
1.0
  0
MLEADERSTYLE
  5
67
102
{ACAD_REACTORS
330
66
102
}
330
66
100
AcDbMLeaderStyle
179
     2
170
     2
171
     1
172
     0
 90
        2
 40
0.0
 41
0.0
173
     1
 91
-1056964608
340
5B
 92
       -2
290
     1
 42
0.09
291
     1
 43
0.36
  3
Standard
 44
0.18
300

342
55
174
     1
178
     6
175
     1
176
     0
 93
-1056964608
 45
0.18
292
     0
297
     0
 46
0.18
 94
-1056964608
 47
1.0
 49
1.0
140
1.0
293
     1
141
0.0
294
     1
177
     0
142
1.0
295
     1
296
     0
143
0.125
271
     0
272
     9
273
     9
298
     1
  0
MLINESTYLE
  5
60
102
{ACAD_REACTORS
330
5F
102
}
330
5F
100
AcDbMlineStyle
  2
STANDARD
 70
     0
  3

 62
   256
 51
90.0
 52
90.0
 71
     2
 49
0.5
 62
   256
  6
BYLAYER
 49
-0.5
 62
   256
  6
BYLAYER
  0
ACDBPLACEHOLDER
  5
F
102
{ACAD_REACTORS
330
E
102
}
330
E
  0
SCALE
  5
43
102
{ACAD_REACTORS
330
42
102
}
330
42
100
AcDbScale
 70
     0
300
1:1
140
1.0
141
1.0
290
     1
  0
SCALE
  5
44
102
{ACAD_REACTORS
330
42
102
}
330
42
100
AcDbScale
 70
     0
300
1/128" = 1'-0"
140
0.0078125
141
12.0
290
     0
  0
SCALE
  5
45
102
{ACAD_REACTORS
330
42
102
}
330
42
100
AcDbScale
 70
     0
300
1/64" = 1'-0"
140
0.015625
141
12.0
290
     0
  0
SCALE
  5
46
102
{ACAD_REACTORS
330
42
102
}
330
42
100
AcDbScale
 70
     0
300
1/32" = 1'-0"
140
0.03125
141
12.0
290
     0
  0
SCALE
  5
47
102
{ACAD_REACTORS
330
42
102
}
330
42
100
AcDbScale
 70
     0
300
1/16" = 1'-0"
140
0.0625
141
12.0
290
     0
  0
SCALE
  5
48
102
{ACAD_REACTORS
330
42
102
}
330
42
100
AcDbScale
 70
     0
300
3/32" = 1'-0"
140
0.09375
141
12.0
290
     0
  0
SCALE
  5
49
102
{ACAD_REACTORS
330
42
102
}
330
42
100
AcDbScale
 70
     0
300
1/8" = 1'-0"
140
0.125
141
12.0
290
     0
  0
SCALE
  5
4A
102
{ACAD_REACTORS
330
42
102
}
330
42
100
AcDbScale
 70
     0
300
3/16" = 1'-0"
140
0.1875
141
12.0
290
     0
  0
SCALE
  5
4B
102
{ACAD_REACTORS
330
42
102
}
330
42
100
AcDbScale
 70
     0
300
1/4" = 1'-0"
140
0.25
141
12.0
290
     0
  0
SCALE
  5
4C
102
{ACAD_REACTORS
330
42
102
}
330
42
100
AcDbScale
 70
     0
300
3/8" = 1'-0"
140
0.375
141
12.0
290
     0
  0
SCALE
  5
4D
102
{ACAD_REACTORS
330
42
102
}
330
42
100
AcDbScale
 70
     0
300
1/2" = 1'-0"
140
0.5
141
12.0
290
     0
  0
SCALE
  5
4E
102
{ACAD_REACTORS
330
42
102
}
330
42
100
AcDbScale
 70
     0
300
3/4" = 1'-0"
140
0.75
141
12.0
290
     0
  0
SCALE
  5
4F
102
{ACAD_REACTORS
330
42
102
}
330
42
100
AcDbScale
 70
     0
300
1" = 1'-0"
140
1.0
141
12.0
290
     0
  0
SCALE
  5
50
102
{ACAD_REACTORS
330
42
102
}
330
42
100
AcDbScale
 70
     0
300
1-1/2" = 1'-0"
140
1.5
141
12.0
290
     0
  0
SCALE
  5
51
102
{ACAD_REACTORS
330
42
102
}
330
42
100
AcDbScale
 70
     0
300
3" = 1'-0"
140
3.0
141
12.0
290
     0
  0
SCALE
  5
52
102
{ACAD_REACTORS
330
42
102
}
330
42
100
AcDbScale
 70
     0
300
6" = 1'-0"
140
6.0
141
12.0
290
     0
  0
SCALE
  5
53
102
{ACAD_REACTORS
330
42
102
}
330
42
100
AcDbScale
 70
     0
300
1'-0" = 1'-0"
140
12.0
141
12.0
290
     0
  0
ACDBSECTIONVIEWSTYLE
  5
69
102
{ACAD_REACTORS
330
68
102
}
330
68
100
AcDbModelDocViewStyle
 70
     0
  3
Imperial24
290
     1
300
Imperial24
 90
        0
100
AcDbSectionViewStyle
 70
     0
 71
     0
 90
       78
 71
     1
340
55
 62
   256
 40
0.24
340
0
340
0
 62
   256
 40
0.24
300
I, O, Q, S, X, Z
 40
0.48
 90
        3
 40
0.18
 90
        1
 71
     2
340
5D
 90
       25
 62
   256
340
5D
 90
       50
 62
   256
 40
0.24
 40
0.0
 40
0.24
 71
     3
340
55
 62
   256
 40
0.24
 90
        1
 40
0.75
 90
        1
300
%<\AcVar ViewType \f "%tc1">% %<\AcVar ViewSectionStartId>%-%<\AcVar ViewSectionEndId>%\PSCALE %<\AcVar ViewScale \f "%sn">%
 71
     4
 62
   256
 62
   257
300
ANSI31
 40
1.0
 90
        0
290
     0
290
     0
 90
        6
 40
0.0
 40
1.570796326794896
 40
0.2617993877991494
 40
1.308996938995747
 40
-0.2617993877991494
 40
1.832595714594046
  0
TABLESTYLE
  5
65
102
{ACAD_XDICTIONARY
360
1CD
102
}
102
{ACAD_REACTORS
330
64
102
}
330
64
100
AcDbTableStyle
280
     0
  3
Standard
 70
     0
 71
     0
 40
0.06
 41
0.06
280
     0
281
     0
  7
Standard
140
0.18
170
     2
 62
     0
 63
     7
283
     0
 90
      512
 91
        0
  1

274
    -2
284
     1
 64
     0
275
    -2
285
     1
 65
     0
276
    -2
286
     1
 66
     0
277
    -2
287
     1
 67
     0
278
    -2
288
     1
 68
     0
279
    -2
289
     1
 69
     0
  7
Standard
140
0.25
170
     5
 62
     0
 63
     7
283
     0
 90
      512
 91
        0
  1

274
    -2
284
     1
 64
     0
275
    -2
285
     1
 65
     0
276
    -2
286
     1
 66
     0
277
    -2
287
     1
 67
     0
278
    -2
288
     1
 68
     0
279
    -2
289
     1
 69
     0
  7
Standard
140
0.18
170
     5
 62
     0
 63
     7
283
     0
 90
      512
 91
        0
  1

274
    -2
284
     1
 64
     0
275
    -2
285
     1
 65
     0
276
    -2
286
     1
 66
     0
277
    -2
287
     1
 67
     0
278
    -2
288
     1
 68
     0
279
    -2
289
     1
 69
     0
  0
VISUALSTYLE
  5
2F
102
{ACAD_REACTORS
330
29
102
}
330
29
100
AcDbVisualStyle
  2
2dWireframe
 70
     4
177
     3
291
     0
 70
    58
 90
        0
176
     1
 90
        2
176
     1
 90
        0
176
     1
 90
        0
176
     1
 40
0.6
176
     1
 40
30.0
176
     1
 62
     7
420
 16777215
176
     1
 90
        1
176
     1
 90
        4
176
     1
 62
     7
176
     1
 62
   257
176
     1
 90
        1
176
     1
 90
        1
176
     1
 40
1.0
176
     1
 90
        0
176
     1
 62
   257
176
     1
 40
1.0
176
     1
 90
        1
176
     1
 90
        6
176
     1
 90
        2
176
     1
 62
     7
176
     1
 90
        5
176
     1
 90
        0
176
     1
 90
        0
176
     1
290
     0
176
     1
 90
        1
176
     1
 40
0.0
176
     1
 90
        0
176
     1
290
     1
176
     1
290
     1
176
     1
290
     0
176
     1
290
     0
176
     1
290
     0
176
     1
290
     0
176
     1
290
     0
176
     1
290
     0
176
     1
290
     0
176
     1
 90
       50
176
     1
 40
0.0
176
     1
 40
1.0
176
     1
 90
        0
176
     1
 62
    18
420
        0
176
     1
 90
       50
176
     1
 90
        3
176
     1
 62
     5
420
      255
176
     1
290
     0
176
     1
 90
       50
176
     1
 90
       50
176
     1
 90
       50
176
     1
290
     0
176
     1
 90
       50
176
     1
 62
   256
176
     0
 40
1.0
176
     0
 90
        2
176
     1
  1
strokes_ogs.tif
176
     1
290
     0
176
     1
 40
1.0
176
     1
 40
1.0
176
     1
  0
VISUALSTYLE
  5
2E
102
{ACAD_REACTORS
330
29
102
}
330
29
100
AcDbVisualStyle
  2
Basic
 70
     7
177
     3
291
     1
 70
    58
 90
        1
176
     1
 90
        0
176
     1
 90
        1
176
     1
 90
        0
176
     1
 40
0.6
176
     1
 40
30.0
176
     1
 62
     7
420
 16777215
176
     1
 90
        0
176
     1
 90
        4
176
     1
 62
     7
176
     1
 62
   257
176
     1
 90
        1
176
     1
 90
        1
176
     1
 40
1.0
176
     1
 90
        8
176
     1
 62
     7
176
     1
 40
1.0
176
     1
 90
        1
176
     1
 90
        6
176
     1
 90
        2
176
     1
 62
     7
176
     1
 90
        5
176
     1
 90
        0
176
     1
 90
        0
176
     1
290
     0
176
     1
 90
        1
176
     1
 40
0.0
176
     1
 90
        0
176
     1
290
     0
176
     1
290
     1
176
     1
290
     1
176
     1
290
     0
176
     1
290
     0
176
     1
290
     0
176
     1
290
     0
176
     1
290
     0
176
     1
290
     0
176
     1
 90
       50
176
     1
 40
0.0
176
     1
 40
1.0
176
     1
 90
        0
176
     1
 62
    18
420
        0
176
     1
 90
       50
176
     1
 90
        3
176
     1
 62
     5
420
      255
176
     1
290
     0
176
     1
 90
       50
176
     1
 90
       50
176
     1
 90
       50
176
     1
290
     0
176
     1
 90
       50
176
     1
 62
   256
176
     0
 40
1.0
176
     0
 90
        2
176
     1
  1
strokes_ogs.tif
176
     1
290
     0
176
     1
 40
1.0
176
     1
 40
1.0
176
     1
  0
VISUALSTYLE
  5
35
102
{ACAD_REACTORS
330
29
102
}
330
29
100
AcDbVisualStyle
  2
Brighten
 70
    12
177
     3
291
     1
 70
    58
 90
        2
176
     1
 90
        2
176
     1
 90
        0
176
     1
 90
        0
176
     1
 40
0.6
176
     1
 40
30.0
176
     1
 62
     7
420
 16777215
176
     1
 90
        1
176
     1
 90
        4
176
     1
 62
     7
176
     1
 62
   257
176
     1
 90
        1
176
     1
 90
        1
176
     1
 40
1.0
176
     1
 90
        8
176
     1
 62
     7
176
     1
 40
1.0
176
     1
 90
        1
176
     1
 90
        6
176
     1
 90
        2
176
     1
 62
     7
176
     1
 90
        5
176
     1
 90
        0
176
     1
 90
        0
176
     1
290
     0
176
     1
 90
        1
176
     1
 40
50.0
176
     1
 90
        0
176
     1
290
     0
176
     1
290
     1
176
     1
290
     1
176
     1
290
     0
176
     1
290
     0
176
     1
290
     0
176
     1
290
     0
176
     1
290
     0
176
     1
290
     0
176
     1
 90
       50
176
     1
 40
0.0
176
     1
 40
1.0
176
     1
 90
        0
176
     1
 62
    18
420
        0
176
     1
 90
       50
176
     1
 90
        3
176
     1
 62
     5
420
      255
176
     1
290
     0
176
     1
 90
       50
176
     1
 90
       50
176
     1
 90
       50
176
     1
290
     0
176
     1
 90
       50
176
     1
 62
   256
176
     0
 40
1.0
176
     0
 90
        2
176
     1
  1
strokes_ogs.tif
176
     1
290
     0
176
     1
 40
1.0
176
     1
 40
1.0
176
     1
  0
VISUALSTYLE
  5
39
102
{ACAD_REACTORS
330
29
102
}
330
29
100
AcDbVisualStyle
  2
ColorChange
 70
    16
177
     3
291
     1
 70
    58
 90
        2
176
     1
 90
        2
176
     1
 90
        3
176
     1
 90
        0
176
     1
 40
0.6
176
     1
 40
30.0
176
     1
 62
     8
420
  8421504
176
     1
 90
        1
176
     1
 90
        4
176
     1
 62
     7
176
     1
 62
   257
176
     1
 90
        1
176
     1
 90
        1
176
     1
 40
1.0
176
     1
 90
        8
176
     1
 62
     8
420
  8421504
176
     1
 40
1.0
176
     1
 90
        1
176
     1
 90
        6
176
     1
 90
        2
176
     1
 62
     7
176
     1
 90
        5
176
     1
 90
        0
176
     1
 90
        0
176
     1
290
     0
176
     1
 90
        1
176
     1
 40
0.0
176
     1
 90
        0
176
     1
290
     0
176
     1
290
     1
176
     1
290
     1
176
     1
290
     0
176
     1
290
     0
176
     1
290
     0
176
     1
290
     0
176
     1
290
     0
176
     1
290
     0
176
     1
 90
       50
176
     1
 40
0.0
176
     1
 40
1.0
176
     1
 90
        0
176
     1
 62
    18
420
        0
176
     1
 90
       50
176
     1
 90
        3
176
     1
 62
     5
420
      255
176
     1
290
     0
176
     1
 90
       50
176
     1
 90
       50
176
     1
 90
       50
176
     1
290
     0
176
     1
 90
       50
176
     1
 62
   256
176
     0
 40
1.0
176
     0
 90
        2
176
     1
  1
strokes_ogs.tif
176
     1
290
     0
176
     1
 40
1.0
176
     1
 40
1.0
176
     1
  0
VISUALSTYLE
  5
32
102
{ACAD_REACTORS
330
29
102
}
330
29
100
AcDbVisualStyle
  2
Conceptual
 70
     9
177
     3
291
     0
 70
    58
 90
        3
176
     1
 90
        2
176
     1
 90
        0
176
     1
 90
        0
176
     1
 40
0.6
176
     1
 40
30.0
176
     1
 62
     7
420
 16777215
176
     1
 90
        2
176
     1
 90
        2
176
     1
 62
     7
176
     1
 62
   257
176
     1
 90
        1
176
     1
 90
        1
176
     1
 40
179.0
176
     1
 90
        8
176
     1
 62
     7
176
     1
 40
1.0
176
     1
 90
        1
176
     1
 90
        6
176
     1
 90
        2
176
     1
 62
     7
176
     1
 90
        3
176
     1
 90
        0
176
     1
 90
        0
176
     1
290
     0
176
     1
 90
        1
176
     1
 40
0.0
176
     1
 90
        0
176
     1
290
     0
176
     1
290
     1
176
     1
290
     1
176
     1
290
     0
176
     1
290
     0
176
     1
290
     0
176
     1
290
     0
176
     1
290
     0
176
     1
290
     0
176
     1
 90
       50
176
     1
 40
0.0
176
     1
 40
1.0
176
     1
 90
        0
176
     1
 62
    18
420
        0
176
     1
 90
       50
176
     1
 90
        3
176
     1
 62
     5
420
      255
176
     1
290
     0
176
     1
 90
       50
176
     1
 90
       50
176
     1
 90
       50
176
     1
290
     0
176
     1
 90
       50
176
     1
 62
   256
176
     0
 40
1.0
176
     0
 90
        2
176
     1
  1
strokes_ogs.tif
176
     1
290
     0
176
     1
 40
1.0
176
     1
 40
1.0
176
     1
  0
VISUALSTYLE
  5
34
102
{ACAD_REACTORS
330
29
102
}
330
29
100
AcDbVisualStyle
  2
Dim
 70
    11
177
     3
291
     1
 70
    58
 90
        2
176
     1
 90
        2
176
     1
 90
        0
176
     1
 90
        0
176
     1
 40
0.6
176
     1
 40
30.0
176
     1
 62
     7
420
 16777215
176
     1
 90
        1
176
     1
 90
        4
176
     1
 62
     7
176
     1
 62
   257
176
     1
 90
        1
176
     1
 90
        1
176
     1
 40
1.0
176
     1
 90
        8
176
     1
 62
     7
176
     1
 40
1.0
176
     1
 90
        1
176
     1
 90
        6
176
     1
 90
        2
176
     1
 62
     7
176
     1
 90
        5
176
     1
 90
        0
176
     1
 90
        0
176
     1
290
     0
176
     1
 90
        1
176
     1
 40
-50.0
176
     1
 90
        0
176
     1
290
     0
176
     1
290
     1
176
     1
290
     1
176
     1
290
     0
176
     1
290
     0
176
     1
290
     0
176
     1
290
     0
176
     1
290
     0
176
     1
290
     0
176
     1
 90
       50
176
     1
 40
0.0
176
     1
 40
1.0
176
     1
 90
        0
176
     1
 62
    18
420
        0
176
     1
 90
       50
176
     1
 90
        3
176
     1
 62
     5
420
      255
176
     1
290
     0
176
     1
 90
       50
176
     1
 90
       50
176
     1
 90
       50
176
     1
290
     0
176
     1
 90
       50
176
     1
 62
   256
176
     0
 40
1.0
176
     0
 90
        2
176
     1
  1
strokes_ogs.tif
176
     1
290
     0
176
     1
 40
1.0
176
     1
 40
1.0
176
     1
  0
VISUALSTYLE
  5
41
102
{ACAD_REACTORS
330
29
102
}
330
29
100
AcDbVisualStyle
  2
EdgeColorOff
 70
    22
177
     3
291
     1
 70
    58
 90
        2
176
     0
 90
        2
176
     0
 90
        0
176
     0
 90
        0
176
     0
 40
0.6
176
     0
 40
30.0
176
     0
 62
     7
420
 16777215
176
     0
 90
        1
176
     0
 90
        4
176
     0
 62
     7
176
     0
 62
   257
176
     0
 90
        1
176
     0
 90
        1
176
     0
 40
1.0
176
     0
 90
        8
176
     2
 62
     7
176
     0
 40
1.0
176
     0
 90
        1
176
     0
 90
        6
176
     0
 90
        2
176
     0
 62
     7
176
     0
 90
        5
176
     0
 90
        0
176
     0
 90
        0
176
     0
290
     0
176
     0
 90
        1
176
     0
 40
0.0
176
     0
 90
        0
176
     0
290
     0
176
     0
290
     1
176
     0
290
     1
176
     0
290
     0
176
     0
290
     0
176
     0
290
     0
176
     0
290
     0
176
     0
290
     0
176
     0
290
     0
176
     0
 90
       50
176
     0
 40
0.0
176
     0
 40
1.0
176
     0
 90
        0
176
     0
 62
    18
420
        0
176
     0
 90
       50
176
     0
 90
        3
176
     0
 62
     5
420
      255
176
     0
290
     0
176
     0
 90
       50
176
     0
 90
       50
176
     0
 90
       50
176
     0
290
     0
176
     0
 90
       50
176
     0
 62
   256
176
     0
 40
1.0
176
     0
 90
        2
176
     0
  1
strokes_ogs.tif
176
     0
290
     0
176
     0
 40
1.0
176
     0
 40
1.0
176
     0
  0
VISUALSTYLE
  5
38
102
{ACAD_REACTORS
330
29
102
}
330
29
100
AcDbVisualStyle
  2
Facepattern
 70
    15
177
     3
291
     1
 70
    58
 90
        2
176
     1
 90
        2
176
     1
 90
        0
176
     1
 90
        0
176
     1
 40
0.6
176
     1
 40
30.0
176
     1
 62
     7
420
 16777215
176
     1
 90
        1
176
     1
 90
        4
176
     1
 62
     7
176
     1
 62
   257
176
     1
 90
        1
176
     1
 90
        1
176
     1
 40
1.0
176
     1
 90
        8
176
     1
 62
     7
176
     1
 40
1.0
176
     1
 90
        1
176
     1
 90
        6
176
     1
 90
        2
176
     1
 62
     7
176
     1
 90
        5
176
     1
 90
        0
176
     1
 90
        0
176
     1
290
     0
176
     1
 90
        1
176
     1
 40
0.0
176
     1
 90
        0
176
     1
290
     0
176
     1
290
     1
176
     1
290
     1
176
     1
290
     0
176
     1
290
     0
176
     1
290
     0
176
     1
290
     0
176
     1
290
     0
176
     1
290
     0
176
     1
 90
       50
176
     1
 40
0.0
176
     1
 40
1.0
176
     1
 90
        0
176
     1
 62
    18
420
        0
176
     1
 90
       50
176
     1
 90
        3
176
     1
 62
     5
420
      255
176
     1
290
     0
176
     1
 90
       50
176
     1
 90
       50
176
     1
 90
       50
176
     1
290
     0
176
     1
 90
       50
176
     1
 62
   256
176
     0
 40
1.0
176
     0
 90
        2
176
     1
  1
strokes_ogs.tif
176
     1
290
     0
176
     1
 40
1.0
176
     1
 40
1.0
176
     1
  0
VISUALSTYLE
  5
2A
102
{ACAD_REACTORS
330
29
102
}
330
29
100
AcDbVisualStyle
  2
Flat
 70
     0
177
     3
291
     1
 70
    58
 90
        2
176
     1
 90
        1
176
     1
 90
        1
176
     1
 90
        2
176
     1
 40
0.6
176
     1
 40
30.0
176
     1
 62
     7
420
 16777215
176
     1
 90
        0
176
     1
 90
        0
176
     1
 62
     7
176
     1
 62
   257
176
     1
 90
        1
176
     1
 90
        1
176
     1
 40
1.0
176
     1
 90
        8
176
     1
 62
     7
176
     1
 40
1.0
176
     1
 90
        1
176
     1
 90
        6
176
     1
 90
        2
176
     1
 62
     7
176
     1
 90
        5
176
     1
 90
        0
176
     1
 90
        0
176
     1
290
     0
176
     1
 90
       13
176
     1
 40
0.0
176
     1
 90
        0
176
     1
290
     0
176
     1
290
     1
176
     1
290
     1
176
     1
290
     0
176
     1
290
     0
176
     1
290
     0
176
     1
290
     0
176
     1
290
     0
176
     1
290
     0
176
     1
 90
       50
176
     1
 40
0.0
176
     1
 40
1.0
176
     1
 90
        0
176
     1
 62
    18
420
        0
176
     1
 90
       50
176
     1
 90
        3
176
     1
 62
     5
420
      255
176
     1
290
     0
176
     1
 90
       50
176
     1
 90
       50
176
     1
 90
       50
176
     1
290
     0
176
     1
 90
       50
176
     1
 62
   256
176
     0
 40
1.0
176
     0
 90
        2
176
     1
  1
strokes_ogs.tif
176
     1
290
     0
176
     1
 40
1.0
176
     1
 40
1.0
176
     1
  0
VISUALSTYLE
  5
2B
102
{ACAD_REACTORS
330
29
102
}
330
29
100
AcDbVisualStyle
  2
FlatWithEdges
 70
     1
177
     3
291
     1
 70
    58
 90
        2
176
     1
 90
        1
176
     1
 90
        1
176
     1
 90
        2
176
     1
 40
0.6
176
     1
 40
30.0
176
     1
 62
     7
420
 16777215
176
     1
 90
        1
176
     1
 90
        0
176
     1
 62
     7
176
     1
 62
   257
176
     1
 90
        1
176
     1
 90
        1
176
     1
 40
1.0
176
     1
 90
        0
176
     1
 62
   257
176
     1
 40
1.0
176
     1
 90
        1
176
     1
 90
        6
176
     1
 90
        2
176
     1
 62
     7
176
     1
 90
        5
176
     1
 90
        0
176
     1
 90
        0
176
     1
290
     0
176
     1
 90
       13
176
     1
 40
0.0
176
     1
 90
        0
176
     1
290
     0
176
     1
290
     1
176
     1
290
     1
176
     1
290
     0
176
     1
290
     0
176
     1
290
     0
176
     1
290
     0
176
     1
290
     0
176
     1
290
     0
176
     1
 90
       50
176
     1
 40
0.0
176
     1
 40
1.0
176
     1
 90
        0
176
     1
 62
    18
420
        0
176
     1
 90
       50
176
     1
 90
        3
176
     1
 62
     5
420
      255
176
     1
290
     0
176
     1
 90
       50
176
     1
 90
       50
176
     1
 90
       50
176
     1
290
     0
176
     1
 90
       50
176
     1
 62
   256
176
     0
 40
1.0
176
     0
 90
        2
176
     1
  1
strokes_ogs.tif
176
     1
290
     0
176
     1
 40
1.0
176
     1
 40
1.0
176
     1
  0
VISUALSTYLE
  5
2C
102
{ACAD_REACTORS
330
29
102
}
330
29
100
AcDbVisualStyle
  2
Gouraud
 70
     2
177
     3
291
     1
 70
    58
 90
        2
176
     1
 90
        2
176
     1
 90
        1
176
     1
 90
        2
176
     1
 40
0.6
176
     1
 40
30.0
176
     1
 62
     7
420
 16777215
176
     1
 90
        0
176
     1
 90
        0
176
     1
 62
     7
176
     1
 62
   257
176
     1
 90
        1
176
     1
 90
        1
176
     1
 40
1.0
176
     1
 90
        0
176
     1
 62
     7
176
     1
 40
1.0
176
     1
 90
        1
176
     1
 90
        6
176
     1
 90
        2
176
     1
 62
     7
176
     1
 90
        5
176
     1
 90
        0
176
     1
 90
        0
176
     1
290
     0
176
     1
 90
       13
176
     1
 40
0.0
176
     1
 90
        0
176
     1
290
     0
176
     1
290
     1
176
     1
290
     1
176
     1
290
     0
176
     1
290
     0
176
     1
290
     0
176
     1
290
     0
176
     1
290
     0
176
     1
290
     0
176
     1
 90
       50
176
     1
 40
0.0
176
     1
 40
1.0
176
     1
 90
        0
176
     1
 62
    18
420
        0
176
     1
 90
       50
176
     1
 90
        3
176
     1
 62
     5
420
      255
176
     1
290
     0
176
     1
 90
       50
176
     1
 90
       50
176
     1
 90
       50
176
     1
290
     0
176
     1
 90
       50
176
     1
 62
   256
176
     0
 40
1.0
176
     0
 90
        2
176
     1
  1
strokes_ogs.tif
176
     1
290
     0
176
     1
 40
1.0
176
     1
 40
1.0
176
     1
  0
VISUALSTYLE
  5
2D
102
{ACAD_REACTORS
330
29
102
}
330
29
100
AcDbVisualStyle
  2
GouraudWithEdges
 70
     3
177
     3
291
     1
 70
    58
 90
        2
176
     1
 90
        2
176
     1
 90
        1
176
     1
 90
        2
176
     1
 40
0.6
176
     1
 40
30.0
176
     1
 62
     7
420
 16777215
176
     1
 90
        1
176
     1
 90
        0
176
     1
 62
     7
176
     1
 62
   257
176
     1
 90
        1
176
     1
 90
        1
176
     1
 40
1.0
176
     1
 90
        0
176
     1
 62
   257
176
     1
 40
1.0
176
     1
 90
        1
176
     1
 90
        6
176
     1
 90
        2
176
     1
 62
     7
176
     1
 90
        5
176
     1
 90
        0
176
     1
 90
        0
176
     1
290
     0
176
     1
 90
       13
176
     1
 40
0.0
176
     1
 90
        0
176
     1
290
     0
176
     1
290
     1
176
     1
290
     1
176
     1
290
     0
176
     1
290
     0
176
     1
290
     0
176
     1
290
     0
176
     1
290
     0
176
     1
290
     0
176
     1
 90
       50
176
     1
 40
0.0
176
     1
 40
1.0
176
     1
 90
        0
176
     1
 62
    18
420
        0
176
     1
 90
       50
176
     1
 90
        3
176
     1
 62
     5
420
      255
176
     1
290
     0
176
     1
 90
       50
176
     1
 90
       50
176
     1
 90
       50
176
     1
290
     0
176
     1
 90
       50
176
     1
 62
   256
176
     0
 40
1.0
176
     0
 90
        2
176
     1
  1
strokes_ogs.tif
176
     1
290
     0
176
     1
 40
1.0
176
     1
 40
1.0
176
     1
  0
VISUALSTYLE
  5
31
102
{ACAD_REACTORS
330
29
102
}
330
29
100
AcDbVisualStyle
  2
Hidden
 70
     6
177
     3
291
     0
 70
    58
 90
        1
176
     1
 90
        2
176
     1
 90
        2
176
     1
 90
        0
176
     1
 40
0.6
176
     1
 40
30.0
176
     1
 62
     7
420
 16777215
176
     1
 90
        2
176
     1
 90
        2
176
     1
 62
     7
176
     1
 62
   257
176
     1
 90
        2
176
     1
 90
        1
176
     1
 40
40.0
176
     1
 90
        0
176
     1
 62
   257
176
     1
 40
1.0
176
     1
 90
        1
176
     1
 90
        6
176
     1
 90
        2
176
     1
 62
     7
176
     1
 90
        3
176
     1
 90
        0
176
     1
 90
        0
176
     1
290
     0
176
     1
 90
        1
176
     1
 40
0.0
176
     1
 90
        0
176
     1
290
     0
176
     1
290
     1
176
     1
290
     1
176
     1
290
     0
176
     1
290
     0
176
     1
290
     0
176
     1
290
     0
176
     1
290
     0
176
     1
290
     0
176
     1
 90
       50
176
     1
 40
0.0
176
     1
 40
1.0
176
     1
 90
        0
176
     1
 62
    18
420
        0
176
     1
 90
       50
176
     1
 90
        3
176
     1
 62
     5
420
      255
176
     1
290
     0
176
     1
 90
       50
176
     1
 90
       50
176
     1
 90
       50
176
     1
290
     0
176
     1
 90
       50
176
     1
 62
   256
176
     0
 40
1.0
176
     0
 90
        2
176
     1
  1
strokes_ogs.tif
176
     1
290
     0
176
     1
 40
1.0
176
     1
 40
1.0
176
     1
  0
VISUALSTYLE
  5
3F
102
{ACAD_REACTORS
330
29
102
}
330
29
100
AcDbVisualStyle
  2
JitterOff
 70
    20
177
     3
291
     1
 70
    58
 90
        2
176
     0
 90
        2
176
     0
 90
        0
176
     0
 90
        0
176
     0
 40
0.6
176
     0
 40
30.0
176
     0
 62
     7
420
 16777215
176
     0
 90
        1
176
     0
 90
        4
176
     0
 62
     7
176
     0
 62
   257
176
     0
 90
        1
176
     0
 90
        1
176
     0
 40
1.0
176
     0
 90
       10
176
     2
 62
     7
176
     0
 40
1.0
176
     0
 90
        1
176
     0
 90
        6
176
     0
 90
        2
176
     0
 62
     7
176
     0
 90
        5
176
     0
 90
        0
176
     0
 90
        0
176
     0
290
     0
176
     0
 90
        1
176
     0
 40
0.0
176
     0
 90
        0
176
     0
290
     0
176
     0
290
     1
176
     0
290
     1
176
     0
290
     0
176
     0
290
     0
176
     0
290
     0
176
     0
290
     0
176
     0
290
     0
176
     0
290
     0
176
     0
 90
       50
176
     0
 40
0.0
176
     0
 40
1.0
176
     0
 90
        0
176
     0
 62
    18
420
        0
176
     0
 90
       50
176
     0
 90
        3
176
     0
 62
     5
420
      255
176
     0
290
     0
176
     0
 90
       50
176
     0
 90
       50
176
     0
 90
       50
176
     0
290
     0
176
     0
 90
       50
176
     0
 62
   256
176
     0
 40
1.0
176
     0
 90
        2
176
     0
  1
strokes_ogs.tif
176
     0
290
     0
176
     0
 40
1.0
176
     0
 40
1.0
176
     0
  0
VISUALSTYLE
  5
37
102
{ACAD_REACTORS
330
29
102
}
330
29
100
AcDbVisualStyle
  2
Linepattern
 70
    14
177
     3
291
     1
 70
    58
 90
        2
176
     1
 90
        2
176
     1
 90
        0
176
     1
 90
        0
176
     1
 40
0.6
176
     1
 40
30.0
176
     1
 62
     7
420
 16777215
176
     1
 90
        1
176
     1
 90
        4
176
     1
 62
     7
176
     1
 62
   257
176
     1
 90
        7
176
     1
 90
        7
176
     1
 40
1.0
176
     1
 90
        8
176
     1
 62
     7
176
     1
 40
1.0
176
     1
 90
        1
176
     1
 90
        6
176
     1
 90
        2
176
     1
 62
     7
176
     1
 90
        5
176
     1
 90
        0
176
     1
 90
        0
176
     1
290
     0
176
     1
 90
        1
176
     1
 40
0.0
176
     1
 90
        0
176
     1
290
     0
176
     1
290
     1
176
     1
290
     1
176
     1
290
     0
176
     1
290
     0
176
     1
290
     0
176
     1
290
     0
176
     1
290
     0
176
     1
290
     0
176
     1
 90
       50
176
     1
 40
0.0
176
     1
 40
1.0
176
     1
 90
        0
176
     1
 62
    18
420
        0
176
     1
 90
       50
176
     1
 90
        3
176
     1
 62
     5
420
      255
176
     1
290
     0
176
     1
 90
       50
176
     1
 90
       50
176
     1
 90
       50
176
     1
290
     0
176
     1
 90
       50
176
     1
 62
   256
176
     0
 40
1.0
176
     0
 90
        2
176
     1
  1
strokes_ogs.tif
176
     1
290
     0
176
     1
 40
1.0
176
     1
 40
1.0
176
     1
  0
VISUALSTYLE
  5
40
102
{ACAD_REACTORS
330
29
102
}
330
29
100
AcDbVisualStyle
  2
OverhangOff
 70
    21
177
     3
291
     1
 70
    58
 90
        2
176
     0
 90
        2
176
     0
 90
        0
176
     0
 90
        0
176
     0
 40
0.6
176
     0
 40
30.0
176
     0
 62
     7
420
 16777215
176
     0
 90
        1
176
     0
 90
        4
176
     0
 62
     7
176
     0
 62
   257
176
     0
 90
        1
176
     0
 90
        1
176
     0
 40
1.0
176
     0
 90
        9
176
     2
 62
     7
176
     0
 40
1.0
176
     0
 90
        1
176
     0
 90
        6
176
     0
 90
        2
176
     0
 62
     7
176
     0
 90
        5
176
     0
 90
        0
176
     0
 90
        0
176
     0
290
     0
176
     0
 90
        1
176
     0
 40
0.0
176
     0
 90
        0
176
     0
290
     0
176
     0
290
     1
176
     0
290
     1
176
     0
290
     0
176
     0
290
     0
176
     0
290
     0
176
     0
290
     0
176
     0
290
     0
176
     0
290
     0
176
     0
 90
       50
176
     0
 40
0.0
176
     0
 40
1.0
176
     0
 90
        0
176
     0
 62
    18
420
        0
176
     0
 90
       50
176
     0
 90
        3
176
     0
 62
     5
420
      255
176
     0
290
     0
176
     0
 90
       50
176
     0
 90
       50
176
     0
 90
       50
176
     0
290
     0
176
     0
 90
       50
176
     0
 62
   256
176
     0
 40
1.0
176
     0
 90
        2
176
     0
  1
strokes_ogs.tif
176
     0
290
     0
176
     0
 40
1.0
176
     0
 40
1.0
176
     0
  0
VISUALSTYLE
  5
33
102
{ACAD_REACTORS
330
29
102
}
330
29
100
AcDbVisualStyle
  2
Realistic
 70
     8
177
     3
291
     0
 70
    58
 90
        2
176
     1
 90
        3
176
     1
 90
        0
176
     1
 90
        2
176
     1
 40
0.6
176
     1
 40
30.0
176
     1
 62
     7
420
 16777215
176
     1
 90
        0
176
     1
 90
        0
176
     1
 62
     7
176
     1
 62
   257
176
     1
 90
        1
176
     1
 90
        1
176
     1
 40
1.0
176
     1
 90
        8
176
     1
 62
   257
176
     1
 40
1.0
176
     1
 90
        1
176
     1
 90
        6
176
     1
 90
        2
176
     1
 62
     7
176
     1
 90
        3
176
     1
 90
        0
176
     1
 90
        0
176
     1
290
     0
176
     1
 90
       13
176
     1
 40
0.0
176
     1
 90
        0
176
     1
290
     0
176
     1
290
     1
176
     1
290
     1
176
     1
290
     0
176
     1
290
     0
176
     1
290
     0
176
     1
290
     0
176
     1
290
     0
176
     1
290
     0
176
     1
 90
       50
176
     1
 40
0.0
176
     1
 40
1.0
176
     1
 90
        0
176
     1
 62
    18
420
        0
176
     1
 90
       50
176
     1
 90
        3
176
     1
 62
     5
420
      255
176
     1
290
     0
176
     1
 90
       50
176
     1
 90
       50
176
     1
 90
       50
176
     1
290
     0
176
     1
 90
       50
176
     1
 62
   256
176
     0
 40
1.0
176
     0
 90
        2
176
     1
  1
strokes_ogs.tif
176
     1
290
     0
176
     1
 40
1.0
176
     1
 40
1.0
176
     1
  0
VISUALSTYLE
  5
3E
102
{ACAD_REACTORS
330
29
102
}
330
29
100
AcDbVisualStyle
  2
Shaded
 70
    27
177
     3
291
     0
 70
    58
 90
        2
176
     1
 90
        2
176
     1
 90
        1
176
     1
 90
        2
176
     1
 40
0.6
176
     1
 40
30.0
176
     1
 62
     7
420
 16777215
176
     1
 90
        0
176
     1
 90
        4
176
     1
 62
     7
176
     1
 62
   257
176
     1
 90
        1
176
     1
 90
        1
176
     1
 40
1.0
176
     1
 90
        8
176
     1
 62
   257
176
     1
 40
1.0
176
     1
 90
        1
176
     1
 90
        6
176
     1
 90
        2
176
     1
 62
     8
420
  7895160
176
     1
 90
        3
176
     1
 90
        0
176
     1
 90
        0
176
     1
290
     0
176
     1
 90
        5
176
     1
 40
0.0
176
     1
 90
        0
176
     1
290
     0
176
     1
290
     1
176
     1
290
     1
176
     1
290
     0
176
     1
290
     0
176
     1
290
     0
176
     1
290
     0
176
     1
290
     0
176
     1
290
     0
176
     1
 90
       50
176
     1
 40
0.0
176
     1
 40
1.0
176
     1
 90
        0
176
     1
 62
    18
420
        0
176
     1
 90
       50
176
     1
 90
        3
176
     1
 62
     5
420
      255
176
     1
290
     0
176
     1
 90
       50
176
     1
 90
       50
176
     1
 90
       50
176
     1
290
     0
176
     1
 90
       50
176
     1
 62
   256
176
     0
 40
1.0
176
     0
 90
        2
176
     1
  1
strokes_ogs.tif
176
     1
290
     0
176
     1
 40
1.0
176
     1
 40
1.0
176
     1
  0
VISUALSTYLE
  5
3D
102
{ACAD_REACTORS
330
29
102
}
330
29
100
AcDbVisualStyle
  2
Shaded with edges
 70
    26
177
     3
291
     0
 70
    58
 90
        2
176
     1
 90
        2
176
     1
 90
        1
176
     1
 90
        2
176
     1
 40
0.6
176
     1
 40
30.0
176
     1
 62
     7
420
 16777215
176
     1
 90
        1
176
     1
 90
        2
176
     1
 62
     7
176
     1
 62
   257
176
     1
 90
        2
176
     1
 90
        1
176
     1
 40
1.0
176
     1
 90
        8
176
     1
 62
   257
176
     1
 40
1.0
176
     1
 90
        1
176
     1
 90
        6
176
     1
 90
        2
176
     1
 62
     7
176
     1
 90
        3
176
     1
 90
        0
176
     1
 90
        0
176
     1
290
     0
176
     1
 90
        5
176
     1
 40
0.0
176
     1
 90
        0
176
     1
290
     0
176
     1
290
     1
176
     1
290
     1
176
     1
290
     0
176
     1
290
     0
176
     1
290
     0
176
     1
290
     0
176
     1
290
     0
176
     1
290
     0
176
     1
 90
       50
176
     1
 40
0.0
176
     1
 40
1.0
176
     1
 90
        0
176
     1
 62
    18
420
        0
176
     1
 90
       50
176
     1
 90
        3
176
     1
 62
     5
420
      255
176
     1
290
     0
176
     1
 90
       50
176
     1
 90
       50
176
     1
 90
       50
176
     1
290
     0
176
     1
 90
       50
176
     1
 62
   256
176
     0
 40
1.0
176
     0
 90
        2
176
     1
  1
strokes_ogs.tif
176
     1
290
     0
176
     1
 40
1.0
176
     1
 40
1.0
176
     1
  0
VISUALSTYLE
  5
3A
102
{ACAD_REACTORS
330
29
102
}
330
29
100
AcDbVisualStyle
  2
Shades of Gray
 70
    23
177
     3
291
     0
 70
    58
 90
        2
176
     1
 90
        2
176
     1
 90
        3
176
     1
 90
        0
176
     1
 40
0.6
176
     1
 40
30.0
176
     1
 62
     7
420
 16777215
176
     1
 90
        2
176
     1
 90
        2
176
     1
 62
     7
176
     1
 62
     7
176
     1
 90
        1
176
     1
 90
        1
176
     1
 40
40.0
176
     1
 90
        8
176
     1
 62
     7
176
     1
 40
1.0
176
     1
 90
        1
176
     1
 90
        6
176
     1
 90
        2
176
     1
 62
     7
176
     1
 90
        3
176
     1
 90
        0
176
     1
 90
        0
176
     1
290
     0
176
     1
 90
        1
176
     1
 40
0.0
176
     1
 90
        0
176
     1
290
     0
176
     1
290
     1
176
     1
290
     1
176
     1
290
     0
176
     1
290
     0
176
     1
290
     0
176
     1
290
     0
176
     1
290
     0
176
     1
290
     0
176
     1
 90
       50
176
     1
 40
0.0
176
     1
 40
1.0
176
     1
 90
        0
176
     1
 62
    18
420
        0
176
     1
 90
       50
176
     1
 90
        3
176
     1
 62
     5
420
      255
176
     1
290
     0
176
     1
 90
       50
176
     1
 90
       50
176
     1
 90
       50
176
     1
290
     0
176
     1
 90
       50
176
     1
 62
   256
176
     0
 40
1.0
176
     0
 90
        2
176
     1
  1
strokes_ogs.tif
176
     1
290
     0
176
     1
 40
1.0
176
     1
 40
1.0
176
     1
  0
VISUALSTYLE
  5
3B
102
{ACAD_REACTORS
330
29
102
}
330
29
100
AcDbVisualStyle
  2
Sketchy
 70
    24
177
     3
291
     0
 70
    58
 90
        1
176
     1
 90
        2
176
     1
 90
        2
176
     1
 90
        0
176
     1
 40
0.6
176
     1
 40
30.0
176
     1
 62
     7
420
 16777215
176
     1
 90
        2
176
     1
 90
        2
176
     1
 62
     7
176
     1
 62
     7
176
     1
 90
        1
176
     1
 90
        1
176
     1
 40
40.0
176
     1
 90
       11
176
     1
 62
     7
176
     1
 40
1.0
176
     1
 90
        1
176
     1
 90
        6
176
     1
 90
        2
176
     1
 62
     7
176
     1
 90
        6
176
     1
 90
        0
176
     1
 90
        0
176
     1
290
     0
176
     1
 90
        1
176
     1
 40
0.0
176
     1
 90
        0
176
     1
290
     0
176
     1
290
     1
176
     1
290
     1
176
     1
290
     0
176
     1
290
     0
176
     1
290
     0
176
     1
290
     0
176
     1
290
     0
176
     1
290
     0
176
     1
 90
       50
176
     1
 40
0.0
176
     1
 40
1.0
176
     1
 90
        0
176
     1
 62
    18
420
        0
176
     1
 90
       50
176
     1
 90
        3
176
     1
 62
     5
420
      255
176
     1
290
     0
176
     1
 90
       50
176
     1
 90
       50
176
     1
 90
       50
176
     1
290
     0
176
     1
 90
       50
176
     1
 62
   256
176
     0
 40
1.0
176
     0
 90
        2
176
     1
  1
strokes_ogs.tif
176
     1
290
     0
176
     1
 40
1.0
176
     1
 40
1.0
176
     1
  0
VISUALSTYLE
  5
36
102
{ACAD_REACTORS
330
29
102
}
330
29
100
AcDbVisualStyle
  2
Thicken
 70
    13
177
     3
291
     1
 70
    58
 90
        2
176
     1
 90
        2
176
     1
 90
        0
176
     1
 90
        0
176
     1
 40
0.6
176
     1
 40
30.0
176
     1
 62
     7
420
 16777215
176
     1
 90
        1
176
     1
 90
        4
176
     1
 62
     7
176
     1
 62
   257
176
     1
 90
        1
176
     1
 90
        1
176
     1
 40
1.0
176
     1
 90
       12
176
     1
 62
     7
176
     1
 40
1.0
176
     1
 90
        1
176
     1
 90
        6
176
     1
 90
        2
176
     1
 62
     7
176
     1
 90
        5
176
     1
 90
        0
176
     1
 90
        0
176
     1
290
     0
176
     1
 90
        1
176
     1
 40
0.0
176
     1
 90
        0
176
     1
290
     0
176
     1
290
     1
176
     1
290
     1
176
     1
290
     0
176
     1
290
     0
176
     1
290
     0
176
     1
290
     0
176
     1
290
     0
176
     1
290
     0
176
     1
 90
       50
176
     1
 40
0.0
176
     1
 40
1.0
176
     1
 90
        0
176
     1
 62
    18
420
        0
176
     1
 90
       50
176
     1
 90
        3
176
     1
 62
     5
420
      255
176
     1
290
     0
176
     1
 90
       50
176
     1
 90
       50
176
     1
 90
       50
176
     1
290
     0
176
     1
 90
       50
176
     1
 62
   256
176
     0
 40
1.0
176
     0
 90
        2
176
     1
  1
strokes_ogs.tif
176
     1
290
     0
176
     1
 40
1.0
176
     1
 40
1.0
176
     1
  0
VISUALSTYLE
  5
30
102
{ACAD_REACTORS
330
29
102
}
330
29
100
AcDbVisualStyle
  2
Wireframe
 70
     5
177
     3
291
     0
 70
    58
 90
        0
176
     1
 90
        2
176
     1
 90
        0
176
     1
 90
        0
176
     1
 40
0.6
176
     1
 40
30.0
176
     1
 62
     7
420
 16777215
176
     1
 90
        1
176
     1
 90
        4
176
     1
 62
     7
176
     1
 62
   257
176
     1
 90
        1
176
     1
 90
        1
176
     1
 40
1.0
176
     1
 90
        0
176
     1
 62
   257
176
     1
 40
1.0
176
     1
 90
        1
176
     1
 90
        6
176
     1
 90
        2
176
     1
 62
     7
176
     1
 90
        3
176
     1
 90
        0
176
     1
 90
        0
176
     1
290
     0
176
     1
 90
        1
176
     1
 40
0.0
176
     1
 90
        0
176
     1
290
     0
176
     1
290
     1
176
     1
290
     1
176
     1
290
     0
176
     1
290
     0
176
     1
290
     0
176
     1
290
     0
176
     1
290
     0
176
     1
290
     0
176
     1
 90
       50
176
     1
 40
0.0
176
     1
 40
1.0
176
     1
 90
        0
176
     1
 62
    18
420
        0
176
     1
 90
       50
176
     1
 90
        3
176
     1
 62
     5
420
      255
176
     1
290
     0
176
     1
 90
       50
176
     1
 90
       50
176
     1
 90
       50
176
     1
290
     0
176
     1
 90
       50
176
     1
 62
   256
176
     0
 40
1.0
176
     0
 90
        2
176
     1
  1
strokes_ogs.tif
176
     1
290
     0
176
     1
 40
1.0
176
     1
 40
1.0
176
     1
  0
VISUALSTYLE
  5
3C
102
{ACAD_REACTORS
330
29
102
}
330
29
100
AcDbVisualStyle
  2
X-Ray
 70
    25
177
     3
291
     0
 70
    58
 90
        2
176
     1
 90
        2
176
     1
 90
        1
176
     1
 90
        1
176
     1
 40
0.5
176
     1
 40
30.0
176
     1
 62
     7
420
 16777215
176
     1
 90
        1
176
     1
 90
        0
176
     1
 62
     7
176
     1
 62
   257
176
     1
 90
        1
176
     1
 90
        1
176
     1
 40
1.0
176
     1
 90
        8
176
     1
 62
     7
176
     1
 40
1.0
176
     1
 90
        1
176
     1
 90
        6
176
     1
 90
        2
176
     1
 62
     7
176
     1
 90
        3
176
     1
 90
        0
176
     1
 90
        0
176
     1
290
     0
176
     1
 90
       13
176
     1
 40
0.0
176
     1
 90
        0
176
     1
290
     0
176
     1
290
     1
176
     1
290
     1
176
     1
290
     0
176
     1
290
     0
176
     1
290
     0
176
     1
290
     0
176
     1
290
     0
176
     1
290
     0
176
     1
 90
       50
176
     1
 40
0.0
176
     1
 40
1.0
176
     1
 90
        0
176
     1
 62
    18
420
        0
176
     1
 90
       50
176
     1
 90
        3
176
     1
 62
     5
420
      255
176
     1
290
     0
176
     1
 90
       50
176
     1
 90
       50
176
     1
 90
       50
176
     1
290
     0
176
     1
 90
       50
176
     1
 62
   256
176
     0
 40
1.0
176
     0
 90
        2
176
     1
  1
strokes_ogs.tif
176
     1
290
     0
176
     1
 40
1.0
176
     1
 40
1.0
176
     1
  0
DICTIONARYVAR
  5
1CC
102
{ACAD_REACTORS
330
1C7
102
}
330
1C7
100
DictionaryVariables
280
     0
  1
1:1
  0
DICTIONARYVAR
  5
1C9
102
{ACAD_REACTORS
330
1C7
102
}
330
1C7
100
DictionaryVariables
280
     0
  1
STANDARD
  0
DICTIONARYVAR
  5
1C8
102
{ACAD_REACTORS
330
1C7
102
}
330
1C7
100
DictionaryVariables
280
     0
  1
STANDARD
  0
DICTIONARYVAR
  5
1CA
102
{ACAD_REACTORS
330
1C7
102
}
330
1C7
100
DictionaryVariables
280
     0
  1
Imperial24
  0
DICTIONARYVAR
  5
1CB
102
{ACAD_REACTORS
330
1C7
102
}
330
1C7
100
DictionaryVariables
280
     0
  1
Imperial24
  0
DICTIONARY
  5
1A
330
19
100
AcDbDictionary
280
     1
281
     1
  3
BUMPTILE
360
1C
  3
DIFFUSETILE
360
1B
  3
OPACITYTILE
360
1F
  3
REFLECTIONTILE
360
1E
  3
REFRACTIONTILE
360
20
  3
SPECULARTILE
360
1D
  0
DICTIONARY
  5
12
330
11
100
AcDbDictionary
280
     1
281
     1
  3
BUMPTILE
360
14
  3
DIFFUSETILE
360
13
  3
OPACITYTILE
360
17
  3
REFLECTIONTILE
360
16
  3
REFRACTIONTILE
360
18
  3
SPECULARTILE
360
15
  0
DICTIONARY
  5
22
330
21
100
AcDbDictionary
280
     1
281
     1
  3
BUMPTILE
360
24
  3
DIFFUSETILE
360
23
  3
OPACITYTILE
360
27
  3
REFLECTIONTILE
360
26
  3
REFRACTIONTILE
360
28
  3
SPECULARTILE
360
25
  0
DICTIONARY
  5
1CD
330
65
100
AcDbDictionary
280
     1
281
     1
  3
ACAD_ROUNDTRIP_2008_TABLESTYLE_CELLSTYLEMAP
360
1CE
  0
XRECORD
  5
1C
102
{ACAD_REACTORS
330
1A
102
}
330
1A
100
AcDbXrecord
280
     1
270
     1
271
     1
  0
XRECORD
  5
1B
102
{ACAD_REACTORS
330
1A
102
}
330
1A
100
AcDbXrecord
280
     1
270
     1
271
     1
  0
XRECORD
  5
1F
102
{ACAD_REACTORS
330
1A
102
}
330
1A
100
AcDbXrecord
280
     1
270
     1
271
     1
  0
XRECORD
  5
1E
102
{ACAD_REACTORS
330
1A
102
}
330
1A
100
AcDbXrecord
280
     1
270
     1
271
     1
  0
XRECORD
  5
20
102
{ACAD_REACTORS
330
1A
102
}
330
1A
100
AcDbXrecord
280
     1
270
     1
271
     1
  0
XRECORD
  5
1D
102
{ACAD_REACTORS
330
1A
102
}
330
1A
100
AcDbXrecord
280
     1
270
     1
271
     1
  0
XRECORD
  5
14
102
{ACAD_REACTORS
330
12
102
}
330
12
100
AcDbXrecord
280
     1
270
     1
271
     1
  0
XRECORD
  5
13
102
{ACAD_REACTORS
330
12
102
}
330
12
100
AcDbXrecord
280
     1
270
     1
271
     1
  0
XRECORD
  5
17
102
{ACAD_REACTORS
330
12
102
}
330
12
100
AcDbXrecord
280
     1
270
     1
271
     1
  0
XRECORD
  5
16
102
{ACAD_REACTORS
330
12
102
}
330
12
100
AcDbXrecord
280
     1
270
     1
271
     1
  0
XRECORD
  5
18
102
{ACAD_REACTORS
330
12
102
}
330
12
100
AcDbXrecord
280
     1
270
     1
271
     1
  0
XRECORD
  5
15
102
{ACAD_REACTORS
330
12
102
}
330
12
100
AcDbXrecord
280
     1
270
     1
271
     1
  0
XRECORD
  5
24
102
{ACAD_REACTORS
330
22
102
}
330
22
100
AcDbXrecord
280
     1
270
     1
271
     1
  0
XRECORD
  5
23
102
{ACAD_REACTORS
330
22
102
}
330
22
100
AcDbXrecord
280
     1
270
     1
271
     1
  0
XRECORD
  5
27
102
{ACAD_REACTORS
330
22
102
}
330
22
100
AcDbXrecord
280
     1
270
     1
271
     1
  0
XRECORD
  5
26
102
{ACAD_REACTORS
330
22
102
}
330
22
100
AcDbXrecord
280
     1
270
     1
271
     1
  0
XRECORD
  5
28
102
{ACAD_REACTORS
330
22
102
}
330
22
100
AcDbXrecord
280
     1
270
     1
271
     1
  0
XRECORD
  5
25
102
{ACAD_REACTORS
330
22
102
}
330
22
100
AcDbXrecord
280
     1
270
     1
271
     1
  0
CELLSTYLEMAP
  5
1CE
102
{ACAD_REACTORS
330
1CD
102
}
330
1CD
100
AcDbCellStyleMap
 90
        3
300
CELLSTYLE
  1
TABLEFORMAT_BEGIN
 90
        5
170
     1
 91
        0
 92
    32768
 62
   257
 93
        1
300
CONTENTFORMAT
  1
CONTENTFORMAT_BEGIN
 90
        0
 91
        0
 92
      512
 93
        0
300

 40
0.0
140
1.0
 94
        5
 62
     0
340
55
144
0.25
309
CONTENTFORMAT_END
171
     0
 94
        0
309
TABLEFORMAT_END
  1
CELLSTYLE_BEGIN
 90
        1
 91
        1
300
_TITLE
309
CELLSTYLE_END
300
CELLSTYLE
  1
TABLEFORMAT_BEGIN
 90
        5
170
     1
 91
        0
 92
        0
 62
   257
 93
        1
300
CONTENTFORMAT
  1
CONTENTFORMAT_BEGIN
 90
        0
 91
        0
 92
      512
 93
        0
300

 40
0.0
140
1.0
 94
        5
 62
     0
340
55
144
0.18
309
CONTENTFORMAT_END
171
     0
 94
        0
309
TABLEFORMAT_END
  1
CELLSTYLE_BEGIN
 90
        2
 91
        1
300
_HEADER
309
CELLSTYLE_END
300
CELLSTYLE
  1
TABLEFORMAT_BEGIN
 90
        5
170
     1
 91
        0
 92
        0
 62
   257
 93
        1
300
CONTENTFORMAT
  1
CONTENTFORMAT_BEGIN
 90
        0
 91
        0
 92
      512
 93
        0
300

 40
0.0
140
1.0
 94
        2
 62
     0
340
55
144
0.18
309
CONTENTFORMAT_END
171
     0
 94
        0
309
TABLEFORMAT_END
  1
CELLSTYLE_BEGIN
 90
        3
 91
        2
300
_DATA
309
CELLSTYLE_END
  0
ENDSEC
  0
EOF
