  0
SECTION
  2
HEADER
  9
$ACADVER
  1
AC1032
  9
$ACADMAINTVER
 90
      329
  9
$DWGCODEPAGE
  3
ANSI_1252
  9
$REQUIREDVERSIONS
160
                 0
  9
$INSBASE
 10
0.0
 20
0.0
 30
0.0
  9
$EXTMIN
 10
1.000000000000000E+20
 20
1.000000000000000E+20
 30
1.000000000000000E+20
  9
$EXTMAX
 10
-1.000000000000000E+20
 20
-1.000000000000000E+20
 30
-1.000000000000000E+20
  9
$LIMMIN
 10
0.0
 20
0.0
  9
$LIMMAX
 10
12.0
 20
9.0
  9
$ORTHOMODE
 70
     0
  9
$REGENMODE
 70
     1
  9
$FILLMODE
 70
     1
  9
$QTEXTMODE
 70
     0
  9
$MIRRTEXT
 70
     0
  9
$LTSCALE
 40
1.0
  9
$ATTMODE
 70
     1
  9
$TEXTSIZE
 40
0.2
  9
$TRACEWID
 40
0.05
  9
$TEXTSTYLE
  7
Standard
  9
$CLAYER
  8
0
  9
$CELTYPE
  6
ByLayer
  9
$CECOLOR
 62
   256
  9
$CELTSCALE
 40
1.0
  9
$DISPSILH
 70
     0
  9
$DIMSCALE
 40
1.0
  9
$DIMASZ
 40
0.18
  9
$DIMEXO
 40
0.0625
  9
$DIMDLI
 40
0.38
  9
$DIMRND
 40
0.0
  9
$DIMDLE
 40
0.0
  9
$DIMEXE
 40
0.18
  9
$DIMTP
 40
0.0
  9
$DIMTM
 40
0.0
  9
$DIMTXT
 40
0.18
  9
$DIMCEN
 40
0.09
  9
$DIMTSZ
 40
0.0
  9
$DIMTOL
 70
     0
  9
$DIMLIM
 70
     0
  9
$DIMTIH
 70
     1
  9
$DIMTOH
 70
     1
  9
$DIMSE1
 70
     0
  9
$DIMSE2
 70
     0
  9
$DIMTAD
 70
     0
  9
$DIMZIN
 70
     0
  9
$DIMBLK
  1

  9
$DIMASO
 70
     1
  9
$DIMSHO
 70
     1
  9
$DIMPOST
  1

  9
$DIMAPOST
  1

  9
$DIMALT
 70
     0
  9
$DIMALTD
 70
     2
  9
$DIMALTF
 40
25.4
  9
$DIMLFAC
 40
1.0
  9
$DIMTOFL
 70
     0
  9
$DIMTVP
 40
0.0
  9
$DIMTIX
 70
     0
  9
$DIMSOXD
 70
     0
  9
$DIMSAH
 70
     0
  9
$DIMBLK1
  1

  9
$DIMBLK2
  1

  9
$DIMSTYLE
  2
Standard
  9
$DIMCLRD
 70
     0
  9
$DIMCLRE
 70
     0
  9
$DIMCLRT
 70
     0
  9
$DIMTFAC
 40
1.0
  9
$DIMGAP
 40
0.09
  9
$DIMJUST
 70
     0
  9
$DIMSD1
 70
     0
  9
$DIMSD2
 70
     0
  9
$DIMTOLJ
 70
     1
  9
$DIMTZIN
 70
     0
  9
$DIMALTZ
 70
     0
  9
$DIMALTTZ
 70
     0
  9
$DIMUPT
 70
     0
  9
$DIMDEC
 70
     4
  9
$DIMTDEC
 70
     4
  9
$DIMALTU
 70
     2
  9
$DIMALTTD
 70
     2
  9
$DIMTXSTY
  7
Standard
  9
$DIMAUNIT
 70
     0
  9
$DIMADEC
 70
     0
  9
$DIMALTRND
 40
0.0
  9
$DIMAZIN
 70
     0
  9
$DIMDSEP
 70
    46
  9
$DIMATFIT
 70
     3
  9
$DIMFRAC
 70
     0
  9
$DIMLDRBLK
  1

  9
$DIMLUNIT
 70
     2
  9
$DIMLWD
 70
    -2
  9
$DIMLWE
 70
    -2
  9
$DIMTMOVE
 70
     0
  9
$DIMFXL
 40
1.0
  9
$DIMFXLON
 70
     0
  9
$DIMJOGANG
 40
0.7853981633974483
  9
$DIMTFILL
 70
     0
  9
$DIMTFILLCLR
 70
     0
  9
$DIMARCSYM
 70
     0
  9
$DIMLTYPE
  6

  9
$DIMLTEX1
  6

  9
$DIMLTEX2
  6

  9
$DIMTXTDIRECTION
 70
     0
  9
$LUNITS
 70
     2
  9
$LUPREC
 70
     4
  9
$SKETCHINC
 40
0.1
  9
$FILLETRAD
 40
0.0
  9
$AUNITS
 70
     0
  9
$AUPREC
 70
     0
  9
$MENU
  1
.
  9
$ELEVATION
 40
0.0
  9
$PELEVATION
 40
0.0
  9
$THICKNESS
 40
0.0
  9
$LIMCHECK
 70
     0
  9
$CHAMFERA
 40
0.0
  9
$CHAMFERB
 40
0.0
  9
$CHAMFERC
 40
0.0
  9
$CHAMFERD
 40
0.0
  9
$SKPOLY
 70
     0
  9
$TDCREATE
 40
2461048.668773148
  9
$TDUCREATE
 40
2461048.627106482
  9
$TDUPDATE
 40
2461048.668773148
  9
$TDUUPDATE
 40
2461048.627106482
  9
$TDINDWG
 40
0.0000000000
  9
$TDUSRTIMER
 40
0.0000000000
  9
$USRTIMER
 70
     1
  9
$ANGBASE
 50
0.0
  9
$ANGDIR
 70
     0
  9
$PDMODE
 70
     0
  9
$PDSIZE
 40
0.0
  9
$PLINEWID
 40
0.0
  9
$SPLFRAME
 70
     0
  9
$SPLINETYPE
 70
     6
  9
$SPLINESEGS
 70
     8
  9
$HANDSEED
  5
157
  9
$SURFTAB1
 70
     6
  9
$SURFTAB2
 70
     6
  9
$SURFTYPE
 70
     6
  9
$SURFU
 70
     6
  9
$SURFV
 70
     6
  9
$UCSBASE
  2

  9
$UCSNAME
  2

  9
$UCSORG
 10
0.0
 20
0.0
 30
0.0
  9
$UCSXDIR
 10
1.0
 20
0.0
 30
0.0
  9
$UCSYDIR
 10
0.0
 20
1.0
 30
0.0
  9
$UCSORTHOREF
  2

  9
$UCSORTHOVIEW
 70
     0
  9
$UCSORGTOP
 10
0.0
 20
0.0
 30
0.0
  9
$UCSORGBOTTOM
 10
0.0
 20
0.0
 30
0.0
  9
$UCSORGLEFT
 10
0.0
 20
0.0
 30
0.0
  9
$UCSORGRIGHT
 10
0.0
 20
0.0
 30
0.0
  9
$UCSORGFRONT
 10
0.0
 20
0.0
 30
0.0
  9
$UCSORGBACK
 10
0.0
 20
0.0
 30
0.0
  9
$PUCSBASE
  2

  9
$PUCSNAME
  2

  9
$PUCSORG
 10
0.0
 20
0.0
 30
0.0
  9
$PUCSXDIR
 10
1.0
 20
0.0
 30
0.0
  9
$PUCSYDIR
 10
0.0
 20
1.0
 30
0.0
  9
$PUCSORTHOREF
  2

  9
$PUCSORTHOVIEW
 70
     0
  9
$PUCSORGTOP
 10
0.0
 20
0.0
 30
0.0
  9
$PUCSORGBOTTOM
 10
0.0
 20
0.0
 30
0.0
  9
$PUCSORGLEFT
 10
0.0
 20
0.0
 30
0.0
  9
$PUCSORGRIGHT
 10
0.0
 20
0.0
 30
0.0
  9
$PUCSORGFRONT
 10
0.0
 20
0.0
 30
0.0
  9
$PUCSORGBACK
 10
0.0
 20
0.0
 30
0.0
  9
$USERI1
 70
     0
  9
$USERI2
 70
     0
  9
$USERI3
 70
     0
  9
$USERI4
 70
     0
  9
$USERI5
 70
     0
  9
$USERR1
 40
0.0
  9
$USERR2
 40
0.0
  9
$USERR3
 40
0.0
  9
$USERR4
 40
0.0
  9
$USERR5
 40
0.0
  9
$WORLDVIEW
 70
     1
  9
$SHADEDGE
 70
     3
  9
$SHADEDIF
 70
    70
  9
$TILEMODE
 70
     1
  9
$MAXACTVP
 70
    64
  9
$PINSBASE
 10
0.0
 20
0.0
 30
0.0
  9
$PLIMCHECK
 70
     0
  9
$PEXTMIN
 10
1.000000000000000E+20
 20
1.000000000000000E+20
 30
1.000000000000000E+20
  9
$PEXTMAX
 10
-1.000000000000000E+20
 20
-1.000000000000000E+20
 30
-1.000000000000000E+20
  9
$PLIMMIN
 10
0.0
 20
0.0
  9
$PLIMMAX
 10
12.0
 20
9.0
  9
$UNITMODE
 70
     0
  9
$VISRETAIN
 70
     1
  9
$PLINEGEN
 70
     0
  9
$PSLTSCALE
 70
     1
  9
$TREEDEPTH
 70
  3020
  9
$CMLSTYLE
  2
Standard
  9
$CMLJUST
 70
     0
  9
$CMLSCALE
 40
1.0
  9
$PROXYGRAPHICS
 70
     1
  9
$MEASUREMENT
 70
     0
  9
$CELWEIGHT
370
    -1
  9
$ENDCAPS
280
     0
  9
$JOINSTYLE
280
     0
  9
$LWDISPLAY
290
     1
  9
$INSUNITS
 70
     4
  9
$HYPERLINKBASE
  1

  9
$STYLESHEET
  1

  9
$XEDIT
290
     1
  9
$CEPSNTYPE
380
     0
  9
$PSTYLEMODE
290
     1
  9
$FINGERPRINTGUID
  2
{37706F26-45FB-F743-8C47-6F794185983B}
  9
$VERSIONGUID
  2
{F9DF139A-6C98-874B-836C-133CB6E3CCCA}
  9
$EXTNAMES
290
     1
  9
$PSVPSCALE
 40
0.0
  9
$OLESTARTUP
290
     0
  9
$SORTENTS
280
   127
  9
$INDEXCTL
280
     0
  9
$HIDETEXT
280
     1
  9
$XCLIPFRAME
280
     2
  9
$HALOGAP
280
     0
  9
$OBSCOLOR
 70
   257
  9
$OBSLTYPE
280
     0
  9
$INTERSECTIONDISPLAY
280
     0
  9
$INTERSECTIONCOLOR
 70
   257
  9
$DIMASSOC
280
     2
  9
$PROJECTNAME
  1

  9
$CAMERADISPLAY
290
     0
  9
$LENSLENGTH
 40
50.0
  9
$CAMERAHEIGHT
 40
0.0
  9
$STEPSPERSEC
 40
2.0
  9
$STEPSIZE
 40
6.0
  9
$3DDWFPREC
 40
2.0
  9
$PSOLWIDTH
 40
0.25
  9
$PSOLHEIGHT
 40
4.0
  9
$LOFTANG1
 40
1.570796326794896
  9
$LOFTANG2
 40
1.570796326794896
  9
$LOFTMAG1
 40
0.0
  9
$LOFTMAG2
 40
0.0
  9
$LOFTPARAM
 70
     7
  9
$LOFTNORMALS
280
     1
  9
$LATITUDE
 40
37.795
  9
$LONGITUDE
 40
-122.394
  9
$NORTHDIRECTION
 40
0.0
  9
$TIMEZONE
 70
 -8000
  9
$LIGHTGLYPHDISPLAY
280
     1
  9
$TILEMODELIGHTSYNCH
280
     1
  9
$CMATERIAL
347
11
  9
$SOLIDHIST
280
     0
  9
$SHOWHIST
280
     1
  9
$DWFFRAME
280
     2
  9
$DGNFRAME
280
     0
  9
$REALWORLDSCALE
290
     1
  9
$INTERFERECOLOR
 62
     1
  9
$INTERFEREOBJVS
345
33
  9
$INTERFEREVPVS
346
30
  9
$CSHADOW
280
     0
  9
$SHADOWPLANELOCATION
 40
0.0
  0
ENDSEC
  0
SECTION
  2
CLASSES
  0
CLASS
  1
ACDBDICTIONARYWDFLT
  2
AcDbDictionaryWithDefault
  3
ObjectDBX Classes
 90
        0
 91
        1
280
     0
281
     0
  0
CLASS
  1
MATERIAL
  2
AcDbMaterial
  3
ObjectDBX Classes
 90
     1153
 91
        3
280
     0
281
     0
  0
CLASS
  1
VISUALSTYLE
  2
AcDbVisualStyle
  3
ObjectDBX Classes
 90
     4095
 91
       24
280
     0
281
     0
  0
CLASS
  1
SCALE
  2
AcDbScale
  3
ObjectDBX Classes
 90
     1153
 91
       17
280
     0
281
     0
  0
CLASS
  1
TABLESTYLE
  2
AcDbTableStyle
  3
ObjectDBX Classes
 90
     4095
 91
        1
280
     0
281
     0
  0
CLASS
  1
MLEADERSTYLE
  2
AcDbMLeaderStyle
  3
ACDB_MLEADERSTYLE_CLASS
 90
     4095
 91
        1
280
     0
281
     0
  0
CLASS
  1
ACDBSECTIONVIEWSTYLE
  2
AcDbSectionViewStyle
  3
ObjectDBX Classes
 90
     1025
 91
        1
280
     0
281
     0
  0
CLASS
  1
ACDBDETAILVIEWSTYLE
  2
AcDbDetailViewStyle
  3
ObjectDBX Classes
 90
     1025
 91
        1
280
     0
281
     0
  0
CLASS
  1
DICTIONARYVAR
  2
AcDbDictionaryVar
  3
ObjectDBX Classes
 90
        0
 91
        5
280
     0
281
     0
  0
CLASS
  1
CELLSTYLEMAP
  2
AcDbCellStyleMap
  3
ObjectDBX Classes
 90
     1152
 91
        1
280
     0
281
     0
  0
ENDSEC
  0
SECTION
  2
TABLES
  0
TABLE
  2
VPORT
  5
8
330
0
100
AcDbSymbolTable
 70
     1
  0
VPORT
  5
57
330
8
100
AcDbSymbolTableRecord
100
AcDbViewportTableRecord
  2
*Active
 70
     0
 10
0.0
 20
0.0
 11
1.0
 21
1.0
 12
0.0
 22
0.0
 13
0.0
 23
0.0
 14
1.0
 24
1.0
 15
0.0
 25
0.0
 16
0.0
 26
0.0
 36
1.0
 17
499.9999998749932
 27
299.9999999249995
 37
0.0
 40
611.999999846999
 41
1.666666666666646
 42
50.0
 43
0.0
 44
0.0
 50
0.0
 51
0.0
 71
     0
 72
   100
 73
     1
 74
     1
 75
     0
 76
     0
 77
     0
 78
     0
281
     0
 65
     1
110
0.0
120
0.0
130
0.0
111
1.0
121
0.0
131
0.0
112
0.0
122
1.0
132
0.0
 79
     0
146
0.0
 60
     3
 61
     5
292
     1
282
     1
141
0.0
142
0.0
 63
   250
421
  3355443
  0
ENDTAB
  0
TABLE
  2
LTYPE
  5
5
330
0
100
AcDbSymbolTable
 70
     1
  0
LTYPE
  5
5B
330
5
100
AcDbSymbolTableRecord
100
AcDbLinetypeTableRecord
  2
ByBlock
 70
     0
  3

 72
    65
 73
     0
 40
0.0
  0
LTYPE
  5
5C
330
5
100
AcDbSymbolTableRecord
100
AcDbLinetypeTableRecord
  2
ByLayer
 70
     0
  3

 72
    65
 73
     0
 40
0.0
  0
LTYPE
  5
5D
330
5
100
AcDbSymbolTableRecord
100
AcDbLinetypeTableRecord
  2
Continuous
 70
     0
  3
Solid line
 72
    65
 73
     0
 40
0.0
  0
ENDTAB
  0
TABLE
  2
LAYER
  5
2
330
0
100
AcDbSymbolTable
 70
     1
  0
LAYER
  5
54
330
2
100
AcDbSymbolTableRecord
100
AcDbLayerTableRecord
  2
0
 70
     0
 62
     7
  6
Continuous
370
     0
390
F
347
21
348
0
  0
ENDTAB
  0
TABLE
  2
STYLE
  5
3
330
0
100
AcDbSymbolTable
 70
     2
  0
STYLE
  5
55
330
3
100
AcDbSymbolTableRecord
100
AcDbTextStyleTableRecord
  2
Standard
 70
     0
 40
0.0
 41
1.0
 50
0.0
 71
     0
 42
0.2
  3
txt
  4

  0
STYLE
  5
5A
330
3
100
AcDbSymbolTableRecord
100
AcDbTextStyleTableRecord
  2
Annotative
 70
     0
 40
0.0
 41
1.0
 50
0.0
 71
     0
 42
0.2
  3
txt
  4

1001
AcadAnnotative
1000
AnnotativeData
1002
{
1070
     1
1070
     1
1002
}
  0
ENDTAB
  0
TABLE
  2
VIEW
  5
6
330
0
100
AcDbSymbolTable
 70
     0
  0
ENDTAB
  0
TABLE
  2
UCS
  5
7
330
0
100
AcDbSymbolTable
 70
     0
  0
ENDTAB
  0
TABLE
  2
APPID
  5
9
330
0
100
AcDbSymbolTable
 70
     2
  0
APPID
  5
56
330
9
100
AcDbSymbolTableRecord
100
AcDbRegAppTableRecord
  2
ACAD
 70
     0
  0
APPID
  5
5E
330
9
100
AcDbSymbolTableRecord
100
AcDbRegAppTableRecord
  2
AcadAnnotative
 70
     0
  0
ENDTAB
  0
TABLE
  2
DIMSTYLE
  5
A
330
0
100
AcDbSymbolTable
 70
     2
100
AcDbDimStyleTable
 71
     0
  0
DIMSTYLE
105
58
330
A
100
AcDbSymbolTableRecord
100
AcDbDimStyleTableRecord
  2
Standard
 70
     0
340
55
  0
DIMSTYLE
105
59
330
A
100
AcDbSymbolTableRecord
100
AcDbDimStyleTableRecord
  2
Annotative
 70
     0
340
55
1001
AcadAnnotative
1000
AnnotativeData
1002
{
1070
     1
1070
     1
1002
}
  0
ENDTAB
  0
TABLE
  2
BLOCK_RECORD
  5
1
330
0
100
AcDbSymbolTable
 70
     7
  0
BLOCK_RECORD
  5
70
330
1
100
AcDbSymbolTableRecord
100
AcDbBlockTableRecord
  2
*Model_Space
340
73
 70
     0
280
     1
281
     0
  0
BLOCK_RECORD
  5
6C
330
1
100
AcDbSymbolTableRecord
100
AcDbBlockTableRecord
  2
*Paper_Space
340
6F
 70
     0
280
     1
281
     0
  0
BLOCK_RECORD
  5
74
330
1
100
AcDbSymbolTableRecord
100
AcDbBlockTableRecord
  2
*Paper_Space0
340
77
 70
     0
280
     1
281
     0
  0
BLOCK_RECORD
  5
78
330
1
100
AcDbSymbolTableRecord
100
AcDbBlockTableRecord
  2
Block_0
340
0
102
{BLKREFS
331
79
102
}
 70
     0
280
     1
281
     0
  0
BLOCK_RECORD
  5
B5
330
1
100
AcDbSymbolTableRecord
100
AcDbBlockTableRecord
  2
Block_1
340
0
102
{BLKREFS
331
B6
102
}
 70
     0
280
     1
281
     0
  0
BLOCK_RECORD
  5
F2
330
1
100
AcDbSymbolTableRecord
100
AcDbBlockTableRecord
  2
Block_2
340
0
102
{BLKREFS
331
F3
102
}
 70
     0
280
     1
281
     0
  0
BLOCK_RECORD
  5
109
330
1
100
AcDbSymbolTableRecord
100
AcDbBlockTableRecord
  2
Block_3
340
0
102
{BLKREFS
331
10A
102
}
 70
     0
280
     1
281
     0
  0
BLOCK_RECORD
  5
120
330
1
100
AcDbSymbolTableRecord
100
AcDbBlockTableRecord
  2
Block_4
340
0
102
{BLKREFS
331
121
102
}
 70
     0
280
     1
281
     0
  0
BLOCK_RECORD
  5
137
330
1
100
AcDbSymbolTableRecord
100
AcDbBlockTableRecord
  2
Block_5
340
0
102
{BLKREFS
331
138
102
}
 70
     0
280
     1
281
     0
  0
ENDTAB
  0
ENDSEC
  0
SECTION
  2
BLOCKS
  0
BLOCK
  5
71
330
70
100
AcDbEntity
  8
0
100
AcDbBlockBegin
  2
*Model_Space
 70
     0
 10
0.0
 20
0.0
 30
0.0
  3
*Model_Space
  1

  0
ENDBLK
  5
72
330
70
100
AcDbEntity
  8
0
100
AcDbBlockEnd
  0
BLOCK
  5
6D
330
6C
100
AcDbEntity
 67
     1
  8
0
100
AcDbBlockBegin
  2
*Paper_Space
 70
     0
 10
0.0
 20
0.0
 30
0.0
  3
*Paper_Space
  1

  0
ENDBLK
  5
6E
330
6C
100
AcDbEntity
 67
     1
  8
0
100
AcDbBlockEnd
  0
BLOCK
  5
75
330
74
100
AcDbEntity
 67
     1
  8
0
100
AcDbBlockBegin
  2
*Paper_Space0
 70
     0
 10
0.0
 20
0.0
 30
0.0
  3
*Paper_Space0
  1

  0
ENDBLK
  5
76
330
74
100
AcDbEntity
 67
     1
  8
0
100
AcDbBlockEnd
  0
BLOCK
  5
7A
330
78
100
AcDbEntity
  8
0
100
AcDbBlockBegin
  2
Block_0
 70
     0
 10
0.0
 20
0.0
 30
0.0
  3
Block_0
  1

  0
SPLINE
  5
7C
330
78
100
AcDbEntity
  8
0
 62
     1
420
 16711680
370
    25
100
AcDbSpline
210
0.0
220
0.0
230
1.0
 70
     9
 71
     3
 72
    20
 73
    16
 74
     0
 42
0.0000000001
 43
0.0000000001
 40
0.0
 40
0.0
 40
0.0
 40
0.0
 40
1.0
 40
1.0
 40
1.0
 40
2.0
 40
2.0
 40
2.0
 40
3.0
 40
3.0
 40
3.0
 40
4.0
 40
4.0
 40
4.0
 40
5.0
 40
5.0
 40
5.0
 40
5.0
 10
642.562500071136
 20
359.3702886240078
 30
0.0
 10
634.8305135735045
 20
359.3702886240078
 30
0.0
 10
628.5625000711361
 20
365.6383021263762
 30
0.0
 10
628.5625000711361
 20
373.370288624007
 30
0.0
 10
628.5625000711361
 20
381.1022751216392
 30
0.0
 10
634.8305135735045
 20
387.3702886240075
 30
0.0
 10
642.562500071136
 20
387.3702886240075
 30
0.0
 10
650.2944865687673
 20
387.3702886240075
 30
0.0
 10
656.5625000711357
 20
381.1022751216392
 30
0.0
 10
656.5625000711357
 20
373.370288624007
 30
0.0
 10
656.5625000711357
 20
365.6383021263762
 30
0.0
 10
650.2944865687673
 20
359.3702886240078
 30
0.0
 10
642.562500071136
 20
359.3702886240078
 30
0.0
 10
642.562500071136
 20
359.3702886240078
 30
0.0
 10
642.562500071136
 20
359.3702886240078
 30
0.0
 10
642.562500071136
 20
359.3702886240078
 30
0.0
  0
SPLINE
  5
7D
330
78
100
AcDbEntity
  8
0
 62
     1
420
 16711680
370
    25
100
AcDbSpline
210
0.0
220
0.0
230
1.0
 70
     9
 71
     3
 72
    20
 73
    16
 74
     0
 42
0.0000000001
 43
0.0000000001
 40
0.0
 40
0.0
 40
0.0
 40
0.0
 40
1.0
 40
1.0
 40
1.0
 40
2.0
 40
2.0
 40
2.0
 40
3.0
 40
3.0
 40
3.0
 40
4.0
 40
4.0
 40
4.0
 40
5.0
 40
5.0
 40
5.0
 40
5.0
 10
865.312500071136
 20
364.3702886240073
 30
0.0
 10
860.34193732266
 20
364.3702886240073
 30
0.0
 10
856.3125000711357
 20
368.3997258755278
 30
0.0
 10
856.3125000711357
 20
373.370288624007
 30
0.0
 10
856.3125000711357
 20
378.340851372483
 30
0.0
 10
860.34193732266
 20
382.3702886240074
 30
0.0
 10
865.312500071136
 20
382.3702886240074
 30
0.0
 10
870.2830628196151
 20
382.3702886240074
 30
0.0
 10
874.3125000711362
 20
378.340851372483
 30
0.0
 10
874.3125000711362
 20
373.370288624007
 30
0.0
 10
874.3125000711362
 20
368.3997258755278
 30
0.0
 10
870.2830628196151
 20
364.3702886240073
 30
0.0
 10
865.312500071136
 20
364.3702886240073
 30
0.0
 10
865.312500071136
 20
364.3702886240073
 30
0.0
 10
865.312500071136
 20
364.3702886240073
 30
0.0
 10
865.312500071136
 20
364.3702886240073
 30
0.0
  0
SPLINE
  5
7E
330
78
100
AcDbEntity
  8
0
 62
     1
420
 16711680
370
    25
100
AcDbSpline
210
0.0
220
0.0
230
1.0
 70
     9
 71
     3
 72
    20
 73
    16
 74
     0
 42
0.0000000001
 43
0.0000000001
 40
0.0
 40
0.0
 40
0.0
 40
0.0
 40
1.0
 40
1.0
 40
1.0
 40
2.0
 40
2.0
 40
2.0
 40
3.0
 40
3.0
 40
3.0
 40
4.0
 40
4.0
 40
4.0
 40
5.0
 40
5.0
 40
5.0
 40
5.0
 10
740.0625000711358
 20
352.5624824405069
 30
0.0
 10
735.0919373226604
 20
352.5624824405069
 30
0.0
 10
731.0625000711362
 20
356.5919196920312
 30
0.0
 10
731.0625000711362
 20
361.5624824405065
 30
0.0
 10
731.0625000711362
 20
366.5330451889819
 30
0.0
 10
735.0919373226604
 20
370.5624824405063
 30
0.0
 10
740.0625000711358
 20
370.5624824405063
 30
0.0
 10
745.0330628196151
 20
370.5624824405063
 30
0.0
 10
749.0625000711355
 20
366.5330451889819
 30
0.0
 10
749.0625000711355
 20
361.5624824405065
 30
0.0
 10
749.0625000711355
 20
356.5919196920312
 30
0.0
 10
745.0330628196151
 20
352.5624824405069
 30
0.0
 10
740.0625000711358
 20
352.5624824405069
 30
0.0
 10
740.0625000711358
 20
352.5624824405069
 30
0.0
 10
740.0625000711358
 20
352.5624824405069
 30
0.0
 10
740.0625000711358
 20
352.5624824405069
 30
0.0
  0
SPLINE
  5
7F
330
78
100
AcDbEntity
  8
0
 62
     1
420
 16711680
370
    25
100
AcDbSpline
210
0.0
220
0.0
230
1.0
 70
     9
 71
     3
 72
    20
 73
    16
 74
     0
 42
0.0000000001
 43
0.0000000001
 40
0.0
 40
0.0
 40
0.0
 40
0.0
 40
1.0
 40
1.0
 40
1.0
 40
2.0
 40
2.0
 40
2.0
 40
3.0
 40
3.0
 40
3.0
 40
4.0
 40
4.0
 40
4.0
 40
5.0
 40
5.0
 40
5.0
 40
5.0
 10
40.06250007113652
 20
260.0624824405065
 30
0.0
 10
35.09193732265952
 20
260.0624824405065
 30
0.0
 10
31.06250007113652
 20
264.0919196920308
 30
0.0
 10
31.06250007113652
 20
269.0624824405068
 30
0.0
 10
31.06250007113652
 20
274.033045188986
 30
0.0
 10
35.09193732265952
 20
278.0624824405065
 30
0.0
 10
40.06250007113652
 20
278.0624824405065
 30
0.0
 10
45.03306281961351
 20
278.0624824405065
 30
0.0
 10
49.06250007113651
 20
274.033045188986
 30
0.0
 10
49.06250007113651
 20
269.0624824405068
 30
0.0
 10
49.06250007113651
 20
264.0919196920308
 30
0.0
 10
45.03306281961351
 20
260.0624824405065
 30
0.0
 10
40.06250007113652
 20
260.0624824405065
 30
0.0
 10
40.06250007113652
 20
260.0624824405065
 30
0.0
 10
40.06250007113652
 20
260.0624824405065
 30
0.0
 10
40.06250007113652
 20
260.0624824405065
 30
0.0
  0
SPLINE
  5
80
330
78
100
AcDbEntity
  8
0
 62
     1
420
 16711680
370
    25
100
AcDbSpline
210
0.0
220
0.0
230
1.0
 70
     9
 71
     3
 72
    20
 73
    16
 74
     0
 42
0.0000000001
 43
0.0000000001
 40
0.0
 40
0.0
 40
0.0
 40
0.0
 40
1.0
 40
1.0
 40
1.0
 40
2.0
 40
2.0
 40
2.0
 40
3.0
 40
3.0
 40
3.0
 40
4.0
 40
4.0
 40
4.0
 40
5.0
 40
5.0
 40
5.0
 40
5.0
 10
40.06250007113652
 20
364.3702886240073
 30
0.0
 10
35.09193732265952
 20
364.3702886240073
 30
0.0
 10
31.06250007113652
 20
368.3997258755278
 30
0.0
 10
31.06250007113652
 20
373.370288624007
 30
0.0
 10
31.06250007113652
 20
378.340851372483
 30
0.0
 10
35.09193732265952
 20
382.3702886240074
 30
0.0
 10
40.06250007113652
 20
382.3702886240074
 30
0.0
 10
45.03306281961351
 20
382.3702886240074
 30
0.0
 10
49.06250007113651
 20
378.340851372483
 30
0.0
 10
49.06250007113651
 20
373.370288624007
 30
0.0
 10
49.06250007113651
 20
368.3997258755278
 30
0.0
 10
45.03306281961351
 20
364.3702886240073
 30
0.0
 10
40.06250007113652
 20
364.3702886240073
 30
0.0
 10
40.06250007113652
 20
364.3702886240073
 30
0.0
 10
40.06250007113652
 20
364.3702886240073
 30
0.0
 10
40.06250007113652
 20
364.3702886240073
 30
0.0
  0
SPLINE
  5
81
330
78
100
AcDbEntity
  8
0
 62
     1
420
 16711680
370
    25
100
AcDbSpline
210
0.0
220
0.0
230
1.0
 70
     9
 71
     3
 72
    20
 73
    16
 74
     0
 42
0.0000000001
 43
0.0000000001
 40
0.0
 40
0.0
 40
0.0
 40
0.0
 40
1.0
 40
1.0
 40
1.0
 40
2.0
 40
2.0
 40
2.0
 40
3.0
 40
3.0
 40
3.0
 40
4.0
 40
4.0
 40
4.0
 40
5.0
 40
5.0
 40
5.0
 40
5.0
 10
134.8125000711368
 20
364.3702886240073
 30
0.0
 10
129.8419373226595
 20
364.3702886240073
 30
0.0
 10
125.8125000711365
 20
368.3997258755278
 30
0.0
 10
125.8125000711365
 20
373.370288624007
 30
0.0
 10
125.8125000711365
 20
378.340851372483
 30
0.0
 10
129.8419373226595
 20
382.3702886240074
 30
0.0
 10
134.8125000711368
 20
382.3702886240074
 30
0.0
 10
139.7830628196138
 20
382.3702886240074
 30
0.0
 10
143.8125000711368
 20
378.340851372483
 30
0.0
 10
143.8125000711368
 20
373.370288624007
 30
0.0
 10
143.8125000711368
 20
368.3997258755278
 30
0.0
 10
139.7830628196138
 20
364.3702886240073
 30
0.0
 10
134.8125000711368
 20
364.3702886240073
 30
0.0
 10
134.8125000711368
 20
364.3702886240073
 30
0.0
 10
134.8125000711368
 20
364.3702886240073
 30
0.0
 10
134.8125000711368
 20
364.3702886240073
 30
0.0
  0
SPLINE
  5
82
330
78
100
AcDbEntity
  8
0
 62
     1
420
 16711680
370
    25
100
AcDbSpline
210
0.0
220
0.0
230
1.0
 70
     9
 71
     3
 72
    20
 73
    16
 74
     0
 42
0.0000000001
 43
0.0000000001
 40
0.0
 40
0.0
 40
0.0
 40
0.0
 40
1.0
 40
1.0
 40
1.0
 40
2.0
 40
2.0
 40
2.0
 40
3.0
 40
3.0
 40
3.0
 40
4.0
 40
4.0
 40
4.0
 40
5.0
 40
5.0
 40
5.0
 40
5.0
 10
260.0625000711366
 20
352.5624824405069
 30
0.0
 10
255.0919373226596
 20
352.5624824405069
 30
0.0
 10
251.0625000711366
 20
356.5919196920312
 30
0.0
 10
251.0625000711366
 20
361.5624824405065
 30
0.0
 10
251.0625000711366
 20
366.5330451889819
 30
0.0
 10
255.0919373226596
 20
370.5624824405063
 30
0.0
 10
260.0625000711366
 20
370.5624824405063
 30
0.0
 10
265.0330628196136
 20
370.5624824405063
 30
0.0
 10
269.0625000711366
 20
366.5330451889819
 30
0.0
 10
269.0625000711366
 20
361.5624824405065
 30
0.0
 10
269.0625000711366
 20
356.5919196920312
 30
0.0
 10
265.0330628196136
 20
352.5624824405069
 30
0.0
 10
260.0625000711366
 20
352.5624824405069
 30
0.0
 10
260.0625000711366
 20
352.5624824405069
 30
0.0
 10
260.0625000711366
 20
352.5624824405069
 30
0.0
 10
260.0625000711366
 20
352.5624824405069
 30
0.0
  0
SPLINE
  5
83
330
78
100
AcDbEntity
  8
0
 62
     1
420
 16711680
370
    25
100
AcDbSpline
210
0.0
220
0.0
230
1.0
 70
     9
 71
     3
 72
    20
 73
    16
 74
     0
 42
0.0000000001
 43
0.0000000001
 40
0.0
 40
0.0
 40
0.0
 40
0.0
 40
1.0
 40
1.0
 40
1.0
 40
2.0
 40
2.0
 40
2.0
 40
3.0
 40
3.0
 40
3.0
 40
4.0
 40
4.0
 40
4.0
 40
5.0
 40
5.0
 40
5.0
 40
5.0
 10
357.5625000711359
 20
359.3702886240078
 30
0.0
 10
349.8305135735054
 20
359.3702886240078
 30
0.0
 10
343.562500071137
 20
365.6383021263762
 30
0.0
 10
343.562500071137
 20
373.370288624007
 30
0.0
 10
343.562500071137
 20
381.1022751216392
 30
0.0
 10
349.8305135735054
 20
387.3702886240075
 30
0.0
 10
357.5625000711359
 20
387.3702886240075
 30
0.0
 10
365.2944865687676
 20
387.3702886240075
 30
0.0
 10
371.562500071136
 20
381.1022751216392
 30
0.0
 10
371.562500071136
 20
373.370288624007
 30
0.0
 10
371.562500071136
 20
365.6383021263762
 30
0.0
 10
365.2944865687676
 20
359.3702886240078
 30
0.0
 10
357.5625000711359
 20
359.3702886240078
 30
0.0
 10
357.5625000711359
 20
359.3702886240078
 30
0.0
 10
357.5625000711359
 20
359.3702886240078
 30
0.0
 10
357.5625000711359
 20
359.3702886240078
 30
0.0
  0
SPLINE
  5
84
330
78
100
AcDbEntity
  8
0
 62
     1
420
 16711680
370
    25
100
AcDbSpline
210
0.0
220
0.0
230
1.0
 70
     9
 71
     3
 72
    20
 73
    16
 74
     0
 42
0.0000000001
 43
0.0000000001
 40
0.0
 40
0.0
 40
0.0
 40
0.0
 40
1.0
 40
1.0
 40
1.0
 40
2.0
 40
2.0
 40
2.0
 40
3.0
 40
3.0
 40
3.0
 40
4.0
 40
4.0
 40
4.0
 40
5.0
 40
5.0
 40
5.0
 40
5.0
 10
500.0625000711357
 20
352.5624824405069
 30
0.0
 10
495.0919373226604
 20
352.5624824405069
 30
0.0
 10
491.0625000711361
 20
356.5919196920312
 30
0.0
 10
491.0625000711361
 20
361.5624824405065
 30
0.0
 10
491.0625000711361
 20
366.5330451889819
 30
0.0
 10
495.0919373226604
 20
370.5624824405063
 30
0.0
 10
500.0625000711357
 20
370.5624824405063
 30
0.0
 10
505.0330628196149
 20
370.5624824405063
 30
0.0
 10
509.062500071136
 20
366.5330451889819
 30
0.0
 10
509.062500071136
 20
361.5624824405065
 30
0.0
 10
509.062500071136
 20
356.5919196920312
 30
0.0
 10
505.0330628196149
 20
352.5624824405069
 30
0.0
 10
500.0625000711357
 20
352.5624824405069
 30
0.0
 10
500.0625000711357
 20
352.5624824405069
 30
0.0
 10
500.0625000711357
 20
352.5624824405069
 30
0.0
 10
500.0625000711357
 20
352.5624824405069
 30
0.0
  0
SPLINE
  5
85
330
78
100
AcDbEntity
  8
0
 62
     1
420
 16711680
370
    25
100
AcDbSpline
210
0.0
220
0.0
230
1.0
 70
     9
 71
     3
 72
    20
 73
    16
 74
     0
 42
0.0000000001
 43
0.0000000001
 40
0.0
 40
0.0
 40
0.0
 40
0.0
 40
1.0
 40
1.0
 40
1.0
 40
2.0
 40
2.0
 40
2.0
 40
3.0
 40
3.0
 40
3.0
 40
4.0
 40
4.0
 40
4.0
 40
5.0
 40
5.0
 40
5.0
 40
5.0
 10
960.0625000711358
 20
260.0624824405065
 30
0.0
 10
955.0919373226605
 20
260.0624824405065
 30
0.0
 10
951.0625000711362
 20
264.0919196920308
 30
0.0
 10
951.0625000711362
 20
269.0624824405068
 30
0.0
 10
951.0625000711362
 20
274.033045188986
 30
0.0
 10
955.0919373226605
 20
278.0624824405065
 30
0.0
 10
960.0625000711358
 20
278.0624824405065
 30
0.0
 10
965.0330628196153
 20
278.0624824405065
 30
0.0
 10
969.0625000711357
 20
274.033045188986
 30
0.0
 10
969.0625000711357
 20
269.0624824405068
 30
0.0
 10
969.0625000711357
 20
264.0919196920308
 30
0.0
 10
965.0330628196153
 20
260.0624824405065
 30
0.0
 10
960.0625000711358
 20
260.0624824405065
 30
0.0
 10
960.0625000711358
 20
260.0624824405065
 30
0.0
 10
960.0625000711358
 20
260.0624824405065
 30
0.0
 10
960.0625000711358
 20
260.0624824405065
 30
0.0
  0
SPLINE
  5
86
330
78
100
AcDbEntity
  8
0
 62
     1
420
 16711680
370
    25
100
AcDbSpline
210
0.0
220
0.0
230
1.0
 70
     9
 71
     3
 72
    20
 73
    16
 74
     0
 42
0.0000000001
 43
0.0000000001
 40
0.0
 40
0.0
 40
0.0
 40
0.0
 40
1.0
 40
1.0
 40
1.0
 40
2.0
 40
2.0
 40
2.0
 40
3.0
 40
3.0
 40
3.0
 40
4.0
 40
4.0
 40
4.0
 40
5.0
 40
5.0
 40
5.0
 40
5.0
 10
960.0625000711358
 20
364.3702886240073
 30
0.0
 10
955.0919373226605
 20
364.3702886240073
 30
0.0
 10
951.0625000711362
 20
368.3997258755278
 30
0.0
 10
951.0625000711362
 20
373.370288624007
 30
0.0
 10
951.0625000711362
 20
378.340851372483
 30
0.0
 10
955.0919373226605
 20
382.3702886240074
 30
0.0
 10
960.0625000711358
 20
382.3702886240074
 30
0.0
 10
965.0330628196153
 20
382.3702886240074
 30
0.0
 10
969.0625000711357
 20
378.340851372483
 30
0.0
 10
969.0625000711357
 20
373.370288624007
 30
0.0
 10
969.0625000711357
 20
368.3997258755278
 30
0.0
 10
965.0330628196153
 20
364.3702886240073
 30
0.0
 10
960.0625000711358
 20
364.3702886240073
 30
0.0
 10
960.0625000711358
 20
364.3702886240073
 30
0.0
 10
960.0625000711358
 20
364.3702886240073
 30
0.0
 10
960.0625000711358
 20
364.3702886240073
 30
0.0
  0
LINE
  5
87
330
78
100
AcDbEntity
  8
0
 62
     1
420
 16711680
370
    25
100
AcDbLine
 10
860.0625000711362
 20
358.3702886240071
 30
0.0
 11
860.0625000711362
 21
313.3702886240075
 31
0.0
  0
LINE
  5
88
330
78
100
AcDbEntity
  8
0
 62
     1
420
 16711680
370
    25
100
AcDbLine
 10
860.0625000711362
 20
313.3702886240075
 30
0.0
 11
905.062500071136
 21
313.3702886240075
 31
0.0
  0
LINE
  5
89
330
78
100
AcDbEntity
  8
0
 62
     1
420
 16711680
370
    25
100
AcDbLine
 10
905.062500071136
 20
313.3702886240075
 30
0.0
 11
905.062500071136
 21
358.3702886240071
 31
0.0
  0
LINE
  5
8A
330
78
100
AcDbEntity
  8
0
 62
     1
420
 16711680
370
    25
100
AcDbLine
 10
905.062500071136
 20
358.3702886240071
 30
0.0
 11
860.0625000711362
 21
358.3702886240071
 31
0.0
  0
LINE
  5
8B
330
78
100
AcDbEntity
  8
0
 62
     1
420
 16711680
370
    25
100
AcDbLine
 10
95.06250007113655
 20
358.3702886240071
 30
0.0
 11
95.06250007113655
 21
313.3702886240075
 31
0.0
  0
LINE
  5
8C
330
78
100
AcDbEntity
  8
0
 62
     1
420
 16711680
370
    25
100
AcDbLine
 10
95.06250007113655
 20
313.3702886240075
 30
0.0
 11
140.0625000711365
 21
313.3702886240075
 31
0.0
  0
LINE
  5
8D
330
78
100
AcDbEntity
  8
0
 62
     1
420
 16711680
370
    25
100
AcDbLine
 10
140.0625000711365
 20
313.3702886240075
 30
0.0
 11
140.0625000711365
 21
358.3702886240071
 31
0.0
  0
LINE
  5
8E
330
78
100
AcDbEntity
  8
0
 62
     1
420
 16711680
370
    25
100
AcDbLine
 10
140.0625000711365
 20
358.3702886240071
 30
0.0
 11
95.06250007113655
 21
358.3702886240071
 31
0.0
  0
LINE
  5
8F
330
78
100
AcDbEntity
  8
0
 62
     1
420
 16711680
370
    25
100
AcDbLine
 10
70.06250007113661
 20
249.0624824405061
 30
0.0
 11
70.06250007113661
 21
278.3702886240069
 31
0.0
  0
LINE
  5
90
330
78
100
AcDbEntity
  8
0
 62
     1
420
 16711680
370
    25
100
AcDbLine
 10
40.06250007113652
 20
249.0624824405061
 30
0.0
 11
70.06250007113661
 21
249.0624824405061
 31
0.0
  0
LINE
  5
91
330
78
100
AcDbEntity
  8
0
 62
     1
420
 16711680
370
    25
100
AcDbLine
 10
40.06250007113652
 20
219.0624824405063
 30
0.0
 11
40.06250007113652
 21
249.0624824405061
 31
0.0
  0
LINE
  5
92
330
78
100
AcDbEntity
  8
0
 62
     1
420
 16711680
370
    25
100
AcDbLine
 10
10.06250007113642
 20
219.0624824405063
 30
0.0
 11
40.06250007113652
 21
219.0624824405063
 31
0.0
  0
LINE
  5
93
330
78
100
AcDbEntity
  8
0
 62
     1
420
 16711680
370
    25
100
AcDbLine
 10
10.06250007113642
 20
393.3702886240078
 30
0.0
 11
10.06250007113642
 21
219.0624824405063
 31
0.0
  0
LINE
  5
94
330
78
100
AcDbEntity
  8
0
 62
     1
420
 16711680
370
    25
100
AcDbLine
 10
980.062500071136
 20
403.3702886240075
 30
0.0
 11
20.06250007113678
 21
403.3702886240075
 31
0.0
  0
LINE
  5
95
330
78
100
AcDbEntity
  8
0
 62
     1
420
 16711680
370
    25
100
AcDbLine
 10
990.0625000711356
 20
219.0624824405063
 30
0.0
 11
990.0625000711356
 21
393.3702886240078
 31
0.0
  0
LINE
  5
96
330
78
100
AcDbEntity
  8
0
 62
     1
420
 16711680
370
    25
100
AcDbLine
 10
960.0625000711358
 20
219.0624824405063
 30
0.0
 11
990.0625000711356
 21
219.0624824405063
 31
0.0
  0
LINE
  5
97
330
78
100
AcDbEntity
  8
0
 62
     1
420
 16711680
370
    25
100
AcDbLine
 10
960.0625000711358
 20
249.0624824405061
 30
0.0
 11
960.0625000711358
 21
219.0624824405063
 31
0.0
  0
LINE
  5
98
330
78
100
AcDbEntity
  8
0
 62
     1
420
 16711680
370
    25
100
AcDbLine
 10
930.0625000711361
 20
249.0624824405061
 30
0.0
 11
960.0625000711358
 21
249.0624824405061
 31
0.0
  0
LINE
  5
99
330
78
100
AcDbEntity
  8
0
 62
     1
420
 16711680
370
    25
100
AcDbLine
 10
930.0625000711361
 20
278.3702886240069
 30
0.0
 11
930.0625000711361
 21
249.0624824405061
 31
0.0
  0
LINE
  5
9A
330
78
100
AcDbEntity
  8
0
 62
     1
420
 16711680
370
    25
100
AcDbLine
 10
825.0625000711357
 20
283.3702886240077
 30
0.0
 11
925.0625000711361
 21
283.3702886240077
 31
0.0
  0
LINE
  5
9B
330
78
100
AcDbEntity
  8
0
 62
     1
420
 16711680
370
    25
100
AcDbLine
 10
820.0625000711362
 20
349.0624824405064
 30
0.0
 11
820.0625000711362
 21
288.3702886240072
 31
0.0
  0
LINE
  5
9C
330
78
100
AcDbEntity
  8
0
 62
     1
420
 16711680
370
    25
100
AcDbLine
 10
180.0625000711366
 20
349.0624824405064
 30
0.0
 11
820.0625000711362
 21
349.0624824405064
 31
0.0
  0
LINE
  5
9D
330
78
100
AcDbEntity
  8
0
 62
     1
420
 16711680
370
    25
100
AcDbLine
 10
180.0625000711366
 20
288.3702886240072
 30
0.0
 11
180.0625000711366
 21
349.0624824405064
 31
0.0
  0
LINE
  5
9E
330
78
100
AcDbEntity
  8
0
 62
     1
420
 16711680
370
    25
100
AcDbLine
 10
75.06250007113679
 20
283.3702886240077
 30
0.0
 11
175.0625000711364
 21
283.3702886240077
 31
0.0
  0
LINE
  5
9F
330
78
100
AcDbEntity
  8
0
 62
     1
420
 16711680
370
    25
100
AcDbLine
 10
841.3125000711357
 20
342.1202886240071
 30
0.0
 11
841.3125000711357
 21
329.6202886240076
 31
0.0
  0
LINE
  5
A0
330
78
100
AcDbEntity
  8
0
 62
     1
420
 16711680
370
    25
100
AcDbLine
 10
841.3125000711357
 20
329.6202886240076
 30
0.0
 11
847.8125000711356
 21
329.6202886240076
 31
0.0
  0
LINE
  5
A1
330
78
100
AcDbEntity
  8
0
 62
     1
420
 16711680
370
    25
100
AcDbLine
 10
847.8125000711356
 20
329.6202886240076
 30
0.0
 11
847.8125000711356
 21
342.1202886240071
 31
0.0
  0
LINE
  5
A2
330
78
100
AcDbEntity
  8
0
 62
     1
420
 16711680
370
    25
100
AcDbLine
 10
847.8125000711356
 20
342.1202886240071
 30
0.0
 11
841.3125000711357
 21
342.1202886240071
 31
0.0
  0
LINE
  5
A3
330
78
100
AcDbEntity
  8
0
 62
     1
420
 16711680
370
    25
100
AcDbLine
 10
876.3125000711356
 20
301.1202886240075
 30
0.0
 11
876.3125000711356
 21
294.6202886240069
 31
0.0
  0
LINE
  5
A4
330
78
100
AcDbEntity
  8
0
 62
     1
420
 16711680
370
    25
100
AcDbLine
 10
876.3125000711356
 20
294.6202886240069
 30
0.0
 11
888.8125000711358
 21
294.6202886240069
 31
0.0
  0
LINE
  5
A5
330
78
100
AcDbEntity
  8
0
 62
     1
420
 16711680
370
    25
100
AcDbLine
 10
888.8125000711358
 20
294.6202886240069
 30
0.0
 11
888.8125000711358
 21
301.1202886240075
 31
0.0
  0
LINE
  5
A6
330
78
100
AcDbEntity
  8
0
 62
     1
420
 16711680
370
    25
100
AcDbLine
 10
888.8125000711358
 20
301.1202886240075
 30
0.0
 11
876.3125000711356
 21
301.1202886240075
 31
0.0
  0
LINE
  5
A7
330
78
100
AcDbEntity
  8
0
 62
     1
420
 16711680
370
    25
100
AcDbLine
 10
152.3125000711365
 20
342.1202886240071
 30
0.0
 11
152.3125000711365
 21
329.6202886240076
 31
0.0
  0
LINE
  5
A8
330
78
100
AcDbEntity
  8
0
 62
     1
420
 16711680
370
    25
100
AcDbLine
 10
152.3125000711365
 20
329.6202886240076
 30
0.0
 11
158.8125000711367
 21
329.6202886240076
 31
0.0
  0
LINE
  5
A9
330
78
100
AcDbEntity
  8
0
 62
     1
420
 16711680
370
    25
100
AcDbLine
 10
158.8125000711367
 20
329.6202886240076
 30
0.0
 11
158.8125000711367
 21
342.1202886240071
 31
0.0
  0
LINE
  5
AA
330
78
100
AcDbEntity
  8
0
 62
     1
420
 16711680
370
    25
100
AcDbLine
 10
158.8125000711367
 20
342.1202886240071
 30
0.0
 11
152.3125000711365
 21
342.1202886240071
 31
0.0
  0
LINE
  5
AB
330
78
100
AcDbEntity
  8
0
 62
     1
420
 16711680
370
    25
100
AcDbLine
 10
123.8125000711364
 20
294.6202886240069
 30
0.0
 11
123.8125000711364
 21
301.1202886240075
 31
0.0
  0
LINE
  5
AC
330
78
100
AcDbEntity
  8
0
 62
     1
420
 16711680
370
    25
100
AcDbLine
 10
123.8125000711364
 20
301.1202886240075
 30
0.0
 11
111.3125000711366
 21
301.1202886240075
 31
0.0
  0
LINE
  5
AD
330
78
100
AcDbEntity
  8
0
 62
     1
420
 16711680
370
    25
100
AcDbLine
 10
111.3125000711366
 20
301.1202886240075
 30
0.0
 11
111.3125000711366
 21
294.6202886240069
 31
0.0
  0
LINE
  5
AE
330
78
100
AcDbEntity
  8
0
 62
     1
420
 16711680
370
    25
100
AcDbLine
 10
111.3125000711366
 20
294.6202886240069
 30
0.0
 11
123.8125000711364
 21
294.6202886240069
 31
0.0
  0
SPLINE
  5
AF
330
78
100
AcDbEntity
  8
0
 62
     1
420
 16711680
370
    25
100
AcDbSpline
210
0.0
220
0.0
230
1.0
 70
     8
 71
     3
 72
     8
 73
     4
 74
     0
 42
0.0000000001
 43
0.0000000001
 40
0.0
 40
0.0
 40
0.0
 40
0.0
 40
1.0
 40
1.0
 40
1.0
 40
1.0
 10
75.06250007113679
 20
283.3702886240077
 30
0.0
 10
72.30107632198266
 20
283.3702886240077
 30
0.0
 10
70.06250007113661
 20
281.1317123731598
 30
0.0
 10
70.06250007113661
 20
278.3702886240069
 30
0.0
  0
SPLINE
  5
B0
330
78
100
AcDbEntity
  8
0
 62
     1
420
 16711680
370
    25
100
AcDbSpline
210
0.0
220
0.0
230
1.0
 70
     8
 71
     3
 72
     8
 73
     4
 74
     0
 42
0.0000000001
 43
0.0000000001
 40
0.0
 40
0.0
 40
0.0
 40
0.0
 40
1.0
 40
1.0
 40
1.0
 40
1.0
 10
20.06250007113678
 20
403.3702886240075
 30
0.0
 10
14.53965257282851
 20
403.3702886240075
 30
0.0
 10
10.06250007113642
 20
398.893136122316
 30
0.0
 10
10.06250007113642
 20
393.3702886240078
 30
0.0
  0
SPLINE
  5
B1
330
78
100
AcDbEntity
  8
0
 62
     1
420
 16711680
370
    25
100
AcDbSpline
210
0.0
220
0.0
230
1.0
 70
     8
 71
     3
 72
     8
 73
     4
 74
     0
 42
0.0000000001
 43
0.0000000001
 40
0.0
 40
0.0
 40
0.0
 40
0.0
 40
1.0
 40
1.0
 40
1.0
 40
1.0
 10
990.0625000711356
 20
393.3702886240078
 30
0.0
 10
990.0625000711356
 20
398.893136122316
 30
0.0
 10
985.5853475694443
 20
403.3702886240075
 30
0.0
 10
980.062500071136
 20
403.3702886240075
 30
0.0
  0
SPLINE
  5
B2
330
78
100
AcDbEntity
  8
0
 62
     1
420
 16711680
370
    25
100
AcDbSpline
210
0.0
220
0.0
230
1.0
 70
     8
 71
     3
 72
     8
 73
     4
 74
     0
 42
0.0000000001
 43
0.0000000001
 40
0.0
 40
0.0
 40
0.0
 40
0.0
 40
1.0
 40
1.0
 40
1.0
 40
1.0
 10
930.0625000711361
 20
278.3702886240069
 30
0.0
 10
930.0625000711361
 20
281.1317123731598
 30
0.0
 10
927.8239238202921
 20
283.3702886240077
 30
0.0
 10
925.0625000711361
 20
283.3702886240077
 30
0.0
  0
SPLINE
  5
B3
330
78
100
AcDbEntity
  8
0
 62
     1
420
 16711680
370
    25
100
AcDbSpline
210
0.0
220
0.0
230
1.0
 70
     8
 71
     3
 72
     8
 73
     4
 74
     0
 42
0.0000000001
 43
0.0000000001
 40
0.0
 40
0.0
 40
0.0
 40
0.0
 40
1.0
 40
1.0
 40
1.0
 40
1.0
 10
820.0625000711362
 20
288.3702886240072
 30
0.0
 10
820.0625000711362
 20
285.6088648748518
 30
0.0
 10
822.3010763219834
 20
283.3702886240077
 30
0.0
 10
825.0625000711357
 20
283.3702886240077
 30
0.0
  0
SPLINE
  5
B4
330
78
100
AcDbEntity
  8
0
 62
     1
420
 16711680
370
    25
100
AcDbSpline
210
0.0
220
0.0
230
1.0
 70
     8
 71
     3
 72
     8
 73
     4
 74
     0
 42
0.0000000001
 43
0.0000000001
 40
0.0
 40
0.0
 40
0.0
 40
0.0
 40
1.0
 40
1.0
 40
1.0
 40
1.0
 10
175.0625000711364
 20
283.3702886240077
 30
0.0
 10
177.8239238202906
 20
283.3702886240077
 30
0.0
 10
180.0625000711366
 20
285.6088648748518
 30
0.0
 10
180.0625000711366
 20
288.3702886240072
 30
0.0
  0
ENDBLK
  5
7B
330
78
100
AcDbEntity
  8
0
100
AcDbBlockEnd
  0
BLOCK
  5
B7
330
B5
100
AcDbEntity
  8
0
100
AcDbBlockBegin
  2
Block_1
 70
     0
 10
0.0
 20
0.0
 30
0.0
  3
Block_1
  1

  0
SPLINE
  5
B9
330
B5
100
AcDbEntity
  8
0
 62
     1
420
 16711680
370
    25
100
AcDbSpline
210
0.0
220
0.0
230
1.0
 70
     9
 71
     3
 72
    20
 73
    16
 74
     0
 42
0.0000000001
 43
0.0000000001
 40
0.0
 40
0.0
 40
0.0
 40
0.0
 40
1.0
 40
1.0
 40
1.0
 40
2.0
 40
2.0
 40
2.0
 40
3.0
 40
3.0
 40
3.0
 40
4.0
 40
4.0
 40
4.0
 40
5.0
 40
5.0
 40
5.0
 40
5.0
 10
357.5625033390858
 20
449.7144159237172
 30
0.0
 10
365.294489836714
 20
449.7144159237172
 30
0.0
 10
371.562503339086
 20
443.4464024213475
 30
0.0
 10
371.562503339086
 20
435.7144159237167
 30
0.0
 10
371.562503339086
 20
427.9824294260858
 30
0.0
 10
365.294489836714
 20
421.7144159237162
 30
0.0
 10
357.5625033390858
 20
421.7144159237162
 30
0.0
 10
349.830516841454
 20
421.7144159237162
 30
0.0
 10
343.5625033390849
 20
427.9824294260858
 30
0.0
 10
343.5625033390849
 20
435.7144159237167
 30
0.0
 10
343.5625033390849
 20
443.4464024213475
 30
0.0
 10
349.830516841454
 20
449.7144159237172
 30
0.0
 10
357.5625033390858
 20
449.7144159237172
 30
0.0
 10
357.5625033390858
 20
449.7144159237172
 30
0.0
 10
357.5625033390858
 20
449.7144159237172
 30
0.0
 10
357.5625033390858
 20
449.7144159237172
 30
0.0
  0
SPLINE
  5
BA
330
B5
100
AcDbEntity
  8
0
 62
     1
420
 16711680
370
    25
100
AcDbSpline
210
0.0
220
0.0
230
1.0
 70
     9
 71
     3
 72
    20
 73
    16
 74
     0
 42
0.0000000001
 43
0.0000000001
 40
0.0
 40
0.0
 40
0.0
 40
0.0
 40
1.0
 40
1.0
 40
1.0
 40
2.0
 40
2.0
 40
2.0
 40
3.0
 40
3.0
 40
3.0
 40
4.0
 40
4.0
 40
4.0
 40
5.0
 40
5.0
 40
5.0
 40
5.0
 10
134.8125033390848
 20
444.7144159237163
 30
0.0
 10
139.7830660875621
 20
444.7144159237163
 30
0.0
 10
143.8125033390844
 20
440.6849786721934
 30
0.0
 10
143.8125033390844
 20
435.7144159237167
 30
0.0
 10
143.8125033390844
 20
430.74385317524
 30
0.0
 10
139.7830660875621
 20
426.7144159237171
 30
0.0
 10
134.8125033390848
 20
426.7144159237171
 30
0.0
 10
129.8419405906074
 20
426.7144159237171
 30
0.0
 10
125.8125033390844
 20
430.74385317524
 30
0.0
 10
125.8125033390844
 20
435.7144159237167
 30
0.0
 10
125.8125033390844
 20
440.6849786721934
 30
0.0
 10
129.8419405906074
 20
444.7144159237163
 30
0.0
 10
134.8125033390848
 20
444.7144159237163
 30
0.0
 10
134.8125033390848
 20
444.7144159237163
 30
0.0
 10
134.8125033390848
 20
444.7144159237163
 30
0.0
 10
134.8125033390848
 20
444.7144159237163
 30
0.0
  0
SPLINE
  5
BB
330
B5
100
AcDbEntity
  8
0
 62
     1
420
 16711680
370
    25
100
AcDbSpline
210
0.0
220
0.0
230
1.0
 70
     9
 71
     3
 72
    20
 73
    16
 74
     0
 42
0.0000000001
 43
0.0000000001
 40
0.0
 40
0.0
 40
0.0
 40
0.0
 40
1.0
 40
1.0
 40
1.0
 40
2.0
 40
2.0
 40
2.0
 40
3.0
 40
3.0
 40
3.0
 40
4.0
 40
4.0
 40
4.0
 40
5.0
 40
5.0
 40
5.0
 40
5.0
 10
260.0625033390852
 20
456.5222221072168
 30
0.0
 10
265.0330660875622
 20
456.5222221072168
 30
0.0
 10
269.0625033390846
 20
452.4927848556938
 30
0.0
 10
269.0625033390846
 20
447.5222221072171
 30
0.0
 10
269.0625033390846
 20
442.5516593587392
 30
0.0
 10
265.0330660875622
 20
438.5222221072162
 30
0.0
 10
260.0625033390852
 20
438.5222221072162
 30
0.0
 10
255.0919405906075
 20
438.5222221072162
 30
0.0
 10
251.0625033390846
 20
442.5516593587392
 30
0.0
 10
251.0625033390846
 20
447.5222221072171
 30
0.0
 10
251.0625033390846
 20
452.4927848556938
 30
0.0
 10
255.0919405906075
 20
456.5222221072168
 30
0.0
 10
260.0625033390852
 20
456.5222221072168
 30
0.0
 10
260.0625033390852
 20
456.5222221072168
 30
0.0
 10
260.0625033390852
 20
456.5222221072168
 30
0.0
 10
260.0625033390852
 20
456.5222221072168
 30
0.0
  0
SPLINE
  5
BC
330
B5
100
AcDbEntity
  8
0
 62
     1
420
 16711680
370
    25
100
AcDbSpline
210
0.0
220
0.0
230
1.0
 70
     9
 71
     3
 72
    20
 73
    16
 74
     0
 42
0.0000000001
 43
0.0000000001
 40
0.0
 40
0.0
 40
0.0
 40
0.0
 40
1.0
 40
1.0
 40
1.0
 40
2.0
 40
2.0
 40
2.0
 40
3.0
 40
3.0
 40
3.0
 40
4.0
 40
4.0
 40
4.0
 40
5.0
 40
5.0
 40
5.0
 40
5.0
 10
960.0625033390858
 20
549.0222221072108
 30
0.0
 10
965.0330660875612
 20
549.0222221072108
 30
0.0
 10
969.0625033390855
 20
544.99278485569
 30
0.0
 10
969.0625033390855
 20
540.0222221072144
 30
0.0
 10
969.0625033390855
 20
535.0516593587347
 30
0.0
 10
965.0330660875612
 20
531.022222107213
 30
0.0
 10
960.0625033390858
 20
531.022222107213
 30
0.0
 10
955.0919405906066
 20
531.022222107213
 30
0.0
 10
951.0625033390862
 20
535.0516593587347
 30
0.0
 10
951.0625033390862
 20
540.0222221072144
 30
0.0
 10
951.0625033390862
 20
544.99278485569
 30
0.0
 10
955.0919405906066
 20
549.0222221072108
 30
0.0
 10
960.0625033390858
 20
549.0222221072108
 30
0.0
 10
960.0625033390858
 20
549.0222221072108
 30
0.0
 10
960.0625033390858
 20
549.0222221072108
 30
0.0
 10
960.0625033390858
 20
549.0222221072108
 30
0.0
  0
SPLINE
  5
BD
330
B5
100
AcDbEntity
  8
0
 62
     1
420
 16711680
370
    25
100
AcDbSpline
210
0.0
220
0.0
230
1.0
 70
     9
 71
     3
 72
    20
 73
    16
 74
     0
 42
0.0000000001
 43
0.0000000001
 40
0.0
 40
0.0
 40
0.0
 40
0.0
 40
1.0
 40
1.0
 40
1.0
 40
2.0
 40
2.0
 40
2.0
 40
3.0
 40
3.0
 40
3.0
 40
4.0
 40
4.0
 40
4.0
 40
5.0
 40
5.0
 40
5.0
 40
5.0
 10
960.0625033390858
 20
444.714415923717
 30
0.0
 10
965.0330660875612
 20
444.714415923717
 30
0.0
 10
969.0625033390855
 20
440.6849786721941
 30
0.0
 10
969.0625033390855
 20
435.7144159237173
 30
0.0
 10
969.0625033390855
 20
430.74385317524
 30
0.0
 10
965.0330660875612
 20
426.7144159237171
 30
0.0
 10
960.0625033390858
 20
426.7144159237171
 30
0.0
 10
955.0919405906066
 20
426.7144159237171
 30
0.0
 10
951.0625033390862
 20
430.74385317524
 30
0.0
 10
951.0625033390862
 20
435.7144159237173
 30
0.0
 10
951.0625033390862
 20
440.6849786721941
 30
0.0
 10
955.0919405906066
 20
444.714415923717
 30
0.0
 10
960.0625033390858
 20
444.714415923717
 30
0.0
 10
960.0625033390858
 20
444.714415923717
 30
0.0
 10
960.0625033390858
 20
444.714415923717
 30
0.0
 10
960.0625033390858
 20
444.714415923717
 30
0.0
  0
SPLINE
  5
BE
330
B5
100
AcDbEntity
  8
0
 62
     1
420
 16711680
370
    25
100
AcDbSpline
210
0.0
220
0.0
230
1.0
 70
     9
 71
     3
 72
    20
 73
    16
 74
     0
 42
0.0000000001
 43
0.0000000001
 40
0.0
 40
0.0
 40
0.0
 40
0.0
 40
1.0
 40
1.0
 40
1.0
 40
2.0
 40
2.0
 40
2.0
 40
3.0
 40
3.0
 40
3.0
 40
4.0
 40
4.0
 40
4.0
 40
5.0
 40
5.0
 40
5.0
 40
5.0
 10
865.3125033390859
 20
444.714415923717
 30
0.0
 10
870.2830660875619
 20
444.714415923717
 30
0.0
 10
874.3125033390862
 20
440.6849786721941
 30
0.0
 10
874.3125033390862
 20
435.7144159237173
 30
0.0
 10
874.3125033390862
 20
430.74385317524
 30
0.0
 10
870.2830660875619
 20
426.7144159237171
 30
0.0
 10
865.3125033390859
 20
426.7144159237171
 30
0.0
 10
860.3419405906066
 20
426.7144159237171
 30
0.0
 10
856.3125033390855
 20
430.74385317524
 30
0.0
 10
856.3125033390855
 20
435.7144159237173
 30
0.0
 10
856.3125033390855
 20
440.6849786721941
 30
0.0
 10
860.3419405906066
 20
444.714415923717
 30
0.0
 10
865.3125033390859
 20
444.714415923717
 30
0.0
 10
865.3125033390859
 20
444.714415923717
 30
0.0
 10
865.3125033390859
 20
444.714415923717
 30
0.0
 10
865.3125033390859
 20
444.714415923717
 30
0.0
  0
SPLINE
  5
BF
330
B5
100
AcDbEntity
  8
0
 62
     1
420
 16711680
370
    25
100
AcDbSpline
210
0.0
220
0.0
230
1.0
 70
     9
 71
     3
 72
    20
 73
    16
 74
     0
 42
0.0000000001
 43
0.0000000001
 40
0.0
 40
0.0
 40
0.0
 40
0.0
 40
1.0
 40
1.0
 40
1.0
 40
2.0
 40
2.0
 40
2.0
 40
3.0
 40
3.0
 40
3.0
 40
4.0
 40
4.0
 40
4.0
 40
5.0
 40
5.0
 40
5.0
 40
5.0
 10
740.0625033390857
 20
456.5222221072175
 30
0.0
 10
745.0330660875612
 20
456.5222221072175
 30
0.0
 10
749.0625033390854
 20
452.4927848556945
 30
0.0
 10
749.0625033390854
 20
447.5222221072171
 30
0.0
 10
749.0625033390854
 20
442.5516593587398
 30
0.0
 10
745.0330660875612
 20
438.5222221072169
 30
0.0
 10
740.0625033390857
 20
438.5222221072169
 30
0.0
 10
735.0919405906065
 20
438.5222221072169
 30
0.0
 10
731.0625033390861
 20
442.5516593587398
 30
0.0
 10
731.0625033390861
 20
447.5222221072171
 30
0.0
 10
731.0625033390861
 20
452.4927848556945
 30
0.0
 10
735.0919405906065
 20
456.5222221072175
 30
0.0
 10
740.0625033390857
 20
456.5222221072175
 30
0.0
 10
740.0625033390857
 20
456.5222221072175
 30
0.0
 10
740.0625033390857
 20
456.5222221072175
 30
0.0
 10
740.0625033390857
 20
456.5222221072175
 30
0.0
  0
SPLINE
  5
C0
330
B5
100
AcDbEntity
  8
0
 62
     1
420
 16711680
370
    25
100
AcDbSpline
210
0.0
220
0.0
230
1.0
 70
     9
 71
     3
 72
    20
 73
    16
 74
     0
 42
0.0000000001
 43
0.0000000001
 40
0.0
 40
0.0
 40
0.0
 40
0.0
 40
1.0
 40
1.0
 40
1.0
 40
2.0
 40
2.0
 40
2.0
 40
3.0
 40
3.0
 40
3.0
 40
4.0
 40
4.0
 40
4.0
 40
5.0
 40
5.0
 40
5.0
 40
5.0
 10
642.5625033390859
 20
449.7144159237172
 30
0.0
 10
650.2944898367172
 20
449.7144159237172
 30
0.0
 10
656.5625033390857
 20
443.4464024213475
 30
0.0
 10
656.5625033390857
 20
435.7144159237167
 30
0.0
 10
656.5625033390857
 20
427.9824294260858
 30
0.0
 10
650.2944898367172
 20
421.7144159237162
 30
0.0
 10
642.5625033390859
 20
421.7144159237162
 30
0.0
 10
634.8305168414543
 20
421.7144159237162
 30
0.0
 10
628.562503339086
 20
427.9824294260858
 30
0.0
 10
628.562503339086
 20
435.7144159237167
 30
0.0
 10
628.562503339086
 20
443.4464024213475
 30
0.0
 10
634.8305168414543
 20
449.7144159237172
 30
0.0
 10
642.5625033390859
 20
449.7144159237172
 30
0.0
 10
642.5625033390859
 20
449.7144159237172
 30
0.0
 10
642.5625033390859
 20
449.7144159237172
 30
0.0
 10
642.5625033390859
 20
449.7144159237172
 30
0.0
  0
SPLINE
  5
C1
330
B5
100
AcDbEntity
  8
0
 62
     1
420
 16711680
370
    25
100
AcDbSpline
210
0.0
220
0.0
230
1.0
 70
     9
 71
     3
 72
    20
 73
    16
 74
     0
 42
0.0000000001
 43
0.0000000001
 40
0.0
 40
0.0
 40
0.0
 40
0.0
 40
1.0
 40
1.0
 40
1.0
 40
2.0
 40
2.0
 40
2.0
 40
3.0
 40
3.0
 40
3.0
 40
4.0
 40
4.0
 40
4.0
 40
5.0
 40
5.0
 40
5.0
 40
5.0
 10
500.0625033390856
 20
456.5222221072168
 30
0.0
 10
505.0330660875617
 20
456.5222221072168
 30
0.0
 10
509.062503339086
 20
452.4927848556945
 30
0.0
 10
509.062503339086
 20
447.5222221072171
 30
0.0
 10
509.062503339086
 20
442.5516593587392
 30
0.0
 10
505.0330660875617
 20
438.5222221072162
 30
0.0
 10
500.0625033390856
 20
438.5222221072162
 30
0.0
 10
495.0919405906064
 20
438.5222221072162
 30
0.0
 10
491.062503339086
 20
442.5516593587392
 30
0.0
 10
491.062503339086
 20
447.5222221072171
 30
0.0
 10
491.062503339086
 20
452.4927848556938
 30
0.0
 10
495.0919405906064
 20
456.5222221072168
 30
0.0
 10
500.0625033390856
 20
456.5222221072168
 30
0.0
 10
500.0625033390856
 20
456.5222221072168
 30
0.0
 10
500.0625033390856
 20
456.5222221072168
 30
0.0
 10
500.0625033390856
 20
456.5222221072168
 30
0.0
  0
SPLINE
  5
C2
330
B5
100
AcDbEntity
  8
0
 62
     1
420
 16711680
370
    25
100
AcDbSpline
210
0.0
220
0.0
230
1.0
 70
     9
 71
     3
 72
    20
 73
    16
 74
     0
 42
0.0000000001
 43
0.0000000001
 40
0.0
 40
0.0
 40
0.0
 40
0.0
 40
1.0
 40
1.0
 40
1.0
 40
2.0
 40
2.0
 40
2.0
 40
3.0
 40
3.0
 40
3.0
 40
4.0
 40
4.0
 40
4.0
 40
5.0
 40
5.0
 40
5.0
 40
5.0
 10
40.06250333908481
 20
549.0222221072108
 30
0.0
 10
45.03306608756212
 20
549.0222221072108
 30
0.0
 10
49.06250333908449
 20
544.99278485569
 30
0.0
 10
49.06250333908449
 20
540.0222221072144
 30
0.0
 10
49.06250333908449
 20
535.0516593587347
 30
0.0
 10
45.03306608756212
 20
531.022222107213
 30
0.0
 10
40.06250333908481
 20
531.022222107213
 30
0.0
 10
35.0919405906075
 20
531.022222107213
 30
0.0
 10
31.06250333908449
 20
535.0516593587347
 30
0.0
 10
31.06250333908449
 20
540.0222221072144
 30
0.0
 10
31.06250333908449
 20
544.99278485569
 30
0.0
 10
35.0919405906075
 20
549.0222221072108
 30
0.0
 10
40.06250333908481
 20
549.0222221072108
 30
0.0
 10
40.06250333908481
 20
549.0222221072108
 30
0.0
 10
40.06250333908481
 20
549.0222221072108
 30
0.0
 10
40.06250333908481
 20
549.0222221072108
 30
0.0
  0
SPLINE
  5
C3
330
B5
100
AcDbEntity
  8
0
 62
     1
420
 16711680
370
    25
100
AcDbSpline
210
0.0
220
0.0
230
1.0
 70
     9
 71
     3
 72
    20
 73
    16
 74
     0
 42
0.0000000001
 43
0.0000000001
 40
0.0
 40
0.0
 40
0.0
 40
0.0
 40
1.0
 40
1.0
 40
1.0
 40
2.0
 40
2.0
 40
2.0
 40
3.0
 40
3.0
 40
3.0
 40
4.0
 40
4.0
 40
4.0
 40
5.0
 40
5.0
 40
5.0
 40
5.0
 10
40.06250333908481
 20
444.7144159237163
 30
0.0
 10
45.03306608756212
 20
444.7144159237163
 30
0.0
 10
49.06250333908513
 20
440.6849786721934
 30
0.0
 10
49.06250333908513
 20
435.7144159237167
 30
0.0
 10
49.06250333908513
 20
430.74385317524
 30
0.0
 10
45.03306608756212
 20
426.7144159237171
 30
0.0
 10
40.06250333908481
 20
426.7144159237171
 30
0.0
 10
35.0919405906075
 20
426.7144159237171
 30
0.0
 10
31.06250333908449
 20
430.74385317524
 30
0.0
 10
31.06250333908449
 20
435.7144159237167
 30
0.0
 10
31.06250333908449
 20
440.6849786721934
 30
0.0
 10
35.0919405906075
 20
444.7144159237163
 30
0.0
 10
40.06250333908481
 20
444.7144159237163
 30
0.0
 10
40.06250333908481
 20
444.7144159237163
 30
0.0
 10
40.06250333908481
 20
444.7144159237163
 30
0.0
 10
40.06250333908481
 20
444.7144159237163
 30
0.0
  0
LINE
  5
C4
330
B5
100
AcDbEntity
  8
0
 62
     1
420
 16711680
370
    25
100
AcDbLine
 10
140.0625033390845
 20
450.7144159237165
 30
0.0
 11
140.0625033390845
 21
495.7144159237146
 31
0.0
  0
LINE
  5
C5
330
B5
100
AcDbEntity
  8
0
 62
     1
420
 16711680
370
    25
100
AcDbLine
 10
140.0625033390845
 20
495.7144159237146
 30
0.0
 11
95.06250333908482
 21
495.7144159237146
 31
0.0
  0
LINE
  5
C6
330
B5
100
AcDbEntity
  8
0
 62
     1
420
 16711680
370
    25
100
AcDbLine
 10
95.06250333908482
 20
495.7144159237146
 30
0.0
 11
95.06250333908482
 21
450.7144159237165
 31
0.0
  0
LINE
  5
C7
330
B5
100
AcDbEntity
  8
0
 62
     1
420
 16711680
370
    25
100
AcDbLine
 10
95.06250333908482
 20
450.7144159237165
 30
0.0
 11
140.0625033390845
 21
450.7144159237165
 31
0.0
  0
LINE
  5
C8
330
B5
100
AcDbEntity
  8
0
 62
     1
420
 16711680
370
    25
100
AcDbLine
 10
905.0625033390858
 20
450.7144159237172
 30
0.0
 11
905.0625033390858
 21
495.7144159237146
 31
0.0
  0
LINE
  5
C9
330
B5
100
AcDbEntity
  8
0
 62
     1
420
 16711680
370
    25
100
AcDbLine
 10
905.0625033390858
 20
495.7144159237146
 30
0.0
 11
860.062503339086
 21
495.7144159237146
 31
0.0
  0
LINE
  5
CA
330
B5
100
AcDbEntity
  8
0
 62
     1
420
 16711680
370
    25
100
AcDbLine
 10
860.062503339086
 20
495.7144159237146
 30
0.0
 11
860.062503339086
 21
450.7144159237172
 31
0.0
  0
LINE
  5
CB
330
B5
100
AcDbEntity
  8
0
 62
     1
420
 16711680
370
    25
100
AcDbLine
 10
860.062503339086
 20
450.7144159237172
 30
0.0
 11
905.0625033390858
 21
450.7144159237172
 31
0.0
  0
LINE
  5
CC
330
B5
100
AcDbEntity
  8
0
 62
     1
420
 16711680
370
    25
100
AcDbLine
 10
930.0625033390861
 20
560.0222221072109
 30
0.0
 11
930.0625033390861
 21
530.714415923713
 31
0.0
  0
LINE
  5
CD
330
B5
100
AcDbEntity
  8
0
 62
     1
420
 16711680
370
    25
100
AcDbLine
 10
960.0625033390858
 20
560.0222221072109
 30
0.0
 11
930.0625033390861
 21
560.0222221072109
 31
0.0
  0
LINE
  5
CE
330
B5
100
AcDbEntity
  8
0
 62
     1
420
 16711680
370
    25
100
AcDbLine
 10
960.0625033390858
 20
590.0222221072111
 30
0.0
 11
960.0625033390858
 21
560.0222221072109
 31
0.0
  0
LINE
  5
CF
330
B5
100
AcDbEntity
  8
0
 62
     1
420
 16711680
370
    25
100
AcDbLine
 10
990.0625033390856
 20
590.0222221072111
 30
0.0
 11
960.0625033390858
 21
590.0222221072111
 31
0.0
  0
LINE
  5
D0
330
B5
100
AcDbEntity
  8
0
 62
     1
420
 16711680
370
    25
100
AcDbLine
 10
990.0625033390856
 20
415.7144159237173
 30
0.0
 11
990.0625033390856
 21
590.0222221072111
 31
0.0
  0
LINE
  5
D1
330
B5
100
AcDbEntity
  8
0
 62
     1
420
 16711680
370
    25
100
AcDbLine
 10
20.06250333908475
 20
405.7144159237169
 30
0.0
 11
980.0625033390858
 21
405.7144159237169
 31
0.0
  0
LINE
  5
D2
330
B5
100
AcDbEntity
  8
0
 62
     1
420
 16711680
370
    25
100
AcDbLine
 10
10.06250333908504
 20
590.0222221072111
 30
0.0
 11
10.06250333908504
 21
415.7144159237167
 31
0.0
  0
LINE
  5
D3
330
B5
100
AcDbEntity
  8
0
 62
     1
420
 16711680
370
    25
100
AcDbLine
 10
40.06250333908481
 20
590.0222221072111
 30
0.0
 11
10.06250333908504
 21
590.0222221072111
 31
0.0
  0
LINE
  5
D4
330
B5
100
AcDbEntity
  8
0
 62
     1
420
 16711680
370
    25
100
AcDbLine
 10
40.06250333908481
 20
560.0222221072109
 30
0.0
 11
40.06250333908481
 21
590.0222221072111
 31
0.0
  0
LINE
  5
D5
330
B5
100
AcDbEntity
  8
0
 62
     1
420
 16711680
370
    25
100
AcDbLine
 10
70.06250333908458
 20
560.0222221072109
 30
0.0
 11
40.06250333908481
 21
560.0222221072109
 31
0.0
  0
LINE
  5
D6
330
B5
100
AcDbEntity
  8
0
 62
     1
420
 16711680
370
    25
100
AcDbLine
 10
70.06250333908458
 20
530.714415923713
 30
0.0
 11
70.06250333908458
 21
560.0222221072109
 31
0.0
  0
LINE
  5
D7
330
B5
100
AcDbEntity
  8
0
 62
     1
420
 16711680
370
    25
100
AcDbLine
 10
175.0625033390844
 20
525.7144159237132
 30
0.0
 11
75.06250333908477
 21
525.7144159237132
 31
0.0
  0
LINE
  5
D8
330
B5
100
AcDbEntity
  8
0
 62
     1
420
 16711680
370
    25
100
AcDbLine
 10
180.0625033390846
 20
460.0222221072167
 30
0.0
 11
180.0625033390846
 21
520.7144159237126
 31
0.0
  0
LINE
  5
D9
330
B5
100
AcDbEntity
  8
0
 62
     1
420
 16711680
370
    25
100
AcDbLine
 10
820.062503339086
 20
460.0222221072173
 30
0.0
 11
180.0625033390846
 21
460.0222221072167
 31
0.0
  0
LINE
  5
DA
330
B5
100
AcDbEntity
  8
0
 62
     1
420
 16711680
370
    25
100
AcDbLine
 10
820.062503339086
 20
520.7144159237126
 30
0.0
 11
820.062503339086
 21
460.0222221072173
 31
0.0
  0
LINE
  5
DB
330
B5
100
AcDbEntity
  8
0
 62
     1
420
 16711680
370
    25
100
AcDbLine
 10
925.0625033390859
 20
525.7144159237132
 30
0.0
 11
825.0625033390855
 21
525.7144159237132
 31
0.0
  0
LINE
  5
DC
330
B5
100
AcDbEntity
  8
0
 62
     1
420
 16711680
370
    25
100
AcDbLine
 10
158.812503339085
 20
466.9644159237167
 30
0.0
 11
158.812503339085
 21
479.4644159237162
 31
0.0
  0
LINE
  5
DD
330
B5
100
AcDbEntity
  8
0
 62
     1
420
 16711680
370
    25
100
AcDbLine
 10
158.812503339085
 20
479.4644159237162
 30
0.0
 11
152.3125033390851
 21
479.4644159237162
 31
0.0
  0
LINE
  5
DE
330
B5
100
AcDbEntity
  8
0
 62
     1
420
 16711680
370
    25
100
AcDbLine
 10
152.3125033390851
 20
479.4644159237162
 30
0.0
 11
152.3125033390851
 21
466.9644159237167
 31
0.0
  0
LINE
  5
DF
330
B5
100
AcDbEntity
  8
0
 62
     1
420
 16711680
370
    25
100
AcDbLine
 10
152.3125033390851
 20
466.9644159237167
 30
0.0
 11
158.812503339085
 21
466.9644159237167
 31
0.0
  0
LINE
  5
E0
330
B5
100
AcDbEntity
  8
0
 62
     1
420
 16711680
370
    25
100
AcDbLine
 10
123.812503339085
 20
507.964415923712
 30
0.0
 11
123.812503339085
 21
514.4644159237126
 31
0.0
  0
LINE
  5
E1
330
B5
100
AcDbEntity
  8
0
 62
     1
420
 16711680
370
    25
100
AcDbLine
 10
123.812503339085
 20
514.4644159237126
 30
0.0
 11
111.3125033390849
 21
514.4644159237126
 31
0.0
  0
LINE
  5
E2
330
B5
100
AcDbEntity
  8
0
 62
     1
420
 16711680
370
    25
100
AcDbLine
 10
111.3125033390849
 20
514.4644159237126
 30
0.0
 11
111.3125033390849
 21
507.964415923712
 31
0.0
  0
LINE
  5
E3
330
B5
100
AcDbEntity
  8
0
 62
     1
420
 16711680
370
    25
100
AcDbLine
 10
111.3125033390849
 20
507.964415923712
 30
0.0
 11
123.812503339085
 21
507.964415923712
 31
0.0
  0
LINE
  5
E4
330
B5
100
AcDbEntity
  8
0
 62
     1
420
 16711680
370
    25
100
AcDbLine
 10
847.8125033390854
 20
466.9644159237173
 30
0.0
 11
847.8125033390854
 21
479.4644159237168
 31
0.0
  0
LINE
  5
E5
330
B5
100
AcDbEntity
  8
0
 62
     1
420
 16711680
370
    25
100
AcDbLine
 10
847.8125033390854
 20
479.4644159237168
 30
0.0
 11
841.3125033390857
 21
479.4644159237168
 31
0.0
  0
LINE
  5
E6
330
B5
100
AcDbEntity
  8
0
 62
     1
420
 16711680
370
    25
100
AcDbLine
 10
841.3125033390857
 20
479.4644159237168
 30
0.0
 11
841.3125033390857
 21
466.9644159237173
 31
0.0
  0
LINE
  5
E7
330
B5
100
AcDbEntity
  8
0
 62
     1
420
 16711680
370
    25
100
AcDbLine
 10
841.3125033390857
 20
466.9644159237173
 30
0.0
 11
847.8125033390854
 21
466.9644159237173
 31
0.0
  0
LINE
  5
E8
330
B5
100
AcDbEntity
  8
0
 62
     1
420
 16711680
370
    25
100
AcDbLine
 10
876.3125033390856
 20
514.4644159237126
 30
0.0
 11
876.3125033390856
 21
507.964415923712
 31
0.0
  0
LINE
  5
E9
330
B5
100
AcDbEntity
  8
0
 62
     1
420
 16711680
370
    25
100
AcDbLine
 10
876.3125033390856
 20
507.964415923712
 30
0.0
 11
888.8125033390858
 21
507.964415923712
 31
0.0
  0
LINE
  5
EA
330
B5
100
AcDbEntity
  8
0
 62
     1
420
 16711680
370
    25
100
AcDbLine
 10
888.8125033390858
 20
507.964415923712
 30
0.0
 11
888.8125033390858
 21
514.4644159237126
 31
0.0
  0
LINE
  5
EB
330
B5
100
AcDbEntity
  8
0
 62
     1
420
 16711680
370
    25
100
AcDbLine
 10
888.8125033390858
 20
514.4644159237126
 30
0.0
 11
876.3125033390856
 21
514.4644159237126
 31
0.0
  0
SPLINE
  5
EC
330
B5
100
AcDbEntity
  8
0
 62
     1
420
 16711680
370
    25
100
AcDbSpline
210
0.0
220
0.0
230
1.0
 70
     8
 71
     3
 72
     8
 73
     4
 74
     0
 42
0.0000000001
 43
0.0000000001
 40
0.0
 40
0.0
 40
0.0
 40
0.0
 40
1.0
 40
1.0
 40
1.0
 40
1.0
 10
925.0625033390859
 20
525.7144159237132
 30
0.0
 10
927.823927088238
 20
525.7144159237132
 30
0.0
 10
930.0625033390861
 20
527.9529921745588
 30
0.0
 10
930.0625033390861
 20
530.714415923713
 30
0.0
  0
SPLINE
  5
ED
330
B5
100
AcDbEntity
  8
0
 62
     1
420
 16711680
370
    25
100
AcDbSpline
210
0.0
220
0.0
230
1.0
 70
     8
 71
     3
 72
     8
 73
     4
 74
     0
 42
0.0000000001
 43
0.0000000001
 40
0.0
 40
0.0
 40
0.0
 40
0.0
 40
1.0
 40
1.0
 40
1.0
 40
1.0
 10
980.0625033390858
 20
405.7144159237169
 30
0.0
 10
985.5853508373941
 20
405.7144159237169
 30
0.0
 10
990.0625033390856
 20
410.191568425409
 30
0.0
 10
990.0625033390856
 20
415.7144159237173
 30
0.0
  0
SPLINE
  5
EE
330
B5
100
AcDbEntity
  8
0
 62
     1
420
 16711680
370
    25
100
AcDbSpline
210
0.0
220
0.0
230
1.0
 70
     8
 71
     3
 72
     8
 73
     4
 74
     0
 42
0.0000000001
 43
0.0000000001
 40
0.0
 40
0.0
 40
0.0
 40
0.0
 40
1.0
 40
1.0
 40
1.0
 40
1.0
 10
10.06250333908439
 20
415.7144159237167
 30
0.0
 10
10.06250333908439
 20
410.1915684254083
 30
0.0
 10
14.53965584077712
 20
405.7144159237163
 30
0.0
 10
20.06250333908475
 20
405.7144159237169
 30
0.0
  0
SPLINE
  5
EF
330
B5
100
AcDbEntity
  8
0
 62
     1
420
 16711680
370
    25
100
AcDbSpline
210
0.0
220
0.0
230
1.0
 70
     8
 71
     3
 72
     8
 73
     4
 74
     0
 42
0.0000000001
 43
0.0000000001
 40
0.0
 40
0.0
 40
0.0
 40
0.0
 40
1.0
 40
1.0
 40
1.0
 40
1.0
 10
70.06250333908458
 20
530.714415923713
 30
0.0
 10
70.06250333908458
 20
527.9529921745588
 30
0.0
 10
72.30107958993063
 20
525.7144159237132
 30
0.0
 10
75.06250333908477
 20
525.7144159237132
 30
0.0
  0
SPLINE
  5
F0
330
B5
100
AcDbEntity
  8
0
 62
     1
420
 16711680
370
    25
100
AcDbSpline
210
0.0
220
0.0
230
1.0
 70
     8
 71
     3
 72
     8
 73
     4
 74
     0
 42
0.0000000001
 43
0.0000000001
 40
0.0
 40
0.0
 40
0.0
 40
0.0
 40
1.0
 40
1.0
 40
1.0
 40
1.0
 10
180.0625033390846
 20
520.7144159237126
 30
0.0
 10
180.0625033390846
 20
523.4758396728661
 30
0.0
 10
177.8239270882385
 20
525.7144159237132
 30
0.0
 10
175.0625033390844
 20
525.7144159237132
 30
0.0
  0
SPLINE
  5
F1
330
B5
100
AcDbEntity
  8
0
 62
     1
420
 16711680
370
    25
100
AcDbSpline
210
0.0
220
0.0
230
1.0
 70
     8
 71
     3
 72
     8
 73
     4
 74
     0
 42
0.0000000001
 43
0.0000000001
 40
0.0
 40
0.0
 40
0.0
 40
0.0
 40
1.0
 40
1.0
 40
1.0
 40
1.0
 10
825.0625033390855
 20
525.7144159237118
 30
0.0
 10
822.3010795899302
 20
525.7144159237118
 30
0.0
 10
820.062503339086
 20
523.4758396728661
 30
0.0
 10
820.062503339086
 20
520.7144159237126
 30
0.0
  0
ENDBLK
  5
B8
330
B5
100
AcDbEntity
  8
0
100
AcDbBlockEnd
  0
BLOCK
  5
F4
330
F2
100
AcDbEntity
  8
0
100
AcDbBlockBegin
  2
Block_2
 70
     0
 10
0.0
 20
0.0
 30
0.0
  3
Block_2
  1

  0
LINE
  5
F6
330
F2
100
AcDbEntity
  8
0
 62
     1
420
 16711680
370
    25
100
AcDbLine
 10
240.9902778496198
 20
528.0016523493261
 30
0.0
 11
240.9902778496198
 21
521.5016523493259
 31
0.0
  0
LINE
  5
F7
330
F2
100
AcDbEntity
  8
0
 62
     1
420
 16711680
370
    25
100
AcDbLine
 10
228.4902778496197
 20
528.0016523493261
 30
0.0
 11
240.9902778496198
 21
528.0016523493261
 31
0.0
  0
LINE
  5
F8
330
F2
100
AcDbEntity
  8
0
 62
     1
420
 16711680
370
    25
100
AcDbLine
 10
228.4902778496197
 20
521.5016523493259
 30
0.0
 11
228.4902778496197
 21
528.0016523493261
 31
0.0
  0
LINE
  5
F9
330
F2
100
AcDbEntity
  8
0
 62
     1
420
 16711680
370
    25
100
AcDbLine
 10
240.9902778496198
 20
521.5016523493259
 30
0.0
 11
228.4902778496197
 21
521.5016523493259
 31
0.0
  0
LINE
  5
FA
330
F2
100
AcDbEntity
  8
0
 62
     1
420
 16711680
370
    25
100
AcDbLine
 10
199.9902778496196
 20
493.0016523493259
 30
0.0
 11
199.9902778496196
 21
480.5016523493264
 31
0.0
  0
LINE
  5
FB
330
F2
100
AcDbEntity
  8
0
 62
     1
420
 16711680
370
    25
100
AcDbLine
 10
193.4902778496197
 20
493.0016523493259
 30
0.0
 11
199.9902778496196
 21
493.0016523493259
 31
0.0
  0
LINE
  5
FC
330
F2
100
AcDbEntity
  8
0
 62
     1
420
 16711680
370
    25
100
AcDbLine
 10
193.4902778496197
 20
480.5016523493264
 30
0.0
 11
193.4902778496197
 21
493.0016523493259
 31
0.0
  0
LINE
  5
FD
330
F2
100
AcDbEntity
  8
0
 62
     1
420
 16711680
370
    25
100
AcDbLine
 10
199.9902778496196
 20
480.5016523493264
 30
0.0
 11
193.4902778496197
 21
480.5016523493264
 31
0.0
  0
LINE
  5
FE
330
F2
100
AcDbEntity
  8
0
 62
     1
420
 16711680
370
    25
100
AcDbLine
 10
209.2402778496198
 20
512.2516523493261
 30
0.0
 11
252.2402778496197
 21
512.2516523493261
 31
0.0
  0
LINE
  5
FF
330
F2
100
AcDbEntity
  8
0
 62
     1
420
 16711680
370
    25
100
AcDbLine
 10
209.2402778496198
 20
469.2516523493258
 30
0.0
 11
209.2402778496198
 21
512.2516523493261
 31
0.0
  0
LINE
  5
100
330
F2
100
AcDbEntity
  8
0
 62
     1
420
 16711680
370
    25
100
AcDbLine
 10
189.2402778496197
 20
464.2516523493263
 30
0.0
 11
204.24027784962
 21
464.2516523493263
 31
0.0
  0
LINE
  5
101
330
F2
100
AcDbEntity
  8
0
 62
     1
420
 16711680
370
    25
100
AcDbLine
 10
184.2402778496199
 20
532.2516523493261
 30
0.0
 11
184.2402778496199
 21
469.2516523493258
 31
0.0
  0
LINE
  5
102
330
F2
100
AcDbEntity
  8
0
 62
     1
420
 16711680
370
    25
100
AcDbLine
 10
252.2402778496197
 20
537.251652349326
 30
0.0
 11
189.2402778496197
 21
537.251652349326
 31
0.0
  0
LINE
  5
103
330
F2
100
AcDbEntity
  8
0
 62
     1
420
 16711680
370
    25
100
AcDbLine
 10
257.2402778496199
 20
517.2516523493259
 30
0.0
 11
257.2402778496199
 21
532.2516523493261
 31
0.0
  0
SPLINE
  5
104
330
F2
100
AcDbEntity
  8
0
 62
     1
420
 16711680
370
    25
100
AcDbSpline
210
0.0
220
0.0
230
1.0
 70
     8
 71
     3
 72
     8
 73
     4
 74
     0
 42
0.0000000001
 43
0.0000000001
 40
0.0
 40
0.0
 40
0.0
 40
0.0
 40
1.0
 40
1.0
 40
1.0
 40
1.0
 10
257.2402778496199
 20
532.2516523493261
 30
0.0
 10
257.2402778496199
 20
535.0130760984799
 30
0.0
 10
255.0017015987739
 20
537.251652349326
 30
0.0
 10
252.2402778496197
 20
537.251652349326
 30
0.0
  0
SPLINE
  5
105
330
F2
100
AcDbEntity
  8
0
 62
     1
420
 16711680
370
    25
100
AcDbSpline
210
0.0
220
0.0
230
1.0
 70
     8
 71
     3
 72
     8
 73
     4
 74
     0
 42
0.0000000001
 43
0.0000000001
 40
0.0
 40
0.0
 40
0.0
 40
0.0
 40
1.0
 40
1.0
 40
1.0
 40
1.0
 10
252.2402778496197
 20
512.2516523493261
 30
0.0
 10
255.0017015987739
 20
512.2516523493261
 30
0.0
 10
257.2402778496199
 20
514.4902286001721
 30
0.0
 10
257.2402778496199
 20
517.2516523493259
 30
0.0
  0
SPLINE
  5
106
330
F2
100
AcDbEntity
  8
0
 62
     1
420
 16711680
370
    25
100
AcDbSpline
210
0.0
220
0.0
230
1.0
 70
     8
 71
     3
 72
     8
 73
     4
 74
     0
 42
0.0000000001
 43
0.0000000001
 40
0.0
 40
0.0
 40
0.0
 40
0.0
 40
1.0
 40
1.0
 40
1.0
 40
1.0
 10
204.24027784962
 20
464.2516523493263
 30
0.0
 10
207.0017015987738
 20
464.2516523493263
 30
0.0
 10
209.2402778496198
 20
466.4902286001717
 30
0.0
 10
209.2402778496198
 20
469.2516523493258
 30
0.0
  0
SPLINE
  5
107
330
F2
100
AcDbEntity
  8
0
 62
     1
420
 16711680
370
    25
100
AcDbSpline
210
0.0
220
0.0
230
1.0
 70
     8
 71
     3
 72
     8
 73
     4
 74
     0
 42
0.0000000001
 43
0.0000000001
 40
0.0
 40
0.0
 40
0.0
 40
0.0
 40
1.0
 40
1.0
 40
1.0
 40
1.0
 10
184.2402778496199
 20
469.2516523493258
 30
0.0
 10
184.2402778496199
 20
466.4902286001717
 30
0.0
 10
186.4788541004659
 20
464.2516523493263
 30
0.0
 10
189.2402778496197
 20
464.2516523493263
 30
0.0
  0
SPLINE
  5
108
330
F2
100
AcDbEntity
  8
0
 62
     1
420
 16711680
370
    25
100
AcDbSpline
210
0.0
220
0.0
230
1.0
 70
     8
 71
     3
 72
     8
 73
     4
 74
     0
 42
0.0000000001
 43
0.0000000001
 40
0.0
 40
0.0
 40
0.0
 40
0.0
 40
1.0
 40
1.0
 40
1.0
 40
1.0
 10
189.2402778496197
 20
537.251652349326
 30
0.0
 10
186.4788541004659
 20
537.251652349326
 30
0.0
 10
184.2402778496199
 20
535.0130760984799
 30
0.0
 10
184.2402778496199
 20
532.2516523493261
 30
0.0
  0
ENDBLK
  5
F5
330
F2
100
AcDbEntity
  8
0
100
AcDbBlockEnd
  0
BLOCK
  5
10B
330
109
100
AcDbEntity
  8
0
100
AcDbBlockBegin
  2
Block_3
 70
     0
 10
0.0
 20
0.0
 30
0.0
  3
Block_3
  1

  0
LINE
  5
10D
330
109
100
AcDbEntity
  8
0
 62
     1
420
 16711680
370
    25
100
AcDbLine
 10
229.4013889603784
 20
473.5016523493261
 30
0.0
 11
229.4013889603784
 21
480.0016523493261
 31
0.0
  0
LINE
  5
10E
330
109
100
AcDbEntity
  8
0
 62
     1
420
 16711680
370
    25
100
AcDbLine
 10
241.9013889603784
 20
473.5016523493261
 30
0.0
 11
229.4013889603784
 21
473.5016523493261
 31
0.0
  0
LINE
  5
10F
330
109
100
AcDbEntity
  8
0
 62
     1
420
 16711680
370
    25
100
AcDbLine
 10
241.9013889603784
 20
480.0016523493261
 30
0.0
 11
241.9013889603784
 21
473.5016523493261
 31
0.0
  0
LINE
  5
110
330
109
100
AcDbEntity
  8
0
 62
     1
420
 16711680
370
    25
100
AcDbLine
 10
229.4013889603784
 20
480.0016523493261
 30
0.0
 11
241.9013889603784
 21
480.0016523493261
 31
0.0
  0
LINE
  5
111
330
109
100
AcDbEntity
  8
0
 62
     1
420
 16711680
370
    25
100
AcDbLine
 10
270.4013889603785
 20
508.5016523493264
 30
0.0
 11
270.4013889603785
 21
521.0016523493258
 31
0.0
  0
LINE
  5
112
330
109
100
AcDbEntity
  8
0
 62
     1
420
 16711680
370
    25
100
AcDbLine
 10
276.9013889603784
 20
508.5016523493264
 30
0.0
 11
270.4013889603785
 21
508.5016523493264
 31
0.0
  0
LINE
  5
113
330
109
100
AcDbEntity
  8
0
 62
     1
420
 16711680
370
    25
100
AcDbLine
 10
276.9013889603784
 20
521.0016523493258
 30
0.0
 11
276.9013889603784
 21
508.5016523493264
 31
0.0
  0
LINE
  5
114
330
109
100
AcDbEntity
  8
0
 62
     1
420
 16711680
370
    25
100
AcDbLine
 10
270.4013889603785
 20
521.0016523493258
 30
0.0
 11
276.9013889603784
 21
521.0016523493258
 31
0.0
  0
LINE
  5
115
330
109
100
AcDbEntity
  8
0
 62
     1
420
 16711680
370
    25
100
AcDbLine
 10
261.1513889603783
 20
489.2516523493259
 30
0.0
 11
218.1513889603784
 21
489.2516523493259
 31
0.0
  0
LINE
  5
116
330
109
100
AcDbEntity
  8
0
 62
     1
420
 16711680
370
    25
100
AcDbLine
 10
261.1513889603783
 20
532.2516523493264
 30
0.0
 11
261.1513889603783
 21
489.2516523493259
 31
0.0
  0
LINE
  5
117
330
109
100
AcDbEntity
  8
0
 62
     1
420
 16711680
370
    25
100
AcDbLine
 10
281.1513889603784
 20
537.251652349326
 30
0.0
 11
266.1513889603782
 21
537.251652349326
 31
0.0
  0
LINE
  5
118
330
109
100
AcDbEntity
  8
0
 62
     1
420
 16711680
370
    25
100
AcDbLine
 10
286.1513889603783
 20
469.2516523493258
 30
0.0
 11
286.1513889603783
 21
532.2516523493264
 31
0.0
  0
LINE
  5
119
330
109
100
AcDbEntity
  8
0
 62
     1
420
 16711680
370
    25
100
AcDbLine
 10
218.1513889603784
 20
464.2516523493263
 30
0.0
 11
281.1513889603784
 21
464.2516523493263
 31
0.0
  0
LINE
  5
11A
330
109
100
AcDbEntity
  8
0
 62
     1
420
 16711680
370
    25
100
AcDbLine
 10
213.1513889603783
 20
484.2516523493263
 30
0.0
 11
213.1513889603783
 21
469.2516523493258
 31
0.0
  0
SPLINE
  5
11B
330
109
100
AcDbEntity
  8
0
 62
     1
420
 16711680
370
    25
100
AcDbSpline
210
0.0
220
0.0
230
1.0
 70
     8
 71
     3
 72
     8
 73
     4
 74
     0
 42
0.0000000001
 43
0.0000000001
 40
0.0
 40
0.0
 40
0.0
 40
0.0
 40
1.0
 40
1.0
 40
1.0
 40
1.0
 10
213.1513889603783
 20
469.2516523493258
 30
0.0
 10
213.1513889603783
 20
466.4902286001724
 30
0.0
 10
215.3899652112243
 20
464.2516523493263
 30
0.0
 10
218.1513889603784
 20
464.2516523493263
 30
0.0
  0
SPLINE
  5
11C
330
109
100
AcDbEntity
  8
0
 62
     1
420
 16711680
370
    25
100
AcDbSpline
210
0.0
220
0.0
230
1.0
 70
     8
 71
     3
 72
     8
 73
     4
 74
     0
 42
0.0000000001
 43
0.0000000001
 40
0.0
 40
0.0
 40
0.0
 40
0.0
 40
1.0
 40
1.0
 40
1.0
 40
1.0
 10
218.1513889603784
 20
489.2516523493259
 30
0.0
 10
215.3899652112243
 20
489.2516523493259
 30
0.0
 10
213.1513889603783
 20
487.0130760984799
 30
0.0
 10
213.1513889603783
 20
484.2516523493263
 30
0.0
  0
SPLINE
  5
11D
330
109
100
AcDbEntity
  8
0
 62
     1
420
 16711680
370
    25
100
AcDbSpline
210
0.0
220
0.0
230
1.0
 70
     8
 71
     3
 72
     8
 73
     4
 74
     0
 42
0.0000000001
 43
0.0000000001
 40
0.0
 40
0.0
 40
0.0
 40
0.0
 40
1.0
 40
1.0
 40
1.0
 40
1.0
 10
266.1513889603782
 20
537.251652349326
 30
0.0
 10
263.3899652112244
 20
537.251652349326
 30
0.0
 10
261.1513889603783
 20
535.0130760984805
 30
0.0
 10
261.1513889603783
 20
532.2516523493264
 30
0.0
  0
SPLINE
  5
11E
330
109
100
AcDbEntity
  8
0
 62
     1
420
 16711680
370
    25
100
AcDbSpline
210
0.0
220
0.0
230
1.0
 70
     8
 71
     3
 72
     8
 73
     4
 74
     0
 42
0.0000000001
 43
0.0000000001
 40
0.0
 40
0.0
 40
0.0
 40
0.0
 40
1.0
 40
1.0
 40
1.0
 40
1.0
 10
286.1513889603783
 20
532.2516523493264
 30
0.0
 10
286.1513889603783
 20
535.0130760984805
 30
0.0
 10
283.9128127095322
 20
537.251652349326
 30
0.0
 10
281.1513889603784
 20
537.251652349326
 30
0.0
  0
SPLINE
  5
11F
330
109
100
AcDbEntity
  8
0
 62
     1
420
 16711680
370
    25
100
AcDbSpline
210
0.0
220
0.0
230
1.0
 70
     8
 71
     3
 72
     8
 73
     4
 74
     0
 42
0.0000000001
 43
0.0000000001
 40
0.0
 40
0.0
 40
0.0
 40
0.0
 40
1.0
 40
1.0
 40
1.0
 40
1.0
 10
281.1513889603784
 20
464.2516523493263
 30
0.0
 10
283.9128127095322
 20
464.2516523493263
 30
0.0
 10
286.1513889603783
 20
466.4902286001724
 30
0.0
 10
286.1513889603783
 20
469.2516523493258
 30
0.0
  0
ENDBLK
  5
10C
330
109
100
AcDbEntity
  8
0
100
AcDbBlockEnd
  0
BLOCK
  5
122
330
120
100
AcDbEntity
  8
0
100
AcDbBlockBegin
  2
Block_4
 70
     0
 10
0.0
 20
0.0
 30
0.0
  3
Block_4
  1

  0
LINE
  5
124
330
120
100
AcDbEntity
  8
0
 62
     1
420
 16711680
370
    25
100
AcDbLine
 10
347.9458366729474
 20
528.0016523493261
 30
0.0
 11
347.9458366729474
 21
521.5016523493259
 31
0.0
  0
LINE
  5
125
330
120
100
AcDbEntity
  8
0
 62
     1
420
 16711680
370
    25
100
AcDbLine
 10
335.4458366729472
 20
528.0016523493261
 30
0.0
 11
347.9458366729474
 21
528.0016523493261
 31
0.0
  0
LINE
  5
126
330
120
100
AcDbEntity
  8
0
 62
     1
420
 16711680
370
    25
100
AcDbLine
 10
335.4458366729472
 20
521.5016523493259
 30
0.0
 11
335.4458366729472
 21
528.0016523493261
 31
0.0
  0
LINE
  5
127
330
120
100
AcDbEntity
  8
0
 62
     1
420
 16711680
370
    25
100
AcDbLine
 10
347.9458366729474
 20
521.5016523493259
 30
0.0
 11
335.4458366729472
 21
521.5016523493259
 31
0.0
  0
LINE
  5
128
330
120
100
AcDbEntity
  8
0
 62
     1
420
 16711680
370
    25
100
AcDbLine
 10
306.9458366729472
 20
493.0016523493259
 30
0.0
 11
306.9458366729472
 21
480.5016523493264
 31
0.0
  0
LINE
  5
129
330
120
100
AcDbEntity
  8
0
 62
     1
420
 16711680
370
    25
100
AcDbLine
 10
300.4458366729473
 20
493.0016523493259
 30
0.0
 11
306.9458366729472
 21
493.0016523493259
 31
0.0
  0
LINE
  5
12A
330
120
100
AcDbEntity
  8
0
 62
     1
420
 16711680
370
    25
100
AcDbLine
 10
300.4458366729473
 20
480.5016523493264
 30
0.0
 11
300.4458366729473
 21
493.0016523493259
 31
0.0
  0
LINE
  5
12B
330
120
100
AcDbEntity
  8
0
 62
     1
420
 16711680
370
    25
100
AcDbLine
 10
306.9458366729472
 20
480.5016523493264
 30
0.0
 11
300.4458366729473
 21
480.5016523493264
 31
0.0
  0
LINE
  5
12C
330
120
100
AcDbEntity
  8
0
 62
     1
420
 16711680
370
    25
100
AcDbLine
 10
316.1958366729473
 20
512.2516523493261
 30
0.0
 11
359.1958366729473
 21
512.2516523493261
 31
0.0
  0
LINE
  5
12D
330
120
100
AcDbEntity
  8
0
 62
     1
420
 16711680
370
    25
100
AcDbLine
 10
316.1958366729473
 20
469.2516523493258
 30
0.0
 11
316.1958366729473
 21
512.2516523493261
 31
0.0
  0
LINE
  5
12E
330
120
100
AcDbEntity
  8
0
 62
     1
420
 16711680
370
    25
100
AcDbLine
 10
296.1958366729473
 20
464.2516523493263
 30
0.0
 11
311.1958366729475
 21
464.2516523493263
 31
0.0
  0
LINE
  5
12F
330
120
100
AcDbEntity
  8
0
 62
     1
420
 16711680
370
    25
100
AcDbLine
 10
291.1958366729475
 20
532.2516523493261
 30
0.0
 11
291.1958366729475
 21
469.2516523493258
 31
0.0
  0
LINE
  5
130
330
120
100
AcDbEntity
  8
0
 62
     1
420
 16711680
370
    25
100
AcDbLine
 10
359.1958366729473
 20
537.251652349326
 30
0.0
 11
296.1958366729473
 21
537.251652349326
 31
0.0
  0
LINE
  5
131
330
120
100
AcDbEntity
  8
0
 62
     1
420
 16711680
370
    25
100
AcDbLine
 10
364.1958366729475
 20
517.2516523493259
 30
0.0
 11
364.1958366729475
 21
532.2516523493261
 31
0.0
  0
SPLINE
  5
132
330
120
100
AcDbEntity
  8
0
 62
     1
420
 16711680
370
    25
100
AcDbSpline
210
0.0
220
0.0
230
1.0
 70
     8
 71
     3
 72
     8
 73
     4
 74
     0
 42
0.0000000001
 43
0.0000000001
 40
0.0
 40
0.0
 40
0.0
 40
0.0
 40
1.0
 40
1.0
 40
1.0
 40
1.0
 10
364.1958366729475
 20
532.2516523493261
 30
0.0
 10
364.1958366729475
 20
535.0130760984799
 30
0.0
 10
361.9572604221014
 20
537.251652349326
 30
0.0
 10
359.1958366729473
 20
537.251652349326
 30
0.0
  0
SPLINE
  5
133
330
120
100
AcDbEntity
  8
0
 62
     1
420
 16711680
370
    25
100
AcDbSpline
210
0.0
220
0.0
230
1.0
 70
     8
 71
     3
 72
     8
 73
     4
 74
     0
 42
0.0000000001
 43
0.0000000001
 40
0.0
 40
0.0
 40
0.0
 40
0.0
 40
1.0
 40
1.0
 40
1.0
 40
1.0
 10
359.1958366729473
 20
512.2516523493261
 30
0.0
 10
361.9572604221014
 20
512.2516523493261
 30
0.0
 10
364.1958366729475
 20
514.4902286001721
 30
0.0
 10
364.1958366729475
 20
517.2516523493259
 30
0.0
  0
SPLINE
  5
134
330
120
100
AcDbEntity
  8
0
 62
     1
420
 16711680
370
    25
100
AcDbSpline
210
0.0
220
0.0
230
1.0
 70
     8
 71
     3
 72
     8
 73
     4
 74
     0
 42
0.0000000001
 43
0.0000000001
 40
0.0
 40
0.0
 40
0.0
 40
0.0
 40
1.0
 40
1.0
 40
1.0
 40
1.0
 10
311.1958366729475
 20
464.2516523493263
 30
0.0
 10
313.9572604221013
 20
464.2516523493263
 30
0.0
 10
316.1958366729473
 20
466.4902286001717
 30
0.0
 10
316.1958366729473
 20
469.2516523493258
 30
0.0
  0
SPLINE
  5
135
330
120
100
AcDbEntity
  8
0
 62
     1
420
 16711680
370
    25
100
AcDbSpline
210
0.0
220
0.0
230
1.0
 70
     8
 71
     3
 72
     8
 73
     4
 74
     0
 42
0.0000000001
 43
0.0000000001
 40
0.0
 40
0.0
 40
0.0
 40
0.0
 40
1.0
 40
1.0
 40
1.0
 40
1.0
 10
291.1958366729475
 20
469.2516523493258
 30
0.0
 10
291.1958366729475
 20
466.4902286001717
 30
0.0
 10
293.4344129237934
 20
464.2516523493263
 30
0.0
 10
296.1958366729473
 20
464.2516523493263
 30
0.0
  0
SPLINE
  5
136
330
120
100
AcDbEntity
  8
0
 62
     1
420
 16711680
370
    25
100
AcDbSpline
210
0.0
220
0.0
230
1.0
 70
     8
 71
     3
 72
     8
 73
     4
 74
     0
 42
0.0000000001
 43
0.0000000001
 40
0.0
 40
0.0
 40
0.0
 40
0.0
 40
1.0
 40
1.0
 40
1.0
 40
1.0
 10
296.1958366729473
 20
537.251652349326
 30
0.0
 10
293.4344129237934
 20
537.251652349326
 30
0.0
 10
291.1958366729475
 20
535.0130760984799
 30
0.0
 10
291.1958366729475
 20
532.2516523493261
 30
0.0
  0
ENDBLK
  5
123
330
120
100
AcDbEntity
  8
0
100
AcDbBlockEnd
  0
BLOCK
  5
139
330
137
100
AcDbEntity
  8
0
100
AcDbBlockBegin
  2
Block_5
 70
     0
 10
0.0
 20
0.0
 30
0.0
  3
Block_5
  1

  0
LINE
  5
13B
330
137
100
AcDbEntity
  8
0
 62
     1
420
 16711680
370
    25
100
AcDbLine
 10
336.3569477837058
 20
473.5016523493261
 30
0.0
 11
336.3569477837058
 21
480.0016523493261
 31
0.0
  0
LINE
  5
13C
330
137
100
AcDbEntity
  8
0
 62
     1
420
 16711680
370
    25
100
AcDbLine
 10
348.856947783706
 20
473.5016523493261
 30
0.0
 11
336.3569477837058
 21
473.5016523493261
 31
0.0
  0
LINE
  5
13D
330
137
100
AcDbEntity
  8
0
 62
     1
420
 16711680
370
    25
100
AcDbLine
 10
348.856947783706
 20
480.0016523493261
 30
0.0
 11
348.856947783706
 21
473.5016523493261
 31
0.0
  0
LINE
  5
13E
330
137
100
AcDbEntity
  8
0
 62
     1
420
 16711680
370
    25
100
AcDbLine
 10
336.3569477837058
 20
480.0016523493261
 30
0.0
 11
348.856947783706
 21
480.0016523493261
 31
0.0
  0
LINE
  5
13F
330
137
100
AcDbEntity
  8
0
 62
     1
420
 16711680
370
    25
100
AcDbLine
 10
377.356947783706
 20
508.5016523493264
 30
0.0
 11
377.356947783706
 21
521.0016523493258
 31
0.0
  0
LINE
  5
140
330
137
100
AcDbEntity
  8
0
 62
     1
420
 16711680
370
    25
100
AcDbLine
 10
383.8569477837059
 20
508.5016523493264
 30
0.0
 11
377.356947783706
 21
508.5016523493264
 31
0.0
  0
LINE
  5
141
330
137
100
AcDbEntity
  8
0
 62
     1
420
 16711680
370
    25
100
AcDbLine
 10
383.8569477837059
 20
521.0016523493258
 30
0.0
 11
383.8569477837059
 21
508.5016523493264
 31
0.0
  0
LINE
  5
142
330
137
100
AcDbEntity
  8
0
 62
     1
420
 16711680
370
    25
100
AcDbLine
 10
377.356947783706
 20
521.0016523493258
 30
0.0
 11
383.8569477837059
 21
521.0016523493258
 31
0.0
  0
LINE
  5
143
330
137
100
AcDbEntity
  8
0
 62
     1
420
 16711680
370
    25
100
AcDbLine
 10
368.1069477837058
 20
489.2516523493259
 30
0.0
 11
325.1069477837059
 21
489.2516523493259
 31
0.0
  0
LINE
  5
144
330
137
100
AcDbEntity
  8
0
 62
     1
420
 16711680
370
    25
100
AcDbLine
 10
368.1069477837058
 20
532.2516523493264
 30
0.0
 11
368.1069477837058
 21
489.2516523493259
 31
0.0
  0
LINE
  5
145
330
137
100
AcDbEntity
  8
0
 62
     1
420
 16711680
370
    25
100
AcDbLine
 10
388.1069477837059
 20
537.251652349326
 30
0.0
 11
373.1069477837057
 21
537.251652349326
 31
0.0
  0
LINE
  5
146
330
137
100
AcDbEntity
  8
0
 62
     1
420
 16711680
370
    25
100
AcDbLine
 10
393.1069477837058
 20
469.2516523493258
 30
0.0
 11
393.1069477837058
 21
532.2516523493264
 31
0.0
  0
LINE
  5
147
330
137
100
AcDbEntity
  8
0
 62
     1
420
 16711680
370
    25
100
AcDbLine
 10
325.1069477837059
 20
464.2516523493263
 30
0.0
 11
388.1069477837059
 21
464.2516523493263
 31
0.0
  0
LINE
  5
148
330
137
100
AcDbEntity
  8
0
 62
     1
420
 16711680
370
    25
100
AcDbLine
 10
320.1069477837058
 20
484.2516523493263
 30
0.0
 11
320.1069477837058
 21
469.2516523493258
 31
0.0
  0
SPLINE
  5
149
330
137
100
AcDbEntity
  8
0
 62
     1
420
 16711680
370
    25
100
AcDbSpline
210
0.0
220
0.0
230
1.0
 70
     8
 71
     3
 72
     8
 73
     4
 74
     0
 42
0.0000000001
 43
0.0000000001
 40
0.0
 40
0.0
 40
0.0
 40
0.0
 40
1.0
 40
1.0
 40
1.0
 40
1.0
 10
320.1069477837058
 20
469.2516523493258
 30
0.0
 10
320.1069477837058
 20
466.4902286001724
 30
0.0
 10
322.3455240345519
 20
464.2516523493263
 30
0.0
 10
325.1069477837059
 20
464.2516523493263
 30
0.0
  0
SPLINE
  5
14A
330
137
100
AcDbEntity
  8
0
 62
     1
420
 16711680
370
    25
100
AcDbSpline
210
0.0
220
0.0
230
1.0
 70
     8
 71
     3
 72
     8
 73
     4
 74
     0
 42
0.0000000001
 43
0.0000000001
 40
0.0
 40
0.0
 40
0.0
 40
0.0
 40
1.0
 40
1.0
 40
1.0
 40
1.0
 10
325.1069477837059
 20
489.2516523493259
 30
0.0
 10
322.3455240345519
 20
489.2516523493259
 30
0.0
 10
320.1069477837058
 20
487.0130760984799
 30
0.0
 10
320.1069477837058
 20
484.2516523493263
 30
0.0
  0
SPLINE
  5
14B
330
137
100
AcDbEntity
  8
0
 62
     1
420
 16711680
370
    25
100
AcDbSpline
210
0.0
220
0.0
230
1.0
 70
     8
 71
     3
 72
     8
 73
     4
 74
     0
 42
0.0000000001
 43
0.0000000001
 40
0.0
 40
0.0
 40
0.0
 40
0.0
 40
1.0
 40
1.0
 40
1.0
 40
1.0
 10
373.1069477837057
 20
537.251652349326
 30
0.0
 10
370.3455240345519
 20
537.251652349326
 30
0.0
 10
368.1069477837058
 20
535.0130760984805
 30
0.0
 10
368.1069477837058
 20
532.2516523493264
 30
0.0
  0
SPLINE
  5
14C
330
137
100
AcDbEntity
  8
0
 62
     1
420
 16711680
370
    25
100
AcDbSpline
210
0.0
220
0.0
230
1.0
 70
     8
 71
     3
 72
     8
 73
     4
 74
     0
 42
0.0000000001
 43
0.0000000001
 40
0.0
 40
0.0
 40
0.0
 40
0.0
 40
1.0
 40
1.0
 40
1.0
 40
1.0
 10
393.1069477837058
 20
532.2516523493264
 30
0.0
 10
393.1069477837058
 20
535.0130760984805
 30
0.0
 10
390.8683715328597
 20
537.251652349326
 30
0.0
 10
388.1069477837059
 20
537.251652349326
 30
0.0
  0
SPLINE
  5
14D
330
137
100
AcDbEntity
  8
0
 62
     1
420
 16711680
370
    25
100
AcDbSpline
210
0.0
220
0.0
230
1.0
 70
     8
 71
     3
 72
     8
 73
     4
 74
     0
 42
0.0000000001
 43
0.0000000001
 40
0.0
 40
0.0
 40
0.0
 40
0.0
 40
1.0
 40
1.0
 40
1.0
 40
1.0
 10
388.1069477837059
 20
464.2516523493263
 30
0.0
 10
390.8683715328597
 20
464.2516523493263
 30
0.0
 10
393.1069477837058
 20
466.4902286001724
 30
0.0
 10
393.1069477837058
 20
469.2516523493258
 30
0.0
  0
ENDBLK
  5
13A
330
137
100
AcDbEntity
  8
0
100
AcDbBlockEnd
  0
ENDSEC
  0
SECTION
  2
ENTITIES
  0
INSERT
  5
79
330
70
100
AcDbEntity
  8
0
100
AcDbBlockReference
  2
Block_0
 10
0.0
 20
0.0
 30
0.0
  0
INSERT
  5
B6
330
70
100
AcDbEntity
  8
0
100
AcDbBlockReference
  2
Block_1
 10
0.0
 20
0.0
 30
0.0
  0
INSERT
  5
F3
330
70
100
AcDbEntity
  8
0
100
AcDbBlockReference
  2
Block_2
 10
0.0
 20
0.0
 30
0.0
  0
INSERT
  5
10A
330
70
100
AcDbEntity
  8
0
100
AcDbBlockReference
  2
Block_3
 10
0.0
 20
0.0
 30
0.0
  0
INSERT
  5
121
330
70
100
AcDbEntity
  8
0
100
AcDbBlockReference
  2
Block_4
 10
0.0
 20
0.0
 30
0.0
  0
INSERT
  5
138
330
70
100
AcDbEntity
  8
0
100
AcDbBlockReference
  2
Block_5
 10
0.0
 20
0.0
 30
0.0
  0
ENDSEC
  0
SECTION
  2
OBJECTS
  0
DICTIONARY
  5
C
330
0
100
AcDbDictionary
281
     1
  3
ACAD_COLOR
350
63
  3
ACAD_DETAILVIEWSTYLE
350
6A
  3
ACAD_GROUP
350
D
  3
ACAD_LAYOUT
350
62
  3
ACAD_MATERIAL
350
10
  3
ACAD_MLEADERSTYLE
350
66
  3
ACAD_MLINESTYLE
350
5F
  3
ACAD_PLOTSETTINGS
350
61
  3
ACAD_PLOTSTYLENAME
350
E
  3
ACAD_SCALELIST
350
42
  3
ACAD_SECTIONVIEWSTYLE
350
68
  3
ACAD_TABLESTYLE
350
64
  3
ACAD_VISUALSTYLE
350
29
  3
ACDB_RECOMPOSE_DATA
350
156
  3
AcDbVariableDictionary
350
14E
  0
DICTIONARY
  5
63
102
{ACAD_REACTORS
330
C
102
}
330
C
100
AcDbDictionary
281
     1
  0
DICTIONARY
  5
6A
102
{ACAD_REACTORS
330
C
102
}
330
C
100
AcDbDictionary
281
     1
  3
Imperial24
350
6B
  0
DICTIONARY
  5
D
102
{ACAD_REACTORS
330
C
102
}
330
C
100
AcDbDictionary
281
     1
  0
DICTIONARY
  5
62
102
{ACAD_REACTORS
330
C
102
}
330
C
100
AcDbDictionary
281
     1
  3
Layout1
350
6F
  3
Layout2
350
77
  3
Model
350
73
  0
DICTIONARY
  5
10
102
{ACAD_REACTORS
330
C
102
}
330
C
100
AcDbDictionary
281
     1
  3
ByBlock
350
19
  3
ByLayer
350
11
  3
Global
350
21
  0
DICTIONARY
  5
66
102
{ACAD_REACTORS
330
C
102
}
330
C
100
AcDbDictionary
281
     1
  3
Standard
350
67
  0
DICTIONARY
  5
5F
102
{ACAD_REACTORS
330
C
102
}
330
C
100
AcDbDictionary
281
     1
  3
Standard
350
60
  0
DICTIONARY
  5
61
102
{ACAD_REACTORS
330
C
102
}
330
C
100
AcDbDictionary
281
     1
  0
ACDBDICTIONARYWDFLT
  5
E
102
{ACAD_REACTORS
330
C
102
}
330
C
100
AcDbDictionary
281
     1
  3
Normal
350
F
100
AcDbDictionaryWithDefault
340
F
  0
DICTIONARY
  5
42
102
{ACAD_REACTORS
330
C
102
}
330
C
100
AcDbDictionary
281
     1
  3
A0
350
43
  3
A1
350
44
  3
A2
350
45
  3
A3
350
46
  3
A4
350
47
  3
A5
350
48
  3
A6
350
49
  3
A7
350
4A
  3
A8
350
4B
  3
A9
350
4C
  3
B0
350
4D
  3
B1
350
4E
  3
B2
350
4F
  3
B3
350
50
  3
B4
350
51
  3
B5
350
52
  3
B6
350
53
  0
DICTIONARY
  5
68
102
{ACAD_REACTORS
330
C
102
}
330
C
100
AcDbDictionary
281
     1
  3
Imperial24
350
69
  0
DICTIONARY
  5
64
102
{ACAD_REACTORS
330
C
102
}
330
C
100
AcDbDictionary
281
     1
  3
Standard
350
65
  0
DICTIONARY
  5
29
102
{ACAD_REACTORS
330
C
102
}
330
C
100
AcDbDictionary
281
     1
  3
2dWireframe
350
2F
  3
Basic
350
2E
  3
Brighten
350
35
  3
ColorChange
350
39
  3
Conceptual
350
32
  3
Dim
350
34
  3
EdgeColorOff
350
41
  3
Facepattern
350
38
  3
Flat
350
2A
  3
FlatWithEdges
350
2B
  3
Gouraud
350
2C
  3
GouraudWithEdges
350
2D
  3
Hidden
350
31
  3
JitterOff
350
3F
  3
Linepattern
350
37
  3
OverhangOff
350
40
  3
Realistic
350
33
  3
Shaded
350
3E
  3
Shaded with edges
350
3D
  3
Shades of Gray
350
3A
  3
Sketchy
350
3B
  3
Thicken
350
36
  3
Wireframe
350
30
  3
X-Ray
350
3C
  0
XRECORD
  5
156
102
{ACAD_REACTORS
330
C
102
}
330
C
100
AcDbXrecord
280
     1
 90
        1
330
65
  0
DICTIONARY
  5
14E
102
{ACAD_REACTORS
330
C
102
}
330
C
100
AcDbDictionary
281
     1
  3
CANNOSCALE
350
153
  3
CMLEADERSTYLE
350
150
  3
CTABLESTYLE
350
14F
  3
CVIEWDETAILSTYLE
350
151
  3
CVIEWSECTIONSTYLE
350
152
  0
ACDBDETAILVIEWSTYLE
  5
6B
102
{ACAD_REACTORS
330
6A
102
}
330
6A
100
AcDbModelDocViewStyle
 70
     0
  3
Imperial24
290
     1
300
Imperial24
 90
        0
100
AcDbDetailViewStyle
 70
     0
 71
     0
 90
        3
 71
     1
340
55
 62
   256
 40
0.24
340
0
 62
   256
 40
0.24
300

 40
0.36
280
     3
 71
     2
340
5D
 90
       25
 62
   256
 71
     3
340
55
 62
   256
 40
0.24
 90
        1
 40
0.75
 90
        1
300
%<\AcVar ViewType \f "%tc1">% %<\AcVar ViewDetailId>%\PSCALE %<\AcVar ViewScale \f "%sn">%
 71
     4
340
5D
 90
       25
 62
   256
340
5D
 90
       25
 62
   256
280
     0
  0
LAYOUT
  5
6F
102
{ACAD_REACTORS
330
62
102
}
330
62
100
AcDbPlotSettings
  1

  2

  4

  6

 40
0.0
 41
0.0
 42
0.0
 43
0.0
 44
0.0
 45
0.0
 46
0.0
 47
0.0
 48
0.0
 49
0.0
140
0.0
141
0.0
142
1.0
143
1.0
 70
   688
 72
     0
 73
     0
 74
     5
  7

 75
    16
147
1.0
 76
     0
 77
     2
 78
   300
148
0.0
149
0.0
100
AcDbLayout
  1
Layout1
 70
     1
 71
     1
 10
0.0
 20
0.0
 11
12.0
 21
9.0
 12
0.0
 22
0.0
 32
0.0
 14
0.0
 24
0.0
 34
0.0
 15
0.0
 25
0.0
 35
0.0
146
0.0
 13
0.0
 23
0.0
 33
0.0
 16
1.0
 26
0.0
 36
0.0
 17
0.0
 27
1.0
 37
0.0
 76
     0
330
6C
  0
LAYOUT
  5
77
102
{ACAD_REACTORS
330
62
102
}
330
62
100
AcDbPlotSettings
  1

  2

  4

  6

 40
0.0
 41
0.0
 42
0.0
 43
0.0
 44
0.0
 45
0.0
 46
0.0
 47
0.0
 48
0.0
 49
0.0
140
0.0
141
0.0
142
1.0
143
1.0
 70
   688
 72
     0
 73
     0
 74
     5
  7

 75
    16
147
1.0
 76
     0
 77
     2
 78
   300
148
0.0
149
0.0
100
AcDbLayout
  1
Layout2
 70
     1
 71
     2
 10
0.0
 20
0.0
 11
12.0
 21
9.0
 12
0.0
 22
0.0
 32
0.0
 14
0.0
 24
0.0
 34
0.0
 15
0.0
 25
0.0
 35
0.0
146
0.0
 13
0.0
 23
0.0
 33
0.0
 16
1.0
 26
0.0
 36
0.0
 17
0.0
 27
1.0
 37
0.0
 76
     0
330
74
  0
LAYOUT
  5
73
102
{ACAD_REACTORS
330
62
102
}
330
62
100
AcDbPlotSettings
  1

  2

  4

  6

 40
0.0
 41
0.0
 42
0.0
 43
0.0
 44
0.0
 45
0.0
 46
0.0
 47
0.0
 48
0.0
 49
0.0
140
0.0
141
0.0
142
1.0
143
1.0
 70
  1712
 72
     0
 73
     0
 74
     0
  7

 75
     0
147
1.0
 76
     0
 77
     2
 78
   300
148
0.0
149
0.0
100
AcDbLayout
  1
Model
 70
     1
 71
     0
 10
0.0
 20
0.0
 11
12.0
 21
9.0
 12
0.0
 22
0.0
 32
0.0
 14
0.0
 24
0.0
 34
0.0
 15
0.0
 25
0.0
 35
0.0
146
0.0
 13
0.0
 23
0.0
 33
0.0
 16
1.0
 26
0.0
 36
0.0
 17
0.0
 27
1.0
 37
0.0
 76
     0
330
70
  0
MATERIAL
  5
19
102
{ACAD_XDICTIONARY
360
1A
102
}
102
{ACAD_REACTORS
330
10
102
}
330
10
100
AcDbMaterial
  1
ByBlock
 72
     0
 43
0.0208333333333333
 43
0.0
 43
0.0
 43
0.0
 43
0.0
 43
0.0208333333333333
 43
0.0
 43
0.0
 43
0.0
 43
0.0
 43
1.0
 43
0.0
 43
0.0
 43
0.0
 43
0.0
 43
1.0
 77
     0
 47
0.0208333333333333
 47
0.0
 47
0.0
 47
0.0
 47
0.0
 47
0.0208333333333333
 47
0.0
 47
0.0
 47
0.0
 47
0.0
 47
1.0
 47
0.0
 47
0.0
 47
0.0
 47
0.0
 47
1.0
171
     0
 49
0.0208333333333333
 49
0.0
 49
0.0
 49
0.0
 49
0.0
 49
0.0208333333333333
 49
0.0
 49
0.0
 49
0.0
 49
0.0
 49
1.0
 49
0.0
 49
0.0
 49
0.0
 49
0.0
 49
1.0
175
     0
142
0.0208333333333333
142
0.0
142
0.0
142
0.0
142
0.0
142
0.0208333333333333
142
0.0
142
0.0
142
0.0
142
0.0
142
1.0
142
0.0
142
0.0
142
0.0
142
0.0
142
1.0
179
     0
144
0.0208333333333333
144
0.0
144
0.0
144
0.0
144
0.0
144
0.0208333333333333
144
0.0
144
0.0
144
0.0
144
0.0
144
1.0
144
0.0
144
0.0
144
0.0
144
0.0
144
1.0
147
0.0208333333333333
147
0.0
147
0.0
147
0.0
147
0.0
147
0.0208333333333333
147
0.0
147
0.0
147
0.0
147
0.0
147
1.0
147
0.0
147
0.0
147
0.0
147
0.0
147
1.0
  0
MATERIAL
  5
11
102
{ACAD_XDICTIONARY
360
12
102
}
102
{ACAD_REACTORS
330
10
102
}
330
10
100
AcDbMaterial
  1
ByLayer
 72
     0
 43
0.0208333333333333
 43
0.0
 43
0.0
 43
0.0
 43
0.0
 43
0.0208333333333333
 43
0.0
 43
0.0
 43
0.0
 43
0.0
 43
1.0
 43
0.0
 43
0.0
 43
0.0
 43
0.0
 43
1.0
 77
     0
 47
0.0208333333333333
 47
0.0
 47
0.0
 47
0.0
 47
0.0
 47
0.0208333333333333
 47
0.0
 47
0.0
 47
0.0
 47
0.0
 47
1.0
 47
0.0
 47
0.0
 47
0.0
 47
0.0
 47
1.0
171
     0
 49
0.0208333333333333
 49
0.0
 49
0.0
 49
0.0
 49
0.0
 49
0.0208333333333333
 49
0.0
 49
0.0
 49
0.0
 49
0.0
 49
1.0
 49
0.0
 49
0.0
 49
0.0
 49
0.0
 49
1.0
175
     0
142
0.0208333333333333
142
0.0
142
0.0
142
0.0
142
0.0
142
0.0208333333333333
142
0.0
142
0.0
142
0.0
142
0.0
142
1.0
142
0.0
142
0.0
142
0.0
142
0.0
142
1.0
179
     0
144
0.0208333333333333
144
0.0
144
0.0
144
0.0
144
0.0
144
0.0208333333333333
144
0.0
144
0.0
144
0.0
144
0.0
144
1.0
144
0.0
144
0.0
144
0.0
144
0.0
144
1.0
147
0.0208333333333333
147
0.0
147
0.0
147
0.0
147
0.0
147
0.0208333333333333
147
0.0
147
0.0
147
0.0
147
0.0
147
1.0
147
0.0
147
0.0
147
0.0
147
0.0
147
1.0
  0
MATERIAL
  5
21
102
{ACAD_XDICTIONARY
360
22
102
}
102
{ACAD_REACTORS
330
10
102
}
330
10
100
AcDbMaterial
  1
Global
 72
     0
 43
0.0208333333333333
 43
0.0
 43
0.0
 43
0.0
 43
0.0
 43
0.0208333333333333
 43
0.0
 43
0.0
 43
0.0
 43
0.0
 43
1.0
 43
0.0
 43
0.0
 43
0.0
 43
0.0
 43
1.0
 77
     0
 47
0.0208333333333333
 47
0.0
 47
0.0
 47
0.0
 47
0.0
 47
0.0208333333333333
 47
0.0
 47
0.0
 47
0.0
 47
0.0
 47
1.0
 47
0.0
 47
0.0
 47
0.0
 47
0.0
 47
1.0
171
     0
 49
0.0208333333333333
 49
0.0
 49
0.0
 49
0.0
 49
0.0
 49
0.0208333333333333
 49
0.0
 49
0.0
 49
0.0
 49
0.0
 49
1.0
 49
0.0
 49
0.0
 49
0.0
 49
0.0
 49
1.0
175
     0
142
0.0208333333333333
142
0.0
142
0.0
142
0.0
142
0.0
142
0.0208333333333333
142
0.0
142
0.0
142
0.0
142
0.0
142
1.0
142
0.0
142
0.0
142
0.0
142
0.0
142
1.0
179
     0
144
0.0208333333333333
144
0.0
144
0.0
144
0.0
144
0.0
144
0.0208333333333333
144
0.0
144
0.0
144
0.0
144
0.0
144
1.0
144
0.0
144
0.0
144
0.0
144
0.0
144
1.0
147
0.0208333333333333
147
0.0
147
0.0
147
0.0
147
0.0
147
0.0208333333333333
147
0.0
147
0.0
147
0.0
147
0.0
147
1.0
147
0.0
147
0.0
147
0.0
147
0.0
147
1.0
  0
MLEADERSTYLE
  5
67
102
{ACAD_REACTORS
330
66
102
}
330
66
100
AcDbMLeaderStyle
179
     2
170
     2
171
     1
172
     0
 90
        2
 40
0.0
 41
0.0
173
     1
 91
-1056964608
340
5B
 92
       -2
290
     1
 42
0.09
291
     1
 43
0.36
  3
Standard
 44
0.18
300

342
55
174
     1
178
     6
175
     1
176
     0
 93
-1056964608
 45
0.18
292
     0
297
     0
 46
0.18
 94
-1056964608
 47
1.0
 49
1.0
140
1.0
293
     1
141
0.0
294
     1
177
     0
142
1.0
295
     1
296
     0
143
0.125
271
     0
272
     9
273
     9
298
     1
  0
MLINESTYLE
  5
60
102
{ACAD_REACTORS
330
5F
102
}
330
5F
100
AcDbMlineStyle
  2
STANDARD
 70
     0
  3

 62
   256
 51
90.0
 52
90.0
 71
     2
 49
0.5
 62
   256
  6
BYLAYER
 49
-0.5
 62
   256
  6
BYLAYER
  0
ACDBPLACEHOLDER
  5
F
102
{ACAD_REACTORS
330
E
102
}
330
E
  0
SCALE
  5
43
102
{ACAD_REACTORS
330
42
102
}
330
42
100
AcDbScale
 70
     0
300
1:1
140
1.0
141
1.0
290
     1
  0
SCALE
  5
44
102
{ACAD_REACTORS
330
42
102
}
330
42
100
AcDbScale
 70
     0
300
1/128" = 1'-0"
140
0.0078125
141
12.0
290
     0
  0
SCALE
  5
45
102
{ACAD_REACTORS
330
42
102
}
330
42
100
AcDbScale
 70
     0
300
1/64" = 1'-0"
140
0.015625
141
12.0
290
     0
  0
SCALE
  5
46
102
{ACAD_REACTORS
330
42
102
}
330
42
100
AcDbScale
 70
     0
300
1/32" = 1'-0"
140
0.03125
141
12.0
290
     0
  0
SCALE
  5
47
102
{ACAD_REACTORS
330
42
102
}
330
42
100
AcDbScale
 70
     0
300
1/16" = 1'-0"
140
0.0625
141
12.0
290
     0
  0
SCALE
  5
48
102
{ACAD_REACTORS
330
42
102
}
330
42
100
AcDbScale
 70
     0
300
3/32" = 1'-0"
140
0.09375
141
12.0
290
     0
  0
SCALE
  5
49
102
{ACAD_REACTORS
330
42
102
}
330
42
100
AcDbScale
 70
     0
300
1/8" = 1'-0"
140
0.125
141
12.0
290
     0
  0
SCALE
  5
4A
102
{ACAD_REACTORS
330
42
102
}
330
42
100
AcDbScale
 70
     0
300
3/16" = 1'-0"
140
0.1875
141
12.0
290
     0
  0
SCALE
  5
4B
102
{ACAD_REACTORS
330
42
102
}
330
42
100
AcDbScale
 70
     0
300
1/4" = 1'-0"
140
0.25
141
12.0
290
     0
  0
SCALE
  5
4C
102
{ACAD_REACTORS
330
42
102
}
330
42
100
AcDbScale
 70
     0
300
3/8" = 1'-0"
140
0.375
141
12.0
290
     0
  0
SCALE
  5
4D
102
{ACAD_REACTORS
330
42
102
}
330
42
100
AcDbScale
 70
     0
300
1/2" = 1'-0"
140
0.5
141
12.0
290
     0
  0
SCALE
  5
4E
102
{ACAD_REACTORS
330
42
102
}
330
42
100
AcDbScale
 70
     0
300
3/4" = 1'-0"
140
0.75
141
12.0
290
     0
  0
SCALE
  5
4F
102
{ACAD_REACTORS
330
42
102
}
330
42
100
AcDbScale
 70
     0
300
1" = 1'-0"
140
1.0
141
12.0
290
     0
  0
SCALE
  5
50
102
{ACAD_REACTORS
330
42
102
}
330
42
100
AcDbScale
 70
     0
300
1-1/2" = 1'-0"
140
1.5
141
12.0
290
     0
  0
SCALE
  5
51
102
{ACAD_REACTORS
330
42
102
}
330
42
100
AcDbScale
 70
     0
300
3" = 1'-0"
140
3.0
141
12.0
290
     0
  0
SCALE
  5
52
102
{ACAD_REACTORS
330
42
102
}
330
42
100
AcDbScale
 70
     0
300
6" = 1'-0"
140
6.0
141
12.0
290
     0
  0
SCALE
  5
53
102
{ACAD_REACTORS
330
42
102
}
330
42
100
AcDbScale
 70
     0
300
1'-0" = 1'-0"
140
12.0
141
12.0
290
     0
  0
ACDBSECTIONVIEWSTYLE
  5
69
102
{ACAD_REACTORS
330
68
102
}
330
68
100
AcDbModelDocViewStyle
 70
     0
  3
Imperial24
290
     1
300
Imperial24
 90
        0
100
AcDbSectionViewStyle
 70
     0
 71
     0
 90
       78
 71
     1
340
55
 62
   256
 40
0.24
340
0
340
0
 62
   256
 40
0.24
300
I, O, Q, S, X, Z
 40
0.48
 90
        3
 40
0.18
 90
        1
 71
     2
340
5D
 90
       25
 62
   256
340
5D
 90
       50
 62
   256
 40
0.24
 40
0.0
 40
0.24
 71
     3
340
55
 62
   256
 40
0.24
 90
        1
 40
0.75
 90
        1
300
%<\AcVar ViewType \f "%tc1">% %<\AcVar ViewSectionStartId>%-%<\AcVar ViewSectionEndId>%\PSCALE %<\AcVar ViewScale \f "%sn">%
 71
     4
 62
   256
 62
   257
300
ANSI31
 40
1.0
 90
        0
290
     0
290
     0
 90
        6
 40
0.0
 40
1.570796326794896
 40
0.2617993877991494
 40
1.308996938995747
 40
-0.2617993877991494
 40
1.832595714594046
  0
TABLESTYLE
  5
65
102
{ACAD_XDICTIONARY
360
154
102
}
102
{ACAD_REACTORS
330
64
102
}
330
64
100
AcDbTableStyle
280
     0
  3
Standard
 70
     0
 71
     0
 40
0.06
 41
0.06
280
     0
281
     0
  7
Standard
140
0.18
170
     2
 62
     0
 63
     7
283
     0
 90
      512
 91
        0
  1

274
    -2
284
     1
 64
     0
275
    -2
285
     1
 65
     0
276
    -2
286
     1
 66
     0
277
    -2
287
     1
 67
     0
278
    -2
288
     1
 68
     0
279
    -2
289
     1
 69
     0
  7
Standard
140
0.25
170
     5
 62
     0
 63
     7
283
     0
 90
      512
 91
        0
  1

274
    -2
284
     1
 64
     0
275
    -2
285
     1
 65
     0
276
    -2
286
     1
 66
     0
277
    -2
287
     1
 67
     0
278
    -2
288
     1
 68
     0
279
    -2
289
     1
 69
     0
  7
Standard
140
0.18
170
     5
 62
     0
 63
     7
283
     0
 90
      512
 91
        0
  1

274
    -2
284
     1
 64
     0
275
    -2
285
     1
 65
     0
276
    -2
286
     1
 66
     0
277
    -2
287
     1
 67
     0
278
    -2
288
     1
 68
     0
279
    -2
289
     1
 69
     0
  0
VISUALSTYLE
  5
2F
102
{ACAD_REACTORS
330
29
102
}
330
29
100
AcDbVisualStyle
  2
2dWireframe
 70
     4
177
     3
291
     0
 70
    58
 90
        0
176
     1
 90
        2
176
     1
 90
        0
176
     1
 90
        0
176
     1
 40
0.6
176
     1
 40
30.0
176
     1
 62
     7
420
 16777215
176
     1
 90
        1
176
     1
 90
        4
176
     1
 62
     7
176
     1
 62
   257
176
     1
 90
        1
176
     1
 90
        1
176
     1
 40
1.0
176
     1
 90
        0
176
     1
 62
   257
176
     1
 40
1.0
176
     1
 90
        1
176
     1
 90
        6
176
     1
 90
        2
176
     1
 62
     7
176
     1
 90
        5
176
     1
 90
        0
176
     1
 90
        0
176
     1
290
     0
176
     1
 90
        1
176
     1
 40
0.0
176
     1
 90
        0
176
     1
290
     1
176
     1
290
     1
176
     1
290
     0
176
     1
290
     0
176
     1
290
     0
176
     1
290
     0
176
     1
290
     0
176
     1
290
     0
176
     1
290
     0
176
     1
 90
       50
176
     1
 40
0.0
176
     1
 40
1.0
176
     1
 90
        0
176
     1
 62
    18
420
        0
176
     1
 90
       50
176
     1
 90
        3
176
     1
 62
     5
420
      255
176
     1
290
     0
176
     1
 90
       50
176
     1
 90
       50
176
     1
 90
       50
176
     1
290
     0
176
     1
 90
       50
176
     1
 62
   256
176
     0
 40
1.0
176
     0
 90
        2
176
     1
  1
strokes_ogs.tif
176
     1
290
     0
176
     1
 40
1.0
176
     1
 40
1.0
176
     1
  0
VISUALSTYLE
  5
2E
102
{ACAD_REACTORS
330
29
102
}
330
29
100
AcDbVisualStyle
  2
Basic
 70
     7
177
     3
291
     1
 70
    58
 90
        1
176
     1
 90
        0
176
     1
 90
        1
176
     1
 90
        0
176
     1
 40
0.6
176
     1
 40
30.0
176
     1
 62
     7
420
 16777215
176
     1
 90
        0
176
     1
 90
        4
176
     1
 62
     7
176
     1
 62
   257
176
     1
 90
        1
176
     1
 90
        1
176
     1
 40
1.0
176
     1
 90
        8
176
     1
 62
     7
176
     1
 40
1.0
176
     1
 90
        1
176
     1
 90
        6
176
     1
 90
        2
176
     1
 62
     7
176
     1
 90
        5
176
     1
 90
        0
176
     1
 90
        0
176
     1
290
     0
176
     1
 90
        1
176
     1
 40
0.0
176
     1
 90
        0
176
     1
290
     0
176
     1
290
     1
176
     1
290
     1
176
     1
290
     0
176
     1
290
     0
176
     1
290
     0
176
     1
290
     0
176
     1
290
     0
176
     1
290
     0
176
     1
 90
       50
176
     1
 40
0.0
176
     1
 40
1.0
176
     1
 90
        0
176
     1
 62
    18
420
        0
176
     1
 90
       50
176
     1
 90
        3
176
     1
 62
     5
420
      255
176
     1
290
     0
176
     1
 90
       50
176
     1
 90
       50
176
     1
 90
       50
176
     1
290
     0
176
     1
 90
       50
176
     1
 62
   256
176
     0
 40
1.0
176
     0
 90
        2
176
     1
  1
strokes_ogs.tif
176
     1
290
     0
176
     1
 40
1.0
176
     1
 40
1.0
176
     1
  0
VISUALSTYLE
  5
35
102
{ACAD_REACTORS
330
29
102
}
330
29
100
AcDbVisualStyle
  2
Brighten
 70
    12
177
     3
291
     1
 70
    58
 90
        2
176
     1
 90
        2
176
     1
 90
        0
176
     1
 90
        0
176
     1
 40
0.6
176
     1
 40
30.0
176
     1
 62
     7
420
 16777215
176
     1
 90
        1
176
     1
 90
        4
176
     1
 62
     7
176
     1
 62
   257
176
     1
 90
        1
176
     1
 90
        1
176
     1
 40
1.0
176
     1
 90
        8
176
     1
 62
     7
176
     1
 40
1.0
176
     1
 90
        1
176
     1
 90
        6
176
     1
 90
        2
176
     1
 62
     7
176
     1
 90
        5
176
     1
 90
        0
176
     1
 90
        0
176
     1
290
     0
176
     1
 90
        1
176
     1
 40
50.0
176
     1
 90
        0
176
     1
290
     0
176
     1
290
     1
176
     1
290
     1
176
     1
290
     0
176
     1
290
     0
176
     1
290
     0
176
     1
290
     0
176
     1
290
     0
176
     1
290
     0
176
     1
 90
       50
176
     1
 40
0.0
176
     1
 40
1.0
176
     1
 90
        0
176
     1
 62
    18
420
        0
176
     1
 90
       50
176
     1
 90
        3
176
     1
 62
     5
420
      255
176
     1
290
     0
176
     1
 90
       50
176
     1
 90
       50
176
     1
 90
       50
176
     1
290
     0
176
     1
 90
       50
176
     1
 62
   256
176
     0
 40
1.0
176
     0
 90
        2
176
     1
  1
strokes_ogs.tif
176
     1
290
     0
176
     1
 40
1.0
176
     1
 40
1.0
176
     1
  0
VISUALSTYLE
  5
39
102
{ACAD_REACTORS
330
29
102
}
330
29
100
AcDbVisualStyle
  2
ColorChange
 70
    16
177
     3
291
     1
 70
    58
 90
        2
176
     1
 90
        2
176
     1
 90
        3
176
     1
 90
        0
176
     1
 40
0.6
176
     1
 40
30.0
176
     1
 62
     8
420
  8421504
176
     1
 90
        1
176
     1
 90
        4
176
     1
 62
     7
176
     1
 62
   257
176
     1
 90
        1
176
     1
 90
        1
176
     1
 40
1.0
176
     1
 90
        8
176
     1
 62
     8
420
  8421504
176
     1
 40
1.0
176
     1
 90
        1
176
     1
 90
        6
176
     1
 90
        2
176
     1
 62
     7
176
     1
 90
        5
176
     1
 90
        0
176
     1
 90
        0
176
     1
290
     0
176
     1
 90
        1
176
     1
 40
0.0
176
     1
 90
        0
176
     1
290
     0
176
     1
290
     1
176
     1
290
     1
176
     1
290
     0
176
     1
290
     0
176
     1
290
     0
176
     1
290
     0
176
     1
290
     0
176
     1
290
     0
176
     1
 90
       50
176
     1
 40
0.0
176
     1
 40
1.0
176
     1
 90
        0
176
     1
 62
    18
420
        0
176
     1
 90
       50
176
     1
 90
        3
176
     1
 62
     5
420
      255
176
     1
290
     0
176
     1
 90
       50
176
     1
 90
       50
176
     1
 90
       50
176
     1
290
     0
176
     1
 90
       50
176
     1
 62
   256
176
     0
 40
1.0
176
     0
 90
        2
176
     1
  1
strokes_ogs.tif
176
     1
290
     0
176
     1
 40
1.0
176
     1
 40
1.0
176
     1
  0
VISUALSTYLE
  5
32
102
{ACAD_REACTORS
330
29
102
}
330
29
100
AcDbVisualStyle
  2
Conceptual
 70
     9
177
     3
291
     0
 70
    58
 90
        3
176
     1
 90
        2
176
     1
 90
        0
176
     1
 90
        0
176
     1
 40
0.6
176
     1
 40
30.0
176
     1
 62
     7
420
 16777215
176
     1
 90
        2
176
     1
 90
        2
176
     1
 62
     7
176
     1
 62
   257
176
     1
 90
        1
176
     1
 90
        1
176
     1
 40
179.0
176
     1
 90
        8
176
     1
 62
     7
176
     1
 40
1.0
176
     1
 90
        1
176
     1
 90
        6
176
     1
 90
        2
176
     1
 62
     7
176
     1
 90
        3
176
     1
 90
        0
176
     1
 90
        0
176
     1
290
     0
176
     1
 90
        1
176
     1
 40
0.0
176
     1
 90
        0
176
     1
290
     0
176
     1
290
     1
176
     1
290
     1
176
     1
290
     0
176
     1
290
     0
176
     1
290
     0
176
     1
290
     0
176
     1
290
     0
176
     1
290
     0
176
     1
 90
       50
176
     1
 40
0.0
176
     1
 40
1.0
176
     1
 90
        0
176
     1
 62
    18
420
        0
176
     1
 90
       50
176
     1
 90
        3
176
     1
 62
     5
420
      255
176
     1
290
     0
176
     1
 90
       50
176
     1
 90
       50
176
     1
 90
       50
176
     1
290
     0
176
     1
 90
       50
176
     1
 62
   256
176
     0
 40
1.0
176
     0
 90
        2
176
     1
  1
strokes_ogs.tif
176
     1
290
     0
176
     1
 40
1.0
176
     1
 40
1.0
176
     1
  0
VISUALSTYLE
  5
34
102
{ACAD_REACTORS
330
29
102
}
330
29
100
AcDbVisualStyle
  2
Dim
 70
    11
177
     3
291
     1
 70
    58
 90
        2
176
     1
 90
        2
176
     1
 90
        0
176
     1
 90
        0
176
     1
 40
0.6
176
     1
 40
30.0
176
     1
 62
     7
420
 16777215
176
     1
 90
        1
176
     1
 90
        4
176
     1
 62
     7
176
     1
 62
   257
176
     1
 90
        1
176
     1
 90
        1
176
     1
 40
1.0
176
     1
 90
        8
176
     1
 62
     7
176
     1
 40
1.0
176
     1
 90
        1
176
     1
 90
        6
176
     1
 90
        2
176
     1
 62
     7
176
     1
 90
        5
176
     1
 90
        0
176
     1
 90
        0
176
     1
290
     0
176
     1
 90
        1
176
     1
 40
-50.0
176
     1
 90
        0
176
     1
290
     0
176
     1
290
     1
176
     1
290
     1
176
     1
290
     0
176
     1
290
     0
176
     1
290
     0
176
     1
290
     0
176
     1
290
     0
176
     1
290
     0
176
     1
 90
       50
176
     1
 40
0.0
176
     1
 40
1.0
176
     1
 90
        0
176
     1
 62
    18
420
        0
176
     1
 90
       50
176
     1
 90
        3
176
     1
 62
     5
420
      255
176
     1
290
     0
176
     1
 90
       50
176
     1
 90
       50
176
     1
 90
       50
176
     1
290
     0
176
     1
 90
       50
176
     1
 62
   256
176
     0
 40
1.0
176
     0
 90
        2
176
     1
  1
strokes_ogs.tif
176
     1
290
     0
176
     1
 40
1.0
176
     1
 40
1.0
176
     1
  0
VISUALSTYLE
  5
41
102
{ACAD_REACTORS
330
29
102
}
330
29
100
AcDbVisualStyle
  2
EdgeColorOff
 70
    22
177
     3
291
     1
 70
    58
 90
        2
176
     0
 90
        2
176
     0
 90
        0
176
     0
 90
        0
176
     0
 40
0.6
176
     0
 40
30.0
176
     0
 62
     7
420
 16777215
176
     0
 90
        1
176
     0
 90
        4
176
     0
 62
     7
176
     0
 62
   257
176
     0
 90
        1
176
     0
 90
        1
176
     0
 40
1.0
176
     0
 90
        8
176
     2
 62
     7
176
     0
 40
1.0
176
     0
 90
        1
176
     0
 90
        6
176
     0
 90
        2
176
     0
 62
     7
176
     0
 90
        5
176
     0
 90
        0
176
     0
 90
        0
176
     0
290
     0
176
     0
 90
        1
176
     0
 40
0.0
176
     0
 90
        0
176
     0
290
     0
176
     0
290
     1
176
     0
290
     1
176
     0
290
     0
176
     0
290
     0
176
     0
290
     0
176
     0
290
     0
176
     0
290
     0
176
     0
290
     0
176
     0
 90
       50
176
     0
 40
0.0
176
     0
 40
1.0
176
     0
 90
        0
176
     0
 62
    18
420
        0
176
     0
 90
       50
176
     0
 90
        3
176
     0
 62
     5
420
      255
176
     0
290
     0
176
     0
 90
       50
176
     0
 90
       50
176
     0
 90
       50
176
     0
290
     0
176
     0
 90
       50
176
     0
 62
   256
176
     0
 40
1.0
176
     0
 90
        2
176
     0
  1
strokes_ogs.tif
176
     0
290
     0
176
     0
 40
1.0
176
     0
 40
1.0
176
     0
  0
VISUALSTYLE
  5
38
102
{ACAD_REACTORS
330
29
102
}
330
29
100
AcDbVisualStyle
  2
Facepattern
 70
    15
177
     3
291
     1
 70
    58
 90
        2
176
     1
 90
        2
176
     1
 90
        0
176
     1
 90
        0
176
     1
 40
0.6
176
     1
 40
30.0
176
     1
 62
     7
420
 16777215
176
     1
 90
        1
176
     1
 90
        4
176
     1
 62
     7
176
     1
 62
   257
176
     1
 90
        1
176
     1
 90
        1
176
     1
 40
1.0
176
     1
 90
        8
176
     1
 62
     7
176
     1
 40
1.0
176
     1
 90
        1
176
     1
 90
        6
176
     1
 90
        2
176
     1
 62
     7
176
     1
 90
        5
176
     1
 90
        0
176
     1
 90
        0
176
     1
290
     0
176
     1
 90
        1
176
     1
 40
0.0
176
     1
 90
        0
176
     1
290
     0
176
     1
290
     1
176
     1
290
     1
176
     1
290
     0
176
     1
290
     0
176
     1
290
     0
176
     1
290
     0
176
     1
290
     0
176
     1
290
     0
176
     1
 90
       50
176
     1
 40
0.0
176
     1
 40
1.0
176
     1
 90
        0
176
     1
 62
    18
420
        0
176
     1
 90
       50
176
     1
 90
        3
176
     1
 62
     5
420
      255
176
     1
290
     0
176
     1
 90
       50
176
     1
 90
       50
176
     1
 90
       50
176
     1
290
     0
176
     1
 90
       50
176
     1
 62
   256
176
     0
 40
1.0
176
     0
 90
        2
176
     1
  1
strokes_ogs.tif
176
     1
290
     0
176
     1
 40
1.0
176
     1
 40
1.0
176
     1
  0
VISUALSTYLE
  5
2A
102
{ACAD_REACTORS
330
29
102
}
330
29
100
AcDbVisualStyle
  2
Flat
 70
     0
177
     3
291
     1
 70
    58
 90
        2
176
     1
 90
        1
176
     1
 90
        1
176
     1
 90
        2
176
     1
 40
0.6
176
     1
 40
30.0
176
     1
 62
     7
420
 16777215
176
     1
 90
        0
176
     1
 90
        0
176
     1
 62
     7
176
     1
 62
   257
176
     1
 90
        1
176
     1
 90
        1
176
     1
 40
1.0
176
     1
 90
        8
176
     1
 62
     7
176
     1
 40
1.0
176
     1
 90
        1
176
     1
 90
        6
176
     1
 90
        2
176
     1
 62
     7
176
     1
 90
        5
176
     1
 90
        0
176
     1
 90
        0
176
     1
290
     0
176
     1
 90
       13
176
     1
 40
0.0
176
     1
 90
        0
176
     1
290
     0
176
     1
290
     1
176
     1
290
     1
176
     1
290
     0
176
     1
290
     0
176
     1
290
     0
176
     1
290
     0
176
     1
290
     0
176
     1
290
     0
176
     1
 90
       50
176
     1
 40
0.0
176
     1
 40
1.0
176
     1
 90
        0
176
     1
 62
    18
420
        0
176
     1
 90
       50
176
     1
 90
        3
176
     1
 62
     5
420
      255
176
     1
290
     0
176
     1
 90
       50
176
     1
 90
       50
176
     1
 90
       50
176
     1
290
     0
176
     1
 90
       50
176
     1
 62
   256
176
     0
 40
1.0
176
     0
 90
        2
176
     1
  1
strokes_ogs.tif
176
     1
290
     0
176
     1
 40
1.0
176
     1
 40
1.0
176
     1
  0
VISUALSTYLE
  5
2B
102
{ACAD_REACTORS
330
29
102
}
330
29
100
AcDbVisualStyle
  2
FlatWithEdges
 70
     1
177
     3
291
     1
 70
    58
 90
        2
176
     1
 90
        1
176
     1
 90
        1
176
     1
 90
        2
176
     1
 40
0.6
176
     1
 40
30.0
176
     1
 62
     7
420
 16777215
176
     1
 90
        1
176
     1
 90
        0
176
     1
 62
     7
176
     1
 62
   257
176
     1
 90
        1
176
     1
 90
        1
176
     1
 40
1.0
176
     1
 90
        0
176
     1
 62
   257
176
     1
 40
1.0
176
     1
 90
        1
176
     1
 90
        6
176
     1
 90
        2
176
     1
 62
     7
176
     1
 90
        5
176
     1
 90
        0
176
     1
 90
        0
176
     1
290
     0
176
     1
 90
       13
176
     1
 40
0.0
176
     1
 90
        0
176
     1
290
     0
176
     1
290
     1
176
     1
290
     1
176
     1
290
     0
176
     1
290
     0
176
     1
290
     0
176
     1
290
     0
176
     1
290
     0
176
     1
290
     0
176
     1
 90
       50
176
     1
 40
0.0
176
     1
 40
1.0
176
     1
 90
        0
176
     1
 62
    18
420
        0
176
     1
 90
       50
176
     1
 90
        3
176
     1
 62
     5
420
      255
176
     1
290
     0
176
     1
 90
       50
176
     1
 90
       50
176
     1
 90
       50
176
     1
290
     0
176
     1
 90
       50
176
     1
 62
   256
176
     0
 40
1.0
176
     0
 90
        2
176
     1
  1
strokes_ogs.tif
176
     1
290
     0
176
     1
 40
1.0
176
     1
 40
1.0
176
     1
  0
VISUALSTYLE
  5
2C
102
{ACAD_REACTORS
330
29
102
}
330
29
100
AcDbVisualStyle
  2
Gouraud
 70
     2
177
     3
291
     1
 70
    58
 90
        2
176
     1
 90
        2
176
     1
 90
        1
176
     1
 90
        2
176
     1
 40
0.6
176
     1
 40
30.0
176
     1
 62
     7
420
 16777215
176
     1
 90
        0
176
     1
 90
        0
176
     1
 62
     7
176
     1
 62
   257
176
     1
 90
        1
176
     1
 90
        1
176
     1
 40
1.0
176
     1
 90
        0
176
     1
 62
     7
176
     1
 40
1.0
176
     1
 90
        1
176
     1
 90
        6
176
     1
 90
        2
176
     1
 62
     7
176
     1
 90
        5
176
     1
 90
        0
176
     1
 90
        0
176
     1
290
     0
176
     1
 90
       13
176
     1
 40
0.0
176
     1
 90
        0
176
     1
290
     0
176
     1
290
     1
176
     1
290
     1
176
     1
290
     0
176
     1
290
     0
176
     1
290
     0
176
     1
290
     0
176
     1
290
     0
176
     1
290
     0
176
     1
 90
       50
176
     1
 40
0.0
176
     1
 40
1.0
176
     1
 90
        0
176
     1
 62
    18
420
        0
176
     1
 90
       50
176
     1
 90
        3
176
     1
 62
     5
420
      255
176
     1
290
     0
176
     1
 90
       50
176
     1
 90
       50
176
     1
 90
       50
176
     1
290
     0
176
     1
 90
       50
176
     1
 62
   256
176
     0
 40
1.0
176
     0
 90
        2
176
     1
  1
strokes_ogs.tif
176
     1
290
     0
176
     1
 40
1.0
176
     1
 40
1.0
176
     1
  0
VISUALSTYLE
  5
2D
102
{ACAD_REACTORS
330
29
102
}
330
29
100
AcDbVisualStyle
  2
GouraudWithEdges
 70
     3
177
     3
291
     1
 70
    58
 90
        2
176
     1
 90
        2
176
     1
 90
        1
176
     1
 90
        2
176
     1
 40
0.6
176
     1
 40
30.0
176
     1
 62
     7
420
 16777215
176
     1
 90
        1
176
     1
 90
        0
176
     1
 62
     7
176
     1
 62
   257
176
     1
 90
        1
176
     1
 90
        1
176
     1
 40
1.0
176
     1
 90
        0
176
     1
 62
   257
176
     1
 40
1.0
176
     1
 90
        1
176
     1
 90
        6
176
     1
 90
        2
176
     1
 62
     7
176
     1
 90
        5
176
     1
 90
        0
176
     1
 90
        0
176
     1
290
     0
176
     1
 90
       13
176
     1
 40
0.0
176
     1
 90
        0
176
     1
290
     0
176
     1
290
     1
176
     1
290
     1
176
     1
290
     0
176
     1
290
     0
176
     1
290
     0
176
     1
290
     0
176
     1
290
     0
176
     1
290
     0
176
     1
 90
       50
176
     1
 40
0.0
176
     1
 40
1.0
176
     1
 90
        0
176
     1
 62
    18
420
        0
176
     1
 90
       50
176
     1
 90
        3
176
     1
 62
     5
420
      255
176
     1
290
     0
176
     1
 90
       50
176
     1
 90
       50
176
     1
 90
       50
176
     1
290
     0
176
     1
 90
       50
176
     1
 62
   256
176
     0
 40
1.0
176
     0
 90
        2
176
     1
  1
strokes_ogs.tif
176
     1
290
     0
176
     1
 40
1.0
176
     1
 40
1.0
176
     1
  0
VISUALSTYLE
  5
31
102
{ACAD_REACTORS
330
29
102
}
330
29
100
AcDbVisualStyle
  2
Hidden
 70
     6
177
     3
291
     0
 70
    58
 90
        1
176
     1
 90
        2
176
     1
 90
        2
176
     1
 90
        0
176
     1
 40
0.6
176
     1
 40
30.0
176
     1
 62
     7
420
 16777215
176
     1
 90
        2
176
     1
 90
        2
176
     1
 62
     7
176
     1
 62
   257
176
     1
 90
        2
176
     1
 90
        1
176
     1
 40
40.0
176
     1
 90
        0
176
     1
 62
   257
176
     1
 40
1.0
176
     1
 90
        1
176
     1
 90
        6
176
     1
 90
        2
176
     1
 62
     7
176
     1
 90
        3
176
     1
 90
        0
176
     1
 90
        0
176
     1
290
     0
176
     1
 90
        1
176
     1
 40
0.0
176
     1
 90
        0
176
     1
290
     0
176
     1
290
     1
176
     1
290
     1
176
     1
290
     0
176
     1
290
     0
176
     1
290
     0
176
     1
290
     0
176
     1
290
     0
176
     1
290
     0
176
     1
 90
       50
176
     1
 40
0.0
176
     1
 40
1.0
176
     1
 90
        0
176
     1
 62
    18
420
        0
176
     1
 90
       50
176
     1
 90
        3
176
     1
 62
     5
420
      255
176
     1
290
     0
176
     1
 90
       50
176
     1
 90
       50
176
     1
 90
       50
176
     1
290
     0
176
     1
 90
       50
176
     1
 62
   256
176
     0
 40
1.0
176
     0
 90
        2
176
     1
  1
strokes_ogs.tif
176
     1
290
     0
176
     1
 40
1.0
176
     1
 40
1.0
176
     1
  0
VISUALSTYLE
  5
3F
102
{ACAD_REACTORS
330
29
102
}
330
29
100
AcDbVisualStyle
  2
JitterOff
 70
    20
177
     3
291
     1
 70
    58
 90
        2
176
     0
 90
        2
176
     0
 90
        0
176
     0
 90
        0
176
     0
 40
0.6
176
     0
 40
30.0
176
     0
 62
     7
420
 16777215
176
     0
 90
        1
176
     0
 90
        4
176
     0
 62
     7
176
     0
 62
   257
176
     0
 90
        1
176
     0
 90
        1
176
     0
 40
1.0
176
     0
 90
       10
176
     2
 62
     7
176
     0
 40
1.0
176
     0
 90
        1
176
     0
 90
        6
176
     0
 90
        2
176
     0
 62
     7
176
     0
 90
        5
176
     0
 90
        0
176
     0
 90
        0
176
     0
290
     0
176
     0
 90
        1
176
     0
 40
0.0
176
     0
 90
        0
176
     0
290
     0
176
     0
290
     1
176
     0
290
     1
176
     0
290
     0
176
     0
290
     0
176
     0
290
     0
176
     0
290
     0
176
     0
290
     0
176
     0
290
     0
176
     0
 90
       50
176
     0
 40
0.0
176
     0
 40
1.0
176
     0
 90
        0
176
     0
 62
    18
420
        0
176
     0
 90
       50
176
     0
 90
        3
176
     0
 62
     5
420
      255
176
     0
290
     0
176
     0
 90
       50
176
     0
 90
       50
176
     0
 90
       50
176
     0
290
     0
176
     0
 90
       50
176
     0
 62
   256
176
     0
 40
1.0
176
     0
 90
        2
176
     0
  1
strokes_ogs.tif
176
     0
290
     0
176
     0
 40
1.0
176
     0
 40
1.0
176
     0
  0
VISUALSTYLE
  5
37
102
{ACAD_REACTORS
330
29
102
}
330
29
100
AcDbVisualStyle
  2
Linepattern
 70
    14
177
     3
291
     1
 70
    58
 90
        2
176
     1
 90
        2
176
     1
 90
        0
176
     1
 90
        0
176
     1
 40
0.6
176
     1
 40
30.0
176
     1
 62
     7
420
 16777215
176
     1
 90
        1
176
     1
 90
        4
176
     1
 62
     7
176
     1
 62
   257
176
     1
 90
        7
176
     1
 90
        7
176
     1
 40
1.0
176
     1
 90
        8
176
     1
 62
     7
176
     1
 40
1.0
176
     1
 90
        1
176
     1
 90
        6
176
     1
 90
        2
176
     1
 62
     7
176
     1
 90
        5
176
     1
 90
        0
176
     1
 90
        0
176
     1
290
     0
176
     1
 90
        1
176
     1
 40
0.0
176
     1
 90
        0
176
     1
290
     0
176
     1
290
     1
176
     1
290
     1
176
     1
290
     0
176
     1
290
     0
176
     1
290
     0
176
     1
290
     0
176
     1
290
     0
176
     1
290
     0
176
     1
 90
       50
176
     1
 40
0.0
176
     1
 40
1.0
176
     1
 90
        0
176
     1
 62
    18
420
        0
176
     1
 90
       50
176
     1
 90
        3
176
     1
 62
     5
420
      255
176
     1
290
     0
176
     1
 90
       50
176
     1
 90
       50
176
     1
 90
       50
176
     1
290
     0
176
     1
 90
       50
176
     1
 62
   256
176
     0
 40
1.0
176
     0
 90
        2
176
     1
  1
strokes_ogs.tif
176
     1
290
     0
176
     1
 40
1.0
176
     1
 40
1.0
176
     1
  0
VISUALSTYLE
  5
40
102
{ACAD_REACTORS
330
29
102
}
330
29
100
AcDbVisualStyle
  2
OverhangOff
 70
    21
177
     3
291
     1
 70
    58
 90
        2
176
     0
 90
        2
176
     0
 90
        0
176
     0
 90
        0
176
     0
 40
0.6
176
     0
 40
30.0
176
     0
 62
     7
420
 16777215
176
     0
 90
        1
176
     0
 90
        4
176
     0
 62
     7
176
     0
 62
   257
176
     0
 90
        1
176
     0
 90
        1
176
     0
 40
1.0
176
     0
 90
        9
176
     2
 62
     7
176
     0
 40
1.0
176
     0
 90
        1
176
     0
 90
        6
176
     0
 90
        2
176
     0
 62
     7
176
     0
 90
        5
176
     0
 90
        0
176
     0
 90
        0
176
     0
290
     0
176
     0
 90
        1
176
     0
 40
0.0
176
     0
 90
        0
176
     0
290
     0
176
     0
290
     1
176
     0
290
     1
176
     0
290
     0
176
     0
290
     0
176
     0
290
     0
176
     0
290
     0
176
     0
290
     0
176
     0
290
     0
176
     0
 90
       50
176
     0
 40
0.0
176
     0
 40
1.0
176
     0
 90
        0
176
     0
 62
    18
420
        0
176
     0
 90
       50
176
     0
 90
        3
176
     0
 62
     5
420
      255
176
     0
290
     0
176
     0
 90
       50
176
     0
 90
       50
176
     0
 90
       50
176
     0
290
     0
176
     0
 90
       50
176
     0
 62
   256
176
     0
 40
1.0
176
     0
 90
        2
176
     0
  1
strokes_ogs.tif
176
     0
290
     0
176
     0
 40
1.0
176
     0
 40
1.0
176
     0
  0
VISUALSTYLE
  5
33
102
{ACAD_REACTORS
330
29
102
}
330
29
100
AcDbVisualStyle
  2
Realistic
 70
     8
177
     3
291
     0
 70
    58
 90
        2
176
     1
 90
        3
176
     1
 90
        0
176
     1
 90
        2
176
     1
 40
0.6
176
     1
 40
30.0
176
     1
 62
     7
420
 16777215
176
     1
 90
        0
176
     1
 90
        0
176
     1
 62
     7
176
     1
 62
   257
176
     1
 90
        1
176
     1
 90
        1
176
     1
 40
1.0
176
     1
 90
        8
176
     1
 62
   257
176
     1
 40
1.0
176
     1
 90
        1
176
     1
 90
        6
176
     1
 90
        2
176
     1
 62
     7
176
     1
 90
        3
176
     1
 90
        0
176
     1
 90
        0
176
     1
290
     0
176
     1
 90
       13
176
     1
 40
0.0
176
     1
 90
        0
176
     1
290
     0
176
     1
290
     1
176
     1
290
     1
176
     1
290
     0
176
     1
290
     0
176
     1
290
     0
176
     1
290
     0
176
     1
290
     0
176
     1
290
     0
176
     1
 90
       50
176
     1
 40
0.0
176
     1
 40
1.0
176
     1
 90
        0
176
     1
 62
    18
420
        0
176
     1
 90
       50
176
     1
 90
        3
176
     1
 62
     5
420
      255
176
     1
290
     0
176
     1
 90
       50
176
     1
 90
       50
176
     1
 90
       50
176
     1
290
     0
176
     1
 90
       50
176
     1
 62
   256
176
     0
 40
1.0
176
     0
 90
        2
176
     1
  1
strokes_ogs.tif
176
     1
290
     0
176
     1
 40
1.0
176
     1
 40
1.0
176
     1
  0
VISUALSTYLE
  5
3E
102
{ACAD_REACTORS
330
29
102
}
330
29
100
AcDbVisualStyle
  2
Shaded
 70
    27
177
     3
291
     0
 70
    58
 90
        2
176
     1
 90
        2
176
     1
 90
        1
176
     1
 90
        2
176
     1
 40
0.6
176
     1
 40
30.0
176
     1
 62
     7
420
 16777215
176
     1
 90
        0
176
     1
 90
        4
176
     1
 62
     7
176
     1
 62
   257
176
     1
 90
        1
176
     1
 90
        1
176
     1
 40
1.0
176
     1
 90
        8
176
     1
 62
   257
176
     1
 40
1.0
176
     1
 90
        1
176
     1
 90
        6
176
     1
 90
        2
176
     1
 62
     8
420
  7895160
176
     1
 90
        3
176
     1
 90
        0
176
     1
 90
        0
176
     1
290
     0
176
     1
 90
        5
176
     1
 40
0.0
176
     1
 90
        0
176
     1
290
     0
176
     1
290
     1
176
     1
290
     1
176
     1
290
     0
176
     1
290
     0
176
     1
290
     0
176
     1
290
     0
176
     1
290
     0
176
     1
290
     0
176
     1
 90
       50
176
     1
 40
0.0
176
     1
 40
1.0
176
     1
 90
        0
176
     1
 62
    18
420
        0
176
     1
 90
       50
176
     1
 90
        3
176
     1
 62
     5
420
      255
176
     1
290
     0
176
     1
 90
       50
176
     1
 90
       50
176
     1
 90
       50
176
     1
290
     0
176
     1
 90
       50
176
     1
 62
   256
176
     0
 40
1.0
176
     0
 90
        2
176
     1
  1
strokes_ogs.tif
176
     1
290
     0
176
     1
 40
1.0
176
     1
 40
1.0
176
     1
  0
VISUALSTYLE
  5
3D
102
{ACAD_REACTORS
330
29
102
}
330
29
100
AcDbVisualStyle
  2
Shaded with edges
 70
    26
177
     3
291
     0
 70
    58
 90
        2
176
     1
 90
        2
176
     1
 90
        1
176
     1
 90
        2
176
     1
 40
0.6
176
     1
 40
30.0
176
     1
 62
     7
420
 16777215
176
     1
 90
        1
176
     1
 90
        2
176
     1
 62
     7
176
     1
 62
   257
176
     1
 90
        2
176
     1
 90
        1
176
     1
 40
1.0
176
     1
 90
        8
176
     1
 62
   257
176
     1
 40
1.0
176
     1
 90
        1
176
     1
 90
        6
176
     1
 90
        2
176
     1
 62
     7
176
     1
 90
        3
176
     1
 90
        0
176
     1
 90
        0
176
     1
290
     0
176
     1
 90
        5
176
     1
 40
0.0
176
     1
 90
        0
176
     1
290
     0
176
     1
290
     1
176
     1
290
     1
176
     1
290
     0
176
     1
290
     0
176
     1
290
     0
176
     1
290
     0
176
     1
290
     0
176
     1
290
     0
176
     1
 90
       50
176
     1
 40
0.0
176
     1
 40
1.0
176
     1
 90
        0
176
     1
 62
    18
420
        0
176
     1
 90
       50
176
     1
 90
        3
176
     1
 62
     5
420
      255
176
     1
290
     0
176
     1
 90
       50
176
     1
 90
       50
176
     1
 90
       50
176
     1
290
     0
176
     1
 90
       50
176
     1
 62
   256
176
     0
 40
1.0
176
     0
 90
        2
176
     1
  1
strokes_ogs.tif
176
     1
290
     0
176
     1
 40
1.0
176
     1
 40
1.0
176
     1
  0
VISUALSTYLE
  5
3A
102
{ACAD_REACTORS
330
29
102
}
330
29
100
AcDbVisualStyle
  2
Shades of Gray
 70
    23
177
     3
291
     0
 70
    58
 90
        2
176
     1
 90
        2
176
     1
 90
        3
176
     1
 90
        0
176
     1
 40
0.6
176
     1
 40
30.0
176
     1
 62
     7
420
 16777215
176
     1
 90
        2
176
     1
 90
        2
176
     1
 62
     7
176
     1
 62
     7
176
     1
 90
        1
176
     1
 90
        1
176
     1
 40
40.0
176
     1
 90
        8
176
     1
 62
     7
176
     1
 40
1.0
176
     1
 90
        1
176
     1
 90
        6
176
     1
 90
        2
176
     1
 62
     7
176
     1
 90
        3
176
     1
 90
        0
176
     1
 90
        0
176
     1
290
     0
176
     1
 90
        1
176
     1
 40
0.0
176
     1
 90
        0
176
     1
290
     0
176
     1
290
     1
176
     1
290
     1
176
     1
290
     0
176
     1
290
     0
176
     1
290
     0
176
     1
290
     0
176
     1
290
     0
176
     1
290
     0
176
     1
 90
       50
176
     1
 40
0.0
176
     1
 40
1.0
176
     1
 90
        0
176
     1
 62
    18
420
        0
176
     1
 90
       50
176
     1
 90
        3
176
     1
 62
     5
420
      255
176
     1
290
     0
176
     1
 90
       50
176
     1
 90
       50
176
     1
 90
       50
176
     1
290
     0
176
     1
 90
       50
176
     1
 62
   256
176
     0
 40
1.0
176
     0
 90
        2
176
     1
  1
strokes_ogs.tif
176
     1
290
     0
176
     1
 40
1.0
176
     1
 40
1.0
176
     1
  0
VISUALSTYLE
  5
3B
102
{ACAD_REACTORS
330
29
102
}
330
29
100
AcDbVisualStyle
  2
Sketchy
 70
    24
177
     3
291
     0
 70
    58
 90
        1
176
     1
 90
        2
176
     1
 90
        2
176
     1
 90
        0
176
     1
 40
0.6
176
     1
 40
30.0
176
     1
 62
     7
420
 16777215
176
     1
 90
        2
176
     1
 90
        2
176
     1
 62
     7
176
     1
 62
     7
176
     1
 90
        1
176
     1
 90
        1
176
     1
 40
40.0
176
     1
 90
       11
176
     1
 62
     7
176
     1
 40
1.0
176
     1
 90
        1
176
     1
 90
        6
176
     1
 90
        2
176
     1
 62
     7
176
     1
 90
        6
176
     1
 90
        0
176
     1
 90
        0
176
     1
290
     0
176
     1
 90
        1
176
     1
 40
0.0
176
     1
 90
        0
176
     1
290
     0
176
     1
290
     1
176
     1
290
     1
176
     1
290
     0
176
     1
290
     0
176
     1
290
     0
176
     1
290
     0
176
     1
290
     0
176
     1
290
     0
176
     1
 90
       50
176
     1
 40
0.0
176
     1
 40
1.0
176
     1
 90
        0
176
     1
 62
    18
420
        0
176
     1
 90
       50
176
     1
 90
        3
176
     1
 62
     5
420
      255
176
     1
290
     0
176
     1
 90
       50
176
     1
 90
       50
176
     1
 90
       50
176
     1
290
     0
176
     1
 90
       50
176
     1
 62
   256
176
     0
 40
1.0
176
     0
 90
        2
176
     1
  1
strokes_ogs.tif
176
     1
290
     0
176
     1
 40
1.0
176
     1
 40
1.0
176
     1
  0
VISUALSTYLE
  5
36
102
{ACAD_REACTORS
330
29
102
}
330
29
100
AcDbVisualStyle
  2
Thicken
 70
    13
177
     3
291
     1
 70
    58
 90
        2
176
     1
 90
        2
176
     1
 90
        0
176
     1
 90
        0
176
     1
 40
0.6
176
     1
 40
30.0
176
     1
 62
     7
420
 16777215
176
     1
 90
        1
176
     1
 90
        4
176
     1
 62
     7
176
     1
 62
   257
176
     1
 90
        1
176
     1
 90
        1
176
     1
 40
1.0
176
     1
 90
       12
176
     1
 62
     7
176
     1
 40
1.0
176
     1
 90
        1
176
     1
 90
        6
176
     1
 90
        2
176
     1
 62
     7
176
     1
 90
        5
176
     1
 90
        0
176
     1
 90
        0
176
     1
290
     0
176
     1
 90
        1
176
     1
 40
0.0
176
     1
 90
        0
176
     1
290
     0
176
     1
290
     1
176
     1
290
     1
176
     1
290
     0
176
     1
290
     0
176
     1
290
     0
176
     1
290
     0
176
     1
290
     0
176
     1
290
     0
176
     1
 90
       50
176
     1
 40
0.0
176
     1
 40
1.0
176
     1
 90
        0
176
     1
 62
    18
420
        0
176
     1
 90
       50
176
     1
 90
        3
176
     1
 62
     5
420
      255
176
     1
290
     0
176
     1
 90
       50
176
     1
 90
       50
176
     1
 90
       50
176
     1
290
     0
176
     1
 90
       50
176
     1
 62
   256
176
     0
 40
1.0
176
     0
 90
        2
176
     1
  1
strokes_ogs.tif
176
     1
290
     0
176
     1
 40
1.0
176
     1
 40
1.0
176
     1
  0
VISUALSTYLE
  5
30
102
{ACAD_REACTORS
330
29
102
}
330
29
100
AcDbVisualStyle
  2
Wireframe
 70
     5
177
     3
291
     0
 70
    58
 90
        0
176
     1
 90
        2
176
     1
 90
        0
176
     1
 90
        0
176
     1
 40
0.6
176
     1
 40
30.0
176
     1
 62
     7
420
 16777215
176
     1
 90
        1
176
     1
 90
        4
176
     1
 62
     7
176
     1
 62
   257
176
     1
 90
        1
176
     1
 90
        1
176
     1
 40
1.0
176
     1
 90
        0
176
     1
 62
   257
176
     1
 40
1.0
176
     1
 90
        1
176
     1
 90
        6
176
     1
 90
        2
176
     1
 62
     7
176
     1
 90
        3
176
     1
 90
        0
176
     1
 90
        0
176
     1
290
     0
176
     1
 90
        1
176
     1
 40
0.0
176
     1
 90
        0
176
     1
290
     0
176
     1
290
     1
176
     1
290
     1
176
     1
290
     0
176
     1
290
     0
176
     1
290
     0
176
     1
290
     0
176
     1
290
     0
176
     1
290
     0
176
     1
 90
       50
176
     1
 40
0.0
176
     1
 40
1.0
176
     1
 90
        0
176
     1
 62
    18
420
        0
176
     1
 90
       50
176
     1
 90
        3
176
     1
 62
     5
420
      255
176
     1
290
     0
176
     1
 90
       50
176
     1
 90
       50
176
     1
 90
       50
176
     1
290
     0
176
     1
 90
       50
176
     1
 62
   256
176
     0
 40
1.0
176
     0
 90
        2
176
     1
  1
strokes_ogs.tif
176
     1
290
     0
176
     1
 40
1.0
176
     1
 40
1.0
176
     1
  0
VISUALSTYLE
  5
3C
102
{ACAD_REACTORS
330
29
102
}
330
29
100
AcDbVisualStyle
  2
X-Ray
 70
    25
177
     3
291
     0
 70
    58
 90
        2
176
     1
 90
        2
176
     1
 90
        1
176
     1
 90
        1
176
     1
 40
0.5
176
     1
 40
30.0
176
     1
 62
     7
420
 16777215
176
     1
 90
        1
176
     1
 90
        0
176
     1
 62
     7
176
     1
 62
   257
176
     1
 90
        1
176
     1
 90
        1
176
     1
 40
1.0
176
     1
 90
        8
176
     1
 62
     7
176
     1
 40
1.0
176
     1
 90
        1
176
     1
 90
        6
176
     1
 90
        2
176
     1
 62
     7
176
     1
 90
        3
176
     1
 90
        0
176
     1
 90
        0
176
     1
290
     0
176
     1
 90
       13
176
     1
 40
0.0
176
     1
 90
        0
176
     1
290
     0
176
     1
290
     1
176
     1
290
     1
176
     1
290
     0
176
     1
290
     0
176
     1
290
     0
176
     1
290
     0
176
     1
290
     0
176
     1
290
     0
176
     1
 90
       50
176
     1
 40
0.0
176
     1
 40
1.0
176
     1
 90
        0
176
     1
 62
    18
420
        0
176
     1
 90
       50
176
     1
 90
        3
176
     1
 62
     5
420
      255
176
     1
290
     0
176
     1
 90
       50
176
     1
 90
       50
176
     1
 90
       50
176
     1
290
     0
176
     1
 90
       50
176
     1
 62
   256
176
     0
 40
1.0
176
     0
 90
        2
176
     1
  1
strokes_ogs.tif
176
     1
290
     0
176
     1
 40
1.0
176
     1
 40
1.0
176
     1
  0
DICTIONARYVAR
  5
153
102
{ACAD_REACTORS
330
14E
102
}
330
14E
100
DictionaryVariables
280
     0
  1
1:1
  0
DICTIONARYVAR
  5
150
102
{ACAD_REACTORS
330
14E
102
}
330
14E
100
DictionaryVariables
280
     0
  1
STANDARD
  0
DICTIONARYVAR
  5
14F
102
{ACAD_REACTORS
330
14E
102
}
330
14E
100
DictionaryVariables
280
     0
  1
STANDARD
  0
DICTIONARYVAR
  5
151
102
{ACAD_REACTORS
330
14E
102
}
330
14E
100
DictionaryVariables
280
     0
  1
Imperial24
  0
DICTIONARYVAR
  5
152
102
{ACAD_REACTORS
330
14E
102
}
330
14E
100
DictionaryVariables
280
     0
  1
Imperial24
  0
DICTIONARY
  5
1A
330
19
100
AcDbDictionary
280
     1
281
     1
  3
BUMPTILE
360
1C
  3
DIFFUSETILE
360
1B
  3
OPACITYTILE
360
1F
  3
REFLECTIONTILE
360
1E
  3
REFRACTIONTILE
360
20
  3
SPECULARTILE
360
1D
  0
DICTIONARY
  5
12
330
11
100
AcDbDictionary
280
     1
281
     1
  3
BUMPTILE
360
14
  3
DIFFUSETILE
360
13
  3
OPACITYTILE
360
17
  3
REFLECTIONTILE
360
16
  3
REFRACTIONTILE
360
18
  3
SPECULARTILE
360
15
  0
DICTIONARY
  5
22
330
21
100
AcDbDictionary
280
     1
281
     1
  3
BUMPTILE
360
24
  3
DIFFUSETILE
360
23
  3
OPACITYTILE
360
27
  3
REFLECTIONTILE
360
26
  3
REFRACTIONTILE
360
28
  3
SPECULARTILE
360
25
  0
DICTIONARY
  5
154
330
65
100
AcDbDictionary
280
     1
281
     1
  3
ACAD_ROUNDTRIP_2008_TABLESTYLE_CELLSTYLEMAP
360
155
  0
XRECORD
  5
1C
102
{ACAD_REACTORS
330
1A
102
}
330
1A
100
AcDbXrecord
280
     1
270
     1
271
     1
  0
XRECORD
  5
1B
102
{ACAD_REACTORS
330
1A
102
}
330
1A
100
AcDbXrecord
280
     1
270
     1
271
     1
  0
XRECORD
  5
1F
102
{ACAD_REACTORS
330
1A
102
}
330
1A
100
AcDbXrecord
280
     1
270
     1
271
     1
  0
XRECORD
  5
1E
102
{ACAD_REACTORS
330
1A
102
}
330
1A
100
AcDbXrecord
280
     1
270
     1
271
     1
  0
XRECORD
  5
20
102
{ACAD_REACTORS
330
1A
102
}
330
1A
100
AcDbXrecord
280
     1
270
     1
271
     1
  0
XRECORD
  5
1D
102
{ACAD_REACTORS
330
1A
102
}
330
1A
100
AcDbXrecord
280
     1
270
     1
271
     1
  0
XRECORD
  5
14
102
{ACAD_REACTORS
330
12
102
}
330
12
100
AcDbXrecord
280
     1
270
     1
271
     1
  0
XRECORD
  5
13
102
{ACAD_REACTORS
330
12
102
}
330
12
100
AcDbXrecord
280
     1
270
     1
271
     1
  0
XRECORD
  5
17
102
{ACAD_REACTORS
330
12
102
}
330
12
100
AcDbXrecord
280
     1
270
     1
271
     1
  0
XRECORD
  5
16
102
{ACAD_REACTORS
330
12
102
}
330
12
100
AcDbXrecord
280
     1
270
     1
271
     1
  0
XRECORD
  5
18
102
{ACAD_REACTORS
330
12
102
}
330
12
100
AcDbXrecord
280
     1
270
     1
271
     1
  0
XRECORD
  5
15
102
{ACAD_REACTORS
330
12
102
}
330
12
100
AcDbXrecord
280
     1
270
     1
271
     1
  0
XRECORD
  5
24
102
{ACAD_REACTORS
330
22
102
}
330
22
100
AcDbXrecord
280
     1
270
     1
271
     1
  0
XRECORD
  5
23
102
{ACAD_REACTORS
330
22
102
}
330
22
100
AcDbXrecord
280
     1
270
     1
271
     1
  0
XRECORD
  5
27
102
{ACAD_REACTORS
330
22
102
}
330
22
100
AcDbXrecord
280
     1
270
     1
271
     1
  0
XRECORD
  5
26
102
{ACAD_REACTORS
330
22
102
}
330
22
100
AcDbXrecord
280
     1
270
     1
271
     1
  0
XRECORD
  5
28
102
{ACAD_REACTORS
330
22
102
}
330
22
100
AcDbXrecord
280
     1
270
     1
271
     1
  0
XRECORD
  5
25
102
{ACAD_REACTORS
330
22
102
}
330
22
100
AcDbXrecord
280
     1
270
     1
271
     1
  0
CELLSTYLEMAP
  5
155
102
{ACAD_REACTORS
330
154
102
}
330
154
100
AcDbCellStyleMap
 90
        3
300
CELLSTYLE
  1
TABLEFORMAT_BEGIN
 90
        5
170
     1
 91
        0
 92
    32768
 62
   257
 93
        1
300
CONTENTFORMAT
  1
CONTENTFORMAT_BEGIN
 90
        0
 91
        0
 92
      512
 93
        0
300

 40
0.0
140
1.0
 94
        5
 62
     0
340
55
144
0.25
309
CONTENTFORMAT_END
171
     0
 94
        0
309
TABLEFORMAT_END
  1
CELLSTYLE_BEGIN
 90
        1
 91
        1
300
_TITLE
309
CELLSTYLE_END
300
CELLSTYLE
  1
TABLEFORMAT_BEGIN
 90
        5
170
     1
 91
        0
 92
        0
 62
   257
 93
        1
300
CONTENTFORMAT
  1
CONTENTFORMAT_BEGIN
 90
        0
 91
        0
 92
      512
 93
        0
300

 40
0.0
140
1.0
 94
        5
 62
     0
340
55
144
0.18
309
CONTENTFORMAT_END
171
     0
 94
        0
309
TABLEFORMAT_END
  1
CELLSTYLE_BEGIN
 90
        2
 91
        1
300
_HEADER
309
CELLSTYLE_END
300
CELLSTYLE
  1
TABLEFORMAT_BEGIN
 90
        5
170
     1
 91
        0
 92
        0
 62
   257
 93
        1
300
CONTENTFORMAT
  1
CONTENTFORMAT_BEGIN
 90
        0
 91
        0
 92
      512
 93
        0
300

 40
0.0
140
1.0
 94
        2
 62
     0
340
55
144
0.18
309
CONTENTFORMAT_END
171
     0
 94
        0
309
TABLEFORMAT_END
  1
CELLSTYLE_BEGIN
 90
        3
 91
        2
300
_DATA
309
CELLSTYLE_END
  0
ENDSEC
  0
EOF
