  0
SECTION
  2
HEADER
  9
$ACADVER
  1
AC1032
  9
$ACADMAINTVER
 90
      329
  9
$DWGCODEPAGE
  3
ANSI_1252
  9
$REQUIREDVERSIONS
160
                 0
  9
$INSBASE
 10
0.0
 20
0.0
 30
0.0
  9
$EXTMIN
 10
1.000000000000000E+20
 20
1.000000000000000E+20
 30
1.000000000000000E+20
  9
$EXTMAX
 10
-1.000000000000000E+20
 20
-1.000000000000000E+20
 30
-1.000000000000000E+20
  9
$LIMMIN
 10
0.0
 20
0.0
  9
$LIMMAX
 10
12.0
 20
9.0
  9
$ORTHOMODE
 70
     0
  9
$REGENMODE
 70
     1
  9
$FILLMODE
 70
     1
  9
$QTEXTMODE
 70
     0
  9
$MIRRTEXT
 70
     0
  9
$LTSCALE
 40
1.0
  9
$ATTMODE
 70
     1
  9
$TEXTSIZE
 40
0.2
  9
$TRACEWID
 40
0.05
  9
$TEXTSTYLE
  7
Standard
  9
$CLAYER
  8
0
  9
$CELTYPE
  6
ByLayer
  9
$CECOLOR
 62
   256
  9
$CELTSCALE
 40
1.0
  9
$DISPSILH
 70
     0
  9
$DIMSCALE
 40
1.0
  9
$DIMASZ
 40
0.18
  9
$DIMEXO
 40
0.0625
  9
$DIMDLI
 40
0.38
  9
$DIMRND
 40
0.0
  9
$DIMDLE
 40
0.0
  9
$DIMEXE
 40
0.18
  9
$DIMTP
 40
0.0
  9
$DIMTM
 40
0.0
  9
$DIMTXT
 40
0.18
  9
$DIMCEN
 40
0.09
  9
$DIMTSZ
 40
0.0
  9
$DIMTOL
 70
     0
  9
$DIMLIM
 70
     0
  9
$DIMTIH
 70
     1
  9
$DIMTOH
 70
     1
  9
$DIMSE1
 70
     0
  9
$DIMSE2
 70
     0
  9
$DIMTAD
 70
     0
  9
$DIMZIN
 70
     0
  9
$DIMBLK
  1

  9
$DIMASO
 70
     1
  9
$DIMSHO
 70
     1
  9
$DIMPOST
  1

  9
$DIMAPOST
  1

  9
$DIMALT
 70
     0
  9
$DIMALTD
 70
     2
  9
$DIMALTF
 40
25.4
  9
$DIMLFAC
 40
1.0
  9
$DIMTOFL
 70
     0
  9
$DIMTVP
 40
0.0
  9
$DIMTIX
 70
     0
  9
$DIMSOXD
 70
     0
  9
$DIMSAH
 70
     0
  9
$DIMBLK1
  1

  9
$DIMBLK2
  1

  9
$DIMSTYLE
  2
Standard
  9
$DIMCLRD
 70
     0
  9
$DIMCLRE
 70
     0
  9
$DIMCLRT
 70
     0
  9
$DIMTFAC
 40
1.0
  9
$DIMGAP
 40
0.09
  9
$DIMJUST
 70
     0
  9
$DIMSD1
 70
     0
  9
$DIMSD2
 70
     0
  9
$DIMTOLJ
 70
     1
  9
$DIMTZIN
 70
     0
  9
$DIMALTZ
 70
     0
  9
$DIMALTTZ
 70
     0
  9
$DIMUPT
 70
     0
  9
$DIMDEC
 70
     4
  9
$DIMTDEC
 70
     4
  9
$DIMALTU
 70
     2
  9
$DIMALTTD
 70
     2
  9
$DIMTXSTY
  7
Standard
  9
$DIMAUNIT
 70
     0
  9
$DIMADEC
 70
     0
  9
$DIMALTRND
 40
0.0
  9
$DIMAZIN
 70
     0
  9
$DIMDSEP
 70
    46
  9
$DIMATFIT
 70
     3
  9
$DIMFRAC
 70
     0
  9
$DIMLDRBLK
  1

  9
$DIMLUNIT
 70
     2
  9
$DIMLWD
 70
    -2
  9
$DIMLWE
 70
    -2
  9
$DIMTMOVE
 70
     0
  9
$DIMFXL
 40
1.0
  9
$DIMFXLON
 70
     0
  9
$DIMJOGANG
 40
0.7853981633974483
  9
$DIMTFILL
 70
     0
  9
$DIMTFILLCLR
 70
     0
  9
$DIMARCSYM
 70
     0
  9
$DIMLTYPE
  6

  9
$DIMLTEX1
  6

  9
$DIMLTEX2
  6

  9
$DIMTXTDIRECTION
 70
     0
  9
$LUNITS
 70
     2
  9
$LUPREC
 70
     4
  9
$SKETCHINC
 40
0.1
  9
$FILLETRAD
 40
0.0
  9
$AUNITS
 70
     0
  9
$AUPREC
 70
     0
  9
$MENU
  1
.
  9
$ELEVATION
 40
0.0
  9
$PELEVATION
 40
0.0
  9
$THICKNESS
 40
0.0
  9
$LIMCHECK
 70
     0
  9
$CHAMFERA
 40
0.0
  9
$CHAMFERB
 40
0.0
  9
$CHAMFERC
 40
0.0
  9
$CHAMFERD
 40
0.0
  9
$SKPOLY
 70
     0
  9
$TDCREATE
 40
2461048.663009259
  9
$TDUCREATE
 40
2461048.621342593
  9
$TDUPDATE
 40
2461048.663009259
  9
$TDUUPDATE
 40
2461048.621342593
  9
$TDINDWG
 40
0.0000000000
  9
$TDUSRTIMER
 40
0.0000000000
  9
$USRTIMER
 70
     1
  9
$ANGBASE
 50
0.0
  9
$ANGDIR
 70
     0
  9
$PDMODE
 70
     0
  9
$PDSIZE
 40
0.0
  9
$PLINEWID
 40
0.0
  9
$SPLFRAME
 70
     0
  9
$SPLINETYPE
 70
     6
  9
$SPLINESEGS
 70
     8
  9
$HANDSEED
  5
147
  9
$SURFTAB1
 70
     6
  9
$SURFTAB2
 70
     6
  9
$SURFTYPE
 70
     6
  9
$SURFU
 70
     6
  9
$SURFV
 70
     6
  9
$UCSBASE
  2

  9
$UCSNAME
  2

  9
$UCSORG
 10
0.0
 20
0.0
 30
0.0
  9
$UCSXDIR
 10
1.0
 20
0.0
 30
0.0
  9
$UCSYDIR
 10
0.0
 20
1.0
 30
0.0
  9
$UCSORTHOREF
  2

  9
$UCSORTHOVIEW
 70
     0
  9
$UCSORGTOP
 10
0.0
 20
0.0
 30
0.0
  9
$UCSORGBOTTOM
 10
0.0
 20
0.0
 30
0.0
  9
$UCSORGLEFT
 10
0.0
 20
0.0
 30
0.0
  9
$UCSORGRIGHT
 10
0.0
 20
0.0
 30
0.0
  9
$UCSORGFRONT
 10
0.0
 20
0.0
 30
0.0
  9
$UCSORGBACK
 10
0.0
 20
0.0
 30
0.0
  9
$PUCSBASE
  2

  9
$PUCSNAME
  2

  9
$PUCSORG
 10
0.0
 20
0.0
 30
0.0
  9
$PUCSXDIR
 10
1.0
 20
0.0
 30
0.0
  9
$PUCSYDIR
 10
0.0
 20
1.0
 30
0.0
  9
$PUCSORTHOREF
  2

  9
$PUCSORTHOVIEW
 70
     0
  9
$PUCSORGTOP
 10
0.0
 20
0.0
 30
0.0
  9
$PUCSORGBOTTOM
 10
0.0
 20
0.0
 30
0.0
  9
$PUCSORGLEFT
 10
0.0
 20
0.0
 30
0.0
  9
$PUCSORGRIGHT
 10
0.0
 20
0.0
 30
0.0
  9
$PUCSORGFRONT
 10
0.0
 20
0.0
 30
0.0
  9
$PUCSORGBACK
 10
0.0
 20
0.0
 30
0.0
  9
$USERI1
 70
     0
  9
$USERI2
 70
     0
  9
$USERI3
 70
     0
  9
$USERI4
 70
     0
  9
$USERI5
 70
     0
  9
$USERR1
 40
0.0
  9
$USERR2
 40
0.0
  9
$USERR3
 40
0.0
  9
$USERR4
 40
0.0
  9
$USERR5
 40
0.0
  9
$WORLDVIEW
 70
     1
  9
$SHADEDGE
 70
     3
  9
$SHADEDIF
 70
    70
  9
$TILEMODE
 70
     1
  9
$MAXACTVP
 70
    64
  9
$PINSBASE
 10
0.0
 20
0.0
 30
0.0
  9
$PLIMCHECK
 70
     0
  9
$PEXTMIN
 10
1.000000000000000E+20
 20
1.000000000000000E+20
 30
1.000000000000000E+20
  9
$PEXTMAX
 10
-1.000000000000000E+20
 20
-1.000000000000000E+20
 30
-1.000000000000000E+20
  9
$PLIMMIN
 10
0.0
 20
0.0
  9
$PLIMMAX
 10
12.0
 20
9.0
  9
$UNITMODE
 70
     0
  9
$VISRETAIN
 70
     1
  9
$PLINEGEN
 70
     0
  9
$PSLTSCALE
 70
     1
  9
$TREEDEPTH
 70
  3020
  9
$CMLSTYLE
  2
Standard
  9
$CMLJUST
 70
     0
  9
$CMLSCALE
 40
1.0
  9
$PROXYGRAPHICS
 70
     1
  9
$MEASUREMENT
 70
     0
  9
$CELWEIGHT
370
    -1
  9
$ENDCAPS
280
     0
  9
$JOINSTYLE
280
     0
  9
$LWDISPLAY
290
     1
  9
$INSUNITS
 70
     4
  9
$HYPERLINKBASE
  1

  9
$STYLESHEET
  1

  9
$XEDIT
290
     1
  9
$CEPSNTYPE
380
     0
  9
$PSTYLEMODE
290
     1
  9
$FINGERPRINTGUID
  2
{FD142040-C6F0-CD46-8330-579B264A8FCA}
  9
$VERSIONGUID
  2
{FAC66870-87C5-D943-B5E5-C02746F19EDC}
  9
$EXTNAMES
290
     1
  9
$PSVPSCALE
 40
0.0
  9
$OLESTARTUP
290
     0
  9
$SORTENTS
280
   127
  9
$INDEXCTL
280
     0
  9
$HIDETEXT
280
     1
  9
$XCLIPFRAME
280
     2
  9
$HALOGAP
280
     0
  9
$OBSCOLOR
 70
   257
  9
$OBSLTYPE
280
     0
  9
$INTERSECTIONDISPLAY
280
     0
  9
$INTERSECTIONCOLOR
 70
   257
  9
$DIMASSOC
280
     2
  9
$PROJECTNAME
  1

  9
$CAMERADISPLAY
290
     0
  9
$LENSLENGTH
 40
50.0
  9
$CAMERAHEIGHT
 40
0.0
  9
$STEPSPERSEC
 40
2.0
  9
$STEPSIZE
 40
6.0
  9
$3DDWFPREC
 40
2.0
  9
$PSOLWIDTH
 40
0.25
  9
$PSOLHEIGHT
 40
4.0
  9
$LOFTANG1
 40
1.570796326794896
  9
$LOFTANG2
 40
1.570796326794896
  9
$LOFTMAG1
 40
0.0
  9
$LOFTMAG2
 40
0.0
  9
$LOFTPARAM
 70
     7
  9
$LOFTNORMALS
280
     1
  9
$LATITUDE
 40
37.795
  9
$LONGITUDE
 40
-122.394
  9
$NORTHDIRECTION
 40
0.0
  9
$TIMEZONE
 70
 -8000
  9
$LIGHTGLYPHDISPLAY
280
     1
  9
$TILEMODELIGHTSYNCH
280
     1
  9
$CMATERIAL
347
11
  9
$SOLIDHIST
280
     0
  9
$SHOWHIST
280
     1
  9
$DWFFRAME
280
     2
  9
$DGNFRAME
280
     0
  9
$REALWORLDSCALE
290
     1
  9
$INTERFERECOLOR
 62
     1
  9
$INTERFEREOBJVS
345
33
  9
$INTERFEREVPVS
346
30
  9
$CSHADOW
280
     0
  9
$SHADOWPLANELOCATION
 40
0.0
  0
ENDSEC
  0
SECTION
  2
CLASSES
  0
CLASS
  1
ACDBDICTIONARYWDFLT
  2
AcDbDictionaryWithDefault
  3
ObjectDBX Classes
 90
        0
 91
        1
280
     0
281
     0
  0
CLASS
  1
MATERIAL
  2
AcDbMaterial
  3
ObjectDBX Classes
 90
     1153
 91
        3
280
     0
281
     0
  0
CLASS
  1
VISUALSTYLE
  2
AcDbVisualStyle
  3
ObjectDBX Classes
 90
     4095
 91
       24
280
     0
281
     0
  0
CLASS
  1
SCALE
  2
AcDbScale
  3
ObjectDBX Classes
 90
     1153
 91
       17
280
     0
281
     0
  0
CLASS
  1
TABLESTYLE
  2
AcDbTableStyle
  3
ObjectDBX Classes
 90
     4095
 91
        1
280
     0
281
     0
  0
CLASS
  1
MLEADERSTYLE
  2
AcDbMLeaderStyle
  3
ACDB_MLEADERSTYLE_CLASS
 90
     4095
 91
        1
280
     0
281
     0
  0
CLASS
  1
ACDBSECTIONVIEWSTYLE
  2
AcDbSectionViewStyle
  3
ObjectDBX Classes
 90
     1025
 91
        1
280
     0
281
     0
  0
CLASS
  1
ACDBDETAILVIEWSTYLE
  2
AcDbDetailViewStyle
  3
ObjectDBX Classes
 90
     1025
 91
        1
280
     0
281
     0
  0
CLASS
  1
DICTIONARYVAR
  2
AcDbDictionaryVar
  3
ObjectDBX Classes
 90
        0
 91
        5
280
     0
281
     0
  0
CLASS
  1
CELLSTYLEMAP
  2
AcDbCellStyleMap
  3
ObjectDBX Classes
 90
     1152
 91
        1
280
     0
281
     0
  0
ENDSEC
  0
SECTION
  2
TABLES
  0
TABLE
  2
VPORT
  5
8
330
0
100
AcDbSymbolTable
 70
     1
  0
VPORT
  5
57
330
8
100
AcDbSymbolTableRecord
100
AcDbViewportTableRecord
  2
*Active
 70
     0
 10
0.0
 20
0.0
 11
1.0
 21
1.0
 12
0.0
 22
0.0
 13
0.0
 23
0.0
 14
1.0
 24
1.0
 15
0.0
 25
0.0
 16
0.0
 26
0.0
 36
1.0
 17
167.2279637683358
 27
114.1927697079645
 37
0.0
 40
611.9999998469997
 41
1.666666666666668
 42
50.0
 43
0.0
 44
0.0
 50
0.0
 51
0.0
 71
     0
 72
   100
 73
     1
 74
     1
 75
     0
 76
     0
 77
     0
 78
     0
281
     0
 65
     1
110
0.0
120
0.0
130
0.0
111
1.0
121
0.0
131
0.0
112
0.0
122
1.0
132
0.0
 79
     0
146
0.0
 60
     3
 61
     5
292
     1
282
     1
141
0.0
142
0.0
 63
   250
421
  3355443
  0
ENDTAB
  0
TABLE
  2
LTYPE
  5
5
330
0
100
AcDbSymbolTable
 70
     1
  0
LTYPE
  5
5B
330
5
100
AcDbSymbolTableRecord
100
AcDbLinetypeTableRecord
  2
ByBlock
 70
     0
  3

 72
    65
 73
     0
 40
0.0
  0
LTYPE
  5
5C
330
5
100
AcDbSymbolTableRecord
100
AcDbLinetypeTableRecord
  2
ByLayer
 70
     0
  3

 72
    65
 73
     0
 40
0.0
  0
LTYPE
  5
5D
330
5
100
AcDbSymbolTableRecord
100
AcDbLinetypeTableRecord
  2
Continuous
 70
     0
  3
Solid line
 72
    65
 73
     0
 40
0.0
  0
ENDTAB
  0
TABLE
  2
LAYER
  5
2
330
0
100
AcDbSymbolTable
 70
     1
  0
LAYER
  5
54
330
2
100
AcDbSymbolTableRecord
100
AcDbLayerTableRecord
  2
0
 70
     0
 62
     7
  6
Continuous
370
     0
390
F
347
21
348
0
  0
ENDTAB
  0
TABLE
  2
STYLE
  5
3
330
0
100
AcDbSymbolTable
 70
     2
  0
STYLE
  5
55
330
3
100
AcDbSymbolTableRecord
100
AcDbTextStyleTableRecord
  2
Standard
 70
     0
 40
0.0
 41
1.0
 50
0.0
 71
     0
 42
0.2
  3
txt
  4

  0
STYLE
  5
5A
330
3
100
AcDbSymbolTableRecord
100
AcDbTextStyleTableRecord
  2
Annotative
 70
     0
 40
0.0
 41
1.0
 50
0.0
 71
     0
 42
0.2
  3
txt
  4

1001
AcadAnnotative
1000
AnnotativeData
1002
{
1070
     1
1070
     1
1002
}
  0
ENDTAB
  0
TABLE
  2
VIEW
  5
6
330
0
100
AcDbSymbolTable
 70
     0
  0
ENDTAB
  0
TABLE
  2
UCS
  5
7
330
0
100
AcDbSymbolTable
 70
     0
  0
ENDTAB
  0
TABLE
  2
APPID
  5
9
330
0
100
AcDbSymbolTable
 70
     2
  0
APPID
  5
56
330
9
100
AcDbSymbolTableRecord
100
AcDbRegAppTableRecord
  2
ACAD
 70
     0
  0
APPID
  5
5E
330
9
100
AcDbSymbolTableRecord
100
AcDbRegAppTableRecord
  2
AcadAnnotative
 70
     0
  0
ENDTAB
  0
TABLE
  2
DIMSTYLE
  5
A
330
0
100
AcDbSymbolTable
 70
     2
100
AcDbDimStyleTable
 71
     0
  0
DIMSTYLE
105
58
330
A
100
AcDbSymbolTableRecord
100
AcDbDimStyleTableRecord
  2
Standard
 70
     0
340
55
  0
DIMSTYLE
105
59
330
A
100
AcDbSymbolTableRecord
100
AcDbDimStyleTableRecord
  2
Annotative
 70
     0
340
55
1001
AcadAnnotative
1000
AnnotativeData
1002
{
1070
     1
1070
     1
1002
}
  0
ENDTAB
  0
TABLE
  2
BLOCK_RECORD
  5
1
330
0
100
AcDbSymbolTable
 70
     6
  0
BLOCK_RECORD
  5
70
330
1
100
AcDbSymbolTableRecord
100
AcDbBlockTableRecord
  2
*Model_Space
340
73
 70
     0
280
     1
281
     0
  0
BLOCK_RECORD
  5
6C
330
1
100
AcDbSymbolTableRecord
100
AcDbBlockTableRecord
  2
*Paper_Space
340
6F
 70
     0
280
     1
281
     0
  0
BLOCK_RECORD
  5
74
330
1
100
AcDbSymbolTableRecord
100
AcDbBlockTableRecord
  2
*Paper_Space0
340
77
 70
     0
280
     1
281
     0
  0
BLOCK_RECORD
  5
78
330
1
100
AcDbSymbolTableRecord
100
AcDbBlockTableRecord
  2
Block_0
340
0
102
{BLKREFS
331
79
102
}
 70
     0
280
     1
281
     0
  0
BLOCK_RECORD
  5
AD
330
1
100
AcDbSymbolTableRecord
100
AcDbBlockTableRecord
  2
Block_1
340
0
102
{BLKREFS
331
AE
102
}
 70
     0
280
     1
281
     0
  0
BLOCK_RECORD
  5
E2
330
1
100
AcDbSymbolTableRecord
100
AcDbBlockTableRecord
  2
Block_2
340
0
102
{BLKREFS
331
E3
102
}
 70
     0
280
     1
281
     0
  0
BLOCK_RECORD
  5
F0
330
1
100
AcDbSymbolTableRecord
100
AcDbBlockTableRecord
  2
Block_3
340
0
102
{BLKREFS
331
F1
102
}
 70
     0
280
     1
281
     0
  0
BLOCK_RECORD
  5
FE
330
1
100
AcDbSymbolTableRecord
100
AcDbBlockTableRecord
  2
Block_4
340
0
102
{BLKREFS
331
FF
102
}
 70
     0
280
     1
281
     0
  0
ENDTAB
  0
ENDSEC
  0
SECTION
  2
BLOCKS
  0
BLOCK
  5
71
330
70
100
AcDbEntity
  8
0
100
AcDbBlockBegin
  2
*Model_Space
 70
     0
 10
0.0
 20
0.0
 30
0.0
  3
*Model_Space
  1

  0
ENDBLK
  5
72
330
70
100
AcDbEntity
  8
0
100
AcDbBlockEnd
  0
BLOCK
  5
6D
330
6C
100
AcDbEntity
 67
     1
  8
0
100
AcDbBlockBegin
  2
*Paper_Space
 70
     0
 10
0.0
 20
0.0
 30
0.0
  3
*Paper_Space
  1

  0
ENDBLK
  5
6E
330
6C
100
AcDbEntity
 67
     1
  8
0
100
AcDbBlockEnd
  0
BLOCK
  5
75
330
74
100
AcDbEntity
 67
     1
  8
0
100
AcDbBlockBegin
  2
*Paper_Space0
 70
     0
 10
0.0
 20
0.0
 30
0.0
  3
*Paper_Space0
  1

  0
ENDBLK
  5
76
330
74
100
AcDbEntity
 67
     1
  8
0
100
AcDbBlockEnd
  0
BLOCK
  5
7A
330
78
100
AcDbEntity
  8
0
100
AcDbBlockBegin
  2
Block_0
 70
     0
 10
0.0
 20
0.0
 30
0.0
  3
Block_0
  1

  0
SPLINE
  5
7C
330
78
100
AcDbEntity
  8
0
 62
     1
420
 16711680
370
    25
100
AcDbSpline
210
0.0
220
0.0
230
1.0
 70
     9
 71
     3
 72
    20
 73
    16
 74
     0
 42
0.0000000001
 43
0.0000000001
 40
0.0
 40
0.0
 40
0.0
 40
0.0
 40
1.0
 40
1.0
 40
1.0
 40
2.0
 40
2.0
 40
2.0
 40
3.0
 40
3.0
 40
3.0
 40
4.0
 40
4.0
 40
4.0
 40
5.0
 40
5.0
 40
5.0
 40
5.0
 10
-187.6963605203402
 20
373.3106979162938
 30
0.0
 10
-187.6963605203402
 20
372.1232857041599
 30
0.0
 10
-188.6589483082041
 20
371.1606979162938
 30
0.0
 10
-189.8463605203408
 20
371.1606979162938
 30
0.0
 10
-191.0337727324762
 20
371.1606979162938
 30
0.0
 10
-191.99636052034
 20
372.1232857041599
 30
0.0
 10
-191.99636052034
 20
373.3106979162938
 30
0.0
 10
-191.99636052034
 20
374.4981101284311
 30
0.0
 10
-191.0337727324762
 20
375.4606979162937
 30
0.0
 10
-189.8463605203408
 20
375.4606979162937
 30
0.0
 10
-188.6589483082041
 20
375.4606979162937
 30
0.0
 10
-187.6963605203402
 20
374.4981101284311
 30
0.0
 10
-187.6963605203402
 20
373.3106979162938
 30
0.0
 10
-187.6963605203402
 20
373.3106979162938
 30
0.0
 10
-187.6963605203402
 20
373.3106979162938
 30
0.0
 10
-187.6963605203402
 20
373.3106979162938
 30
0.0
  0
SPLINE
  5
7D
330
78
100
AcDbEntity
  8
0
 62
     1
420
 16711680
370
    25
100
AcDbSpline
210
0.0
220
0.0
230
1.0
 70
     9
 71
     3
 72
    20
 73
    16
 74
     0
 42
0.0000000001
 43
0.0000000001
 40
0.0
 40
0.0
 40
0.0
 40
0.0
 40
1.0
 40
1.0
 40
1.0
 40
2.0
 40
2.0
 40
2.0
 40
3.0
 40
3.0
 40
3.0
 40
4.0
 40
4.0
 40
4.0
 40
5.0
 40
5.0
 40
5.0
 40
5.0
 10
-290.9041667038408
 20
55.8106979162941
 30
0.0
 10
-290.9041667038408
 20
54.01577247934429
 30
0.0
 10
-292.3592412668899
 20
52.5606979162951
 30
0.0
 10
-294.1541667038397
 20
52.5606979162951
 30
0.0
 10
-295.9490921407908
 20
52.5606979162951
 30
0.0
 10
-297.40416670384
 20
54.01577247934429
 30
0.0
 10
-297.40416670384
 20
55.8106979162941
 30
0.0
 10
-297.40416670384
 20
57.60562335324518
 30
0.0
 10
-295.9490921407908
 20
59.06069791629437
 30
0.0
 10
-294.1541667038397
 20
59.06069791629437
 30
0.0
 10
-292.3592412668899
 20
59.06069791629437
 30
0.0
 10
-290.9041667038408
 20
57.60562335324518
 30
0.0
 10
-290.9041667038408
 20
55.8106979162941
 30
0.0
 10
-290.9041667038408
 20
55.8106979162941
 30
0.0
 10
-290.9041667038408
 20
55.8106979162941
 30
0.0
 10
-290.9041667038408
 20
55.8106979162941
 30
0.0
  0
SPLINE
  5
7E
330
78
100
AcDbEntity
  8
0
 62
     1
420
 16711680
370
    25
100
AcDbSpline
210
0.0
220
0.0
230
1.0
 70
     9
 71
     3
 72
    20
 73
    16
 74
     0
 42
0.0000000001
 43
0.0000000001
 40
0.0
 40
0.0
 40
0.0
 40
0.0
 40
1.0
 40
1.0
 40
1.0
 40
2.0
 40
2.0
 40
2.0
 40
3.0
 40
3.0
 40
3.0
 40
4.0
 40
4.0
 40
4.0
 40
5.0
 40
5.0
 40
5.0
 40
5.0
 10
-292.0041667038408
 20
278.5606979162951
 30
0.0
 10
-292.0041667038408
 20
277.3732857041583
 30
0.0
 10
-292.9667544917043
 20
276.4106979162945
 30
0.0
 10
-294.1541667038397
 20
276.4106979162945
 30
0.0
 10
-295.3415789159764
 20
276.4106979162945
 30
0.0
 10
-296.3041667038403
 20
277.3732857041583
 30
0.0
 10
-296.3041667038403
 20
278.5606979162951
 30
0.0
 10
-296.3041667038403
 20
279.7481101284308
 30
0.0
 10
-295.3415789159764
 20
280.7106979162956
 30
0.0
 10
-294.1541667038397
 20
280.7106979162956
 30
0.0
 10
-292.9667544917043
 20
280.7106979162956
 30
0.0
 10
-292.0041667038408
 20
279.7481101284308
 30
0.0
 10
-292.0041667038408
 20
278.5606979162951
 30
0.0
 10
-292.0041667038408
 20
278.5606979162951
 30
0.0
 10
-292.0041667038408
 20
278.5606979162951
 30
0.0
 10
-292.0041667038408
 20
278.5606979162951
 30
0.0
  0
SPLINE
  5
7F
330
78
100
AcDbEntity
  8
0
 62
     1
420
 16711680
370
    25
100
AcDbSpline
210
0.0
220
0.0
230
1.0
 70
     9
 71
     3
 72
    20
 73
    16
 74
     0
 42
0.0000000001
 43
0.0000000001
 40
0.0
 40
0.0
 40
0.0
 40
0.0
 40
1.0
 40
1.0
 40
1.0
 40
2.0
 40
2.0
 40
2.0
 40
3.0
 40
3.0
 40
3.0
 40
4.0
 40
4.0
 40
4.0
 40
5.0
 40
5.0
 40
5.0
 40
5.0
 10
-292.0041667038408
 20
373.3106979162938
 30
0.0
 10
-292.0041667038408
 20
372.1232857041599
 30
0.0
 10
-292.9667544917043
 20
371.1606979162938
 30
0.0
 10
-294.1541667038397
 20
371.1606979162938
 30
0.0
 10
-295.3415789159764
 20
371.1606979162938
 30
0.0
 10
-296.3041667038403
 20
372.1232857041599
 30
0.0
 10
-296.3041667038403
 20
373.3106979162938
 30
0.0
 10
-296.3041667038403
 20
374.4981101284311
 30
0.0
 10
-295.3415789159764
 20
375.4606979162937
 30
0.0
 10
-294.1541667038397
 20
375.4606979162937
 30
0.0
 10
-292.9667544917043
 20
375.4606979162937
 30
0.0
 10
-292.0041667038408
 20
374.4981101284311
 30
0.0
 10
-292.0041667038408
 20
373.3106979162938
 30
0.0
 10
-292.0041667038408
 20
373.3106979162938
 30
0.0
 10
-292.0041667038408
 20
373.3106979162938
 30
0.0
 10
-292.0041667038408
 20
373.3106979162938
 30
0.0
  0
SPLINE
  5
80
330
78
100
AcDbEntity
  8
0
 62
     1
420
 16711680
370
    25
100
AcDbSpline
210
0.0
220
0.0
230
1.0
 70
     9
 71
     3
 72
    20
 73
    16
 74
     0
 42
0.0000000001
 43
0.0000000001
 40
0.0
 40
0.0
 40
0.0
 40
0.0
 40
1.0
 40
1.0
 40
1.0
 40
2.0
 40
2.0
 40
2.0
 40
3.0
 40
3.0
 40
3.0
 40
4.0
 40
4.0
 40
4.0
 40
5.0
 40
5.0
 40
5.0
 40
5.0
 10
92.99583329615966
 20
373.3106979162938
 30
0.0
 10
92.99583329615966
 20
372.1232857041599
 30
0.0
 10
92.03324550829583
 20
371.1606979162938
 30
0.0
 10
90.84583329615973
 20
371.1606979162938
 30
0.0
 10
89.65842108402368
 20
371.1606979162938
 30
0.0
 10
88.69583329615982
 20
372.1232857041599
 30
0.0
 10
88.69583329615982
 20
373.3106979162938
 30
0.0
 10
88.69583329615982
 20
374.4981101284311
 30
0.0
 10
89.65842108402368
 20
375.4606979162937
 30
0.0
 10
90.84583329615973
 20
375.4606979162937
 30
0.0
 10
92.03324550829583
 20
375.4606979162937
 30
0.0
 10
92.99583329615966
 20
374.4981101284311
 30
0.0
 10
92.99583329615966
 20
373.3106979162938
 30
0.0
 10
92.99583329615966
 20
373.3106979162938
 30
0.0
 10
92.99583329615966
 20
373.3106979162938
 30
0.0
 10
92.99583329615966
 20
373.3106979162938
 30
0.0
  0
LINE
  5
81
330
78
100
AcDbEntity
  8
0
 62
     1
420
 16711680
370
    25
100
AcDbLine
 10
50.84583329615962
 20
388.3106979162936
 30
0.0
 11
-169.8463605203401
 21
388.3106979162936
 31
0.0
  0
LINE
  5
82
330
78
100
AcDbEntity
  8
0
 62
     1
420
 16711680
370
    25
100
AcDbLine
 10
-169.8463605203401
 20
388.3106979162936
 30
0.0
 11
-169.8463605203401
 21
358.3106979162939
 31
0.0
  0
LINE
  5
83
330
78
100
AcDbEntity
  8
0
 62
     1
420
 16711680
370
    25
100
AcDbLine
 10
-169.8463605203401
 20
358.3106979162939
 30
0.0
 11
50.84583329615962
 21
358.3106979162939
 31
0.0
  0
LINE
  5
84
330
78
100
AcDbEntity
  8
0
 62
     1
420
 16711680
370
    25
100
AcDbLine
 10
50.84583329615962
 20
358.3106979162939
 30
0.0
 11
50.84583329615962
 21
388.3106979162936
 31
0.0
  0
LINE
  5
85
330
78
100
AcDbEntity
  8
0
 62
     1
420
 16711680
370
    25
100
AcDbLine
 10
165.8458332961598
 20
345.9356979162948
 30
0.0
 11
165.8458332961598
 21
383.3106979162938
 31
0.0
  0
LINE
  5
86
330
78
100
AcDbEntity
  8
0
 62
     1
420
 16711680
370
    25
100
AcDbLine
 10
165.8458332961598
 20
383.3106979162938
 30
0.0
 11
120.8458332961598
 21
383.3106979162938
 31
0.0
  0
LINE
  5
87
330
78
100
AcDbEntity
  8
0
 62
     1
420
 16711680
370
    25
100
AcDbLine
 10
120.8458332961598
 20
383.3106979162938
 30
0.0
 11
120.8458332961598
 21
374.7912749816945
 31
0.0
  0
LINE
  5
88
330
78
100
AcDbEntity
  8
0
 62
     1
420
 16711680
370
    25
100
AcDbLine
 10
120.8458332961598
 20
374.7912749816945
 30
0.0
 11
137.5056084824596
 21
345.9356979162948
 31
0.0
  0
LINE
  5
89
330
78
100
AcDbEntity
  8
0
 62
     1
420
 16711680
370
    25
100
AcDbLine
 10
137.5056084824596
 20
345.9356979162948
 30
0.0
 11
165.8458332961598
 21
345.9356979162948
 31
0.0
  0
LINE
  5
8A
330
78
100
AcDbEntity
  8
0
 62
     1
420
 16711680
370
    25
100
AcDbLine
 10
120.2572691904597
 20
295.8106979162945
 30
0.0
 11
-4.154166703840077
 21
295.8106979162945
 31
0.0
  0
LINE
  5
8B
330
78
100
AcDbEntity
  8
0
 62
     1
420
 16711680
370
    25
100
AcDbLine
 10
-4.154166703840077
 20
295.8106979162945
 30
0.0
 11
-4.154166703840077
 21
273.5606979162949
 31
0.0
  0
LINE
  5
8C
330
78
100
AcDbEntity
  8
0
 62
     1
420
 16711680
370
    25
100
AcDbLine
 10
-4.154166703840077
 20
273.5606979162949
 30
0.0
 11
133.1033126799598
 21
273.5606979162949
 31
0.0
  0
LINE
  5
8D
330
78
100
AcDbEntity
  8
0
 62
     1
420
 16711680
370
    25
100
AcDbLine
 10
133.1033126799598
 20
273.5606979162949
 30
0.0
 11
120.2572691904597
 21
295.8106979162945
 31
0.0
  0
LINE
  5
8E
330
78
100
AcDbEntity
  8
0
 62
     1
420
 16711680
370
    25
100
AcDbLine
 10
-189.8463605203408
 20
278.3106979162949
 30
0.0
 11
-79.84636052034044
 21
278.3106979162949
 31
0.0
  0
LINE
  5
8F
330
78
100
AcDbEntity
  8
0
 62
     1
420
 16711680
370
    25
100
AcDbLine
 10
-79.84636052034044
 20
278.3106979162949
 30
0.0
 11
-79.84636052034044
 21
308.3106979162947
 31
0.0
  0
LINE
  5
90
330
78
100
AcDbEntity
  8
0
 62
     1
420
 16711680
370
    25
100
AcDbLine
 10
-79.84636052034044
 20
308.3106979162947
 30
0.0
 11
-189.8463605203408
 21
308.3106979162947
 31
0.0
  0
LINE
  5
91
330
78
100
AcDbEntity
  8
0
 62
     1
420
 16711680
370
    25
100
AcDbLine
 10
-189.8463605203408
 20
308.3106979162947
 30
0.0
 11
-189.8463605203408
 21
278.3106979162949
 31
0.0
  0
LINE
  5
92
330
78
100
AcDbEntity
  8
0
 62
     1
420
 16711680
370
    25
100
AcDbLine
 10
50.84583329615962
 20
348.3106979162948
 30
0.0
 11
-189.8463605203408
 21
348.3106979162948
 31
0.0
  0
LINE
  5
93
330
78
100
AcDbEntity
  8
0
 62
     1
420
 16711680
370
    25
100
AcDbLine
 10
-189.8463605203408
 20
348.3106979162948
 30
0.0
 11
-189.8463605203408
 21
318.310697916295
 31
0.0
  0
LINE
  5
94
330
78
100
AcDbEntity
  8
0
 62
     1
420
 16711680
370
    25
100
AcDbLine
 10
50.84583329615962
 20
318.310697916295
 30
0.0
 11
50.84583329615962
 21
348.3106979162948
 31
0.0
  0
LINE
  5
95
330
78
100
AcDbEntity
  8
0
 62
     1
420
 16711680
370
    25
100
AcDbLine
 10
-209.8463605203402
 20
388.3106979162936
 30
0.0
 11
-274.1541667038403
 21
388.3106979162936
 31
0.0
  0
LINE
  5
96
330
78
100
AcDbEntity
  8
0
 62
     1
420
 16711680
370
    25
100
AcDbLine
 10
-274.1541667038403
 20
388.3106979162936
 30
0.0
 11
-274.1541667038403
 21
358.3106979162939
 31
0.0
  0
LINE
  5
97
330
78
100
AcDbEntity
  8
0
 62
     1
420
 16711680
370
    25
100
AcDbLine
 10
-274.1541667038403
 20
358.3106979162939
 30
0.0
 11
-209.8463605203402
 21
358.3106979162939
 31
0.0
  0
LINE
  5
98
330
78
100
AcDbEntity
  8
0
 62
     1
420
 16711680
370
    25
100
AcDbLine
 10
-209.8463605203402
 20
358.3106979162939
 30
0.0
 11
-209.8463605203402
 21
388.3106979162936
 31
0.0
  0
LINE
  5
99
330
78
100
AcDbEntity
  8
0
 62
     1
420
 16711680
370
    25
100
AcDbLine
 10
-189.8463605203408
 20
318.310697916295
 30
0.0
 11
50.84583329615962
 21
318.310697916295
 31
0.0
  0
LINE
  5
9A
330
78
100
AcDbEntity
  8
0
 62
     1
420
 16711680
370
    25
100
AcDbLine
 10
-295.0963605203408
 20
258.5606979162953
 30
0.0
 11
-174.5963605203401
 21
258.5606979162953
 31
0.0
  0
LINE
  5
9B
330
78
100
AcDbEntity
  8
0
 62
     1
420
 16711680
370
    25
100
AcDbLine
 10
-174.5963605203401
 20
258.5606979162953
 30
0.0
 11
-174.5963605203401
 21
238.5606979162946
 31
0.0
  0
LINE
  5
9C
330
78
100
AcDbEntity
  8
0
 62
     1
420
 16711680
370
    25
100
AcDbLine
 10
-174.5963605203401
 20
238.5606979162946
 30
0.0
 11
75.59583329615968
 21
238.5606979162946
 31
0.0
  0
LINE
  5
9D
330
78
100
AcDbEntity
  8
0
 62
     1
420
 16711680
370
    25
100
AcDbLine
 10
75.59583329615968
 20
238.5606979162946
 30
0.0
 11
75.59583329615968
 21
258.5606979162953
 31
0.0
  0
LINE
  5
9E
330
78
100
AcDbEntity
  8
0
 62
     1
420
 16711680
370
    25
100
AcDbLine
 10
75.59583329615968
 20
258.5606979162953
 30
0.0
 11
150.8458332961599
 21
258.5606979162953
 31
0.0
  0
LINE
  5
9F
330
78
100
AcDbEntity
  8
0
 62
     1
420
 16711680
370
    25
100
AcDbLine
 10
150.8458332961599
 20
258.5606979162953
 30
0.0
 11
150.8458332961599
 21
330.9356979162949
 31
0.0
  0
LINE
  5
A0
330
78
100
AcDbEntity
  8
0
 62
     1
420
 16711680
370
    25
100
AcDbLine
 10
150.8458332961599
 20
330.9356979162949
 30
0.0
 11
180.8458332961597
 21
330.9356979162949
 31
0.0
  0
LINE
  5
A1
330
78
100
AcDbEntity
  8
0
 62
     1
420
 16711680
370
    25
100
AcDbLine
 10
180.8458332961597
 20
330.9356979162949
 30
0.0
 11
180.8458332961597
 21
403.3106979162938
 31
0.0
  0
LINE
  5
A2
330
78
100
AcDbEntity
  8
0
 62
     1
420
 16711680
370
    25
100
AcDbLine
 10
180.8458332961597
 20
403.3106979162938
 30
0.0
 11
-314.1541667038404
 21
403.3106979162938
 31
0.0
  0
LINE
  5
A3
330
78
100
AcDbEntity
  8
0
 62
     1
420
 16711680
370
    25
100
AcDbLine
 10
-324.1541667038408
 20
393.3106979162938
 30
0.0
 11
-324.1541667038408
 21
-101.689302083706
 31
0.0
  0
LINE
  5
A4
330
78
100
AcDbEntity
  8
0
 62
     1
420
 16711680
370
    25
100
AcDbLine
 10
-324.1541667038408
 20
-101.689302083706
 30
0.0
 11
-309.6252636121408
 21
-101.689302083706
 31
0.0
  0
LINE
  5
A5
330
78
100
AcDbEntity
  8
0
 62
     1
420
 16711680
370
    25
100
AcDbLine
 10
-309.6252636121408
 20
-101.689302083706
 30
0.0
 11
-309.6252636121408
 21
-71.68930208370496
 31
0.0
  0
LINE
  5
A6
330
78
100
AcDbEntity
  8
0
 62
     1
420
 16711680
370
    25
100
AcDbLine
 10
-309.6252636121408
 20
-71.68930208370496
 30
0.0
 11
-295.0963605203408
 21
-71.68930208370496
 31
0.0
  0
LINE
  5
A7
330
78
100
AcDbEntity
  8
0
 62
     1
420
 16711680
370
    25
100
AcDbLine
 10
-295.0963605203408
 20
-71.68930208370496
 30
0.0
 11
-295.0963605203408
 21
-26.43930208370576
 31
0.0
  0
LINE
  5
A8
330
78
100
AcDbEntity
  8
0
 62
     1
420
 16711680
370
    25
100
AcDbLine
 10
-295.0963605203408
 20
-26.43930208370576
 30
0.0
 11
-275.0963605203401
 21
-26.43930208370576
 31
0.0
  0
LINE
  5
A9
330
78
100
AcDbEntity
  8
0
 62
     1
420
 16711680
370
    25
100
AcDbLine
 10
-275.0963605203401
 20
-26.43930208370576
 30
0.0
 11
-275.0963605203401
 21
138.0606979162949
 31
0.0
  0
LINE
  5
AA
330
78
100
AcDbEntity
  8
0
 62
     1
420
 16711680
370
    25
100
AcDbLine
 10
-275.0963605203401
 20
138.0606979162949
 30
0.0
 11
-295.0963605203408
 21
138.0606979162949
 31
0.0
  0
LINE
  5
AB
330
78
100
AcDbEntity
  8
0
 62
     1
420
 16711680
370
    25
100
AcDbLine
 10
-295.0963605203408
 20
138.0606979162949
 30
0.0
 11
-295.0963605203408
 21
258.5606979162953
 31
0.0
  0
SPLINE
  5
AC
330
78
100
AcDbEntity
  8
0
 62
     1
420
 16711680
370
    25
100
AcDbSpline
210
0.0
220
0.0
230
1.0
 70
     8
 71
     3
 72
     8
 73
     4
 74
     0
 42
0.0000000001
 43
0.0000000001
 40
0.0
 40
0.0
 40
0.0
 40
0.0
 40
1.0
 40
1.0
 40
1.0
 40
1.0
 10
-314.1541667038404
 20
403.3106979162938
 30
0.0
 10
-319.6770142021487
 20
403.3106979162938
 30
0.0
 10
-324.1541667038408
 20
398.8335454146021
 30
0.0
 10
-324.1541667038408
 20
393.3106979162938
 30
0.0
  0
ENDBLK
  5
7B
330
78
100
AcDbEntity
  8
0
100
AcDbBlockEnd
  0
BLOCK
  5
AF
330
AD
100
AcDbEntity
  8
0
100
AcDbBlockBegin
  2
Block_1
 70
     0
 10
0.0
 20
0.0
 30
0.0
  3
Block_1
  1

  0
SPLINE
  5
B1
330
AD
100
AcDbEntity
  8
0
 62
     1
420
 16711680
370
    25
100
AcDbSpline
210
0.0
220
0.0
230
1.0
 70
     9
 71
     3
 72
    20
 73
    16
 74
     0
 42
0.0000000001
 43
0.0000000001
 40
0.0
 40
0.0
 40
0.0
 40
0.0
 40
1.0
 40
1.0
 40
1.0
 40
2.0
 40
2.0
 40
2.0
 40
3.0
 40
3.0
 40
3.0
 40
4.0
 40
4.0
 40
4.0
 40
5.0
 40
5.0
 40
5.0
 40
5.0
 10
293.3602211135389
 20
-71.33652148379411
 30
0.0
 10
293.3602211135389
 20
-70.14910927165741
 30
0.0
 10
294.3228089014027
 20
-69.18652148379355
 30
0.0
 10
295.5102211135395
 20
-69.18652148379355
 30
0.0
 10
296.6976333256749
 20
-69.18652148379355
 30
0.0
 10
297.6602211135387
 20
-70.14910927165741
 30
0.0
 10
297.6602211135387
 20
-71.33652148379411
 30
0.0
 10
297.6602211135387
 20
-72.52393369593019
 30
0.0
 10
296.6976333256749
 20
-73.48652148379404
 30
0.0
 10
295.5102211135395
 20
-73.48652148379404
 30
0.0
 10
294.3228089014027
 20
-73.48652148379404
 30
0.0
 10
293.3602211135389
 20
-72.52393369593019
 30
0.0
 10
293.3602211135389
 20
-71.33652148379411
 30
0.0
 10
293.3602211135389
 20
-71.33652148379411
 30
0.0
 10
293.3602211135389
 20
-71.33652148379411
 30
0.0
 10
293.3602211135389
 20
-71.33652148379411
 30
0.0
  0
SPLINE
  5
B2
330
AD
100
AcDbEntity
  8
0
 62
     1
420
 16711680
370
    25
100
AcDbSpline
210
0.0
220
0.0
230
1.0
 70
     9
 71
     3
 72
    20
 73
    16
 74
     0
 42
0.0000000001
 43
0.0000000001
 40
0.0
 40
0.0
 40
0.0
 40
0.0
 40
1.0
 40
1.0
 40
1.0
 40
2.0
 40
2.0
 40
2.0
 40
3.0
 40
3.0
 40
3.0
 40
4.0
 40
4.0
 40
4.0
 40
5.0
 40
5.0
 40
5.0
 40
5.0
 10
396.5680272970381
 20
246.1634785162068
 30
0.0
 10
396.5680272970381
 20
247.9584039531566
 30
0.0
 10
398.0231018600892
 20
249.4134785162058
 30
0.0
 10
399.8180272970377
 20
249.4134785162058
 30
0.0
 10
401.61295273399
 20
249.4134785162058
 30
0.0
 10
403.0680272970379
 20
247.9584039531566
 30
0.0
 10
403.0680272970379
 20
246.1634785162068
 30
0.0
 10
403.0680272970379
 20
244.3685530792554
 30
0.0
 10
401.61295273399
 20
242.9134785162065
 30
0.0
 10
399.8180272970377
 20
242.9134785162065
 30
0.0
 10
398.0231018600892
 20
242.9134785162065
 30
0.0
 10
396.5680272970381
 20
244.3685530792554
 30
0.0
 10
396.5680272970381
 20
246.1634785162068
 30
0.0
 10
396.5680272970381
 20
246.1634785162068
 30
0.0
 10
396.5680272970381
 20
246.1634785162068
 30
0.0
 10
396.5680272970381
 20
246.1634785162068
 30
0.0
  0
SPLINE
  5
B3
330
AD
100
AcDbEntity
  8
0
 62
     1
420
 16711680
370
    25
100
AcDbSpline
210
0.0
220
0.0
230
1.0
 70
     9
 71
     3
 72
    20
 73
    16
 74
     0
 42
0.0000000001
 43
0.0000000001
 40
0.0
 40
0.0
 40
0.0
 40
0.0
 40
1.0
 40
1.0
 40
1.0
 40
2.0
 40
2.0
 40
2.0
 40
3.0
 40
3.0
 40
3.0
 40
4.0
 40
4.0
 40
4.0
 40
5.0
 40
5.0
 40
5.0
 40
5.0
 10
397.6680272970378
 20
23.41347851620586
 30
0.0
 10
397.6680272970378
 20
24.60089072834258
 30
0.0
 10
398.6306150849042
 20
25.56347851620642
 30
0.0
 10
399.8180272970377
 20
25.56347851620642
 30
0.0
 10
401.005439509175
 20
25.56347851620642
 30
0.0
 10
401.9680272970376
 20
24.60089072834258
 30
0.0
 10
401.9680272970376
 20
23.41347851620586
 30
0.0
 10
401.9680272970376
 20
22.22606630406978
 30
0.0
 10
401.005439509175
 20
21.26347851620594
 30
0.0
 10
399.8180272970377
 20
21.26347851620594
 30
0.0
 10
398.6306150849042
 20
21.26347851620594
 30
0.0
 10
397.6680272970378
 20
22.22606630406978
 30
0.0
 10
397.6680272970378
 20
23.41347851620586
 30
0.0
 10
397.6680272970378
 20
23.41347851620586
 30
0.0
 10
397.6680272970378
 20
23.41347851620586
 30
0.0
 10
397.6680272970378
 20
23.41347851620586
 30
0.0
  0
SPLINE
  5
B4
330
AD
100
AcDbEntity
  8
0
 62
     1
420
 16711680
370
    25
100
AcDbSpline
210
0.0
220
0.0
230
1.0
 70
     9
 71
     3
 72
    20
 73
    16
 74
     0
 42
0.0000000001
 43
0.0000000001
 40
0.0
 40
0.0
 40
0.0
 40
0.0
 40
1.0
 40
1.0
 40
1.0
 40
2.0
 40
2.0
 40
2.0
 40
3.0
 40
3.0
 40
3.0
 40
4.0
 40
4.0
 40
4.0
 40
5.0
 40
5.0
 40
5.0
 40
5.0
 10
397.6680272970378
 20
-71.33652148379411
 30
0.0
 10
397.6680272970378
 20
-70.14910927165741
 30
0.0
 10
398.6306150849042
 20
-69.18652148379419
 30
0.0
 10
399.8180272970377
 20
-69.18652148379419
 30
0.0
 10
401.005439509175
 20
-69.18652148379419
 30
0.0
 10
401.9680272970376
 20
-70.14910927165741
 30
0.0
 10
401.9680272970376
 20
-71.33652148379411
 30
0.0
 10
401.9680272970376
 20
-72.52393369593019
 30
0.0
 10
401.005439509175
 20
-73.48652148379404
 30
0.0
 10
399.8180272970377
 20
-73.48652148379404
 30
0.0
 10
398.6306150849042
 20
-73.48652148379404
 30
0.0
 10
397.6680272970378
 20
-72.52393369593019
 30
0.0
 10
397.6680272970378
 20
-71.33652148379411
 30
0.0
 10
397.6680272970378
 20
-71.33652148379411
 30
0.0
 10
397.6680272970378
 20
-71.33652148379411
 30
0.0
 10
397.6680272970378
 20
-71.33652148379411
 30
0.0
  0
SPLINE
  5
B5
330
AD
100
AcDbEntity
  8
0
 62
     1
420
 16711680
370
    25
100
AcDbSpline
210
0.0
220
0.0
230
1.0
 70
     9
 71
     3
 72
    20
 73
    16
 74
     0
 42
0.0000000001
 43
0.0000000001
 40
0.0
 40
0.0
 40
0.0
 40
0.0
 40
1.0
 40
1.0
 40
1.0
 40
2.0
 40
2.0
 40
2.0
 40
3.0
 40
3.0
 40
3.0
 40
4.0
 40
4.0
 40
4.0
 40
5.0
 40
5.0
 40
5.0
 40
5.0
 10
12.66802729704218
 20
-71.33652148379411
 30
0.0
 10
12.66802729704218
 20
-70.14910927165741
 30
0.0
 10
13.63061508490602
 20
-69.18652148379419
 30
0.0
 10
14.8180272970421
 20
-69.18652148379419
 30
0.0
 10
16.00543950917817
 20
-69.18652148379419
 30
0.0
 10
16.96802729704201
 20
-70.14910927165741
 30
0.0
 10
16.96802729704201
 20
-71.33652148379411
 30
0.0
 10
16.96802729704201
 20
-72.52393369593019
 30
0.0
 10
16.00543950917817
 20
-73.48652148379404
 30
0.0
 10
14.8180272970421
 20
-73.48652148379404
 30
0.0
 10
13.63061508490602
 20
-73.48652148379404
 30
0.0
 10
12.66802729704218
 20
-72.52393369593019
 30
0.0
 10
12.66802729704218
 20
-71.33652148379411
 30
0.0
 10
12.66802729704218
 20
-71.33652148379411
 30
0.0
 10
12.66802729704218
 20
-71.33652148379411
 30
0.0
 10
12.66802729704218
 20
-71.33652148379411
 30
0.0
  0
LINE
  5
B6
330
AD
100
AcDbEntity
  8
0
 62
     1
420
 16711680
370
    25
100
AcDbLine
 10
54.81802729704223
 20
-86.336521483794
 30
0.0
 11
275.5102211135387
 21
-86.336521483794
 31
0.0
  0
LINE
  5
B7
330
AD
100
AcDbEntity
  8
0
 62
     1
420
 16711680
370
    25
100
AcDbLine
 10
275.5102211135387
 20
-86.336521483794
 30
0.0
 11
275.5102211135387
 21
-56.33652148379359
 31
0.0
  0
LINE
  5
B8
330
AD
100
AcDbEntity
  8
0
 62
     1
420
 16711680
370
    25
100
AcDbLine
 10
275.5102211135387
 20
-56.33652148379359
 30
0.0
 11
54.81802729704223
 21
-56.33652148379359
 31
0.0
  0
LINE
  5
B9
330
AD
100
AcDbEntity
  8
0
 62
     1
420
 16711680
370
    25
100
AcDbLine
 10
54.81802729704223
 20
-56.33652148379359
 30
0.0
 11
54.81802729704223
 21
-86.336521483794
 31
0.0
  0
LINE
  5
BA
330
AD
100
AcDbEntity
  8
0
 62
     1
420
 16711680
370
    25
100
AcDbLine
 10
-60.18197270295798
 20
-43.96152148379387
 30
0.0
 11
-60.18197270295798
 21
-81.33652148379383
 31
0.0
  0
LINE
  5
BB
330
AD
100
AcDbEntity
  8
0
 62
     1
420
 16711680
370
    25
100
AcDbLine
 10
-60.18197270295798
 20
-81.33652148379383
 30
0.0
 11
-15.181972702958
 21
-81.33652148379383
 31
0.0
  0
LINE
  5
BC
330
AD
100
AcDbEntity
  8
0
 62
     1
420
 16711680
370
    25
100
AcDbLine
 10
-15.181972702958
 20
-81.33652148379383
 30
0.0
 11
-15.181972702958
 21
-72.8170985491939
 31
0.0
  0
LINE
  5
BD
330
AD
100
AcDbEntity
  8
0
 62
     1
420
 16711680
370
    25
100
AcDbLine
 10
-15.181972702958
 20
-72.8170985491939
 30
0.0
 11
-31.84174788925775
 21
-43.96152148379387
 31
0.0
  0
LINE
  5
BE
330
AD
100
AcDbEntity
  8
0
 62
     1
420
 16711680
370
    25
100
AcDbLine
 10
-31.84174788925775
 20
-43.96152148379387
 30
0.0
 11
-60.18197270295798
 21
-43.96152148379387
 31
0.0
  0
LINE
  5
BF
330
AD
100
AcDbEntity
  8
0
 62
     1
420
 16711680
370
    25
100
AcDbLine
 10
-14.59340859725792
 20
6.163478516206372
 30
0.0
 11
109.8180272970419
 21
6.163478516206372
 31
0.0
  0
LINE
  5
C0
330
AD
100
AcDbEntity
  8
0
 62
     1
420
 16711680
370
    25
100
AcDbLine
 10
109.8180272970419
 20
6.163478516206372
 30
0.0
 11
109.8180272970419
 21
28.41347851620604
 31
0.0
  0
LINE
  5
C1
330
AD
100
AcDbEntity
  8
0
 62
     1
420
 16711680
370
    25
100
AcDbLine
 10
109.8180272970419
 20
28.41347851620604
 30
0.0
 11
-27.43945208675797
 21
28.41347851620604
 31
0.0
  0
LINE
  5
C2
330
AD
100
AcDbEntity
  8
0
 62
     1
420
 16711680
370
    25
100
AcDbLine
 10
-27.43945208675797
 20
28.41347851620604
 30
0.0
 11
-14.59340859725792
 21
6.163478516206372
 31
0.0
  0
LINE
  5
C3
330
AD
100
AcDbEntity
  8
0
 62
     1
420
 16711680
370
    25
100
AcDbLine
 10
295.5102211135395
 20
23.66347851620603
 30
0.0
 11
185.5102211135387
 21
23.66347851620603
 31
0.0
  0
LINE
  5
C4
330
AD
100
AcDbEntity
  8
0
 62
     1
420
 16711680
370
    25
100
AcDbLine
 10
185.5102211135387
 20
23.66347851620603
 30
0.0
 11
185.5102211135387
 21
-6.336521483793747
 31
0.0
  0
LINE
  5
C5
330
AD
100
AcDbEntity
  8
0
 62
     1
420
 16711680
370
    25
100
AcDbLine
 10
185.5102211135387
 20
-6.336521483793747
 30
0.0
 11
295.5102211135395
 21
-6.336521483793747
 31
0.0
  0
LINE
  5
C6
330
AD
100
AcDbEntity
  8
0
 62
     1
420
 16711680
370
    25
100
AcDbLine
 10
295.5102211135395
 20
-6.336521483793747
 30
0.0
 11
295.5102211135395
 21
23.66347851620603
 31
0.0
  0
LINE
  5
C7
330
AD
100
AcDbEntity
  8
0
 62
     1
420
 16711680
370
    25
100
AcDbLine
 10
54.81802729704223
 20
-46.33652148379387
 30
0.0
 11
295.5102211135395
 21
-46.33652148379387
 31
0.0
  0
LINE
  5
C8
330
AD
100
AcDbEntity
  8
0
 62
     1
420
 16711680
370
    25
100
AcDbLine
 10
295.5102211135395
 20
-46.33652148379387
 30
0.0
 11
295.5102211135395
 21
-16.3365214837941
 31
0.0
  0
LINE
  5
C9
330
AD
100
AcDbEntity
  8
0
 62
     1
420
 16711680
370
    25
100
AcDbLine
 10
54.81802729704223
 20
-16.3365214837941
 30
0.0
 11
54.81802729704223
 21
-46.33652148379387
 31
0.0
  0
LINE
  5
CA
330
AD
100
AcDbEntity
  8
0
 62
     1
420
 16711680
370
    25
100
AcDbLine
 10
315.5102211135389
 20
-86.336521483794
 30
0.0
 11
379.8180272970376
 21
-86.336521483794
 31
0.0
  0
LINE
  5
CB
330
AD
100
AcDbEntity
  8
0
 62
     1
420
 16711680
370
    25
100
AcDbLine
 10
379.8180272970376
 20
-86.336521483794
 30
0.0
 11
379.8180272970376
 21
-56.33652148379359
 31
0.0
  0
LINE
  5
CC
330
AD
100
AcDbEntity
  8
0
 62
     1
420
 16711680
370
    25
100
AcDbLine
 10
379.8180272970376
 20
-56.33652148379359
 30
0.0
 11
315.5102211135389
 21
-56.33652148379359
 31
0.0
  0
LINE
  5
CD
330
AD
100
AcDbEntity
  8
0
 62
     1
420
 16711680
370
    25
100
AcDbLine
 10
315.5102211135389
 20
-56.33652148379359
 30
0.0
 11
315.5102211135389
 21
-86.336521483794
 31
0.0
  0
LINE
  5
CE
330
AD
100
AcDbEntity
  8
0
 62
     1
420
 16711680
370
    25
100
AcDbLine
 10
295.5102211135395
 20
-16.3365214837941
 30
0.0
 11
54.81802729704223
 21
-16.3365214837941
 31
0.0
  0
LINE
  5
CF
330
AD
100
AcDbEntity
  8
0
 62
     1
420
 16711680
370
    25
100
AcDbLine
 10
400.7602211135407
 20
43.41347851620592
 30
0.0
 11
280.2602211135387
 21
43.41347851620592
 31
0.0
  0
LINE
  5
D0
330
AD
100
AcDbEntity
  8
0
 62
     1
420
 16711680
370
    25
100
AcDbLine
 10
280.2602211135387
 20
43.41347851620592
 30
0.0
 11
280.2602211135387
 21
63.41347851620598
 31
0.0
  0
LINE
  5
D1
330
AD
100
AcDbEntity
  8
0
 62
     1
420
 16711680
370
    25
100
AcDbLine
 10
280.2602211135387
 20
63.41347851620598
 30
0.0
 11
30.06802729704216
 21
63.41347851620598
 31
0.0
  0
LINE
  5
D2
330
AD
100
AcDbEntity
  8
0
 62
     1
420
 16711680
370
    25
100
AcDbLine
 10
30.06802729704216
 20
63.41347851620598
 30
0.0
 11
30.06802729704216
 21
43.41347851620592
 31
0.0
  0
LINE
  5
D3
330
AD
100
AcDbEntity
  8
0
 62
     1
420
 16711680
370
    25
100
AcDbLine
 10
30.06802729704216
 20
43.41347851620592
 30
0.0
 11
-45.1819727029581
 21
43.41347851620592
 31
0.0
  0
LINE
  5
D4
330
AD
100
AcDbEntity
  8
0
 62
     1
420
 16711680
370
    25
100
AcDbLine
 10
-45.1819727029581
 20
43.41347851620592
 30
0.0
 11
-45.1819727029581
 21
-28.96152148379398
 31
0.0
  0
LINE
  5
D5
330
AD
100
AcDbEntity
  8
0
 62
     1
420
 16711680
370
    25
100
AcDbLine
 10
-45.1819727029581
 20
-28.96152148379398
 30
0.0
 11
-75.18197270295786
 21
-28.96152148379398
 31
0.0
  0
LINE
  5
D6
330
AD
100
AcDbEntity
  8
0
 62
     1
420
 16711680
370
    25
100
AcDbLine
 10
-75.18197270295786
 20
-28.96152148379398
 30
0.0
 11
-75.18197270295786
 21
-101.3365214837939
 31
0.0
  0
LINE
  5
D7
330
AD
100
AcDbEntity
  8
0
 62
     1
420
 16711680
370
    25
100
AcDbLine
 10
-75.18197270295786
 20
-101.3365214837939
 30
0.0
 11
419.8180272970377
 21
-101.3365214837939
 31
0.0
  0
LINE
  5
D8
330
AD
100
AcDbEntity
  8
0
 62
     1
420
 16711680
370
    25
100
AcDbLine
 10
429.8180272970374
 20
-91.33652148379352
 30
0.0
 11
429.8180272970374
 21
403.6634785162056
 31
0.0
  0
LINE
  5
D9
330
AD
100
AcDbEntity
  8
0
 62
     1
420
 16711680
370
    25
100
AcDbLine
 10
429.8180272970374
 20
403.6634785162056
 30
0.0
 11
415.2891242053401
 21
403.6634785162056
 31
0.0
  0
LINE
  5
DA
330
AD
100
AcDbEntity
  8
0
 62
     1
420
 16711680
370
    25
100
AcDbLine
 10
415.2891242053401
 20
403.6634785162056
 30
0.0
 11
415.2891242053401
 21
373.6634785162055
 31
0.0
  0
LINE
  5
DB
330
AD
100
AcDbEntity
  8
0
 62
     1
420
 16711680
370
    25
100
AcDbLine
 10
415.2891242053401
 20
373.6634785162055
 30
0.0
 11
400.7602211135407
 21
373.6634785162055
 31
0.0
  0
LINE
  5
DC
330
AD
100
AcDbEntity
  8
0
 62
     1
420
 16711680
370
    25
100
AcDbLine
 10
400.7602211135407
 20
373.6634785162055
 30
0.0
 11
400.7602211135407
 21
328.4134785162067
 31
0.0
  0
LINE
  5
DD
330
AD
100
AcDbEntity
  8
0
 62
     1
420
 16711680
370
    25
100
AcDbLine
 10
400.7602211135407
 20
328.4134785162067
 30
0.0
 11
380.7602211135407
 21
328.4134785162067
 31
0.0
  0
LINE
  5
DE
330
AD
100
AcDbEntity
  8
0
 62
     1
420
 16711680
370
    25
100
AcDbLine
 10
380.7602211135407
 20
328.4134785162067
 30
0.0
 11
380.7602211135407
 21
163.913478516206
 31
0.0
  0
LINE
  5
DF
330
AD
100
AcDbEntity
  8
0
 62
     1
420
 16711680
370
    25
100
AcDbLine
 10
380.7602211135407
 20
163.913478516206
 30
0.0
 11
400.7602211135407
 21
163.913478516206
 31
0.0
  0
LINE
  5
E0
330
AD
100
AcDbEntity
  8
0
 62
     1
420
 16711680
370
    25
100
AcDbLine
 10
400.7602211135407
 20
163.913478516206
 30
0.0
 11
400.7602211135407
 21
43.41347851620592
 31
0.0
  0
SPLINE
  5
E1
330
AD
100
AcDbEntity
  8
0
 62
     1
420
 16711680
370
    25
100
AcDbSpline
210
0.0
220
0.0
230
1.0
 70
     8
 71
     3
 72
     8
 73
     4
 74
     0
 42
0.0000000001
 43
0.0000000001
 40
0.0
 40
0.0
 40
0.0
 40
0.0
 40
1.0
 40
1.0
 40
1.0
 40
1.0
 10
419.8180272970377
 20
-101.3365214837939
 30
0.0
 10
425.340874795346
 20
-101.3365214837939
 30
0.0
 10
429.8180272970374
 20
-96.85936898210181
 30
0.0
 10
429.8180272970374
 20
-91.33652148379352
 30
0.0
  0
ENDBLK
  5
B0
330
AD
100
AcDbEntity
  8
0
100
AcDbBlockEnd
  0
BLOCK
  5
E4
330
E2
100
AcDbEntity
  8
0
100
AcDbBlockBegin
  2
Block_2
 70
     0
 10
0.0
 20
0.0
 30
0.0
  3
Block_2
  1

  0
SPLINE
  5
E6
330
E2
100
AcDbEntity
  8
0
 62
     1
420
 16711680
370
    25
100
AcDbSpline
210
0.0
220
0.0
230
1.0
 70
     9
 71
     3
 72
    20
 73
    16
 74
     0
 42
0.0000000001
 43
0.0000000001
 40
0.0
 40
0.0
 40
0.0
 40
0.0
 40
1.0
 40
1.0
 40
1.0
 40
2.0
 40
2.0
 40
2.0
 40
3.0
 40
3.0
 40
3.0
 40
4.0
 40
4.0
 40
4.0
 40
5.0
 40
5.0
 40
5.0
 40
5.0
 10
-41.43726109867053
 20
204.9999698959581
 30
0.0
 10
-41.43726109867053
 20
209.9705326444353
 30
0.0
 10
-37.40782384714786
 20
213.9999698959581
 30
0.0
 10
-32.43726109867086
 20
213.9999698959581
 30
0.0
 10
-27.46669835019354
 20
213.9999698959581
 30
0.0
 10
-23.43726109867086
 20
209.9705326444353
 30
0.0
 10
-23.43726109867086
 20
204.9999698959581
 30
0.0
 10
-23.43726109867086
 20
200.0294071474811
 30
0.0
 10
-27.46669835019354
 20
195.999969895958
 30
0.0
 10
-32.43726109867086
 20
195.999969895958
 30
0.0
 10
-37.40782384714786
 20
195.999969895958
 30
0.0
 10
-41.43726109867053
 20
200.0294071474811
 30
0.0
 10
-41.43726109867053
 20
204.9999698959581
 30
0.0
 10
-41.43726109867053
 20
204.9999698959581
 30
0.0
 10
-41.43726109867053
 20
204.9999698959581
 30
0.0
 10
-41.43726109867053
 20
204.9999698959581
 30
0.0
  0
SPLINE
  5
E7
330
E2
100
AcDbEntity
  8
0
 62
     1
420
 16711680
370
    25
100
AcDbSpline
210
0.0
220
0.0
230
1.0
 70
     9
 71
     3
 72
    20
 73
    16
 74
     0
 42
0.0000000001
 43
0.0000000001
 40
0.0
 40
0.0
 40
0.0
 40
0.0
 40
1.0
 40
1.0
 40
1.0
 40
2.0
 40
2.0
 40
2.0
 40
3.0
 40
3.0
 40
3.0
 40
4.0
 40
4.0
 40
4.0
 40
5.0
 40
5.0
 40
5.0
 40
5.0
 10
108.562738901329
 20
204.9999698959581
 30
0.0
 10
108.562738901329
 20
209.9705326444353
 30
0.0
 10
112.592176152852
 20
213.9999698959584
 30
0.0
 10
117.5627389013293
 20
213.9999698959584
 30
0.0
 10
122.5333016498066
 20
213.9999698959584
 30
0.0
 10
126.5627389013299
 20
209.9705326444353
 30
0.0
 10
126.5627389013299
 20
204.9999698959581
 30
0.0
 10
126.5627389013299
 20
200.0294071474811
 30
0.0
 10
122.5333016498066
 20
195.999969895958
 30
0.0
 10
117.5627389013293
 20
195.999969895958
 30
0.0
 10
112.592176152852
 20
195.999969895958
 30
0.0
 10
108.562738901329
 20
200.0294071474811
 30
0.0
 10
108.562738901329
 20
204.9999698959581
 30
0.0
 10
108.562738901329
 20
204.9999698959581
 30
0.0
 10
108.562738901329
 20
204.9999698959581
 30
0.0
 10
108.562738901329
 20
204.9999698959581
 30
0.0
  0
LINE
  5
E8
330
E2
100
AcDbEntity
  8
0
 62
     1
420
 16711680
370
    25
100
AcDbLine
 10
-263.1294549151706
 20
174.999969895958
 30
0.0
 11
348.2549327178265
 21
174.999969895958
 31
0.0
  0
LINE
  5
E9
330
E2
100
AcDbEntity
  8
0
 62
     1
420
 16711680
370
    25
100
AcDbLine
 10
-263.1294549151706
 20
204.9999698959581
 30
0.0
 11
-263.1294549151706
 21
174.999969895958
 31
0.0
  0
LINE
  5
EA
330
E2
100
AcDbEntity
  8
0
 62
     1
420
 16711680
370
    25
100
AcDbLine
 10
-293.1294549151707
 20
204.9999698959581
 30
0.0
 11
-263.1294549151706
 21
204.9999698959581
 31
0.0
  0
LINE
  5
EB
330
E2
100
AcDbEntity
  8
0
 62
     1
420
 16711680
370
    25
100
AcDbLine
 10
-293.1294549151707
 20
234.9999698959582
 30
0.0
 11
-293.1294549151707
 21
204.9999698959581
 31
0.0
  0
LINE
  5
EC
330
E2
100
AcDbEntity
  8
0
 62
     1
420
 16711680
370
    25
100
AcDbLine
 10
378.2549327178269
 20
234.9999698959582
 30
0.0
 11
-293.1294549151707
 21
234.9999698959582
 31
0.0
  0
LINE
  5
ED
330
E2
100
AcDbEntity
  8
0
 62
     1
420
 16711680
370
    25
100
AcDbLine
 10
378.2549327178269
 20
204.9999698959581
 30
0.0
 11
378.2549327178269
 21
234.9999698959582
 31
0.0
  0
LINE
  5
EE
330
E2
100
AcDbEntity
  8
0
 62
     1
420
 16711680
370
    25
100
AcDbLine
 10
348.2549327178265
 20
204.9999698959581
 30
0.0
 11
378.2549327178269
 21
204.9999698959581
 31
0.0
  0
LINE
  5
EF
330
E2
100
AcDbEntity
  8
0
 62
     1
420
 16711680
370
    25
100
AcDbLine
 10
348.2549327178265
 20
174.999969895958
 30
0.0
 11
348.2549327178265
 21
204.9999698959581
 31
0.0
  0
ENDBLK
  5
E5
330
E2
100
AcDbEntity
  8
0
100
AcDbBlockEnd
  0
BLOCK
  5
F2
330
F0
100
AcDbEntity
  8
0
100
AcDbBlockBegin
  2
Block_3
 70
     0
 10
0.0
 20
0.0
 30
0.0
  3
Block_3
  1

  0
SPLINE
  5
F4
330
F0
100
AcDbEntity
  8
0
 62
     1
420
 16711680
370
    25
100
AcDbSpline
210
0.0
220
0.0
230
1.0
 70
     9
 71
     3
 72
    20
 73
    16
 74
     0
 42
0.0000000001
 43
0.0000000001
 40
0.0
 40
0.0
 40
0.0
 40
0.0
 40
1.0
 40
1.0
 40
1.0
 40
2.0
 40
2.0
 40
2.0
 40
3.0
 40
3.0
 40
3.0
 40
4.0
 40
4.0
 40
4.0
 40
5.0
 40
5.0
 40
5.0
 40
5.0
 10
-41.43726109867053
 20
141.10513671647
 30
0.0
 10
-41.43726109867053
 20
146.0756994649473
 30
0.0
 10
-37.40782384714786
 20
150.10513671647
 30
0.0
 10
-32.43726109867086
 20
150.10513671647
 30
0.0
 10
-27.46669835019354
 20
150.10513671647
 30
0.0
 10
-23.43726109867086
 20
146.0756994649473
 30
0.0
 10
-23.43726109867086
 20
141.10513671647
 30
0.0
 10
-23.43726109867086
 20
136.134573967993
 30
0.0
 10
-27.46669835019354
 20
132.10513671647
 30
0.0
 10
-32.43726109867086
 20
132.10513671647
 30
0.0
 10
-37.40782384714786
 20
132.10513671647
 30
0.0
 10
-41.43726109867053
 20
136.134573967993
 30
0.0
 10
-41.43726109867053
 20
141.10513671647
 30
0.0
 10
-41.43726109867053
 20
141.10513671647
 30
0.0
 10
-41.43726109867053
 20
141.10513671647
 30
0.0
 10
-41.43726109867053
 20
141.10513671647
 30
0.0
  0
SPLINE
  5
F5
330
F0
100
AcDbEntity
  8
0
 62
     1
420
 16711680
370
    25
100
AcDbSpline
210
0.0
220
0.0
230
1.0
 70
     9
 71
     3
 72
    20
 73
    16
 74
     0
 42
0.0000000001
 43
0.0000000001
 40
0.0
 40
0.0
 40
0.0
 40
0.0
 40
1.0
 40
1.0
 40
1.0
 40
2.0
 40
2.0
 40
2.0
 40
3.0
 40
3.0
 40
3.0
 40
4.0
 40
4.0
 40
4.0
 40
5.0
 40
5.0
 40
5.0
 40
5.0
 10
108.562738901329
 20
141.10513671647
 30
0.0
 10
108.562738901329
 20
146.0756994649473
 30
0.0
 10
112.592176152852
 20
150.1051367164703
 30
0.0
 10
117.5627389013293
 20
150.1051367164703
 30
0.0
 10
122.5333016498066
 20
150.1051367164703
 30
0.0
 10
126.5627389013299
 20
146.0756994649473
 30
0.0
 10
126.5627389013299
 20
141.10513671647
 30
0.0
 10
126.5627389013299
 20
136.134573967993
 30
0.0
 10
122.5333016498066
 20
132.10513671647
 30
0.0
 10
117.5627389013293
 20
132.10513671647
 30
0.0
 10
112.592176152852
 20
132.10513671647
 30
0.0
 10
108.562738901329
 20
136.134573967993
 30
0.0
 10
108.562738901329
 20
141.10513671647
 30
0.0
 10
108.562738901329
 20
141.10513671647
 30
0.0
 10
108.562738901329
 20
141.10513671647
 30
0.0
 10
108.562738901329
 20
141.10513671647
 30
0.0
  0
LINE
  5
F6
330
F0
100
AcDbEntity
  8
0
 62
     1
420
 16711680
370
    25
100
AcDbLine
 10
-263.1294549151706
 20
111.1051367164699
 30
0.0
 11
348.2549327178265
 21
111.1051367164699
 31
0.0
  0
LINE
  5
F7
330
F0
100
AcDbEntity
  8
0
 62
     1
420
 16711680
370
    25
100
AcDbLine
 10
-263.1294549151706
 20
141.10513671647
 30
0.0
 11
-263.1294549151706
 21
111.1051367164699
 31
0.0
  0
LINE
  5
F8
330
F0
100
AcDbEntity
  8
0
 62
     1
420
 16711680
370
    25
100
AcDbLine
 10
-293.1294549151707
 20
141.10513671647
 30
0.0
 11
-263.1294549151706
 21
141.10513671647
 31
0.0
  0
LINE
  5
F9
330
F0
100
AcDbEntity
  8
0
 62
     1
420
 16711680
370
    25
100
AcDbLine
 10
-293.1294549151707
 20
171.1051367164701
 30
0.0
 11
-293.1294549151707
 21
141.10513671647
 31
0.0
  0
LINE
  5
FA
330
F0
100
AcDbEntity
  8
0
 62
     1
420
 16711680
370
    25
100
AcDbLine
 10
378.2549327178269
 20
171.1051367164701
 30
0.0
 11
-293.1294549151707
 21
171.1051367164701
 31
0.0
  0
LINE
  5
FB
330
F0
100
AcDbEntity
  8
0
 62
     1
420
 16711680
370
    25
100
AcDbLine
 10
378.2549327178269
 20
141.10513671647
 30
0.0
 11
378.2549327178269
 21
171.1051367164701
 31
0.0
  0
LINE
  5
FC
330
F0
100
AcDbEntity
  8
0
 62
     1
420
 16711680
370
    25
100
AcDbLine
 10
348.2549327178265
 20
141.10513671647
 30
0.0
 11
378.2549327178269
 21
141.10513671647
 31
0.0
  0
LINE
  5
FD
330
F0
100
AcDbEntity
  8
0
 62
     1
420
 16711680
370
    25
100
AcDbLine
 10
348.2549327178265
 20
111.1051367164699
 30
0.0
 11
348.2549327178265
 21
141.10513671647
 31
0.0
  0
ENDBLK
  5
F3
330
F0
100
AcDbEntity
  8
0
100
AcDbBlockEnd
  0
BLOCK
  5
100
330
FE
100
AcDbEntity
  8
0
100
AcDbBlockBegin
  2
Block_4
 70
     0
 10
0.0
 20
0.0
 30
0.0
  3
Block_4
  1

  0
SPLINE
  5
102
330
FE
100
AcDbEntity
  8
0
 62
     1
420
 16711680
370
    25
100
AcDbSpline
210
0.0
220
0.0
230
1.0
 70
     9
 71
     3
 72
    20
 73
    16
 74
     0
 42
0.0000000001
 43
0.0000000001
 40
0.0
 40
0.0
 40
0.0
 40
0.0
 40
1.0
 40
1.0
 40
1.0
 40
2.0
 40
2.0
 40
2.0
 40
3.0
 40
3.0
 40
3.0
 40
4.0
 40
4.0
 40
4.0
 40
5.0
 40
5.0
 40
5.0
 40
5.0
 10
472.1243461187937
 20
-121.9053943199953
 30
0.0
 10
473.311758330931
 20
-121.9053943199953
 30
0.0
 10
474.2743461187935
 20
-122.8679821078592
 30
0.0
 10
474.2743461187935
 20
-124.0553943199953
 30
0.0
 10
474.2743461187935
 20
-125.2428065321313
 30
0.0
 10
473.311758330931
 20
-126.2053943199952
 30
0.0
 10
472.1243461187937
 20
-126.2053943199952
 30
0.0
 10
470.9369339066562
 20
-126.2053943199952
 30
0.0
 10
469.9743461187937
 20
-125.2428065321313
 30
0.0
 10
469.9743461187937
 20
-124.0553943199953
 30
0.0
 10
469.9743461187937
 20
-122.8679821078592
 30
0.0
 10
470.9369339066562
 20
-121.9053943199953
 30
0.0
 10
472.1243461187937
 20
-121.9053943199953
 30
0.0
 10
472.1243461187937
 20
-121.9053943199953
 30
0.0
 10
472.1243461187937
 20
-121.9053943199953
 30
0.0
 10
472.1243461187937
 20
-121.9053943199953
 30
0.0
  0
SPLINE
  5
103
330
FE
100
AcDbEntity
  8
0
 62
     1
420
 16711680
370
    25
100
AcDbSpline
210
0.0
220
0.0
230
1.0
 70
     9
 71
     3
 72
    20
 73
    16
 74
     0
 42
0.0000000001
 43
0.0000000001
 40
0.0
 40
0.0
 40
0.0
 40
0.0
 40
1.0
 40
1.0
 40
1.0
 40
2.0
 40
2.0
 40
2.0
 40
3.0
 40
3.0
 40
3.0
 40
4.0
 40
4.0
 40
4.0
 40
5.0
 40
5.0
 40
5.0
 40
5.0
 10
566.8743461187935
 20
-17.59758813649513
 30
0.0
 10
568.0617583309309
 20
-17.59758813649513
 30
0.0
 10
569.0243461187935
 20
-18.56017592435898
 30
0.0
 10
569.0243461187935
 20
-19.7475881364957
 30
0.0
 10
569.0243461187935
 20
-20.93500034863177
 30
0.0
 10
568.0617583309309
 20
-21.89758813649561
 30
0.0
 10
566.8743461187935
 20
-21.89758813649561
 30
0.0
 10
565.6869339066562
 20
-21.89758813649561
 30
0.0
 10
564.7243461187937
 20
-20.93500034863177
 30
0.0
 10
564.7243461187937
 20
-19.7475881364957
 30
0.0
 10
564.7243461187937
 20
-18.56017592435898
 30
0.0
 10
565.6869339066562
 20
-17.59758813649513
 30
0.0
 10
566.8743461187935
 20
-17.59758813649513
 30
0.0
 10
566.8743461187935
 20
-17.59758813649513
 30
0.0
 10
566.8743461187935
 20
-17.59758813649513
 30
0.0
 10
566.8743461187935
 20
-17.59758813649513
 30
0.0
  0
SPLINE
  5
104
330
FE
100
AcDbEntity
  8
0
 62
     1
420
 16711680
370
    25
100
AcDbSpline
210
0.0
220
0.0
230
1.0
 70
     9
 71
     3
 72
    20
 73
    16
 74
     0
 42
0.0000000001
 43
0.0000000001
 40
0.0
 40
0.0
 40
0.0
 40
0.0
 40
1.0
 40
1.0
 40
1.0
 40
2.0
 40
2.0
 40
2.0
 40
3.0
 40
3.0
 40
3.0
 40
4.0
 40
4.0
 40
4.0
 40
5.0
 40
5.0
 40
5.0
 40
5.0
 10
566.8743461187935
 20
263.0946056800045
 30
0.0
 10
568.0617583309309
 20
263.0946056800045
 30
0.0
 10
569.0243461187935
 20
262.1320178921406
 30
0.0
 10
569.0243461187935
 20
260.9446056800045
 30
0.0
 10
569.0243461187935
 20
259.7571934678691
 30
0.0
 10
568.0617583309309
 20
258.7946056800049
 30
0.0
 10
566.8743461187935
 20
258.7946056800049
 30
0.0
 10
565.6869339066562
 20
258.7946056800049
 30
0.0
 10
564.7243461187937
 20
259.7571934678691
 30
0.0
 10
564.7243461187937
 20
260.9446056800045
 30
0.0
 10
564.7243461187937
 20
262.1320178921406
 30
0.0
 10
565.6869339066562
 20
263.0946056800045
 30
0.0
 10
566.8743461187935
 20
263.0946056800045
 30
0.0
 10
566.8743461187935
 20
263.0946056800045
 30
0.0
 10
566.8743461187935
 20
263.0946056800045
 30
0.0
 10
566.8743461187935
 20
263.0946056800045
 30
0.0
  0
SPLINE
  5
105
330
FE
100
AcDbEntity
  8
0
 62
     1
420
 16711680
370
    25
100
AcDbSpline
210
0.0
220
0.0
230
1.0
 70
     9
 71
     3
 72
    20
 73
    16
 74
     0
 42
0.0000000001
 43
0.0000000001
 40
0.0
 40
0.0
 40
0.0
 40
0.0
 40
1.0
 40
1.0
 40
1.0
 40
2.0
 40
2.0
 40
2.0
 40
3.0
 40
3.0
 40
3.0
 40
4.0
 40
4.0
 40
4.0
 40
5.0
 40
5.0
 40
5.0
 40
5.0
 10
566.8743461187935
 20
-121.9053943199953
 30
0.0
 10
568.0617583309309
 20
-121.9053943199953
 30
0.0
 10
569.0243461187935
 20
-122.8679821078592
 30
0.0
 10
569.0243461187935
 20
-124.0553943199953
 30
0.0
 10
569.0243461187935
 20
-125.2428065321313
 30
0.0
 10
568.0617583309309
 20
-126.2053943199952
 30
0.0
 10
566.8743461187935
 20
-126.2053943199952
 30
0.0
 10
565.6869339066562
 20
-126.2053943199952
 30
0.0
 10
564.7243461187937
 20
-125.2428065321313
 30
0.0
 10
564.7243461187937
 20
-124.0553943199953
 30
0.0
 10
564.7243461187937
 20
-122.8679821078592
 30
0.0
 10
565.6869339066562
 20
-121.9053943199953
 30
0.0
 10
566.8743461187935
 20
-121.9053943199953
 30
0.0
 10
566.8743461187935
 20
-121.9053943199953
 30
0.0
 10
566.8743461187935
 20
-121.9053943199953
 30
0.0
 10
566.8743461187935
 20
-121.9053943199953
 30
0.0
  0
SPLINE
  5
106
330
FE
100
AcDbEntity
  8
0
 62
     1
420
 16711680
370
    25
100
AcDbSpline
210
0.0
220
0.0
230
1.0
 70
     9
 71
     3
 72
    20
 73
    16
 74
     0
 42
0.0000000001
 43
0.0000000001
 40
0.0
 40
0.0
 40
0.0
 40
0.0
 40
1.0
 40
1.0
 40
1.0
 40
2.0
 40
2.0
 40
2.0
 40
3.0
 40
3.0
 40
3.0
 40
4.0
 40
4.0
 40
4.0
 40
5.0
 40
5.0
 40
5.0
 40
5.0
 10
249.3743461187936
 20
-120.8053943199956
 30
0.0
 10
251.1692715557435
 20
-120.8053943199956
 30
0.0
 10
252.6243461187933
 20
-122.2604688830454
 30
0.0
 10
252.6243461187933
 20
-124.0553943199953
 30
0.0
 10
252.6243461187933
 20
-125.8503197569457
 30
0.0
 10
251.1692715557435
 20
-127.3053943199955
 30
0.0
 10
249.3743461187936
 20
-127.3053943199955
 30
0.0
 10
247.5794206818438
 20
-127.3053943199955
 30
0.0
 10
246.1243461187934
 20
-125.8503197569457
 30
0.0
 10
246.1243461187934
 20
-124.0553943199953
 30
0.0
 10
246.1243461187934
 20
-122.2604688830454
 30
0.0
 10
247.5794206818438
 20
-120.8053943199956
 30
0.0
 10
249.3743461187936
 20
-120.8053943199956
 30
0.0
 10
249.3743461187936
 20
-120.8053943199956
 30
0.0
 10
249.3743461187936
 20
-120.8053943199956
 30
0.0
 10
249.3743461187936
 20
-120.8053943199956
 30
0.0
  0
LINE
  5
107
330
FE
100
AcDbEntity
  8
0
 62
     1
420
 16711680
370
    25
100
AcDbLine
 10
529.3743461187939
 20
237.1956024883046
 30
0.0
 11
529.3743461187939
 21
199.6678349910048
 31
0.0
  0
LINE
  5
108
330
FE
100
AcDbEntity
  8
0
 62
     1
420
 16711680
370
    25
100
AcDbLine
 10
529.3743461187939
 20
199.6678349910048
 30
0.0
 11
576.874346118794
 21
172.2436972045044
 31
0.0
  0
LINE
  5
109
330
FE
100
AcDbEntity
  8
0
 62
     1
420
 16711680
370
    25
100
AcDbLine
 10
576.874346118794
 20
172.2436972045044
 30
0.0
 11
581.8743461187934
 21
172.2436972045044
 31
0.0
  0
LINE
  5
10A
330
FE
100
AcDbEntity
  8
0
 62
     1
420
 16711680
370
    25
100
AcDbLine
 10
581.8743461187934
 20
172.2436972045044
 30
0.0
 11
581.8743461187934
 21
245.9446056800043
 31
0.0
  0
LINE
  5
10B
330
FE
100
AcDbEntity
  8
0
 62
     1
420
 16711680
370
    25
100
AcDbLine
 10
581.8743461187934
 20
245.9446056800043
 30
0.0
 11
544.5280641623931
 21
245.9446056800043
 31
0.0
  0
LINE
  5
10C
330
FE
100
AcDbEntity
  8
0
 62
     1
420
 16711680
370
    25
100
AcDbLine
 10
544.5280641623931
 20
245.9446056800043
 30
0.0
 11
529.3743461187939
 21
237.1956024883046
 31
0.0
  0
LINE
  5
10D
330
FE
100
AcDbEntity
  8
0
 62
     1
420
 16711680
370
    25
100
AcDbLine
 10
581.8743461187934
 20
-104.0553943199952
 30
0.0
 11
581.8743461187934
 21
-52.81927806869568
 31
0.0
  0
LINE
  5
10E
330
FE
100
AcDbEntity
  8
0
 62
     1
420
 16711680
370
    25
100
AcDbLine
 10
581.8743461187934
 20
-52.81927806869568
 30
0.0
 11
551.8743461187937
 21
-52.81927806869568
 31
0.0
  0
LINE
  5
10F
330
FE
100
AcDbEntity
  8
0
 62
     1
420
 16711680
370
    25
100
AcDbLine
 10
551.8743461187937
 20
-52.81927806869568
 30
0.0
 11
551.8743461187937
 21
-104.0553943199952
 31
0.0
  0
LINE
  5
110
330
FE
100
AcDbEntity
  8
0
 62
     1
420
 16711680
370
    25
100
AcDbLine
 10
551.8743461187937
 20
-104.0553943199952
 30
0.0
 11
581.8743461187934
 21
-104.0553943199952
 31
0.0
  0
LINE
  5
111
330
FE
100
AcDbEntity
  8
0
 62
     1
420
 16711680
370
    25
100
AcDbLine
 10
467.1243461187934
 20
310.6634242427045
 30
0.0
 11
467.1243461187934
 21
247.4435697664044
 31
0.0
  0
LINE
  5
112
330
FE
100
AcDbEntity
  8
0
 62
     1
420
 16711680
370
    25
100
AcDbLine
 10
467.1243461187934
 20
247.4435697664044
 30
0.0
 11
489.3743461187938
 21
260.2896132559044
 31
0.0
  0
LINE
  5
113
330
FE
100
AcDbEntity
  8
0
 62
     1
420
 16711680
370
    25
100
AcDbLine
 10
489.3743461187938
 20
260.2896132559044
 30
0.0
 11
489.3743461187938
 21
297.8173807532042
 31
0.0
  0
LINE
  5
114
330
FE
100
AcDbEntity
  8
0
 62
     1
420
 16711680
370
    25
100
AcDbLine
 10
489.3743461187938
 20
297.8173807532042
 30
0.0
 11
467.1243461187934
 21
310.6634242427045
 31
0.0
  0
LINE
  5
115
330
FE
100
AcDbEntity
  8
0
 62
     1
420
 16711680
370
    25
100
AcDbLine
 10
489.3743461187938
 20
139.0460567261046
 30
0.0
 11
489.3743461187938
 21
176.5738242234046
 31
0.0
  0
LINE
  5
116
330
FE
100
AcDbEntity
  8
0
 62
     1
420
 16711680
370
    25
100
AcDbLine
 10
489.3743461187938
 20
176.5738242234046
 30
0.0
 11
452.1243461187935
 21
198.0801217507043
 31
0.0
  0
LINE
  5
117
330
FE
100
AcDbEntity
  8
0
 62
     1
420
 16711680
370
    25
100
AcDbLine
 10
452.1243461187935
 20
198.0801217507043
 30
0.0
 11
447.124346118794
 21
198.0801217507043
 31
0.0
  0
LINE
  5
118
330
FE
100
AcDbEntity
  8
0
 62
     1
420
 16711680
370
    25
100
AcDbLine
 10
447.124346118794
 20
198.0801217507043
 30
0.0
 11
447.124346118794
 21
117.5397591988045
 31
0.0
  0
LINE
  5
119
330
FE
100
AcDbEntity
  8
0
 62
     1
420
 16711680
370
    25
100
AcDbLine
 10
447.124346118794
 20
117.5397591988045
 30
0.0
 11
452.1243461187935
 21
117.5397591988045
 31
0.0
  0
LINE
  5
11A
330
FE
100
AcDbEntity
  8
0
 62
     1
420
 16711680
370
    25
100
AcDbLine
 10
452.1243461187935
 20
117.5397591988045
 30
0.0
 11
489.3743461187938
 21
139.0460567261046
 31
0.0
  0
LINE
  5
11B
330
FE
100
AcDbEntity
  8
0
 62
     1
420
 16711680
370
    25
100
AcDbLine
 10
489.3743461187938
 20
55.33026769360441
 30
0.0
 11
452.1243461187935
 21
76.83656522090449
 31
0.0
  0
LINE
  5
11C
330
FE
100
AcDbEntity
  8
0
 62
     1
420
 16711680
370
    25
100
AcDbLine
 10
447.124346118794
 20
76.83656522090449
 30
0.0
 11
447.124346118794
 21
10.50241186350489
 31
0.0
  0
LINE
  5
11D
330
FE
100
AcDbEntity
  8
0
 62
     1
420
 16711680
370
    25
100
AcDbLine
 10
447.124346118794
 20
10.50241186350489
 30
0.0
 11
476.7302222266915
 21
10.50241186350489
 31
0.0
  0
LINE
  5
11E
330
FE
100
AcDbEntity
  8
0
 62
     1
420
 16711680
370
    25
100
AcDbLine
 10
476.7302222266915
 20
10.50241186350489
 30
0.0
 11
489.3743461187938
 21
17.80250019620429
 31
0.0
  0
LINE
  5
11F
330
FE
100
AcDbEntity
  8
0
 62
     1
420
 16711680
370
    25
100
AcDbLine
 10
489.3743461187938
 20
17.80250019620429
 30
0.0
 11
489.3743461187938
 21
55.33026769360441
 31
0.0
  0
LINE
  5
120
330
FE
100
AcDbEntity
  8
0
 62
     1
420
 16711680
370
    25
100
AcDbLine
 10
529.3743461187939
 20
-5.291510571295847
 30
0.0
 11
529.3743461187939
 21
-42.81927806869532
 31
0.0
  0
LINE
  5
121
330
FE
100
AcDbEntity
  8
0
 62
     1
420
 16711680
370
    25
100
AcDbLine
 10
529.3743461187939
 20
-42.81927806869532
 30
0.0
 11
551.8743461187937
 21
-42.81927806869532
 31
0.0
  0
LINE
  5
122
330
FE
100
AcDbEntity
  8
0
 62
     1
420
 16711680
370
    25
100
AcDbLine
 10
551.8743461187937
 20
-42.81927806869532
 30
0.0
 11
551.8743461187937
 21
7.69887048540437
 31
0.0
  0
LINE
  5
123
330
FE
100
AcDbEntity
  8
0
 62
     1
420
 16711680
370
    25
100
AcDbLine
 10
551.8743461187937
 20
7.69887048540437
 30
0.0
 11
529.3743461187939
 21
-5.291510571295847
 31
0.0
  0
LINE
  5
124
330
FE
100
AcDbEntity
  8
0
 62
     1
420
 16711680
370
    25
100
AcDbLine
 10
581.8743461187934
 20
143.3761837450047
 30
0.0
 11
576.874346118794
 21
143.3761837450047
 31
0.0
  0
LINE
  5
125
330
FE
100
AcDbEntity
  8
0
 62
     1
420
 16711680
370
    25
100
AcDbLine
 10
576.874346118794
 20
143.3761837450047
 30
0.0
 11
529.3743461187939
 21
115.9520459585047
 31
0.0
  0
LINE
  5
126
330
FE
100
AcDbEntity
  8
0
 62
     1
420
 16711680
370
    25
100
AcDbLine
 10
529.3743461187939
 20
115.9520459585047
 30
0.0
 11
529.3743461187939
 21
78.42427846120465
 31
0.0
  0
LINE
  5
127
330
FE
100
AcDbEntity
  8
0
 62
     1
420
 16711680
370
    25
100
AcDbLine
 10
529.3743461187939
 20
78.42427846120465
 30
0.0
 11
576.874346118794
 21
51.00014067460445
 31
0.0
  0
LINE
  5
128
330
FE
100
AcDbEntity
  8
0
 62
     1
420
 16711680
370
    25
100
AcDbLine
 10
576.874346118794
 20
51.00014067460445
 30
0.0
 11
581.8743461187934
 21
51.00014067460445
 31
0.0
  0
LINE
  5
129
330
FE
100
AcDbEntity
  8
0
 62
     1
420
 16711680
370
    25
100
AcDbLine
 10
581.8743461187934
 20
51.00014067460445
 30
0.0
 11
581.8743461187934
 21
143.3761837450047
 31
0.0
  0
LINE
  5
12A
330
FE
100
AcDbEntity
  8
0
 62
     1
420
 16711680
370
    25
100
AcDbLine
 10
452.1243461187935
 20
76.83656522090449
 30
0.0
 11
447.124346118794
 21
76.83656522090449
 31
0.0
  0
LINE
  5
12B
330
FE
100
AcDbEntity
  8
0
 62
     1
420
 16711680
370
    25
100
AcDbLine
 10
91.87434611879998
 20
-139.5264912282957
 30
0.0
 11
121.8743461187997
 21
-139.5264912282957
 31
0.0
  0
LINE
  5
12C
330
FE
100
AcDbEntity
  8
0
 62
     1
420
 16711680
370
    25
100
AcDbLine
 10
121.8743461187997
 20
-139.5264912282957
 30
0.0
 11
121.8743461187997
 21
-154.0553943199957
 31
0.0
  0
LINE
  5
12D
330
FE
100
AcDbEntity
  8
0
 62
     1
420
 16711680
370
    25
100
AcDbLine
 10
121.8743461187997
 20
-154.0553943199957
 30
0.0
 11
586.8743461187936
 21
-154.0553943199957
 31
0.0
  0
LINE
  5
12E
330
FE
100
AcDbEntity
  8
0
 62
     1
420
 16711680
370
    25
100
AcDbLine
 10
596.8743461187933
 20
-144.0553943199953
 30
0.0
 11
596.8743461187933
 21
320.9446056800044
 31
0.0
  0
LINE
  5
12F
330
FE
100
AcDbEntity
  8
0
 62
     1
420
 16711680
370
    25
100
AcDbLine
 10
596.8743461187933
 20
320.9446056800044
 30
0.0
 11
524.6243461187939
 21
320.9446056800044
 31
0.0
  0
LINE
  5
130
330
FE
100
AcDbEntity
  8
0
 62
     1
420
 16711680
370
    25
100
AcDbLine
 10
524.6243461187939
 20
320.9446056800044
 30
0.0
 11
524.6243461187939
 21
350.9446056800045
 31
0.0
  0
LINE
  5
131
330
FE
100
AcDbEntity
  8
0
 62
     1
420
 16711680
370
    25
100
AcDbLine
 10
524.6243461187939
 20
350.9446056800045
 30
0.0
 11
452.1243461187935
 21
350.9446056800045
 31
0.0
  0
LINE
  5
132
330
FE
100
AcDbEntity
  8
0
 62
     1
420
 16711680
370
    25
100
AcDbLine
 10
452.1243461187935
 20
350.9446056800045
 30
0.0
 11
452.1243461187935
 21
245.6946056800044
 31
0.0
  0
LINE
  5
133
330
FE
100
AcDbEntity
  8
0
 62
     1
420
 16711680
370
    25
100
AcDbLine
 10
452.1243461187935
 20
245.6946056800044
 30
0.0
 11
432.1243461187935
 21
245.6946056800044
 31
0.0
  0
LINE
  5
134
330
FE
100
AcDbEntity
  8
0
 62
     1
420
 16711680
370
    25
100
AcDbLine
 10
432.1243461187935
 20
245.6946056800044
 30
0.0
 11
432.1243461187935
 21
-4.497588136495638
 31
0.0
  0
LINE
  5
135
330
FE
100
AcDbEntity
  8
0
 62
     1
420
 16711680
370
    25
100
AcDbLine
 10
432.1243461187935
 20
-4.497588136495638
 30
0.0
 11
452.1243461187935
 21
-4.497588136495638
 31
0.0
  0
LINE
  5
136
330
FE
100
AcDbEntity
  8
0
 62
     1
420
 16711680
370
    25
100
AcDbLine
 10
452.1243461187935
 20
-4.497588136495638
 30
0.0
 11
452.1243461187935
 21
-124.9975881364957
 31
0.0
  0
LINE
  5
137
330
FE
100
AcDbEntity
  8
0
 62
     1
420
 16711680
370
    25
100
AcDbLine
 10
452.1243461187935
 20
-124.9975881364957
 30
0.0
 11
331.6243461187935
 21
-124.9975881364957
 31
0.0
  0
LINE
  5
138
330
FE
100
AcDbEntity
  8
0
 62
     1
420
 16711680
370
    25
100
AcDbLine
 10
331.6243461187935
 20
-124.9975881364957
 30
0.0
 11
331.6243461187935
 21
-104.9975881364956
 31
0.0
  0
LINE
  5
139
330
FE
100
AcDbEntity
  8
0
 62
     1
420
 16711680
370
    25
100
AcDbLine
 10
331.6243461187935
 20
-104.9975881364956
 30
0.0
 11
167.1243461187938
 21
-104.9975881364956
 31
0.0
  0
LINE
  5
13A
330
FE
100
AcDbEntity
  8
0
 62
     1
420
 16711680
370
    25
100
AcDbLine
 10
167.1243461187938
 20
-104.9975881364956
 30
0.0
 11
167.1243461187938
 21
-124.9975881364957
 31
0.0
  0
LINE
  5
13B
330
FE
100
AcDbEntity
  8
0
 62
     1
420
 16711680
370
    25
100
AcDbLine
 10
167.1243461187938
 20
-124.9975881364957
 30
0.0
 11
91.87434611879998
 21
-124.9975881364957
 31
0.0
  0
LINE
  5
13C
330
FE
100
AcDbEntity
  8
0
 62
     1
420
 16711680
370
    25
100
AcDbLine
 10
91.87434611879998
 20
-124.9975881364957
 30
0.0
 11
91.87434611879998
 21
-139.5264912282957
 31
0.0
  0
SPLINE
  5
13D
330
FE
100
AcDbEntity
  8
0
 62
     1
420
 16711680
370
    25
100
AcDbSpline
210
0.0
220
0.0
230
1.0
 70
     8
 71
     3
 72
     8
 73
     4
 74
     0
 42
0.0000000001
 43
0.0000000001
 40
0.0
 40
0.0
 40
0.0
 40
0.0
 40
1.0
 40
1.0
 40
1.0
 40
1.0
 10
586.8743461187936
 20
-154.0553943199957
 30
0.0
 10
592.3971936171019
 20
-154.0553943199957
 30
0.0
 10
596.8743461187933
 20
-149.5782418183036
 30
0.0
 10
596.8743461187933
 20
-144.0553943199953
 30
0.0
  0
ENDBLK
  5
101
330
FE
100
AcDbEntity
  8
0
100
AcDbBlockEnd
  0
ENDSEC
  0
SECTION
  2
ENTITIES
  0
INSERT
  5
79
330
70
100
AcDbEntity
  8
0
100
AcDbBlockReference
  2
Block_0
 10
0.0
 20
0.0
 30
0.0
  0
INSERT
  5
AE
330
70
100
AcDbEntity
  8
0
100
AcDbBlockReference
  2
Block_1
 10
0.0
 20
0.0
 30
0.0
  0
INSERT
  5
E3
330
70
100
AcDbEntity
  8
0
100
AcDbBlockReference
  2
Block_2
 10
0.0
 20
0.0
 30
0.0
  0
INSERT
  5
F1
330
70
100
AcDbEntity
  8
0
100
AcDbBlockReference
  2
Block_3
 10
0.0
 20
0.0
 30
0.0
  0
INSERT
  5
FF
330
70
100
AcDbEntity
  8
0
100
AcDbBlockReference
  2
Block_4
 10
0.0
 20
0.0
 30
0.0
  0
ENDSEC
  0
SECTION
  2
OBJECTS
  0
DICTIONARY
  5
C
330
0
100
AcDbDictionary
281
     1
  3
ACAD_COLOR
350
63
  3
ACAD_DETAILVIEWSTYLE
350
6A
  3
ACAD_GROUP
350
D
  3
ACAD_LAYOUT
350
62
  3
ACAD_MATERIAL
350
10
  3
ACAD_MLEADERSTYLE
350
66
  3
ACAD_MLINESTYLE
350
5F
  3
ACAD_PLOTSETTINGS
350
61
  3
ACAD_PLOTSTYLENAME
350
E
  3
ACAD_SCALELIST
350
42
  3
ACAD_SECTIONVIEWSTYLE
350
68
  3
ACAD_TABLESTYLE
350
64
  3
ACAD_VISUALSTYLE
350
29
  3
ACDB_RECOMPOSE_DATA
350
146
  3
AcDbVariableDictionary
350
13E
  0
DICTIONARY
  5
63
102
{ACAD_REACTORS
330
C
102
}
330
C
100
AcDbDictionary
281
     1
  0
DICTIONARY
  5
6A
102
{ACAD_REACTORS
330
C
102
}
330
C
100
AcDbDictionary
281
     1
  3
Imperial24
350
6B
  0
DICTIONARY
  5
D
102
{ACAD_REACTORS
330
C
102
}
330
C
100
AcDbDictionary
281
     1
  0
DICTIONARY
  5
62
102
{ACAD_REACTORS
330
C
102
}
330
C
100
AcDbDictionary
281
     1
  3
Layout1
350
6F
  3
Layout2
350
77
  3
Model
350
73
  0
DICTIONARY
  5
10
102
{ACAD_REACTORS
330
C
102
}
330
C
100
AcDbDictionary
281
     1
  3
ByBlock
350
19
  3
ByLayer
350
11
  3
Global
350
21
  0
DICTIONARY
  5
66
102
{ACAD_REACTORS
330
C
102
}
330
C
100
AcDbDictionary
281
     1
  3
Standard
350
67
  0
DICTIONARY
  5
5F
102
{ACAD_REACTORS
330
C
102
}
330
C
100
AcDbDictionary
281
     1
  3
Standard
350
60
  0
DICTIONARY
  5
61
102
{ACAD_REACTORS
330
C
102
}
330
C
100
AcDbDictionary
281
     1
  0
ACDBDICTIONARYWDFLT
  5
E
102
{ACAD_REACTORS
330
C
102
}
330
C
100
AcDbDictionary
281
     1
  3
Normal
350
F
100
AcDbDictionaryWithDefault
340
F
  0
DICTIONARY
  5
42
102
{ACAD_REACTORS
330
C
102
}
330
C
100
AcDbDictionary
281
     1
  3
A0
350
43
  3
A1
350
44
  3
A2
350
45
  3
A3
350
46
  3
A4
350
47
  3
A5
350
48
  3
A6
350
49
  3
A7
350
4A
  3
A8
350
4B
  3
A9
350
4C
  3
B0
350
4D
  3
B1
350
4E
  3
B2
350
4F
  3
B3
350
50
  3
B4
350
51
  3
B5
350
52
  3
B6
350
53
  0
DICTIONARY
  5
68
102
{ACAD_REACTORS
330
C
102
}
330
C
100
AcDbDictionary
281
     1
  3
Imperial24
350
69
  0
DICTIONARY
  5
64
102
{ACAD_REACTORS
330
C
102
}
330
C
100
AcDbDictionary
281
     1
  3
Standard
350
65
  0
DICTIONARY
  5
29
102
{ACAD_REACTORS
330
C
102
}
330
C
100
AcDbDictionary
281
     1
  3
2dWireframe
350
2F
  3
Basic
350
2E
  3
Brighten
350
35
  3
ColorChange
350
39
  3
Conceptual
350
32
  3
Dim
350
34
  3
EdgeColorOff
350
41
  3
Facepattern
350
38
  3
Flat
350
2A
  3
FlatWithEdges
350
2B
  3
Gouraud
350
2C
  3
GouraudWithEdges
350
2D
  3
Hidden
350
31
  3
JitterOff
350
3F
  3
Linepattern
350
37
  3
OverhangOff
350
40
  3
Realistic
350
33
  3
Shaded
350
3E
  3
Shaded with edges
350
3D
  3
Shades of Gray
350
3A
  3
Sketchy
350
3B
  3
Thicken
350
36
  3
Wireframe
350
30
  3
X-Ray
350
3C
  0
XRECORD
  5
146
102
{ACAD_REACTORS
330
C
102
}
330
C
100
AcDbXrecord
280
     1
 90
        1
330
65
  0
DICTIONARY
  5
13E
102
{ACAD_REACTORS
330
C
102
}
330
C
100
AcDbDictionary
281
     1
  3
CANNOSCALE
350
143
  3
CMLEADERSTYLE
350
140
  3
CTABLESTYLE
350
13F
  3
CVIEWDETAILSTYLE
350
141
  3
CVIEWSECTIONSTYLE
350
142
  0
ACDBDETAILVIEWSTYLE
  5
6B
102
{ACAD_REACTORS
330
6A
102
}
330
6A
100
AcDbModelDocViewStyle
 70
     0
  3
Imperial24
290
     1
300
Imperial24
 90
        0
100
AcDbDetailViewStyle
 70
     0
 71
     0
 90
        3
 71
     1
340
55
 62
   256
 40
0.24
340
0
 62
   256
 40
0.24
300

 40
0.36
280
     3
 71
     2
340
5D
 90
       25
 62
   256
 71
     3
340
55
 62
   256
 40
0.24
 90
        1
 40
0.75
 90
        1
300
%<\AcVar ViewType \f "%tc1">% %<\AcVar ViewDetailId>%\PSCALE %<\AcVar ViewScale \f "%sn">%
 71
     4
340
5D
 90
       25
 62
   256
340
5D
 90
       25
 62
   256
280
     0
  0
LAYOUT
  5
6F
102
{ACAD_REACTORS
330
62
102
}
330
62
100
AcDbPlotSettings
  1

  2

  4

  6

 40
0.0
 41
0.0
 42
0.0
 43
0.0
 44
0.0
 45
0.0
 46
0.0
 47
0.0
 48
0.0
 49
0.0
140
0.0
141
0.0
142
1.0
143
1.0
 70
   688
 72
     0
 73
     0
 74
     5
  7

 75
    16
147
1.0
 76
     0
 77
     2
 78
   300
148
0.0
149
0.0
100
AcDbLayout
  1
Layout1
 70
     1
 71
     1
 10
0.0
 20
0.0
 11
12.0
 21
9.0
 12
0.0
 22
0.0
 32
0.0
 14
0.0
 24
0.0
 34
0.0
 15
0.0
 25
0.0
 35
0.0
146
0.0
 13
0.0
 23
0.0
 33
0.0
 16
1.0
 26
0.0
 36
0.0
 17
0.0
 27
1.0
 37
0.0
 76
     0
330
6C
  0
LAYOUT
  5
77
102
{ACAD_REACTORS
330
62
102
}
330
62
100
AcDbPlotSettings
  1

  2

  4

  6

 40
0.0
 41
0.0
 42
0.0
 43
0.0
 44
0.0
 45
0.0
 46
0.0
 47
0.0
 48
0.0
 49
0.0
140
0.0
141
0.0
142
1.0
143
1.0
 70
   688
 72
     0
 73
     0
 74
     5
  7

 75
    16
147
1.0
 76
     0
 77
     2
 78
   300
148
0.0
149
0.0
100
AcDbLayout
  1
Layout2
 70
     1
 71
     2
 10
0.0
 20
0.0
 11
12.0
 21
9.0
 12
0.0
 22
0.0
 32
0.0
 14
0.0
 24
0.0
 34
0.0
 15
0.0
 25
0.0
 35
0.0
146
0.0
 13
0.0
 23
0.0
 33
0.0
 16
1.0
 26
0.0
 36
0.0
 17
0.0
 27
1.0
 37
0.0
 76
     0
330
74
  0
LAYOUT
  5
73
102
{ACAD_REACTORS
330
62
102
}
330
62
100
AcDbPlotSettings
  1

  2

  4

  6

 40
0.0
 41
0.0
 42
0.0
 43
0.0
 44
0.0
 45
0.0
 46
0.0
 47
0.0
 48
0.0
 49
0.0
140
0.0
141
0.0
142
1.0
143
1.0
 70
  1712
 72
     0
 73
     0
 74
     0
  7

 75
     0
147
1.0
 76
     0
 77
     2
 78
   300
148
0.0
149
0.0
100
AcDbLayout
  1
Model
 70
     1
 71
     0
 10
0.0
 20
0.0
 11
12.0
 21
9.0
 12
0.0
 22
0.0
 32
0.0
 14
0.0
 24
0.0
 34
0.0
 15
0.0
 25
0.0
 35
0.0
146
0.0
 13
0.0
 23
0.0
 33
0.0
 16
1.0
 26
0.0
 36
0.0
 17
0.0
 27
1.0
 37
0.0
 76
     0
330
70
  0
MATERIAL
  5
19
102
{ACAD_XDICTIONARY
360
1A
102
}
102
{ACAD_REACTORS
330
10
102
}
330
10
100
AcDbMaterial
  1
ByBlock
 72
     0
 43
0.0208333333333333
 43
0.0
 43
0.0
 43
0.0
 43
0.0
 43
0.0208333333333333
 43
0.0
 43
0.0
 43
0.0
 43
0.0
 43
1.0
 43
0.0
 43
0.0
 43
0.0
 43
0.0
 43
1.0
 77
     0
 47
0.0208333333333333
 47
0.0
 47
0.0
 47
0.0
 47
0.0
 47
0.0208333333333333
 47
0.0
 47
0.0
 47
0.0
 47
0.0
 47
1.0
 47
0.0
 47
0.0
 47
0.0
 47
0.0
 47
1.0
171
     0
 49
0.0208333333333333
 49
0.0
 49
0.0
 49
0.0
 49
0.0
 49
0.0208333333333333
 49
0.0
 49
0.0
 49
0.0
 49
0.0
 49
1.0
 49
0.0
 49
0.0
 49
0.0
 49
0.0
 49
1.0
175
     0
142
0.0208333333333333
142
0.0
142
0.0
142
0.0
142
0.0
142
0.0208333333333333
142
0.0
142
0.0
142
0.0
142
0.0
142
1.0
142
0.0
142
0.0
142
0.0
142
0.0
142
1.0
179
     0
144
0.0208333333333333
144
0.0
144
0.0
144
0.0
144
0.0
144
0.0208333333333333
144
0.0
144
0.0
144
0.0
144
0.0
144
1.0
144
0.0
144
0.0
144
0.0
144
0.0
144
1.0
147
0.0208333333333333
147
0.0
147
0.0
147
0.0
147
0.0
147
0.0208333333333333
147
0.0
147
0.0
147
0.0
147
0.0
147
1.0
147
0.0
147
0.0
147
0.0
147
0.0
147
1.0
  0
MATERIAL
  5
11
102
{ACAD_XDICTIONARY
360
12
102
}
102
{ACAD_REACTORS
330
10
102
}
330
10
100
AcDbMaterial
  1
ByLayer
 72
     0
 43
0.0208333333333333
 43
0.0
 43
0.0
 43
0.0
 43
0.0
 43
0.0208333333333333
 43
0.0
 43
0.0
 43
0.0
 43
0.0
 43
1.0
 43
0.0
 43
0.0
 43
0.0
 43
0.0
 43
1.0
 77
     0
 47
0.0208333333333333
 47
0.0
 47
0.0
 47
0.0
 47
0.0
 47
0.0208333333333333
 47
0.0
 47
0.0
 47
0.0
 47
0.0
 47
1.0
 47
0.0
 47
0.0
 47
0.0
 47
0.0
 47
1.0
171
     0
 49
0.0208333333333333
 49
0.0
 49
0.0
 49
0.0
 49
0.0
 49
0.0208333333333333
 49
0.0
 49
0.0
 49
0.0
 49
0.0
 49
1.0
 49
0.0
 49
0.0
 49
0.0
 49
0.0
 49
1.0
175
     0
142
0.0208333333333333
142
0.0
142
0.0
142
0.0
142
0.0
142
0.0208333333333333
142
0.0
142
0.0
142
0.0
142
0.0
142
1.0
142
0.0
142
0.0
142
0.0
142
0.0
142
1.0
179
     0
144
0.0208333333333333
144
0.0
144
0.0
144
0.0
144
0.0
144
0.0208333333333333
144
0.0
144
0.0
144
0.0
144
0.0
144
1.0
144
0.0
144
0.0
144
0.0
144
0.0
144
1.0
147
0.0208333333333333
147
0.0
147
0.0
147
0.0
147
0.0
147
0.0208333333333333
147
0.0
147
0.0
147
0.0
147
0.0
147
1.0
147
0.0
147
0.0
147
0.0
147
0.0
147
1.0
  0
MATERIAL
  5
21
102
{ACAD_XDICTIONARY
360
22
102
}
102
{ACAD_REACTORS
330
10
102
}
330
10
100
AcDbMaterial
  1
Global
 72
     0
 43
0.0208333333333333
 43
0.0
 43
0.0
 43
0.0
 43
0.0
 43
0.0208333333333333
 43
0.0
 43
0.0
 43
0.0
 43
0.0
 43
1.0
 43
0.0
 43
0.0
 43
0.0
 43
0.0
 43
1.0
 77
     0
 47
0.0208333333333333
 47
0.0
 47
0.0
 47
0.0
 47
0.0
 47
0.0208333333333333
 47
0.0
 47
0.0
 47
0.0
 47
0.0
 47
1.0
 47
0.0
 47
0.0
 47
0.0
 47
0.0
 47
1.0
171
     0
 49
0.0208333333333333
 49
0.0
 49
0.0
 49
0.0
 49
0.0
 49
0.0208333333333333
 49
0.0
 49
0.0
 49
0.0
 49
0.0
 49
1.0
 49
0.0
 49
0.0
 49
0.0
 49
0.0
 49
1.0
175
     0
142
0.0208333333333333
142
0.0
142
0.0
142
0.0
142
0.0
142
0.0208333333333333
142
0.0
142
0.0
142
0.0
142
0.0
142
1.0
142
0.0
142
0.0
142
0.0
142
0.0
142
1.0
179
     0
144
0.0208333333333333
144
0.0
144
0.0
144
0.0
144
0.0
144
0.0208333333333333
144
0.0
144
0.0
144
0.0
144
0.0
144
1.0
144
0.0
144
0.0
144
0.0
144
0.0
144
1.0
147
0.0208333333333333
147
0.0
147
0.0
147
0.0
147
0.0
147
0.0208333333333333
147
0.0
147
0.0
147
0.0
147
0.0
147
1.0
147
0.0
147
0.0
147
0.0
147
0.0
147
1.0
  0
MLEADERSTYLE
  5
67
102
{ACAD_REACTORS
330
66
102
}
330
66
100
AcDbMLeaderStyle
179
     2
170
     2
171
     1
172
     0
 90
        2
 40
0.0
 41
0.0
173
     1
 91
-1056964608
340
5B
 92
       -2
290
     1
 42
0.09
291
     1
 43
0.36
  3
Standard
 44
0.18
300

342
55
174
     1
178
     6
175
     1
176
     0
 93
-1056964608
 45
0.18
292
     0
297
     0
 46
0.18
 94
-1056964608
 47
1.0
 49
1.0
140
1.0
293
     1
141
0.0
294
     1
177
     0
142
1.0
295
     1
296
     0
143
0.125
271
     0
272
     9
273
     9
298
     1
  0
MLINESTYLE
  5
60
102
{ACAD_REACTORS
330
5F
102
}
330
5F
100
AcDbMlineStyle
  2
STANDARD
 70
     0
  3

 62
   256
 51
90.0
 52
90.0
 71
     2
 49
0.5
 62
   256
  6
BYLAYER
 49
-0.5
 62
   256
  6
BYLAYER
  0
ACDBPLACEHOLDER
  5
F
102
{ACAD_REACTORS
330
E
102
}
330
E
  0
SCALE
  5
43
102
{ACAD_REACTORS
330
42
102
}
330
42
100
AcDbScale
 70
     0
300
1:1
140
1.0
141
1.0
290
     1
  0
SCALE
  5
44
102
{ACAD_REACTORS
330
42
102
}
330
42
100
AcDbScale
 70
     0
300
1/128" = 1'-0"
140
0.0078125
141
12.0
290
     0
  0
SCALE
  5
45
102
{ACAD_REACTORS
330
42
102
}
330
42
100
AcDbScale
 70
     0
300
1/64" = 1'-0"
140
0.015625
141
12.0
290
     0
  0
SCALE
  5
46
102
{ACAD_REACTORS
330
42
102
}
330
42
100
AcDbScale
 70
     0
300
1/32" = 1'-0"
140
0.03125
141
12.0
290
     0
  0
SCALE
  5
47
102
{ACAD_REACTORS
330
42
102
}
330
42
100
AcDbScale
 70
     0
300
1/16" = 1'-0"
140
0.0625
141
12.0
290
     0
  0
SCALE
  5
48
102
{ACAD_REACTORS
330
42
102
}
330
42
100
AcDbScale
 70
     0
300
3/32" = 1'-0"
140
0.09375
141
12.0
290
     0
  0
SCALE
  5
49
102
{ACAD_REACTORS
330
42
102
}
330
42
100
AcDbScale
 70
     0
300
1/8" = 1'-0"
140
0.125
141
12.0
290
     0
  0
SCALE
  5
4A
102
{ACAD_REACTORS
330
42
102
}
330
42
100
AcDbScale
 70
     0
300
3/16" = 1'-0"
140
0.1875
141
12.0
290
     0
  0
SCALE
  5
4B
102
{ACAD_REACTORS
330
42
102
}
330
42
100
AcDbScale
 70
     0
300
1/4" = 1'-0"
140
0.25
141
12.0
290
     0
  0
SCALE
  5
4C
102
{ACAD_REACTORS
330
42
102
}
330
42
100
AcDbScale
 70
     0
300
3/8" = 1'-0"
140
0.375
141
12.0
290
     0
  0
SCALE
  5
4D
102
{ACAD_REACTORS
330
42
102
}
330
42
100
AcDbScale
 70
     0
300
1/2" = 1'-0"
140
0.5
141
12.0
290
     0
  0
SCALE
  5
4E
102
{ACAD_REACTORS
330
42
102
}
330
42
100
AcDbScale
 70
     0
300
3/4" = 1'-0"
140
0.75
141
12.0
290
     0
  0
SCALE
  5
4F
102
{ACAD_REACTORS
330
42
102
}
330
42
100
AcDbScale
 70
     0
300
1" = 1'-0"
140
1.0
141
12.0
290
     0
  0
SCALE
  5
50
102
{ACAD_REACTORS
330
42
102
}
330
42
100
AcDbScale
 70
     0
300
1-1/2" = 1'-0"
140
1.5
141
12.0
290
     0
  0
SCALE
  5
51
102
{ACAD_REACTORS
330
42
102
}
330
42
100
AcDbScale
 70
     0
300
3" = 1'-0"
140
3.0
141
12.0
290
     0
  0
SCALE
  5
52
102
{ACAD_REACTORS
330
42
102
}
330
42
100
AcDbScale
 70
     0
300
6" = 1'-0"
140
6.0
141
12.0
290
     0
  0
SCALE
  5
53
102
{ACAD_REACTORS
330
42
102
}
330
42
100
AcDbScale
 70
     0
300
1'-0" = 1'-0"
140
12.0
141
12.0
290
     0
  0
ACDBSECTIONVIEWSTYLE
  5
69
102
{ACAD_REACTORS
330
68
102
}
330
68
100
AcDbModelDocViewStyle
 70
     0
  3
Imperial24
290
     1
300
Imperial24
 90
        0
100
AcDbSectionViewStyle
 70
     0
 71
     0
 90
       78
 71
     1
340
55
 62
   256
 40
0.24
340
0
340
0
 62
   256
 40
0.24
300
I, O, Q, S, X, Z
 40
0.48
 90
        3
 40
0.18
 90
        1
 71
     2
340
5D
 90
       25
 62
   256
340
5D
 90
       50
 62
   256
 40
0.24
 40
0.0
 40
0.24
 71
     3
340
55
 62
   256
 40
0.24
 90
        1
 40
0.75
 90
        1
300
%<\AcVar ViewType \f "%tc1">% %<\AcVar ViewSectionStartId>%-%<\AcVar ViewSectionEndId>%\PSCALE %<\AcVar ViewScale \f "%sn">%
 71
     4
 62
   256
 62
   257
300
ANSI31
 40
1.0
 90
        0
290
     0
290
     0
 90
        6
 40
0.0
 40
1.570796326794896
 40
0.2617993877991494
 40
1.308996938995747
 40
-0.2617993877991494
 40
1.832595714594046
  0
TABLESTYLE
  5
65
102
{ACAD_XDICTIONARY
360
144
102
}
102
{ACAD_REACTORS
330
64
102
}
330
64
100
AcDbTableStyle
280
     0
  3
Standard
 70
     0
 71
     0
 40
0.06
 41
0.06
280
     0
281
     0
  7
Standard
140
0.18
170
     2
 62
     0
 63
     7
283
     0
 90
      512
 91
        0
  1

274
    -2
284
     1
 64
     0
275
    -2
285
     1
 65
     0
276
    -2
286
     1
 66
     0
277
    -2
287
     1
 67
     0
278
    -2
288
     1
 68
     0
279
    -2
289
     1
 69
     0
  7
Standard
140
0.25
170
     5
 62
     0
 63
     7
283
     0
 90
      512
 91
        0
  1

274
    -2
284
     1
 64
     0
275
    -2
285
     1
 65
     0
276
    -2
286
     1
 66
     0
277
    -2
287
     1
 67
     0
278
    -2
288
     1
 68
     0
279
    -2
289
     1
 69
     0
  7
Standard
140
0.18
170
     5
 62
     0
 63
     7
283
     0
 90
      512
 91
        0
  1

274
    -2
284
     1
 64
     0
275
    -2
285
     1
 65
     0
276
    -2
286
     1
 66
     0
277
    -2
287
     1
 67
     0
278
    -2
288
     1
 68
     0
279
    -2
289
     1
 69
     0
  0
VISUALSTYLE
  5
2F
102
{ACAD_REACTORS
330
29
102
}
330
29
100
AcDbVisualStyle
  2
2dWireframe
 70
     4
177
     3
291
     0
 70
    58
 90
        0
176
     1
 90
        2
176
     1
 90
        0
176
     1
 90
        0
176
     1
 40
0.6
176
     1
 40
30.0
176
     1
 62
     7
420
 16777215
176
     1
 90
        1
176
     1
 90
        4
176
     1
 62
     7
176
     1
 62
   257
176
     1
 90
        1
176
     1
 90
        1
176
     1
 40
1.0
176
     1
 90
        0
176
     1
 62
   257
176
     1
 40
1.0
176
     1
 90
        1
176
     1
 90
        6
176
     1
 90
        2
176
     1
 62
     7
176
     1
 90
        5
176
     1
 90
        0
176
     1
 90
        0
176
     1
290
     0
176
     1
 90
        1
176
     1
 40
0.0
176
     1
 90
        0
176
     1
290
     1
176
     1
290
     1
176
     1
290
     0
176
     1
290
     0
176
     1
290
     0
176
     1
290
     0
176
     1
290
     0
176
     1
290
     0
176
     1
290
     0
176
     1
 90
       50
176
     1
 40
0.0
176
     1
 40
1.0
176
     1
 90
        0
176
     1
 62
    18
420
        0
176
     1
 90
       50
176
     1
 90
        3
176
     1
 62
     5
420
      255
176
     1
290
     0
176
     1
 90
       50
176
     1
 90
       50
176
     1
 90
       50
176
     1
290
     0
176
     1
 90
       50
176
     1
 62
   256
176
     0
 40
1.0
176
     0
 90
        2
176
     1
  1
strokes_ogs.tif
176
     1
290
     0
176
     1
 40
1.0
176
     1
 40
1.0
176
     1
  0
VISUALSTYLE
  5
2E
102
{ACAD_REACTORS
330
29
102
}
330
29
100
AcDbVisualStyle
  2
Basic
 70
     7
177
     3
291
     1
 70
    58
 90
        1
176
     1
 90
        0
176
     1
 90
        1
176
     1
 90
        0
176
     1
 40
0.6
176
     1
 40
30.0
176
     1
 62
     7
420
 16777215
176
     1
 90
        0
176
     1
 90
        4
176
     1
 62
     7
176
     1
 62
   257
176
     1
 90
        1
176
     1
 90
        1
176
     1
 40
1.0
176
     1
 90
        8
176
     1
 62
     7
176
     1
 40
1.0
176
     1
 90
        1
176
     1
 90
        6
176
     1
 90
        2
176
     1
 62
     7
176
     1
 90
        5
176
     1
 90
        0
176
     1
 90
        0
176
     1
290
     0
176
     1
 90
        1
176
     1
 40
0.0
176
     1
 90
        0
176
     1
290
     0
176
     1
290
     1
176
     1
290
     1
176
     1
290
     0
176
     1
290
     0
176
     1
290
     0
176
     1
290
     0
176
     1
290
     0
176
     1
290
     0
176
     1
 90
       50
176
     1
 40
0.0
176
     1
 40
1.0
176
     1
 90
        0
176
     1
 62
    18
420
        0
176
     1
 90
       50
176
     1
 90
        3
176
     1
 62
     5
420
      255
176
     1
290
     0
176
     1
 90
       50
176
     1
 90
       50
176
     1
 90
       50
176
     1
290
     0
176
     1
 90
       50
176
     1
 62
   256
176
     0
 40
1.0
176
     0
 90
        2
176
     1
  1
strokes_ogs.tif
176
     1
290
     0
176
     1
 40
1.0
176
     1
 40
1.0
176
     1
  0
VISUALSTYLE
  5
35
102
{ACAD_REACTORS
330
29
102
}
330
29
100
AcDbVisualStyle
  2
Brighten
 70
    12
177
     3
291
     1
 70
    58
 90
        2
176
     1
 90
        2
176
     1
 90
        0
176
     1
 90
        0
176
     1
 40
0.6
176
     1
 40
30.0
176
     1
 62
     7
420
 16777215
176
     1
 90
        1
176
     1
 90
        4
176
     1
 62
     7
176
     1
 62
   257
176
     1
 90
        1
176
     1
 90
        1
176
     1
 40
1.0
176
     1
 90
        8
176
     1
 62
     7
176
     1
 40
1.0
176
     1
 90
        1
176
     1
 90
        6
176
     1
 90
        2
176
     1
 62
     7
176
     1
 90
        5
176
     1
 90
        0
176
     1
 90
        0
176
     1
290
     0
176
     1
 90
        1
176
     1
 40
50.0
176
     1
 90
        0
176
     1
290
     0
176
     1
290
     1
176
     1
290
     1
176
     1
290
     0
176
     1
290
     0
176
     1
290
     0
176
     1
290
     0
176
     1
290
     0
176
     1
290
     0
176
     1
 90
       50
176
     1
 40
0.0
176
     1
 40
1.0
176
     1
 90
        0
176
     1
 62
    18
420
        0
176
     1
 90
       50
176
     1
 90
        3
176
     1
 62
     5
420
      255
176
     1
290
     0
176
     1
 90
       50
176
     1
 90
       50
176
     1
 90
       50
176
     1
290
     0
176
     1
 90
       50
176
     1
 62
   256
176
     0
 40
1.0
176
     0
 90
        2
176
     1
  1
strokes_ogs.tif
176
     1
290
     0
176
     1
 40
1.0
176
     1
 40
1.0
176
     1
  0
VISUALSTYLE
  5
39
102
{ACAD_REACTORS
330
29
102
}
330
29
100
AcDbVisualStyle
  2
ColorChange
 70
    16
177
     3
291
     1
 70
    58
 90
        2
176
     1
 90
        2
176
     1
 90
        3
176
     1
 90
        0
176
     1
 40
0.6
176
     1
 40
30.0
176
     1
 62
     8
420
  8421504
176
     1
 90
        1
176
     1
 90
        4
176
     1
 62
     7
176
     1
 62
   257
176
     1
 90
        1
176
     1
 90
        1
176
     1
 40
1.0
176
     1
 90
        8
176
     1
 62
     8
420
  8421504
176
     1
 40
1.0
176
     1
 90
        1
176
     1
 90
        6
176
     1
 90
        2
176
     1
 62
     7
176
     1
 90
        5
176
     1
 90
        0
176
     1
 90
        0
176
     1
290
     0
176
     1
 90
        1
176
     1
 40
0.0
176
     1
 90
        0
176
     1
290
     0
176
     1
290
     1
176
     1
290
     1
176
     1
290
     0
176
     1
290
     0
176
     1
290
     0
176
     1
290
     0
176
     1
290
     0
176
     1
290
     0
176
     1
 90
       50
176
     1
 40
0.0
176
     1
 40
1.0
176
     1
 90
        0
176
     1
 62
    18
420
        0
176
     1
 90
       50
176
     1
 90
        3
176
     1
 62
     5
420
      255
176
     1
290
     0
176
     1
 90
       50
176
     1
 90
       50
176
     1
 90
       50
176
     1
290
     0
176
     1
 90
       50
176
     1
 62
   256
176
     0
 40
1.0
176
     0
 90
        2
176
     1
  1
strokes_ogs.tif
176
     1
290
     0
176
     1
 40
1.0
176
     1
 40
1.0
176
     1
  0
VISUALSTYLE
  5
32
102
{ACAD_REACTORS
330
29
102
}
330
29
100
AcDbVisualStyle
  2
Conceptual
 70
     9
177
     3
291
     0
 70
    58
 90
        3
176
     1
 90
        2
176
     1
 90
        0
176
     1
 90
        0
176
     1
 40
0.6
176
     1
 40
30.0
176
     1
 62
     7
420
 16777215
176
     1
 90
        2
176
     1
 90
        2
176
     1
 62
     7
176
     1
 62
   257
176
     1
 90
        1
176
     1
 90
        1
176
     1
 40
179.0
176
     1
 90
        8
176
     1
 62
     7
176
     1
 40
1.0
176
     1
 90
        1
176
     1
 90
        6
176
     1
 90
        2
176
     1
 62
     7
176
     1
 90
        3
176
     1
 90
        0
176
     1
 90
        0
176
     1
290
     0
176
     1
 90
        1
176
     1
 40
0.0
176
     1
 90
        0
176
     1
290
     0
176
     1
290
     1
176
     1
290
     1
176
     1
290
     0
176
     1
290
     0
176
     1
290
     0
176
     1
290
     0
176
     1
290
     0
176
     1
290
     0
176
     1
 90
       50
176
     1
 40
0.0
176
     1
 40
1.0
176
     1
 90
        0
176
     1
 62
    18
420
        0
176
     1
 90
       50
176
     1
 90
        3
176
     1
 62
     5
420
      255
176
     1
290
     0
176
     1
 90
       50
176
     1
 90
       50
176
     1
 90
       50
176
     1
290
     0
176
     1
 90
       50
176
     1
 62
   256
176
     0
 40
1.0
176
     0
 90
        2
176
     1
  1
strokes_ogs.tif
176
     1
290
     0
176
     1
 40
1.0
176
     1
 40
1.0
176
     1
  0
VISUALSTYLE
  5
34
102
{ACAD_REACTORS
330
29
102
}
330
29
100
AcDbVisualStyle
  2
Dim
 70
    11
177
     3
291
     1
 70
    58
 90
        2
176
     1
 90
        2
176
     1
 90
        0
176
     1
 90
        0
176
     1
 40
0.6
176
     1
 40
30.0
176
     1
 62
     7
420
 16777215
176
     1
 90
        1
176
     1
 90
        4
176
     1
 62
     7
176
     1
 62
   257
176
     1
 90
        1
176
     1
 90
        1
176
     1
 40
1.0
176
     1
 90
        8
176
     1
 62
     7
176
     1
 40
1.0
176
     1
 90
        1
176
     1
 90
        6
176
     1
 90
        2
176
     1
 62
     7
176
     1
 90
        5
176
     1
 90
        0
176
     1
 90
        0
176
     1
290
     0
176
     1
 90
        1
176
     1
 40
-50.0
176
     1
 90
        0
176
     1
290
     0
176
     1
290
     1
176
     1
290
     1
176
     1
290
     0
176
     1
290
     0
176
     1
290
     0
176
     1
290
     0
176
     1
290
     0
176
     1
290
     0
176
     1
 90
       50
176
     1
 40
0.0
176
     1
 40
1.0
176
     1
 90
        0
176
     1
 62
    18
420
        0
176
     1
 90
       50
176
     1
 90
        3
176
     1
 62
     5
420
      255
176
     1
290
     0
176
     1
 90
       50
176
     1
 90
       50
176
     1
 90
       50
176
     1
290
     0
176
     1
 90
       50
176
     1
 62
   256
176
     0
 40
1.0
176
     0
 90
        2
176
     1
  1
strokes_ogs.tif
176
     1
290
     0
176
     1
 40
1.0
176
     1
 40
1.0
176
     1
  0
VISUALSTYLE
  5
41
102
{ACAD_REACTORS
330
29
102
}
330
29
100
AcDbVisualStyle
  2
EdgeColorOff
 70
    22
177
     3
291
     1
 70
    58
 90
        2
176
     0
 90
        2
176
     0
 90
        0
176
     0
 90
        0
176
     0
 40
0.6
176
     0
 40
30.0
176
     0
 62
     7
420
 16777215
176
     0
 90
        1
176
     0
 90
        4
176
     0
 62
     7
176
     0
 62
   257
176
     0
 90
        1
176
     0
 90
        1
176
     0
 40
1.0
176
     0
 90
        8
176
     2
 62
     7
176
     0
 40
1.0
176
     0
 90
        1
176
     0
 90
        6
176
     0
 90
        2
176
     0
 62
     7
176
     0
 90
        5
176
     0
 90
        0
176
     0
 90
        0
176
     0
290
     0
176
     0
 90
        1
176
     0
 40
0.0
176
     0
 90
        0
176
     0
290
     0
176
     0
290
     1
176
     0
290
     1
176
     0
290
     0
176
     0
290
     0
176
     0
290
     0
176
     0
290
     0
176
     0
290
     0
176
     0
290
     0
176
     0
 90
       50
176
     0
 40
0.0
176
     0
 40
1.0
176
     0
 90
        0
176
     0
 62
    18
420
        0
176
     0
 90
       50
176
     0
 90
        3
176
     0
 62
     5
420
      255
176
     0
290
     0
176
     0
 90
       50
176
     0
 90
       50
176
     0
 90
       50
176
     0
290
     0
176
     0
 90
       50
176
     0
 62
   256
176
     0
 40
1.0
176
     0
 90
        2
176
     0
  1
strokes_ogs.tif
176
     0
290
     0
176
     0
 40
1.0
176
     0
 40
1.0
176
     0
  0
VISUALSTYLE
  5
38
102
{ACAD_REACTORS
330
29
102
}
330
29
100
AcDbVisualStyle
  2
Facepattern
 70
    15
177
     3
291
     1
 70
    58
 90
        2
176
     1
 90
        2
176
     1
 90
        0
176
     1
 90
        0
176
     1
 40
0.6
176
     1
 40
30.0
176
     1
 62
     7
420
 16777215
176
     1
 90
        1
176
     1
 90
        4
176
     1
 62
     7
176
     1
 62
   257
176
     1
 90
        1
176
     1
 90
        1
176
     1
 40
1.0
176
     1
 90
        8
176
     1
 62
     7
176
     1
 40
1.0
176
     1
 90
        1
176
     1
 90
        6
176
     1
 90
        2
176
     1
 62
     7
176
     1
 90
        5
176
     1
 90
        0
176
     1
 90
        0
176
     1
290
     0
176
     1
 90
        1
176
     1
 40
0.0
176
     1
 90
        0
176
     1
290
     0
176
     1
290
     1
176
     1
290
     1
176
     1
290
     0
176
     1
290
     0
176
     1
290
     0
176
     1
290
     0
176
     1
290
     0
176
     1
290
     0
176
     1
 90
       50
176
     1
 40
0.0
176
     1
 40
1.0
176
     1
 90
        0
176
     1
 62
    18
420
        0
176
     1
 90
       50
176
     1
 90
        3
176
     1
 62
     5
420
      255
176
     1
290
     0
176
     1
 90
       50
176
     1
 90
       50
176
     1
 90
       50
176
     1
290
     0
176
     1
 90
       50
176
     1
 62
   256
176
     0
 40
1.0
176
     0
 90
        2
176
     1
  1
strokes_ogs.tif
176
     1
290
     0
176
     1
 40
1.0
176
     1
 40
1.0
176
     1
  0
VISUALSTYLE
  5
2A
102
{ACAD_REACTORS
330
29
102
}
330
29
100
AcDbVisualStyle
  2
Flat
 70
     0
177
     3
291
     1
 70
    58
 90
        2
176
     1
 90
        1
176
     1
 90
        1
176
     1
 90
        2
176
     1
 40
0.6
176
     1
 40
30.0
176
     1
 62
     7
420
 16777215
176
     1
 90
        0
176
     1
 90
        0
176
     1
 62
     7
176
     1
 62
   257
176
     1
 90
        1
176
     1
 90
        1
176
     1
 40
1.0
176
     1
 90
        8
176
     1
 62
     7
176
     1
 40
1.0
176
     1
 90
        1
176
     1
 90
        6
176
     1
 90
        2
176
     1
 62
     7
176
     1
 90
        5
176
     1
 90
        0
176
     1
 90
        0
176
     1
290
     0
176
     1
 90
       13
176
     1
 40
0.0
176
     1
 90
        0
176
     1
290
     0
176
     1
290
     1
176
     1
290
     1
176
     1
290
     0
176
     1
290
     0
176
     1
290
     0
176
     1
290
     0
176
     1
290
     0
176
     1
290
     0
176
     1
 90
       50
176
     1
 40
0.0
176
     1
 40
1.0
176
     1
 90
        0
176
     1
 62
    18
420
        0
176
     1
 90
       50
176
     1
 90
        3
176
     1
 62
     5
420
      255
176
     1
290
     0
176
     1
 90
       50
176
     1
 90
       50
176
     1
 90
       50
176
     1
290
     0
176
     1
 90
       50
176
     1
 62
   256
176
     0
 40
1.0
176
     0
 90
        2
176
     1
  1
strokes_ogs.tif
176
     1
290
     0
176
     1
 40
1.0
176
     1
 40
1.0
176
     1
  0
VISUALSTYLE
  5
2B
102
{ACAD_REACTORS
330
29
102
}
330
29
100
AcDbVisualStyle
  2
FlatWithEdges
 70
     1
177
     3
291
     1
 70
    58
 90
        2
176
     1
 90
        1
176
     1
 90
        1
176
     1
 90
        2
176
     1
 40
0.6
176
     1
 40
30.0
176
     1
 62
     7
420
 16777215
176
     1
 90
        1
176
     1
 90
        0
176
     1
 62
     7
176
     1
 62
   257
176
     1
 90
        1
176
     1
 90
        1
176
     1
 40
1.0
176
     1
 90
        0
176
     1
 62
   257
176
     1
 40
1.0
176
     1
 90
        1
176
     1
 90
        6
176
     1
 90
        2
176
     1
 62
     7
176
     1
 90
        5
176
     1
 90
        0
176
     1
 90
        0
176
     1
290
     0
176
     1
 90
       13
176
     1
 40
0.0
176
     1
 90
        0
176
     1
290
     0
176
     1
290
     1
176
     1
290
     1
176
     1
290
     0
176
     1
290
     0
176
     1
290
     0
176
     1
290
     0
176
     1
290
     0
176
     1
290
     0
176
     1
 90
       50
176
     1
 40
0.0
176
     1
 40
1.0
176
     1
 90
        0
176
     1
 62
    18
420
        0
176
     1
 90
       50
176
     1
 90
        3
176
     1
 62
     5
420
      255
176
     1
290
     0
176
     1
 90
       50
176
     1
 90
       50
176
     1
 90
       50
176
     1
290
     0
176
     1
 90
       50
176
     1
 62
   256
176
     0
 40
1.0
176
     0
 90
        2
176
     1
  1
strokes_ogs.tif
176
     1
290
     0
176
     1
 40
1.0
176
     1
 40
1.0
176
     1
  0
VISUALSTYLE
  5
2C
102
{ACAD_REACTORS
330
29
102
}
330
29
100
AcDbVisualStyle
  2
Gouraud
 70
     2
177
     3
291
     1
 70
    58
 90
        2
176
     1
 90
        2
176
     1
 90
        1
176
     1
 90
        2
176
     1
 40
0.6
176
     1
 40
30.0
176
     1
 62
     7
420
 16777215
176
     1
 90
        0
176
     1
 90
        0
176
     1
 62
     7
176
     1
 62
   257
176
     1
 90
        1
176
     1
 90
        1
176
     1
 40
1.0
176
     1
 90
        0
176
     1
 62
     7
176
     1
 40
1.0
176
     1
 90
        1
176
     1
 90
        6
176
     1
 90
        2
176
     1
 62
     7
176
     1
 90
        5
176
     1
 90
        0
176
     1
 90
        0
176
     1
290
     0
176
     1
 90
       13
176
     1
 40
0.0
176
     1
 90
        0
176
     1
290
     0
176
     1
290
     1
176
     1
290
     1
176
     1
290
     0
176
     1
290
     0
176
     1
290
     0
176
     1
290
     0
176
     1
290
     0
176
     1
290
     0
176
     1
 90
       50
176
     1
 40
0.0
176
     1
 40
1.0
176
     1
 90
        0
176
     1
 62
    18
420
        0
176
     1
 90
       50
176
     1
 90
        3
176
     1
 62
     5
420
      255
176
     1
290
     0
176
     1
 90
       50
176
     1
 90
       50
176
     1
 90
       50
176
     1
290
     0
176
     1
 90
       50
176
     1
 62
   256
176
     0
 40
1.0
176
     0
 90
        2
176
     1
  1
strokes_ogs.tif
176
     1
290
     0
176
     1
 40
1.0
176
     1
 40
1.0
176
     1
  0
VISUALSTYLE
  5
2D
102
{ACAD_REACTORS
330
29
102
}
330
29
100
AcDbVisualStyle
  2
GouraudWithEdges
 70
     3
177
     3
291
     1
 70
    58
 90
        2
176
     1
 90
        2
176
     1
 90
        1
176
     1
 90
        2
176
     1
 40
0.6
176
     1
 40
30.0
176
     1
 62
     7
420
 16777215
176
     1
 90
        1
176
     1
 90
        0
176
     1
 62
     7
176
     1
 62
   257
176
     1
 90
        1
176
     1
 90
        1
176
     1
 40
1.0
176
     1
 90
        0
176
     1
 62
   257
176
     1
 40
1.0
176
     1
 90
        1
176
     1
 90
        6
176
     1
 90
        2
176
     1
 62
     7
176
     1
 90
        5
176
     1
 90
        0
176
     1
 90
        0
176
     1
290
     0
176
     1
 90
       13
176
     1
 40
0.0
176
     1
 90
        0
176
     1
290
     0
176
     1
290
     1
176
     1
290
     1
176
     1
290
     0
176
     1
290
     0
176
     1
290
     0
176
     1
290
     0
176
     1
290
     0
176
     1
290
     0
176
     1
 90
       50
176
     1
 40
0.0
176
     1
 40
1.0
176
     1
 90
        0
176
     1
 62
    18
420
        0
176
     1
 90
       50
176
     1
 90
        3
176
     1
 62
     5
420
      255
176
     1
290
     0
176
     1
 90
       50
176
     1
 90
       50
176
     1
 90
       50
176
     1
290
     0
176
     1
 90
       50
176
     1
 62
   256
176
     0
 40
1.0
176
     0
 90
        2
176
     1
  1
strokes_ogs.tif
176
     1
290
     0
176
     1
 40
1.0
176
     1
 40
1.0
176
     1
  0
VISUALSTYLE
  5
31
102
{ACAD_REACTORS
330
29
102
}
330
29
100
AcDbVisualStyle
  2
Hidden
 70
     6
177
     3
291
     0
 70
    58
 90
        1
176
     1
 90
        2
176
     1
 90
        2
176
     1
 90
        0
176
     1
 40
0.6
176
     1
 40
30.0
176
     1
 62
     7
420
 16777215
176
     1
 90
        2
176
     1
 90
        2
176
     1
 62
     7
176
     1
 62
   257
176
     1
 90
        2
176
     1
 90
        1
176
     1
 40
40.0
176
     1
 90
        0
176
     1
 62
   257
176
     1
 40
1.0
176
     1
 90
        1
176
     1
 90
        6
176
     1
 90
        2
176
     1
 62
     7
176
     1
 90
        3
176
     1
 90
        0
176
     1
 90
        0
176
     1
290
     0
176
     1
 90
        1
176
     1
 40
0.0
176
     1
 90
        0
176
     1
290
     0
176
     1
290
     1
176
     1
290
     1
176
     1
290
     0
176
     1
290
     0
176
     1
290
     0
176
     1
290
     0
176
     1
290
     0
176
     1
290
     0
176
     1
 90
       50
176
     1
 40
0.0
176
     1
 40
1.0
176
     1
 90
        0
176
     1
 62
    18
420
        0
176
     1
 90
       50
176
     1
 90
        3
176
     1
 62
     5
420
      255
176
     1
290
     0
176
     1
 90
       50
176
     1
 90
       50
176
     1
 90
       50
176
     1
290
     0
176
     1
 90
       50
176
     1
 62
   256
176
     0
 40
1.0
176
     0
 90
        2
176
     1
  1
strokes_ogs.tif
176
     1
290
     0
176
     1
 40
1.0
176
     1
 40
1.0
176
     1
  0
VISUALSTYLE
  5
3F
102
{ACAD_REACTORS
330
29
102
}
330
29
100
AcDbVisualStyle
  2
JitterOff
 70
    20
177
     3
291
     1
 70
    58
 90
        2
176
     0
 90
        2
176
     0
 90
        0
176
     0
 90
        0
176
     0
 40
0.6
176
     0
 40
30.0
176
     0
 62
     7
420
 16777215
176
     0
 90
        1
176
     0
 90
        4
176
     0
 62
     7
176
     0
 62
   257
176
     0
 90
        1
176
     0
 90
        1
176
     0
 40
1.0
176
     0
 90
       10
176
     2
 62
     7
176
     0
 40
1.0
176
     0
 90
        1
176
     0
 90
        6
176
     0
 90
        2
176
     0
 62
     7
176
     0
 90
        5
176
     0
 90
        0
176
     0
 90
        0
176
     0
290
     0
176
     0
 90
        1
176
     0
 40
0.0
176
     0
 90
        0
176
     0
290
     0
176
     0
290
     1
176
     0
290
     1
176
     0
290
     0
176
     0
290
     0
176
     0
290
     0
176
     0
290
     0
176
     0
290
     0
176
     0
290
     0
176
     0
 90
       50
176
     0
 40
0.0
176
     0
 40
1.0
176
     0
 90
        0
176
     0
 62
    18
420
        0
176
     0
 90
       50
176
     0
 90
        3
176
     0
 62
     5
420
      255
176
     0
290
     0
176
     0
 90
       50
176
     0
 90
       50
176
     0
 90
       50
176
     0
290
     0
176
     0
 90
       50
176
     0
 62
   256
176
     0
 40
1.0
176
     0
 90
        2
176
     0
  1
strokes_ogs.tif
176
     0
290
     0
176
     0
 40
1.0
176
     0
 40
1.0
176
     0
  0
VISUALSTYLE
  5
37
102
{ACAD_REACTORS
330
29
102
}
330
29
100
AcDbVisualStyle
  2
Linepattern
 70
    14
177
     3
291
     1
 70
    58
 90
        2
176
     1
 90
        2
176
     1
 90
        0
176
     1
 90
        0
176
     1
 40
0.6
176
     1
 40
30.0
176
     1
 62
     7
420
 16777215
176
     1
 90
        1
176
     1
 90
        4
176
     1
 62
     7
176
     1
 62
   257
176
     1
 90
        7
176
     1
 90
        7
176
     1
 40
1.0
176
     1
 90
        8
176
     1
 62
     7
176
     1
 40
1.0
176
     1
 90
        1
176
     1
 90
        6
176
     1
 90
        2
176
     1
 62
     7
176
     1
 90
        5
176
     1
 90
        0
176
     1
 90
        0
176
     1
290
     0
176
     1
 90
        1
176
     1
 40
0.0
176
     1
 90
        0
176
     1
290
     0
176
     1
290
     1
176
     1
290
     1
176
     1
290
     0
176
     1
290
     0
176
     1
290
     0
176
     1
290
     0
176
     1
290
     0
176
     1
290
     0
176
     1
 90
       50
176
     1
 40
0.0
176
     1
 40
1.0
176
     1
 90
        0
176
     1
 62
    18
420
        0
176
     1
 90
       50
176
     1
 90
        3
176
     1
 62
     5
420
      255
176
     1
290
     0
176
     1
 90
       50
176
     1
 90
       50
176
     1
 90
       50
176
     1
290
     0
176
     1
 90
       50
176
     1
 62
   256
176
     0
 40
1.0
176
     0
 90
        2
176
     1
  1
strokes_ogs.tif
176
     1
290
     0
176
     1
 40
1.0
176
     1
 40
1.0
176
     1
  0
VISUALSTYLE
  5
40
102
{ACAD_REACTORS
330
29
102
}
330
29
100
AcDbVisualStyle
  2
OverhangOff
 70
    21
177
     3
291
     1
 70
    58
 90
        2
176
     0
 90
        2
176
     0
 90
        0
176
     0
 90
        0
176
     0
 40
0.6
176
     0
 40
30.0
176
     0
 62
     7
420
 16777215
176
     0
 90
        1
176
     0
 90
        4
176
     0
 62
     7
176
     0
 62
   257
176
     0
 90
        1
176
     0
 90
        1
176
     0
 40
1.0
176
     0
 90
        9
176
     2
 62
     7
176
     0
 40
1.0
176
     0
 90
        1
176
     0
 90
        6
176
     0
 90
        2
176
     0
 62
     7
176
     0
 90
        5
176
     0
 90
        0
176
     0
 90
        0
176
     0
290
     0
176
     0
 90
        1
176
     0
 40
0.0
176
     0
 90
        0
176
     0
290
     0
176
     0
290
     1
176
     0
290
     1
176
     0
290
     0
176
     0
290
     0
176
     0
290
     0
176
     0
290
     0
176
     0
290
     0
176
     0
290
     0
176
     0
 90
       50
176
     0
 40
0.0
176
     0
 40
1.0
176
     0
 90
        0
176
     0
 62
    18
420
        0
176
     0
 90
       50
176
     0
 90
        3
176
     0
 62
     5
420
      255
176
     0
290
     0
176
     0
 90
       50
176
     0
 90
       50
176
     0
 90
       50
176
     0
290
     0
176
     0
 90
       50
176
     0
 62
   256
176
     0
 40
1.0
176
     0
 90
        2
176
     0
  1
strokes_ogs.tif
176
     0
290
     0
176
     0
 40
1.0
176
     0
 40
1.0
176
     0
  0
VISUALSTYLE
  5
33
102
{ACAD_REACTORS
330
29
102
}
330
29
100
AcDbVisualStyle
  2
Realistic
 70
     8
177
     3
291
     0
 70
    58
 90
        2
176
     1
 90
        3
176
     1
 90
        0
176
     1
 90
        2
176
     1
 40
0.6
176
     1
 40
30.0
176
     1
 62
     7
420
 16777215
176
     1
 90
        0
176
     1
 90
        0
176
     1
 62
     7
176
     1
 62
   257
176
     1
 90
        1
176
     1
 90
        1
176
     1
 40
1.0
176
     1
 90
        8
176
     1
 62
   257
176
     1
 40
1.0
176
     1
 90
        1
176
     1
 90
        6
176
     1
 90
        2
176
     1
 62
     7
176
     1
 90
        3
176
     1
 90
        0
176
     1
 90
        0
176
     1
290
     0
176
     1
 90
       13
176
     1
 40
0.0
176
     1
 90
        0
176
     1
290
     0
176
     1
290
     1
176
     1
290
     1
176
     1
290
     0
176
     1
290
     0
176
     1
290
     0
176
     1
290
     0
176
     1
290
     0
176
     1
290
     0
176
     1
 90
       50
176
     1
 40
0.0
176
     1
 40
1.0
176
     1
 90
        0
176
     1
 62
    18
420
        0
176
     1
 90
       50
176
     1
 90
        3
176
     1
 62
     5
420
      255
176
     1
290
     0
176
     1
 90
       50
176
     1
 90
       50
176
     1
 90
       50
176
     1
290
     0
176
     1
 90
       50
176
     1
 62
   256
176
     0
 40
1.0
176
     0
 90
        2
176
     1
  1
strokes_ogs.tif
176
     1
290
     0
176
     1
 40
1.0
176
     1
 40
1.0
176
     1
  0
VISUALSTYLE
  5
3E
102
{ACAD_REACTORS
330
29
102
}
330
29
100
AcDbVisualStyle
  2
Shaded
 70
    27
177
     3
291
     0
 70
    58
 90
        2
176
     1
 90
        2
176
     1
 90
        1
176
     1
 90
        2
176
     1
 40
0.6
176
     1
 40
30.0
176
     1
 62
     7
420
 16777215
176
     1
 90
        0
176
     1
 90
        4
176
     1
 62
     7
176
     1
 62
   257
176
     1
 90
        1
176
     1
 90
        1
176
     1
 40
1.0
176
     1
 90
        8
176
     1
 62
   257
176
     1
 40
1.0
176
     1
 90
        1
176
     1
 90
        6
176
     1
 90
        2
176
     1
 62
     8
420
  7895160
176
     1
 90
        3
176
     1
 90
        0
176
     1
 90
        0
176
     1
290
     0
176
     1
 90
        5
176
     1
 40
0.0
176
     1
 90
        0
176
     1
290
     0
176
     1
290
     1
176
     1
290
     1
176
     1
290
     0
176
     1
290
     0
176
     1
290
     0
176
     1
290
     0
176
     1
290
     0
176
     1
290
     0
176
     1
 90
       50
176
     1
 40
0.0
176
     1
 40
1.0
176
     1
 90
        0
176
     1
 62
    18
420
        0
176
     1
 90
       50
176
     1
 90
        3
176
     1
 62
     5
420
      255
176
     1
290
     0
176
     1
 90
       50
176
     1
 90
       50
176
     1
 90
       50
176
     1
290
     0
176
     1
 90
       50
176
     1
 62
   256
176
     0
 40
1.0
176
     0
 90
        2
176
     1
  1
strokes_ogs.tif
176
     1
290
     0
176
     1
 40
1.0
176
     1
 40
1.0
176
     1
  0
VISUALSTYLE
  5
3D
102
{ACAD_REACTORS
330
29
102
}
330
29
100
AcDbVisualStyle
  2
Shaded with edges
 70
    26
177
     3
291
     0
 70
    58
 90
        2
176
     1
 90
        2
176
     1
 90
        1
176
     1
 90
        2
176
     1
 40
0.6
176
     1
 40
30.0
176
     1
 62
     7
420
 16777215
176
     1
 90
        1
176
     1
 90
        2
176
     1
 62
     7
176
     1
 62
   257
176
     1
 90
        2
176
     1
 90
        1
176
     1
 40
1.0
176
     1
 90
        8
176
     1
 62
   257
176
     1
 40
1.0
176
     1
 90
        1
176
     1
 90
        6
176
     1
 90
        2
176
     1
 62
     7
176
     1
 90
        3
176
     1
 90
        0
176
     1
 90
        0
176
     1
290
     0
176
     1
 90
        5
176
     1
 40
0.0
176
     1
 90
        0
176
     1
290
     0
176
     1
290
     1
176
     1
290
     1
176
     1
290
     0
176
     1
290
     0
176
     1
290
     0
176
     1
290
     0
176
     1
290
     0
176
     1
290
     0
176
     1
 90
       50
176
     1
 40
0.0
176
     1
 40
1.0
176
     1
 90
        0
176
     1
 62
    18
420
        0
176
     1
 90
       50
176
     1
 90
        3
176
     1
 62
     5
420
      255
176
     1
290
     0
176
     1
 90
       50
176
     1
 90
       50
176
     1
 90
       50
176
     1
290
     0
176
     1
 90
       50
176
     1
 62
   256
176
     0
 40
1.0
176
     0
 90
        2
176
     1
  1
strokes_ogs.tif
176
     1
290
     0
176
     1
 40
1.0
176
     1
 40
1.0
176
     1
  0
VISUALSTYLE
  5
3A
102
{ACAD_REACTORS
330
29
102
}
330
29
100
AcDbVisualStyle
  2
Shades of Gray
 70
    23
177
     3
291
     0
 70
    58
 90
        2
176
     1
 90
        2
176
     1
 90
        3
176
     1
 90
        0
176
     1
 40
0.6
176
     1
 40
30.0
176
     1
 62
     7
420
 16777215
176
     1
 90
        2
176
     1
 90
        2
176
     1
 62
     7
176
     1
 62
     7
176
     1
 90
        1
176
     1
 90
        1
176
     1
 40
40.0
176
     1
 90
        8
176
     1
 62
     7
176
     1
 40
1.0
176
     1
 90
        1
176
     1
 90
        6
176
     1
 90
        2
176
     1
 62
     7
176
     1
 90
        3
176
     1
 90
        0
176
     1
 90
        0
176
     1
290
     0
176
     1
 90
        1
176
     1
 40
0.0
176
     1
 90
        0
176
     1
290
     0
176
     1
290
     1
176
     1
290
     1
176
     1
290
     0
176
     1
290
     0
176
     1
290
     0
176
     1
290
     0
176
     1
290
     0
176
     1
290
     0
176
     1
 90
       50
176
     1
 40
0.0
176
     1
 40
1.0
176
     1
 90
        0
176
     1
 62
    18
420
        0
176
     1
 90
       50
176
     1
 90
        3
176
     1
 62
     5
420
      255
176
     1
290
     0
176
     1
 90
       50
176
     1
 90
       50
176
     1
 90
       50
176
     1
290
     0
176
     1
 90
       50
176
     1
 62
   256
176
     0
 40
1.0
176
     0
 90
        2
176
     1
  1
strokes_ogs.tif
176
     1
290
     0
176
     1
 40
1.0
176
     1
 40
1.0
176
     1
  0
VISUALSTYLE
  5
3B
102
{ACAD_REACTORS
330
29
102
}
330
29
100
AcDbVisualStyle
  2
Sketchy
 70
    24
177
     3
291
     0
 70
    58
 90
        1
176
     1
 90
        2
176
     1
 90
        2
176
     1
 90
        0
176
     1
 40
0.6
176
     1
 40
30.0
176
     1
 62
     7
420
 16777215
176
     1
 90
        2
176
     1
 90
        2
176
     1
 62
     7
176
     1
 62
     7
176
     1
 90
        1
176
     1
 90
        1
176
     1
 40
40.0
176
     1
 90
       11
176
     1
 62
     7
176
     1
 40
1.0
176
     1
 90
        1
176
     1
 90
        6
176
     1
 90
        2
176
     1
 62
     7
176
     1
 90
        6
176
     1
 90
        0
176
     1
 90
        0
176
     1
290
     0
176
     1
 90
        1
176
     1
 40
0.0
176
     1
 90
        0
176
     1
290
     0
176
     1
290
     1
176
     1
290
     1
176
     1
290
     0
176
     1
290
     0
176
     1
290
     0
176
     1
290
     0
176
     1
290
     0
176
     1
290
     0
176
     1
 90
       50
176
     1
 40
0.0
176
     1
 40
1.0
176
     1
 90
        0
176
     1
 62
    18
420
        0
176
     1
 90
       50
176
     1
 90
        3
176
     1
 62
     5
420
      255
176
     1
290
     0
176
     1
 90
       50
176
     1
 90
       50
176
     1
 90
       50
176
     1
290
     0
176
     1
 90
       50
176
     1
 62
   256
176
     0
 40
1.0
176
     0
 90
        2
176
     1
  1
strokes_ogs.tif
176
     1
290
     0
176
     1
 40
1.0
176
     1
 40
1.0
176
     1
  0
VISUALSTYLE
  5
36
102
{ACAD_REACTORS
330
29
102
}
330
29
100
AcDbVisualStyle
  2
Thicken
 70
    13
177
     3
291
     1
 70
    58
 90
        2
176
     1
 90
        2
176
     1
 90
        0
176
     1
 90
        0
176
     1
 40
0.6
176
     1
 40
30.0
176
     1
 62
     7
420
 16777215
176
     1
 90
        1
176
     1
 90
        4
176
     1
 62
     7
176
     1
 62
   257
176
     1
 90
        1
176
     1
 90
        1
176
     1
 40
1.0
176
     1
 90
       12
176
     1
 62
     7
176
     1
 40
1.0
176
     1
 90
        1
176
     1
 90
        6
176
     1
 90
        2
176
     1
 62
     7
176
     1
 90
        5
176
     1
 90
        0
176
     1
 90
        0
176
     1
290
     0
176
     1
 90
        1
176
     1
 40
0.0
176
     1
 90
        0
176
     1
290
     0
176
     1
290
     1
176
     1
290
     1
176
     1
290
     0
176
     1
290
     0
176
     1
290
     0
176
     1
290
     0
176
     1
290
     0
176
     1
290
     0
176
     1
 90
       50
176
     1
 40
0.0
176
     1
 40
1.0
176
     1
 90
        0
176
     1
 62
    18
420
        0
176
     1
 90
       50
176
     1
 90
        3
176
     1
 62
     5
420
      255
176
     1
290
     0
176
     1
 90
       50
176
     1
 90
       50
176
     1
 90
       50
176
     1
290
     0
176
     1
 90
       50
176
     1
 62
   256
176
     0
 40
1.0
176
     0
 90
        2
176
     1
  1
strokes_ogs.tif
176
     1
290
     0
176
     1
 40
1.0
176
     1
 40
1.0
176
     1
  0
VISUALSTYLE
  5
30
102
{ACAD_REACTORS
330
29
102
}
330
29
100
AcDbVisualStyle
  2
Wireframe
 70
     5
177
     3
291
     0
 70
    58
 90
        0
176
     1
 90
        2
176
     1
 90
        0
176
     1
 90
        0
176
     1
 40
0.6
176
     1
 40
30.0
176
     1
 62
     7
420
 16777215
176
     1
 90
        1
176
     1
 90
        4
176
     1
 62
     7
176
     1
 62
   257
176
     1
 90
        1
176
     1
 90
        1
176
     1
 40
1.0
176
     1
 90
        0
176
     1
 62
   257
176
     1
 40
1.0
176
     1
 90
        1
176
     1
 90
        6
176
     1
 90
        2
176
     1
 62
     7
176
     1
 90
        3
176
     1
 90
        0
176
     1
 90
        0
176
     1
290
     0
176
     1
 90
        1
176
     1
 40
0.0
176
     1
 90
        0
176
     1
290
     0
176
     1
290
     1
176
     1
290
     1
176
     1
290
     0
176
     1
290
     0
176
     1
290
     0
176
     1
290
     0
176
     1
290
     0
176
     1
290
     0
176
     1
 90
       50
176
     1
 40
0.0
176
     1
 40
1.0
176
     1
 90
        0
176
     1
 62
    18
420
        0
176
     1
 90
       50
176
     1
 90
        3
176
     1
 62
     5
420
      255
176
     1
290
     0
176
     1
 90
       50
176
     1
 90
       50
176
     1
 90
       50
176
     1
290
     0
176
     1
 90
       50
176
     1
 62
   256
176
     0
 40
1.0
176
     0
 90
        2
176
     1
  1
strokes_ogs.tif
176
     1
290
     0
176
     1
 40
1.0
176
     1
 40
1.0
176
     1
  0
VISUALSTYLE
  5
3C
102
{ACAD_REACTORS
330
29
102
}
330
29
100
AcDbVisualStyle
  2
X-Ray
 70
    25
177
     3
291
     0
 70
    58
 90
        2
176
     1
 90
        2
176
     1
 90
        1
176
     1
 90
        1
176
     1
 40
0.5
176
     1
 40
30.0
176
     1
 62
     7
420
 16777215
176
     1
 90
        1
176
     1
 90
        0
176
     1
 62
     7
176
     1
 62
   257
176
     1
 90
        1
176
     1
 90
        1
176
     1
 40
1.0
176
     1
 90
        8
176
     1
 62
     7
176
     1
 40
1.0
176
     1
 90
        1
176
     1
 90
        6
176
     1
 90
        2
176
     1
 62
     7
176
     1
 90
        3
176
     1
 90
        0
176
     1
 90
        0
176
     1
290
     0
176
     1
 90
       13
176
     1
 40
0.0
176
     1
 90
        0
176
     1
290
     0
176
     1
290
     1
176
     1
290
     1
176
     1
290
     0
176
     1
290
     0
176
     1
290
     0
176
     1
290
     0
176
     1
290
     0
176
     1
290
     0
176
     1
 90
       50
176
     1
 40
0.0
176
     1
 40
1.0
176
     1
 90
        0
176
     1
 62
    18
420
        0
176
     1
 90
       50
176
     1
 90
        3
176
     1
 62
     5
420
      255
176
     1
290
     0
176
     1
 90
       50
176
     1
 90
       50
176
     1
 90
       50
176
     1
290
     0
176
     1
 90
       50
176
     1
 62
   256
176
     0
 40
1.0
176
     0
 90
        2
176
     1
  1
strokes_ogs.tif
176
     1
290
     0
176
     1
 40
1.0
176
     1
 40
1.0
176
     1
  0
DICTIONARYVAR
  5
143
102
{ACAD_REACTORS
330
13E
102
}
330
13E
100
DictionaryVariables
280
     0
  1
1:1
  0
DICTIONARYVAR
  5
140
102
{ACAD_REACTORS
330
13E
102
}
330
13E
100
DictionaryVariables
280
     0
  1
STANDARD
  0
DICTIONARYVAR
  5
13F
102
{ACAD_REACTORS
330
13E
102
}
330
13E
100
DictionaryVariables
280
     0
  1
STANDARD
  0
DICTIONARYVAR
  5
141
102
{ACAD_REACTORS
330
13E
102
}
330
13E
100
DictionaryVariables
280
     0
  1
Imperial24
  0
DICTIONARYVAR
  5
142
102
{ACAD_REACTORS
330
13E
102
}
330
13E
100
DictionaryVariables
280
     0
  1
Imperial24
  0
DICTIONARY
  5
1A
330
19
100
AcDbDictionary
280
     1
281
     1
  3
BUMPTILE
360
1C
  3
DIFFUSETILE
360
1B
  3
OPACITYTILE
360
1F
  3
REFLECTIONTILE
360
1E
  3
REFRACTIONTILE
360
20
  3
SPECULARTILE
360
1D
  0
DICTIONARY
  5
12
330
11
100
AcDbDictionary
280
     1
281
     1
  3
BUMPTILE
360
14
  3
DIFFUSETILE
360
13
  3
OPACITYTILE
360
17
  3
REFLECTIONTILE
360
16
  3
REFRACTIONTILE
360
18
  3
SPECULARTILE
360
15
  0
DICTIONARY
  5
22
330
21
100
AcDbDictionary
280
     1
281
     1
  3
BUMPTILE
360
24
  3
DIFFUSETILE
360
23
  3
OPACITYTILE
360
27
  3
REFLECTIONTILE
360
26
  3
REFRACTIONTILE
360
28
  3
SPECULARTILE
360
25
  0
DICTIONARY
  5
144
330
65
100
AcDbDictionary
280
     1
281
     1
  3
ACAD_ROUNDTRIP_2008_TABLESTYLE_CELLSTYLEMAP
360
145
  0
XRECORD
  5
1C
102
{ACAD_REACTORS
330
1A
102
}
330
1A
100
AcDbXrecord
280
     1
270
     1
271
     1
  0
XRECORD
  5
1B
102
{ACAD_REACTORS
330
1A
102
}
330
1A
100
AcDbXrecord
280
     1
270
     1
271
     1
  0
XRECORD
  5
1F
102
{ACAD_REACTORS
330
1A
102
}
330
1A
100
AcDbXrecord
280
     1
270
     1
271
     1
  0
XRECORD
  5
1E
102
{ACAD_REACTORS
330
1A
102
}
330
1A
100
AcDbXrecord
280
     1
270
     1
271
     1
  0
XRECORD
  5
20
102
{ACAD_REACTORS
330
1A
102
}
330
1A
100
AcDbXrecord
280
     1
270
     1
271
     1
  0
XRECORD
  5
1D
102
{ACAD_REACTORS
330
1A
102
}
330
1A
100
AcDbXrecord
280
     1
270
     1
271
     1
  0
XRECORD
  5
14
102
{ACAD_REACTORS
330
12
102
}
330
12
100
AcDbXrecord
280
     1
270
     1
271
     1
  0
XRECORD
  5
13
102
{ACAD_REACTORS
330
12
102
}
330
12
100
AcDbXrecord
280
     1
270
     1
271
     1
  0
XRECORD
  5
17
102
{ACAD_REACTORS
330
12
102
}
330
12
100
AcDbXrecord
280
     1
270
     1
271
     1
  0
XRECORD
  5
16
102
{ACAD_REACTORS
330
12
102
}
330
12
100
AcDbXrecord
280
     1
270
     1
271
     1
  0
XRECORD
  5
18
102
{ACAD_REACTORS
330
12
102
}
330
12
100
AcDbXrecord
280
     1
270
     1
271
     1
  0
XRECORD
  5
15
102
{ACAD_REACTORS
330
12
102
}
330
12
100
AcDbXrecord
280
     1
270
     1
271
     1
  0
XRECORD
  5
24
102
{ACAD_REACTORS
330
22
102
}
330
22
100
AcDbXrecord
280
     1
270
     1
271
     1
  0
XRECORD
  5
23
102
{ACAD_REACTORS
330
22
102
}
330
22
100
AcDbXrecord
280
     1
270
     1
271
     1
  0
XRECORD
  5
27
102
{ACAD_REACTORS
330
22
102
}
330
22
100
AcDbXrecord
280
     1
270
     1
271
     1
  0
XRECORD
  5
26
102
{ACAD_REACTORS
330
22
102
}
330
22
100
AcDbXrecord
280
     1
270
     1
271
     1
  0
XRECORD
  5
28
102
{ACAD_REACTORS
330
22
102
}
330
22
100
AcDbXrecord
280
     1
270
     1
271
     1
  0
XRECORD
  5
25
102
{ACAD_REACTORS
330
22
102
}
330
22
100
AcDbXrecord
280
     1
270
     1
271
     1
  0
CELLSTYLEMAP
  5
145
102
{ACAD_REACTORS
330
144
102
}
330
144
100
AcDbCellStyleMap
 90
        3
300
CELLSTYLE
  1
TABLEFORMAT_BEGIN
 90
        5
170
     1
 91
        0
 92
    32768
 62
   257
 93
        1
300
CONTENTFORMAT
  1
CONTENTFORMAT_BEGIN
 90
        0
 91
        0
 92
      512
 93
        0
300

 40
0.0
140
1.0
 94
        5
 62
     0
340
55
144
0.25
309
CONTENTFORMAT_END
171
     0
 94
        0
309
TABLEFORMAT_END
  1
CELLSTYLE_BEGIN
 90
        1
 91
        1
300
_TITLE
309
CELLSTYLE_END
300
CELLSTYLE
  1
TABLEFORMAT_BEGIN
 90
        5
170
     1
 91
        0
 92
        0
 62
   257
 93
        1
300
CONTENTFORMAT
  1
CONTENTFORMAT_BEGIN
 90
        0
 91
        0
 92
      512
 93
        0
300

 40
0.0
140
1.0
 94
        5
 62
     0
340
55
144
0.18
309
CONTENTFORMAT_END
171
     0
 94
        0
309
TABLEFORMAT_END
  1
CELLSTYLE_BEGIN
 90
        2
 91
        1
300
_HEADER
309
CELLSTYLE_END
300
CELLSTYLE
  1
TABLEFORMAT_BEGIN
 90
        5
170
     1
 91
        0
 92
        0
 62
   257
 93
        1
300
CONTENTFORMAT
  1
CONTENTFORMAT_BEGIN
 90
        0
 91
        0
 92
      512
 93
        0
300

 40
0.0
140
1.0
 94
        2
 62
     0
340
55
144
0.18
309
CONTENTFORMAT_END
171
     0
 94
        0
309
TABLEFORMAT_END
  1
CELLSTYLE_BEGIN
 90
        3
 91
        2
300
_DATA
309
CELLSTYLE_END
  0
ENDSEC
  0
EOF
